<?xml version="1.0" encoding="utf-8"?>
<!-- Generator: Adobe Illustrator 18.0.0, SVG Export Plug-In . SVG Version: 6.00 Build 0)  -->
<!DOCTYPE svg PUBLIC "-//W3C//DTD SVG 1.1//EN" "http://www.w3.org/Graphics/SVG/1.1/DTD/svg11.dtd">
<svg version="1.1" id="Layer_1" xmlns="http://www.w3.org/2000/svg" xmlns:xlink="http://www.w3.org/1999/xlink" x="0px" y="0px"
	 viewBox="0 0 32.4 26.3" enable-background="new 0 0 32.4 26.3" xml:space="preserve">
<path fill="#55ACEE" d="M32.4,3.1c-1.2,0.5-2.5,0.9-3.8,1C29.9,3.3,31,2,31.5,0.5c-1.3,0.8-2.7,1.3-4.2,1.6C26,0.8,24.3,0,22.4,0
	c-3.7,0-6.6,3-6.6,6.6c0,0.5,0.1,1,0.2,1.5C10.4,7.9,5.5,5.2,2.3,1.2c-0.6,1-0.9,2.1-0.9,3.3c0,2.3,1.2,4.3,3,5.5
	c-1.1,0-2.1-0.3-3-0.8c0,0,0,0.1,0,0.1c0,3.2,2.3,5.9,5.3,6.5c-0.6,0.2-1.1,0.2-1.7,0.2c-0.4,0-0.8,0-1.2-0.1
	c0.8,2.6,3.3,4.6,6.2,4.6c-2.3,1.8-5.1,2.8-8.2,2.8c-0.5,0-1.1,0-1.6-0.1c2.9,1.9,6.4,3,10.2,3c12.2,0,18.9-10.1,18.9-18.9
	c0-0.3,0-0.6,0-0.9C30.4,5.6,31.5,4.4,32.4,3.1z"/>
</svg>
