<svg xmlns="http://www.w3.org/2000/svg" width="126" height="116" viewBox="0 0 126 116">
    <g fill="none" fill-rule="evenodd">
        <path fill="#FFDC23" d="M14.682 64.586c1.07.28 2.158.549 3.318.34-.936-1.284-1.914-2.461-2.703-3.75-.796-1.303-1.405-2.715-2.145-4.176-.412.216-.782.404-1.146.604-.322.176-.636.365-1.006.578.637 2.1 1.599 3.978 2.835 5.72.203.288.523.599.847.684"/>
        <path fill="#7BEDB8" d="M30.641 52.099c.173-1.794.36-3.596.359-5.395-.008-6.684-.575-13.322-1.86-19.897-.227-1.157-.666-2.202-1.144-3.254-.162-.356-.405-.542-.82-.549-1.696-.031-3.367.11-5.13.657 0 .434-.014.73.003 1.026.13 2.354.24 4.709.403 7.061.384 5.52.161 11.029-.282 16.535-.073.9-.123 1.802-.168 2.704-.03.626.27 1.057.876 1.262.434.146.87.345 1.319.383 1.832.154 3.668.284 5.506.364.712.03.86-.095.938-.897"/>
        <path fill="#FFDC23" d="M12 64c-.443-.89-.847-1.655-1.207-2.44-.386-.84-.732-1.698-1.1-2.56L7 59.298c.77 2.653 2.099 4.396 5 4.702"/>
        <path fill="#FFDC60" d="M90.962 29.086c-.753-.118-1.447-.263-2.149-.33-5.92-.567-11.852-.456-17.784-.354-.565.01-.957.197-1.287.659a8.57 8.57 0 0 1-2.585 2.387c-.432.257-.922.43-1.406.576-.149.045-.482-.086-.517-.203-.063-.202-.045-.546.09-.674.626-.604 1.313-1.142 1.954-1.733.188-.175.291-.444.46-.712-1.179-.32-1.976-.006-2.657.866-.421.538-.95 1.064-1.913 1.048l.736-1.88c-.752 0-1.365-.028-1.975.005-6.75.368-13.497.294-20.244-.067-3.37-.18-6.74-.366-9.924-1.67-.038-.016-.095.017-.262.054.06.744.076 1.512.189 2.267.459 3.052 1.064 6.083 1.127 9.189.04 2.058.07 4.129.313 6.168.39 3.269.068 6.495-.456 9.69-.357 2.18-1.039 4.374-2.637 5.993-3.056 3.094-6.353 5.787-10.95 6.275-2.828.3-5.502.103-8.026-1.296-.196-.108-.428-.153-.898-.315.449.884.758 1.52 1.09 2.142 1.324 2.479 3.303 4.157 5.997 4.956.49.146.979.301 1.456.484.346.132.709.375.614.777-.142.602.247.842.585 1.143 3.44 3.067 7.386 5.105 11.876 6.142 3.401.787 6.713.62 9.946-.64 4.582-1.785 7.72-4.938 8.84-9.883.214-.95.323-1.924.497-2.884.06-.328.166-.646.311-1.192.592.641.641 1.162.63 1.67-.079 3.393-.949 6.52-3.211 9.125-3.824 4.4-8.743 6.18-14.419 5.664-6.568-.596-12.162-3.394-16.675-8.269-.578-.624-1.17-1.064-1.968-1.339-2.59-.89-4.553-2.586-5.736-5.056-1.176-2.453-2.255-4.954-3.544-7.352-.049-.091-.087-.187-.13-.28-.435-.975-.435-.975-1.826-.933.206.81.349 1.617.614 2.38 1.105 3.175 2.597 6.156 4.562 8.886.208.29.404.592.557.913.044.092-.043.31-.137.387-.098.08-.341.132-.41.07-.412-.373-.867-.732-1.172-1.188-2.306-3.44-4.183-7.092-4.923-11.216-.18-1-.684-1.22-1.467-1.348-.056.154-.117.248-.118.342-.001.204.006.414.048.613.522 2.472 1.08 4.942 2.18 7.225 1.661 3.44 3.784 6.597 6.109 9.614.312.405.689.763 1.066 1.11 2.993 2.753 6.199 5.215 9.745 7.212 2.9 1.633 5.815 3.237 8.679 4.93 2.266 1.34 4.688 2.297 7.143 3.174a44.014 44.014 0 0 0 12.889 2.554c3.54.162 7.05-.247 10.574-.247.102 0 .204-.022.305-.032 2.977-.256 5.78-1.287 8.659-1.978.391-.095.78-.265 1.13-.473 1.713-1.024 3.472-1.986 5.101-3.134 2.065-1.457 3.85-3.227 5.112-5.473.402-.716.873-1.394 1.278-2.11 2.936-5.186 5.193-10.63 5.95-16.6.545-4.29.995-8.592 1.437-12.893.087-.836.227-1.708-.028-2.68l-1.517.594c.117.686.238 1.286.312 1.89.042.332-.107.634-.458.695-.362.062-.563-.203-.65-.52-.147-.533-.263-1.074-.402-1.655-.635-.016-1.18-.152-1.662.176-.08.614-.111 1.182-.25 1.723-.043.168-.37.33-.586.358-.122.016-.31-.225-.412-.387a.636.636 0 0 1-.072-.446c.346-1.343-.445-1.845-1.532-2.135-.141-.038-.285-.069-.452-.109-.317.418-.595.855-.951 1.213-.123.124-.462.112-.658.04-.094-.034-.174-.397-.105-.536.24-.492.546-.953.817-1.41-.142-.19-.225-.318-.326-.432-.135-.154-.294-.289-.423-.448-.225-.279-.463-.554-.648-.86-.314-.523-.292-.964.017-1.28.307-.312.751-.311 1.254.019.17.112.306.28.48.382.795.464 1.574.963 2.403 1.356 1.415.67 2.84.614 4.317.064 1.268-.472 1.89-1.29 1.988-2.621.148-2.003.366-4 .515-6.003.226-3.03.42-6.059.62-9.089.016-.244-.019-.49-.034-.835"/>
        <path fill="#0BCD97" d="M102.173 28.162c-.33-1.085-1.202-1.847-2.805-2.162.15.47.23.811.365 1.137.7 1.672.949 3.41 1.05 5.157.29 5-.27 9.97-.882 14.935-.188 1.522-.567 3.029-.901 4.771 1.282-.765 1.639-1.705 2.005-2.625 1.115-2.803 1.709-5.702 1.884-8.628.181-2.976.109-5.966.006-8.946-.041-1.22-.36-2.449-.722-3.639M25.347 20.06c.026-.19.041-.385.034-.578-.08-2.355.433-4.609 1.047-6.85.754-2.752 2.213-4.984 4.414-6.692.391-.305.772-.627 1.158-.94-1.46.151-2.701.75-3.92 1.438-2.574 1.452-4.106 3.727-4.779 6.64-.423 1.832-.74 3.691-1.065 5.547-.13.743-.153 1.508-.236 2.375 1.182-.225 2.214-.42 3.204-.61.07-.156.131-.24.143-.33"/>
        <path fill="#7BEDB8" d="M94.036 23.02c-1.088-.098-1.46.143-1.624 1.255a40.162 40.162 0 0 0-.318 3.205c-.086 1.279-.076 2.564-.182 3.84-.347 4.238-.766 8.47-1.082 12.71-.257 3.477-.402 6.961-.608 10.441-.045.76-.137 1.519-.222 2.44 2.513.394 4.276-.54 5.512-2.499.532-.842.892-1.834 1.165-2.807.779-2.773.98-5.65 1.122-8.513.153-3.07.066-6.154.188-9.227.125-3.148-.642-6.087-1.645-9.005-.402-1.166-1.15-1.736-2.306-1.84"/>
        <path fill="#0BCD97" d="M20.59 26.734c-.035-.505-.255-.735-.632-.734h-.834c-.142 2.272-.048 4.352.085 6.422.232 3.602.201 7.195.008 10.797-.118 2.187-.165 4.38-.216 6.572-.008.334.064.868.224.97.332.21.757.28 1.125.217.13-.022.27-.593.293-.926.11-1.665.214-3.332.266-5.001.182-5.8.086-11.594-.248-17.381-.018-.313-.049-.624-.07-.936"/>
        <path fill="#0BCD97" d="M18.428 45c.872-5.31.648-10.652-.013-16-.58 2.941-.53 13.632.013 16M90.915 21.857c.158-1.705.103-3.407-.228-5.087-.429-2.182-1.734-3.782-3.421-5.106-.322-.253-.63-.573-1.266-.664.327.612.548 1.044.787 1.466.715 1.267 1.289 2.594 1.624 4.018.52 2.21.69 4.447.446 6.712-.09.837-.216 1.677-.03 2.637l1.775.167c0-.584-.033-1.024.007-1.457.083-.898.223-1.79.306-2.686"/>
        <path fill="#7BEDB8" d="M28.203 12.578c-.369 1.34-.762 2.682-.987 4.05-.19 1.162-.169 2.361-.215 3.544-.015.403.172.675.63.71.433.034.695-.134.78-.554.161-.808.282-1.625.467-2.427.31-1.355.487-2.772 1.019-4.036 1.687-4.009 4.365-7.074 8.623-8.468.243-.08.478-.185.72-.267 4.34-1.478 8.801-2.424 13.366-2.684 7.7-.438 15.354.121 22.936 1.558 3.073.582 6.094 1.38 8.964 2.67 2.264 1.018 4.342 2.316 6.081 4.121 1.633 1.694 2.58 3.694 2.704 6.071.035.669.125 1.335.15 2.004.027.71.005 1.421.005 2.13 1.331.005 1.365-.006 1.472-.996.305-2.81-.234-5.43-1.742-7.842-1.29-2.066-3.079-3.572-5.146-4.775a40.72 40.72 0 0 0-8.282-3.66c-4.176-1.312-8.465-2.056-12.808-2.41-2.905-.236-5.84-.408-8.746-.264-4.446.219-8.882.683-13.312 1.145-2.964.31-5.835 1.086-8.615 2.182-2.091.824-3.86 2.13-5.418 3.723-1.239 1.266-2.17 2.748-2.646 4.475"/>
        <path fill="#FFF49C" d="M68.971 67.664c-3.085.345-8.524.28-12.549.214-2.857-.047-5.001-.093-5.087.007-.134 3.27-1.007 6.284-3.15 8.81-3.647 4.297-8.307 6.113-13.673 5.754-2.589 1.439-3.799 4.06-4.512 7.026 2.085 1.198 4.294 2.09 6.531 2.908a42.493 42.493 0 0 0 12.706 2.579c3.49.163 6.95-.25 10.425-.25.1 0 .2-.022.3-.032 2.935-.259 5.698-1.3 8.536-1.997.386-.096.77-.268 1.113-.478 1.69-1.034 3.424-2.004 5.03-3.164 2.035-1.47 3.795-3.258 5.039-5.525.396-.723.86-1.408 1.26-2.131 2.893-5.236 5.12-10.733 5.866-16.76.068-.541.129-1.083.194-1.625-6.591 3.191-12.593 4.055-18.029 4.664"/>
        <path fill="#FF92B6" d="M62.25 55.378c-1.656-2.365-1.802-4.636.387-6.796 1.538-1.517 4.136-2.69 4.61.144.452 2.708.326 5.054 2.229 7.333.782.935 5.167 3.064 2.86 3.757-2.81.844-7.509-1.398-9.403-3.069l-.683-1.369"/>
        <path fill="#F6CCCC" d="M47.697 96a24.838 24.838 0 0 1-1.687-.128l.013-.372c.003-.098-.032-.197-.068-.406-.163-.07-.374-.203-.603-.256-6.638-1.534-13.002-3.816-19.064-6.91-1.995-1.017-3.924-2.162-5.894-3.233a45.5 45.5 0 0 1-8.248-5.766 37.812 37.812 0 0 1-8.207-10.137A32.002 32.002 0 0 1 .288 58.374c-.215-1.284-.45-2.582-.135-4.066.375.215.688.334.926.54 1.824 1.573 3.896 2.233 6.144 2.233.562 0 1.134-.042 1.716-.12 1.437-.192 2.527-1.028 3.533-1.987.398-.379.759-.798 1.128-1.19.507.153.462.582.552.88.642 2.097 1.594 4.056 2.631 5.98a10.353 10.353 0 0 0 2.594 3.162c.242.197.483.321.775.32.108 0 .222-.016.346-.052 4.497-1.313 7.958-3.82 9.74-8.28.035-.09.056-.187.082-.31 5.168-7.334-.803-20.602.829-29.52.077-.307.099-.633.104-.964.325.36.908.464 2.02.571 2.877.277 5.753.577 8.632.82-.1.668-.183 1.338-.244 2.008l-.063-.004c-3.362-.177-6.723-.36-9.9-1.643a.055.055 0 0 0-.022-.004c-.039 0-.102.027-.24.057.06.733.076 1.489.19 2.231.457 3.004 1.061 5.987 1.123 9.044.041 2.025.07 4.063.313 6.07.39 3.217.068 6.392-.455 9.536-.356 2.146-1.036 4.305-2.63 5.898-3.05 3.046-6.338 5.696-10.923 6.176-.722.076-1.433.12-2.134.12-2.042 0-4-.37-5.874-1.395-.196-.107-.427-.15-.896-.31.448.87.757 1.495 1.088 2.109 1.32 2.438 3.294 4.09 5.983 4.877.488.144.975.296 1.451.476.346.13.708.369.614.764-.142.593.245.829.583 1.125.737.649 1.497 1.25 2.282 1.806.042.728.175 1.41.386 2.05a26.94 26.94 0 0 1-4.868-4.118c-.577-.615-1.166-1.047-1.963-1.318-2.583-.875-4.542-2.545-5.723-4.976-1.172-2.415-2.25-4.876-3.535-7.236-.048-.089-.087-.183-.129-.275-.36-.796-.422-.931-1.223-.931-.165 0-.361.006-.599.012.205.798.348 1.592.612 2.343 1.103 3.125 2.592 6.058 4.551 8.746.208.284.403.582.556.898.044.09-.043.304-.137.38a.565.565 0 0 1-.306.097c-.044 0-.081-.008-.102-.027-.412-.367-.865-.72-1.17-1.17-2.3-3.385-4.173-6.98-4.911-11.038-.18-.983-.682-1.2-1.463-1.327-.056.152-.117.245-.118.337-.002.201.006.408.047.604.522 2.432 1.078 4.863 2.176 7.11 1.657 3.386 3.774 6.492 6.094 9.462.31.398.687.75 1.063 1.093 2.986 2.709 6.184 5.131 9.722 7.097 2.893 1.607 5.801 3.185 8.658 4.852 2.193 1.28 4.532 2.204 6.907 3.046l.017.006.201.071a44.433 44.433 0 0 0 12.858 2.514c.584.026 1.167.037 1.75.037 2.94 0 5.864-.28 8.8-.28.101 0 .202-.022.304-.032 2.97-.252 5.766-1.266 8.638-1.946.39-.094.778-.261 1.126-.466 1.71-1.008 3.465-1.954 5.09-3.084 2.06-1.434 3.84-3.176 5.1-5.386.293-.516.623-1.012.938-1.517A37.533 37.533 0 0 0 85 78.587c-.183.34-.37.682-.562 1.02-1.456 2.555-2.918 5.113-4.843 7.375-1.003 1.178-2.17 2.124-3.473 2.947-3.267 2.058-6.776 3.494-10.57 4.255-.79.158-1.557.422-2.294.625-.01.073-.017.172-.023.283l-.26-.001c-2.403 0-4.826.254-7.257.5-.357.014-.715.03-1.072.036-.24.004-.478.006-.717.006-1.997 0-4.005-.122-6.094-.182-.034.134-.123.339-.138.549M13.063 56.946c-.39.206-.74.384-1.083.574-.304.168-.601.347-.951.55.602 1.995 1.511 3.78 2.68 5.435.192.274.494.569.8.65.76.2 1.528.393 2.329.393.265 0 .534-.022.808-.071-.885-1.22-1.81-2.338-2.555-3.563-.753-1.237-1.329-2.58-2.028-3.968m-3.213 1.48l-2.619.29c.75 2.575 2.041 4.267 4.862 4.564-.43-.864-.823-1.606-1.174-2.368-.375-.815-.711-1.649-1.07-2.485"/>
        <path fill="#F6B01C" d="M17.145 65c-.847 0-1.66-.204-2.463-.414-.324-.085-.644-.396-.847-.684-1.236-1.742-2.198-3.62-2.835-5.72.37-.213.684-.402 1.006-.578.364-.2.734-.388 1.146-.604.74 1.461 1.349 2.873 2.145 4.175.79 1.29 1.767 2.467 2.703 3.75-.29.052-.574.075-.855.075M12 64c-2.901-.306-4.23-2.049-5-4.702L9.693 59c.368.862.714 1.72 1.1 2.56.36.785.764 1.55 1.207 2.44"/>
        <path fill="#F6B941" d="M36.539 90.994c-2.366-.839-4.697-1.758-6.882-3.032-2.846-1.659-5.744-3.23-8.625-4.83-3.525-1.956-6.712-4.367-9.686-7.064-.375-.34-.75-.69-1.06-1.087-2.311-2.956-4.42-6.048-6.07-9.418-1.095-2.236-1.65-4.656-2.169-7.077a2.825 2.825 0 0 1-.047-.6c0-.092.062-.185.118-.336.777.126 1.278.342 1.457 1.321.735 4.04 2.601 7.617 4.894 10.987.303.446.755.798 1.165 1.164.02.018.058.026.102.026.1 0 .237-.04.305-.095.093-.077.18-.29.136-.38a5.913 5.913 0 0 0-.554-.893c-1.952-2.675-3.435-5.595-4.534-8.705-.264-.748-.406-1.538-.61-2.332.237-.007.432-.012.597-.012.798 0 .86.135 1.218.926.042.092.08.186.129.275 1.28 2.349 2.354 4.798 3.522 7.201 1.177 2.42 3.128 4.082 5.702 4.953.793.27 1.38.7 1.956 1.312a26.835 26.835 0 0 0 4.85 4.099c1.204 3.65 4.968 5.914 9.035 7.318-.587 1.067-1 2.269-1.316 3.534 2.034 1.125 4.186 1.971 6.367 2.745M22.067 75.356a27.416 27.416 0 0 1-2.273-1.797c-.336-.295-.722-.53-.581-1.12.094-.393-.267-.632-.611-.76-.474-.18-.96-.331-1.446-.474-2.679-.783-4.645-2.427-5.961-4.855-.33-.61-.637-1.232-1.084-2.098.468.159.698.202.892.308 1.868 1.02 3.818 1.388 5.853 1.388.699 0 1.407-.044 2.126-.119 4.568-.478 7.844-3.115 10.882-6.147 1.589-1.585 2.266-3.734 2.621-5.87.521-3.13.842-6.29.454-9.491-.242-1.998-.271-4.026-.312-6.043-.062-3.042-.664-6.011-1.12-9.001-.113-.739-.128-1.491-.188-2.22.137-.03.2-.057.239-.057.008 0 .015.001.022.004 3.165 1.277 6.513 1.459 9.863 1.635l.062.004c-.629 6.796.832 13.592 6.474 18.844.32.317-3.197 0-4.157 1.904-3.197 6.349-4.796 13.65-11.19 17.458-3.838 2.54-10.233 2.54-10.553 7.3a9.026 9.026 0 0 0-.012 1.207"/>
        <path fill="#F6C37D" d="M51.13 95c-.581 0-1.162-.011-1.744-.038a43.228 43.228 0 0 1-13.004-2.643l-.018-.007c-2.18-.795-4.33-1.664-6.364-2.82.316-1.3.73-2.535 1.315-3.631 2.706.96 5.545 1.528 7.855 1.865 4.613.599 9.38.995 14.134.995 9.774 0 19.491-1.677 27.696-6.721-.313.517-.642 1.024-.935 1.551-1.253 2.26-3.027 4.042-5.078 5.508-1.618 1.156-3.366 2.124-5.068 3.155-.347.21-.734.38-1.122.476-2.86.696-5.645 1.733-8.602 1.99-.101.01-.202.033-.303.033-2.923 0-5.835.287-8.763.287"/>
        <path fill="#F6CCCC" d="M82.744 50a.595.595 0 0 1-.237-.067l-1.22-.855c-1.203-.62-2.361-1.414-3.287-2.626.026-.051.055-.1.088-.146.143-.203.319-.306.516-.306.204 0 .431.109.673.33.161.148.29.37.455.505.753.611 1.492 1.27 2.278 1.789.32.21.64.367.96.473.026.256.035.525.027.812a.462.462 0 0 1-.253.091"/>
        <path fill="#F6B941" d="M84 48a5.302 5.302 0 0 1-1.03-.355c-.842-.389-1.634-.883-2.441-1.342-.177-.1-.315-.267-.488-.379-.259-.165-.503-.247-.721-.247-.212 0-.4.077-.553.23a.923.923 0 0 0-.095.109 6.359 6.359 0 0 1-.847-.945c-.616-.844-1.508-2.623.02-3.015.147-.038.296-.056.445-.056 1.904 0 3.888 2.91 4.829 4.14.46.604.783 1.17.881 1.86"/>
        <path fill="#FFF" d="M97.631 31.539c-.178-1.967-.33-4.777-1.958-6.305-.33-.312-.987-.312-1.318 0-.571.536-.315 1.267-.174 1.913.315 1.444.515 2.924.596 4.392.148 2.717-.059 5.434.034 8.15-.037 1.752 3.106 1.744 3.166 0 .091-2.706-.1-5.453-.346-8.15M29.962 40.535c-.173-2.965-.831-5.907-1.555-8.772-.34-1.34-.792-2.65-1.242-3.954-.263-.76-.498-1.921-1.517-1.8-.187.022-.412.092-.495.291-.276.658-.124 1.39.033 2.07.31 1.347.737 2.66 1.038 4.01.62 2.78.983 5.551 1.23 8.389.165 1.908 2.897 1.416 2.508-.234"/>
        <path fill="#000" d="M102.56 40.833c-.144 2.915-.63 5.802-1.539 8.593-.3.916-.591 1.853-1.638 2.614.273-1.735.583-3.235.736-4.752.5-4.943.957-9.893.721-14.872-.083-1.741-.286-3.471-.858-5.136-.111-.325-.176-.664-.298-1.133 1.309.314 2.02 1.073 2.29 2.153.295 1.186.556 2.41.59 3.625.084 2.968.143 5.945-.004 8.908zm-3.493-6.879c-.126 3.077-.036 6.163-.193 9.237-.147 2.866-.354 5.745-1.156 8.522-.282.974-.653 1.967-1.2 2.81-1.274 1.96-3.09 2.896-5.68 2.502.088-.923.183-1.682.23-2.443.212-3.484.36-6.972.626-10.452.325-4.245.757-8.482 1.115-12.724.108-1.277.099-2.564.187-3.844a39.1 39.1 0 0 1 .327-3.208c.17-1.114.553-1.355 1.673-1.257 1.193.104 1.962.676 2.376 1.842 1.034 2.921 1.824 5.864 1.695 9.015zm-8.693 4.861c-.15 1.996-.367 3.986-.515 5.981-.1 1.327-.72 2.142-1.988 2.612-1.478.548-2.902.604-4.316-.064-.83-.392-1.608-.889-2.403-1.35-.174-.102-.31-.27-.48-.382-.503-.329-.947-.33-1.254-.018-.309.314-.331.753-.016 1.275.184.305.422.58.648.857.128.158.287.292.423.446.1.113.183.241.325.431-.27.455-.577.914-.817 1.404-.068.138.012.5.105.535.196.07.535.083.658-.04.356-.357.634-.793.951-1.209.167.04.31.07.452.108 1.087.29 1.878.789 1.532 2.128a.632.632 0 0 0 .071.444c.102.162.29.401.413.386.215-.028.543-.19.585-.357.14-.539.17-1.105.25-1.717.482-.327 1.027-.19 1.662-.175.14.579.255 1.118.402 1.649.087.316.287.58.65.518.35-.061.5-.362.458-.693-.074-.602-.195-1.2-.313-1.882.508-.197.962-.375 1.517-.592.255.968.115 1.837.029 2.67-.443 4.286-.892 8.571-1.437 12.845-.757 5.947-3.014 11.372-5.949 16.539-.405.714-.876 1.39-1.278 2.103-1.261 2.237-3.047 4-5.11 5.452-1.63 1.144-3.388 2.102-5.102 3.123a4.169 4.169 0 0 1-1.129.47c-2.878.69-5.68 1.717-8.657 1.971-.102.01-.203.032-.305.032-3.524 0-7.032.408-10.573.247a44.132 44.132 0 0 1-12.886-2.545c-2.455-.874-4.876-1.826-7.142-3.162-2.863-1.687-5.778-3.285-8.677-4.912-3.546-1.99-6.751-4.442-9.743-7.185-.377-.347-.754-.703-1.066-1.106-2.325-3.007-4.447-6.151-6.107-9.58C3.14 63.8 2.584 61.338 2.06 58.876a2.924 2.924 0 0 1-.047-.61c0-.095.062-.189.118-.342.782.127 1.286.348 1.466 1.343.74 4.109 2.617 7.748 4.922 11.175.305.454.76.812 1.173 1.184.068.061.31.01.409-.07.094-.078.18-.294.137-.386a6.026 6.026 0 0 0-.557-.91c-1.964-2.72-3.456-5.689-4.561-8.853-.266-.76-.408-1.564-.614-2.371 1.391-.042 1.391-.042 1.826.93.042.092.08.188.13.278 1.288 2.39 2.368 4.881 3.543 7.325 1.183 2.461 3.146 4.152 5.735 5.038.798.274 1.39.712 1.968 1.334 4.512 4.856 10.104 7.644 16.672 8.239 5.674.514 10.592-1.26 14.415-5.643 2.263-2.595 3.132-5.712 3.21-9.093.012-.506-.037-1.024-.629-1.663-.145.544-.251.861-.31 1.188-.174.956-.283 1.927-.498 2.873-1.119 4.926-4.256 8.068-8.838 9.847-3.232 1.255-6.544 1.421-9.944.638-4.49-1.034-8.435-3.065-11.874-6.12-.338-.3-.726-.54-.584-1.14.094-.4-.268-.642-.615-.773a20.176 20.176 0 0 0-1.455-.482c-2.694-.796-4.672-2.469-5.996-4.938-.332-.62-.641-1.253-1.09-2.134.47.162.702.206.897.314 2.524 1.393 5.197 1.59 8.026 1.29 4.595-.485 7.891-3.168 10.947-6.251 1.598-1.613 2.28-3.8 2.637-5.972.524-3.182.846-6.396.456-9.653-.243-2.032-.272-4.095-.313-6.146-.063-3.094-.668-6.114-1.127-9.155-.113-.752-.13-1.517-.19-2.258.168-.037.225-.07.263-.054 3.184 1.299 6.552 1.484 9.922 1.663 6.746.36 13.492.434 20.24.068.61-.033 1.223-.005 1.975-.005l-.735 1.873c.962.016 1.49-.508 1.912-1.045.68-.868 1.478-1.182 2.656-.863-.168.267-.271.536-.46.71-.64.589-1.327 1.125-1.954 1.727-.134.127-.152.47-.09.67.037.117.37.248.518.204.483-.146.974-.318 1.406-.575a8.557 8.557 0 0 0 2.584-2.378c.33-.46.722-.647 1.287-.656 5.931-.102 11.862-.212 17.781.353.701.066 1.396.211 2.148.328.015.343.05.59.034.832-.2 3.02-.394 6.038-.62 9.055zM9.872 58.92c.359.847.695 1.691 1.072 2.517.35.77.744 1.523 1.176 2.396-2.827-.3-4.122-2.013-4.873-4.62l2.625-.293zm2.135-.917c.344-.192.695-.373 1.085-.581.701 1.406 1.278 2.764 2.033 4.016.747 1.24 1.674 2.373 2.56 3.608-1.099.2-2.13-.058-3.143-.327-.307-.082-.61-.38-.803-.658-1.17-1.675-2.082-3.482-2.686-5.502.351-.205.649-.387.954-.556zm18.22-4.056a131.533 131.533 0 0 1-5.494-.372c-.447-.039-.883-.242-1.316-.391-.604-.209-.905-.65-.874-1.29.045-.921.095-1.843.168-2.763.442-5.627.665-11.257.281-16.898-.163-2.404-.273-4.811-.402-7.216-.017-.302-.002-.605-.002-1.048 1.758-.56 3.425-.704 5.119-.672.413.007.656.197.817.56.478 1.076.915 2.144 1.141 3.326 1.283 6.72 1.848 13.504 1.857 20.335.002 1.837-.186 3.68-.358 5.513-.077.82-.226.948-.937.916zm-7.843-34.51c.358-1.965.707-3.935 1.173-5.875.74-3.085 2.426-5.494 5.26-7.032 1.34-.727 2.707-1.362 4.313-1.522-.425.332-.844.672-1.275.995-2.422 1.809-4.028 4.172-4.857 7.087-.676 2.373-1.241 4.76-1.152 7.254.007.204-.01.41-.038.613-.013.095-.08.183-.157.35l-3.526.645c.09-.918.116-1.728.26-2.516zm49.31-.426c-.05-.293-.163-.628-.364-.826a1.115 1.115 0 0 0-.794-.283c-.408.035-.6.395-.571.784.028.407.136.808.224 1.207.384 1.748.262 3.47-.283 5.163-.4 1.24-.424 1.25-1.712 1.311-.296.014-.595.002-1.013.002.146-.761.316-1.39.373-2.027.05-.55.029-1.122-.065-1.666-.093-.539-.47-.794-.839-.67-.416.136-.53.476-.432.861.257 1.01-.082 1.921-.4 2.846-.208.6-.566.875-1.239.906-5.98.272-11.964.526-17.943.201-4.438-.24-8.863-.73-13.289-1.16-2.192-.215-2.338-.41-2.483-2.602-.043-.663-.066-1.345.042-1.996.294-1.77.463-3.597 1.045-5.275 1.005-2.899 2.56-5.469 5.41-7.006 2.413-1.303 5.007-2.048 7.649-2.676 4.2-.999 8.455-1.406 12.773-1.377 5.946.04 11.84.528 17.688 1.613 2.13.396 4.162 1.072 6.115 1.968 1.857.85 3.28 2.246 4.41 3.946 1.515 2.28 2.267 4.825 2.45 7.523.113 1.686.026 3.386.014 5.08-.002.242-.092.485-.162.829-5.606-.377-11.143.383-16.72.385.16-1.682.36-3.151.415-4.627.03-.807-.162-1.627-.299-2.434zm20.074 7.039c-.64-.06-1.221-.115-1.835-.171-.192-.983-.062-1.842.031-2.698.253-2.318.076-4.606-.46-6.868-.347-1.457-.94-2.814-1.68-4.111-.246-.432-.475-.874-.813-1.5.658.093.976.42 1.309.679 1.743 1.354 3.093 2.992 3.536 5.225.342 1.719.399 3.46.236 5.205-.086.917-.231 1.83-.317 2.748-.042.443-.007.893-.007 1.49zM36.69 4.864c2.775-1.09 5.64-1.863 8.599-2.17 4.422-.46 8.85-.922 13.287-1.14 2.9-.144 5.83.028 8.73.263 4.335.352 8.616 1.092 12.783 2.398a40.708 40.708 0 0 1 8.266 3.641c2.064 1.198 3.85 2.696 5.137 4.75 1.505 2.402 2.043 5.007 1.74 7.804-.108.985-.142.996-1.47.99 0-.704.021-1.412-.005-2.118-.026-.666-.116-1.329-.15-1.994-.124-2.365-1.07-4.355-2.699-6.04-1.736-1.797-3.81-3.089-6.07-4.102-2.864-1.283-5.88-2.077-8.947-2.656C68.325 3.06 60.685 2.504 53 2.94c-4.555.259-9.009 1.2-13.34 2.67-.242.082-.477.187-.72.266-4.249 1.387-6.922 4.437-8.606 8.425-.53 1.258-.708 2.668-1.017 4.016-.184.799-.305 1.612-.467 2.416-.083.417-.346.584-.777.551-.458-.035-.644-.306-.63-.707.047-1.177.025-2.37.216-3.526.224-1.36.616-2.698.985-4.03.475-1.718 1.404-3.192 2.64-4.452 1.556-1.586 3.321-2.885 5.408-3.705zM21.273 44.153c-.067 1.64-.2 3.278-.342 4.914-.028.327-.207.888-.373.91-.472.061-1.016-.008-1.44-.213-.206-.1-.298-.625-.288-.953.065-2.154.127-4.31.277-6.459.248-3.538.287-7.07-.01-10.609-.17-2.034-.29-4.078-.109-6.31h1.067c.483 0 .765.224.81.721.027.306.066.612.09.92.427 5.687.55 11.38.318 17.079zm-3.744.643c-.41-2.38-.446-13.13-.01-16.088.497 5.378.666 10.75.01 16.088zm85.942-15.811c-.294-2.186-1.501-3.673-3.733-4.154-.384-.083-.661-.22-.788-.613-.424-1.3-1.349-2.14-2.559-2.645.092-.61.15-1.115.244-1.614.566-2.992-.206-5.694-1.772-8.218-1.185-1.911-2.792-3.398-4.68-4.587-2.873-1.81-5.942-3.203-9.169-4.238C76.07 1.328 70.978.514 65.812.169c-4.755-.317-9.505-.177-14.245.326-2.185.232-4.379.403-6.555.7-3.088.423-6.164.928-9.243 1.413-2.954.464-5.748 1.373-8.358 2.882-2.776 1.606-4.501 3.992-5.373 7.015-.81 2.81-1.432 5.668-1.693 8.593-.086.96-.183 1.918-.28 2.932-.598.067-1.148.131-1.698.188-.98.1-1.507.579-1.736 1.601-.622 2.777-.758 5.588-.748 8.41.01 2.72.087 5.44.141 8.159.021 1.026-.038 2.067.12 3.074.247 1.563.639 3.106.992 4.652.124.543.486.87 1.049.995.791.176 1.575.39 2.404.597.047.22.101.413.13.608.219 1.449 1.12 2.275 2.467 2.625a14.18 14.18 0 0 0 2.412.408c1.273.102 2.554.106 3.83.174.33.018.655.122 1.01.192-.06.249-.078.402-.132.54-1.786 4.516-5.255 7.054-9.763 8.384-.46.136-.792 0-1.122-.271a10.464 10.464 0 0 1-2.6-3.201c-1.04-1.948-1.994-3.932-2.637-6.055-.091-.301-.045-.735-.554-.89-.37.397-.73.82-1.13 1.205-1.008.97-2.101 1.816-3.541 2.01-2.92.397-5.593-.148-7.878-2.139-.239-.208-.552-.329-.928-.546-.315 1.502-.08 2.816.135 4.116a32.613 32.613 0 0 0 3.66 10.546 38.204 38.204 0 0 0 8.225 10.263 45.598 45.598 0 0 0 8.267 5.838c1.974 1.083 3.908 2.243 5.907 3.273 6.076 3.13 12.454 5.442 19.106 6.994.23.054.442.188.604.26.037.211.072.311.068.41-.134 4.104-.277 8.209-.405 12.312-.034 1.098-.223 1.009-.99 1.261-1.887.62-3.13 2.637-2.859 4.553.077.542.396.89.856.935.457.045.847-.214 1.022-.752.173-.536.256-1.102.446-1.632.297-.83.829-1.381 1.922-1.301-.04.491-.071.938-.116 1.385-.03.305-.112.607-.116.913-.01.705.355 1.194.886 1.24.473.041.927-.3 1.04-.932.124-.701.135-1.425.196-2.137.023-.277.049-.553.075-.85 1.743.504 1.922.713 2.062 2.298.023.255-.014.554.109.749.148.237.43.53.663.538.305.012.665-.18.911-.39.162-.136.202-.458.23-.705.197-1.742-.537-3.14-2.11-3.913-.677-.332-1.412-.545-2.127-.816-.023-.244-.06-.447-.06-.647.008-3.851.018-7.7.039-11.55 0-.23.107-.461.142-.608 2.345.068 4.588.215 6.827.179 2.222-.036 4.441-.256 6.65-.393.29 2.395.242 11.836-.06 13.205-.705.217-1.444.415-2.163.67-1.528.542-2.568 2.35-2.25 3.93.068.34.21.719.444.953.221.224.64.433.913.375.276-.061.577-.417.69-.714.142-.367.076-.81.144-1.211.176-1.036.703-1.551 1.695-1.708.623-.098.877.065.923.681.05.663.074 1.334.048 2-.026.667.178 1.204.682 1.632h.615c.465-.539.55-1.178.54-1.868-.012-.912-.107-1.836.13-2.733 1.783.104 2.195.588 1.873 2.129-.01.05-.028.098-.044.147-.37 1.126.4 1.616 1.435 1.463.573-.085.875-.469 1.044-.998.55-1.714-.3-3.64-1.98-4.323-.743-.303-1.54-.47-2.264-.684-.285-1.397-.624-11.859-.433-13.382.738-.205 1.507-.472 2.298-.633 3.802-.77 7.32-2.224 10.594-4.307 1.307-.833 2.475-1.79 3.48-2.984 1.93-2.29 3.395-4.88 4.855-7.466 1.666-2.957 3.003-6.063 3.85-9.363.766-2.984 1.366-6 1.716-9.064.12-1.055.309-2.102.466-3.153.333-.034.535-.084.733-.07 3.016.193 5.224-1.132 6.76-3.664.337-.555.803-.911 1.305-1.267 1.427-1.013 2.435-2.324 2.857-4.055.243-.996.55-1.977.757-2.98.802-3.89 1.015-7.833.9-11.79a58.096 58.096 0 0 0-.5-5.97zM122.005 30.678c-.385.115-.766.243-1.305.415-.021-.726-.044-1.298-.052-1.872-.039-2.648-.063-5.297-.116-7.945-.012-.633-.056-1.278-.196-1.892-.298-1.302-1.635-1.787-2.723-1.013-.3.213-.557.492-.816.758-.493.507-.953.999-1.789.63-.348-.154-.75-.026-.928.392-.193.456-.02.838.333 1.13.637.524 1.365.607 2.09.245.419-.21.79-.53 1.153-.836.352-.3.665-.647 1.253-1.227.071.756.146 1.168.144 1.58-.02 3.92-.059 7.839-.078 11.758-.002.411-.037.887.147 1.222.9 1.64 3.868 2.896 5.956 1.093 1.215-1.05 1.228-2.679.045-3.766-.898-.826-1.955-1.02-3.118-.672M9.004 5.41c-.523.202-.83.308-1.131.439-1.325.576-2.5.258-3.536-.731A8.057 8.057 0 0 1 3.26 3.827c-.162-.239-.294-.602-.254-.876.049-.325.236-.747.478-.882.24-.133.682-.061.93.105.317.213.525.614.786.927.94 1.127 1.392 1.239 2.712.732.505-.194 1.019-.419 1.542-.477.352-.04.773.11 1.084.315.397.261.58.717.378 1.241-.188.489-.403.964-.592 1.452-1.133 2.926-2.269 5.85-3.388 8.784-.18.47-.278.98-.442 1.576.601 0 1.08-.04 1.55.007 1.338.132 2.377 1.283 2.47 2.692.095 1.423-.715 2.503-2.033 2.57-1.444.075-2.69-.504-3.656-1.67-.658-.794-.93-1.723-.56-2.79.207-.593.337-1.221.572-1.799 1.24-3.05 2.506-6.087 3.757-9.132.128-.311.22-.639.409-1.192M105.399 13.054c.895-.207 1.564-.423 2.25-.504.903-.106 1.687.175 2.146 1.016.385.702.215 1.608-.4 2.312-.907 1.037-2.203 1.38-3.515.924a12.734 12.734 0 0 1-.83-.336c-.797-.345-1.177-.869-1.235-1.801-.234-3.762-.572-7.517-.877-11.275-.01-.125-.083-.244-.17-.49-.305.304-.532.54-.772.765-.359.339-.693.714-1.095.993-.926.641-1.865.638-2.782.002-.61-.423-1.182-.898-1.76-1.364-.344-.278-.479-.64-.235-1.039.236-.385.626-.501 1.037-.337.364.145.708.354 1.032.576.243.167.43.409.656.6.64.537.88.54 1.536-.036.37-.325.685-.714 1.05-1.046.329-.297.667-.596 1.045-.824.571-.344.932-.222 1.173.374.147.36.267.743.324 1.126.4 2.76.785 5.523 1.17 8.286.092.67.163 1.343.252 2.078M111.2 30c.795.274 1.043.803 1.312 1.297.812 1.488 1.324 3.055 1.424 4.682.232 3.715-.147 7.387-1.47 10.954-.374 1.008-.942 1.966-1.465 2.93-.171.316-.452.597-.727.863-.25.24-.588.381-.96.172-.35-.199-.37-.5-.241-.809.058-.142.139-.282.236-.408 1.423-1.876 2.035-3.993 2.523-6.134.522-2.29.763-4.609.691-6.943-.054-1.736-.526-3.405-1.168-5.049-.177-.453-.608-.907-.155-1.555"/>
        <path fill="#000" d="M7.025 40.355c-.015-2.728.37-5.22 1.346-7.593.528-1.286 1.29-2.495 2.01-3.707.232-.39.652-.691 1.019-1 .087-.074.344-.07.452-.005.1.06.181.287.135.383-.206.42-.448.826-.7 1.225a17.937 17.937 0 0 0-2.19 5.145c-.875 3.42-.781 6.824.102 10.227.116.446.205.904.233 1.36a.563.563 0 0 1-.599.61c-.234-.004-.563-.162-.675-.343-.217-.35-.347-.755-.45-1.151-.454-1.754-.807-3.52-.683-5.151"/>
        <path fill="#000" d="M12.912 32c.291.875-.212 1.468-.46 2.075-.686 1.694-1.4 3.373-1.571 5.156-.103 1.07-.033 2.115.281 3.156.06.197.143.392.181.59.08.425.025.828-.63.994-.47.12-.946-.131-1.177-.653-.19-.43-.344-.877-.409-1.324-.432-2.983.231-5.832 2.06-8.524.363-.535.743-1.074 1.725-1.47M107.015 35c.534.277.618.76.665 1.196.135 1.233.3 2.473.318 3.714.031 2.362-.26 4.666-.901 6.874-.292 1.009-.566 1.408-.844 1.13-.46-.463-.182-1.028-.033-1.54.79-2.709 1.042-5.528.911-8.426-.02-.466-.091-.928-.111-1.395-.02-.459-.005-.92-.005-1.553"/>
        <path fill="#000" d="M107 39.377c-.101 1.863-.307 3.354-.76 4.805-.125.404-.268.857-.842.815-.339-.024-.493-.475-.337-1.074.516-1.977.804-3.975.736-6.018-.008-.226.059-.465.144-.68.041-.104.207-.229.311-.225.119.005.312.128.333.228.178.824.322 1.654.415 2.149M12.969 37.125c-.053 1.362-.105 2.723-.159 4.084-.002.054-.008.108-.014.162-.037.358-.149.608-.367.628-.222.02-.374-.222-.393-.57-.088-1.7-.027-3.378.321-4.997.011-.05.026-.116.05-.137.127-.115.256-.283.389-.295.06-.006.157.293.187.479.033.201.008.432.008.65l-.022-.004M49.316 49.148l-2.395-.23c-.49.308-.408.818-.535 1.25-.097.334-.256.617-.69.608-.363-.007-.682-.393-.476-.85.538-1.196-.074-1.777-1.14-2.227-.31-.131-.575-.358-.946-.598-.399.329-.774.686-1.207.969-.15.097-.524.087-.644-.02-.12-.11-.153-.47-.05-.596.297-.364.681-.666 1.11-1.066-.155-.239-.311-.506-.495-.757-.448-.612-.94-1.199-1.353-1.83-.227-.348-.366-.757-.473-1.155-.075-.28.04-.596.393-.642.206-.027.47.089.65.213.145.1.202.31.3.47 1.698 2.808 4.427 4.096 7.748 4.254 1.87.09 3.648-.47 5.054-1.75.213-.194.419-.399.653-.57.286-.208.604-.348.942-.071.323.265.278.598.096.885a8.67 8.67 0 0 1-.937 1.248c-.355.382-.784.706-1.224 1.093.2.543.423 1.048.555 1.574.044.174-.09.482-.25.582-.287.18-.588.026-.74-.245-.205-.364-.364-.752-.573-1.194-.357.07-.69.12-1.014.2-.33.083-.651.195-1.055.318.051.445.109.85.143 1.258.028.348-.05.68-.494.726-.448.048-.578-.273-.657-.61-.093-.4-.191-.8-.296-1.237M37 78.655c-.613.164-.878.279-1.148.298-4.234.296-8.221-.813-11.977-3.174-.78-.492-1.058-1.078-.756-1.474.46-.6.91-.176 1.347.102 2.905 1.856 6.007 2.907 9.26 3.345.742.1 1.484.213 2.22.366.26.055.499.249 1.054.537M58.96 60c-2.215.01-3.55-2.063-2.703-4.13.133-.326.424-.634.708-.797.412-.239.799.142.749.674-.036.4-.15.796-.145 1.192.013 1.266.99 1.983 1.97 1.46.222-.119.408-.328.612-.49.252-.2.567-.438.762-.036.12.245.112.688 0 .95-.408.954-1.212 1.102-1.954 1.177M33.242 75c-1.043-.08-2.089-.156-3.131-.241-.235-.02-.507-.036-.682-.119-.2-.093-.435-.263-.429-.396.009-.203.347-.259.657-.24 1.907.106 3.813.216 5.719.326.095.006.213-.001.278.03.14.068.345.157.346.238.002.086-.183.235-.317.25-.516.058-1.043.077-1.567.1-.287.013-.576.003-.863.003l-.011.049M84.678 37c-.143-.015-.283-.02-.419-.045-.23-.044-.331-.278-.202-.45.312-.418 1.245-.654 1.709-.4.123.067.243.26.233.387-.01.13-.16.32-.29.355-.332.089-.687.107-1.031.153M47.236 36c-.047-.04-.205-.105-.23-.209-.026-.113.035-.319.12-.385.502-.384 1.065-.513 1.655-.311.109.037.206.275.219.43.007.09-.155.266-.258.284-.471.083-.948.125-1.506.191M61.549 52.919c.487.9.798 1.653 1.264 2.29.472.644 1.063 1.215 1.666 1.742.607.53 1.258 1.03 1.955 1.425a9.852 9.852 0 0 0 2.222.927c.742.203 1.503.547 2.383.278-.121-.16-.183-.306-.294-.379-1.445-.962-2.316-2.373-3.043-3.906-1.03-2.172-1.766-4.421-1.923-6.847-.064-.995.256-1.748 1.192-2.449.074.475.155.792.167 1.112.107 2.887.764 5.623 2.123 8.183.85 1.598 2.093 2.705 3.78 3.315.833.3 1.685.41 2.504.045.33-.148.616-.484.82-.802.123-.19.037-.503-.323-.515-.048-.003-.098.016-.148.03-.376.104-.71.065-.89-.336-.167-.376.05-.884.476-1.17.59-.398 1.4-.278 1.918.284.854.925.795 2.445-.151 3.28-.624.55-1.37.822-2.197.918-.845.098-1.695.2-2.522.393-3.246.757-6.087-.166-8.61-2.179-1.269-1.013-2.322-2.263-2.798-3.896-.2-.684-.207-.683.429-1.743M80 71.139c-.316 2.097-.623 4.001-2.153 5.56-.43.439-.957.822-1.5 1.167-.34.213-.778.165-1.116-.094-.319-.245-.303-.702.018-1.043a1.27 1.27 0 0 1 .244-.203c2.061-1.295 2.613-3.188 2.991-5.15.072-.377.13-.76.279-1.114.053-.129.34-.233.54-.26.112-.017.334.122.381.228.156.351.254.72.316.909M60.984 71.153c-.04 2.208-.921 4.236-2.113 6.195a1.344 1.344 0 0 1-.302.355c-.316.253-.676.413-1.123.193-.418-.206-.526-.52-.391-.872.105-.274.263-.537.41-.8 1.154-2.074 2.124-4.184 2.048-6.507a.802.802 0 0 1 .091-.422c.07-.12.227-.298.34-.295.202.007.527.09.58.206.201.443.331.91.452 1.372.049.184.008.383.008.575M69 71.626c-.111 1.814-.61 3.523-1.64 5.087-.262.397-.608.76-.975 1.086-.28.248-.664.268-1.012.051-.343-.212-.434-.524-.335-.867a1.25 1.25 0 0 1 .275-.492c1.418-1.533 1.985-3.38 2.473-5.26.081-.318.13-.648.264-.948.059-.133.313-.304.437-.28.156.027.357.224.387.372.084.41.09.833.126 1.251"/>
    </g>
</svg>
