<svg xmlns="http://www.w3.org/2000/svg" width="29" height="24" viewBox="0 0 29 24"><path d="M16.802.218l.153.135 11.418 10.2c.386.345.627.862.627 1.44 0 .577-.248 1.094-.627 1.44L16.977 23.625l-.19.172a1.106 1.106 0 0 1-.634.203C15.518 24 15 23.445 15 22.755V1.245C15 .555 15.518 0 16.153 0c.24 0 .467.082.649.218zm-15 0l.153.135 11.418 10.2c.386.345.627.862.627 1.44 0 .577-.248 1.094-.627 1.44L1.977 23.625l-.19.172a1.106 1.106 0 0 1-.634.203C.518 24 0 23.445 0 22.755V1.245C0 .555.518 0 1.153 0c.24 0 .467.082.649.218z" opacity=".599" fill="#FFF"/></svg>