<svg xmlns="http://www.w3.org/2000/svg" width="29" height="24" viewBox="0 0 29 24"><path d="M12.198.218l-.153.135-11.418 10.2A1.921 1.921 0 0 0 0 11.992c0 .577.248 1.094.627 1.44l11.396 10.192.19.172c.182.128.4.203.634.203.635 0 1.153-.555 1.153-1.245V1.245C14 .555 13.482 0 12.847 0c-.24 0-.467.082-.649.218zm15 0l-.153.135-11.418 10.2a1.921 1.921 0 0 0-.627 1.44c0 .577.248 1.094.627 1.44l11.396 10.192.19.172c.182.128.4.203.634.203.635 0 1.153-.555 1.153-1.245V1.245C29 .555 28.482 0 27.847 0c-.24 0-.467.082-.649.218z" opacity=".599" fill="#FFF"/></svg>