<svg xmlns="http://www.w3.org/2000/svg" width="32" height="28" viewBox="0 0 32 28"><g fill="#FFF"><path d="M16 27.8C8.4 27.8 2.2 21.6 2.2 14c0-3.333 1.2-6.6 3.467-9.133L7.133 6.2C5.2 8.333 4.2 11.133 4.2 14A11.78 11.78 0 0 0 16 25.8c1.733 0 3.4-.333 4.933-1.067l.8 1.8C19.933 27.4 18 27.8 16 27.8m10.267-4.6L24.8 21.867c1.933-2.134 3-4.934 3-7.867A11.78 11.78 0 0 0 16 2.2c-1.733 0-3.4.333-4.933 1.067l-.8-1.8C12.067.667 14 .2 16 .2 23.6.2 29.8 6.4 29.8 14c0 3.4-1.267 6.667-3.533 9.2"/><path d="M8.533 12.933H6.4v-6.4H0V4.4h8.533v8.533M32 23.6h-8.533v-8.533H25.6v6.4H32V23.6"/></g></svg>