<svg xmlns="http://www.w3.org/2000/svg" width="112" height="112" viewBox="0 0 112 112"><g fill="none" fill-rule="evenodd"><path fill="#FFBC37" stroke="#FFBC37" stroke-width="2" d="M56 111C25.624 111 1 86.376 1 56S25.624 1 56 1s55 24.624 55 55-24.624 55-55 55z"/><path fill="#FFCD53" d="M56 109C26.729 109 3 85.271 3 56S26.729 3 56 3s53 23.729 53 53-23.729 53-53 53z"/><path fill="#77992B" d="M17.353 71.613c-2.57 0-4.39-.7-5.422-2.09-1.304-1.756-.93-4.078-.617-5.244a.683.683 0 0 1 .913-.458l.59.234-.635-.252.046.018c.323.128.5.473.41.808-.25.931-.568 2.793.394 4.084.835 1.12 2.49 1.63 4.932 1.52a.682.682 0 1 1 .056 1.365c-.227.01-.45.015-.667.015m9.609-44.758c-.052 2.57-.79 4.375-2.2 5.379-1.782 1.268-4.097.847-5.255.51a.682.682 0 0 1-.44-.922l.246-.585-.265.63.02-.046a.68.68 0 0 1 .816-.393c.925.268 2.78.624 4.09-.311 1.137-.812 1.68-2.458 1.62-4.9a.682.682 0 1 1 1.366-.029c.006.228.006.45.002.667"/><path fill="#FB393F" d="M16.898 69.335c-2.57 0-4.391-.7-5.423-2.09-1.304-1.757-.93-4.079-.616-5.244a.683.683 0 0 1 .912-.459l.591.235-.635-.252.045.017a.68.68 0 0 1 .41.809c-.25.93-.568 2.793.394 4.083.835 1.12 2.491 1.63 4.932 1.52a.682.682 0 0 1 .709.624.686.686 0 0 1-.653.742c-.227.01-.45.015-.666.015"/><path fill="#FFE97B" d="M26.506 24.577c-.052 2.569-.79 4.375-2.2 5.378-1.782 1.268-4.096.847-5.255.51a.683.683 0 0 1-.44-.921l.247-.586-.266.63.02-.045a.68.68 0 0 1 .816-.393c.926.268 2.78.624 4.09-.312 1.137-.812 1.68-2.457 1.62-4.9a.682.682 0 0 1 .638-.696c.387-.025.72.28.729.667.005.228.005.45.001.668"/><path fill="#008EE6" d="M106.326 61.462c-2.11 1.468-4.004 1.932-5.644 1.381-2.074-.697-3.093-2.817-3.502-3.952a.683.683 0 0 1 .488-.898l.618-.145-.665.156.048-.011a.68.68 0 0 1 .798.43c.326.906 1.129 2.616 2.655 3.126 1.325.442 2.976-.085 4.917-1.57a.682.682 0 0 1 .938.107.686.686 0 0 1-.112.983c-.181.138-.36.269-.539.393"/><path fill="#77992B" d="M105.87 64.652c-2.11 1.468-4.003 1.932-5.644 1.38-2.074-.696-3.093-2.816-3.501-3.95a.683.683 0 0 1 .487-.9l.619-.144-.666.156.048-.011a.68.68 0 0 1 .798.43c.327.906 1.13 2.616 2.656 3.126 1.325.442 2.975-.085 4.916-1.57a.682.682 0 0 1 .938.108.686.686 0 0 1-.112.981c-.18.139-.36.27-.539.394M98.077 37.81a2.747 2.747 0 1 1-5.495 0 2.747 2.747 0 0 1 5.495 0"/><path fill="#FFE97B" d="M97.62 35.532a2.747 2.747 0 1 1-5.494 0 2.747 2.747 0 0 1 5.495 0"/><path fill="#77992B" d="M18.411 80.915a2.56 2.56 0 1 1-5.12-.001 2.56 2.56 0 0 1 5.12 0M88.094 97.42a4.028 4.028 0 1 1-8.057 0 4.028 4.028 0 0 1 8.057 0M39.33 14.817a2.539 2.539 0 1 1-5.077 0 2.539 2.539 0 0 1 5.078 0m62.429 61.975a2.539 2.539 0 1 1-5.077 0 2.539 2.539 0 0 1 5.078 0M12.425 56.675l-4.478-1.889a2.438 2.438 0 0 1 1.894-4.493l4.479 1.89a2.438 2.438 0 1 1-1.895 4.492m78.872-29.629l-4.592 1.59a2.438 2.438 0 1 1-1.596-4.606l4.592-1.591a2.438 2.438 0 1 1 1.596 4.607m-39.05 80.284l-4.103-2.606a2.438 2.438 0 1 1 2.614-4.116l4.103 2.605a2.438 2.438 0 0 1-2.614 4.116"/><path fill="#FFE97B" d="M17.955 78.636a2.56 2.56 0 1 1-5.12 0 2.56 2.56 0 0 1 5.12 0m69.683 16.506a4.027 4.027 0 1 1-8.055 0 4.027 4.027 0 0 1 8.055 0"/><path fill="#FF5252" d="M38.875 12.539a2.539 2.539 0 1 1-5.077 0 2.539 2.539 0 0 1 5.077 0m62.43 61.974a2.539 2.539 0 1 1-5.077 0 2.539 2.539 0 0 1 5.077 0"/><path fill="#008EE6" d="M11.97 54.396l-4.48-1.889a2.437 2.437 0 1 1 1.895-4.492l4.478 1.889a2.438 2.438 0 0 1-1.895 4.492m78.874-29.629l-4.593 1.591a2.438 2.438 0 1 1-1.596-4.607l4.593-1.59a2.438 2.438 0 1 1 1.596 4.606M51.791 105.05l-4.103-2.605a2.438 2.438 0 0 1 2.614-4.115l4.103 2.605a2.438 2.438 0 0 1-2.614 4.116"/><path fill="#F98659" d="M55.392 38.176l-.606.994 1.6-.164a243.13 243.13 0 0 0-.994-.83"/><path fill="#FFFF3B" d="M61.713 65.298c-.218.502-.452.65-.95.653-2.919.02-5.838.13-8.697.82-1.285.31-2.57.638-3.828 1.035-.636.2-.862.208-1.156-.404-.396-.832-.761-1.68-1.15-2.515-.327-.708-.67-1.41-1.088-2.28-.218.502-.395.808-.493 1.138-.64 2.162-1.3 4.32-1.876 6.498-.193.723-.234 1.507-.219 2.26.06 2.571.957 4.89 2.306 7.034.655 1.038 1.484 1.952 2.539 2.603 1.695 1.05 3.514 1.826 5.503 2.082 2.585.334 5.12.068 7.58-.799a14.149 14.149 0 0 0 5.722-3.738c1.59-1.706 2.38-3.716 2.332-6.072a21.71 21.71 0 0 0-.663-4.91c-.275-1.072-.697-2.113-1.142-3.13-.689-1.588-1.56-3.08-2.637-4.578-.727 1.48-1.465 2.867-2.083 4.303"/><path fill="#FF7CC7" d="M69.624 73.051c.294 4.09-1.537 7.127-4.712 9.45-1.65 1.207-3.485 2.074-5.538 2.533-1.65.527-3.402.673-5.157.638-2.98-.059-5.677-1.085-8.118-2.736-1.68-1.134-2.796-2.787-3.613-4.623-.908-2.029-1.496-4.15-1.432-6.388.027-1.023.166-2.062.411-3.055.456-1.845 1.013-3.664 1.563-5.486.143-.49.358-.972.618-1.412.543-.915 1.258-.977 1.831-.092.791 1.227 1.496 2.511 2.2 3.793.392.711.35.706 1.156.516 3.741-.888 7.505-1.643 11.385-1.277.376.035.614-.076.783-.417.407-.828.822-1.652 1.255-2.467.267-.503.538-1.008.859-1.475.358-.514.644-.547 1.16-.179a3.5 3.5 0 0 1 .652.607c1.6 1.908 2.848 4.007 3.582 6.414.569 1.851.976 3.725 1.115 5.656M57.453 47.202c-2.999-.186-5.922.374-8.827 1.04-2.705.614-5.281 1.546-7.711 2.913-3.134 1.762-5.425 4.357-7.47 7.234-2.319 3.261-3.508 6.894-3.622 10.892a35.75 35.75 0 0 0 .56 7.46c.574 3.149 1.504 6.175 3.08 8.974 1.489 2.645 3.628 4.717 5.907 6.656 2.464 2.094 5.293 3.459 8.443 4.167 7.402 1.664 14.33.296 20.892-3.33 4.197-2.318 7.282-5.772 9.685-9.866 3.153-5.383 3.673-11.162 2.317-17.168-.505-2.245-1.5-4.306-2.67-6.27-3.817-6.4-9.219-10.63-16.587-12.117-1.319-.266-2.66-.502-3.997-.585"/><path fill="#F98659" d="M60.711 33.062c.09-1.084.177-2.153.256-3.137-1.118-.278-2.124-.527-3.141-.778-.663 1.336.75 3.351 2.885 3.915"/><path fill="#FF7CC7" d="M53.76 40.489c-1.819.06-3.585.439-5.356.818-.716.153-1.051.558-1.164 1.256-.249 1.516.207 2.944.422 4.436 5.428-.87 10.781-1.504 16.116.553.245-.591.467-1.086.651-1.594.377-1.032.373-2.071.012-3.11-.147-.424-.37-.794-.784-.996-.776-.377-1.526-.834-2.343-1.086a12.043 12.043 0 0 0-4.724-.497c-.942.088-1.884.188-2.83.22"/><path fill="#F98659" d="M57.57 32.117c-.016.768-.554 1.421-.23 2.165.478 1.09 1.265 1.853 2.47 2.296l.826-2.898c-1.288-.157-2.245-.704-3.067-1.563m1.029-3.802c.7.456 1.608.692 2.448.6-.173-.301-.26-.704-.478-.796-.655-.274-1.349-.335-1.97.196m-1.767 7.055c-.286.6-.482 1.108-.76 1.567-.238.392-.125.645.157.916.622.593 1.405.865 2.181 1.2.35-.59.795-1.068.939-1.735-1.036-.371-1.88-.926-2.517-1.948"/><path fill="#FFDB00" d="M66.102 16.357c.007-.43.113-.86.185-1.288.052-.308.124-.614.2-.985-.701.511-1.293 1.02-1.956 1.406-1.356.79-2.912.584-3.925-.552-.4-.448-.618-1.062-.897-1.615-.117-.237-.17-.508-.252-.764a1.07 1.07 0 0 0-.196.504c-.328 2.107-2.61 3.935-5.195 2.354-.501-.31-1.002-.624-1.593-.992.85 1.763 1.548 3.471 1.058 5.396-.501 1.944-2.012 3.017-3.537 4.09.433-.048.821-.185 1.22-.252 1.21-.202 2.208.4 2.381 1.53.087.568-.019 1.187-.14 1.76-.109.487-.365.941-.583 1.484.49-.262.9-.521 1.345-.706 1.107-.464 2.219-.817 3.349-.002.113.083.41 0 .576-.092 1.416-.811 2.761-.636 3.903.53l.663.672c-.012-.471-.034-.797-.027-1.121.046-1.788 1.41-2.729 3.063-2.068.648.258 1.24.658 1.857.996.094.052.177.128.268.183.071.04.147.066.327.143-.719-1.284-1.295-2.475-1.521-3.812-.185-1.113.116-2.049.949-2.797.414-.373.866-.705 1.349-1.092-.46-.167-.89-.305-1.308-.477-1.073-.446-1.578-1.286-1.563-2.433"/><path fill="#E7C0BF" d="M53.93 98.91a29.32 29.32 0 0 1-2.007-.07c-3.689-.255-7.256-1.04-10.447-2.976-4.219-2.556-7.715-5.88-10.001-10.328-1.337-2.6-2.173-5.38-2.642-8.276-.507-3.127-.71-6.263-.4-9.417.122-1.237.345-2.438.668-3.601.299.734.634 1.454 1.002 2.157-.159.938-.252 1.9-.28 2.882a35.75 35.75 0 0 0 .56 7.46c.574 3.149 1.504 6.175 3.08 8.974 1.489 2.645 3.628 4.717 5.907 6.656 2.464 2.094 5.293 3.459 8.443 4.167 2.105.474 4.177.702 6.212.702 5.104 0 9.986-1.438 14.68-4.031 4.197-2.319 7.282-5.773 9.685-9.867 3.153-5.383 3.673-11.162 2.317-17.168-.237-1.05-.58-2.06-.998-3.039.192-.447.369-.899.539-1.355.81 1.583 1.465 3.233 1.842 4.997 1.326 6.24.693 12.219-2.558 17.802-3.09 5.31-7.41 9.196-13.068 11.623-4.043 1.734-8.201 2.707-12.534 2.707m.769-13.232c-.162 0-.32-.002-.482-.005-2.98-.059-5.677-1.085-8.118-2.736-1.68-1.134-2.796-2.787-3.613-4.623-.106-.23-.204-.462-.298-.695a38.17 38.17 0 0 0 1.74.835c.197.366.411.728.634 1.084.655 1.038 1.484 1.952 2.539 2.603 1.695 1.05 3.514 1.826 5.503 2.082a16.247 16.247 0 0 0 7.58-.8 14.149 14.149 0 0 0 5.722-3.737 8.756 8.756 0 0 0 1.643-2.46 29.556 29.556 0 0 0 1.906-1.278c-.547 2.679-2.17 4.816-4.543 6.554-1.65 1.207-3.485 2.074-5.538 2.533-1.496.479-3.078.643-4.675.643"/><path fill="#E7C02C" d="M54.748 84.362c-.708 0-1.424-.047-2.144-.14-1.989-.256-3.808-1.031-5.503-2.082-1.055-.651-1.884-1.565-2.54-2.603a18.691 18.691 0 0 1-.632-1.084c3.62 1.624 7.447 2.63 11.245 2.63 1.97 0 3.932-.27 5.854-.864a28.75 28.75 0 0 0 6.52-2.993 8.756 8.756 0 0 1-1.642 2.46 14.149 14.149 0 0 1-5.722 3.737c-1.775.626-3.59.939-5.436.939"/><path fill="#E75D95" d="M54.025 97.24c-2.035 0-4.107-.228-6.212-.702-3.15-.708-5.979-2.073-8.443-4.167-2.279-1.939-4.418-4.01-5.906-6.656-1.577-2.799-2.507-5.825-3.08-8.974a35.75 35.75 0 0 1-.561-7.46c.028-.983.121-1.944.28-2.882 1.868 3.563 4.611 6.673 8.137 8.919a42.79 42.79 0 0 0 3.948 2.3c.094.233.192.464.298.695.817 1.836 1.932 3.49 3.613 4.623 2.44 1.651 5.138 2.677 8.118 2.736.162.003.32.005.482.005 1.597 0 3.18-.164 4.675-.643 2.053-.459 3.888-1.326 5.538-2.533 2.373-1.738 3.996-3.875 4.543-6.554 4.464-3.25 8.076-7.723 10.254-12.812.418.979.76 1.989.998 3.039 1.356 6.006.836 11.785-2.317 17.168-2.403 4.094-5.488 7.548-9.685 9.867-4.694 2.593-9.576 4.03-14.68 4.03"/><path fill="#FFF" d="M61.514 51.078c-2.713-2.048-7.09-2.316-10.266-1.48-1.706.449-3.247.935-4.404 2.35-.373.462-1.465 2.21-.79 2.78.628.534 1.777-.016 2.414-.292 1.16-.502 2.32-.692 3.564-.896 1.333-.22 2.678-.242 4.023-.125 1.5.13 2.942.524 4.43.67 1.688.169 2.272-2.069 1.029-3.007"/><path fill="#E7C0BF" d="M64.836 47.736c-2.023-.137-4.042-.287-6.057-.406a19.105 19.105 0 0 0-3.164-.153 89.062 89.062 0 0 0-3.218-.062c-1.978 0-3.97.077-5.982.274-.226-1.42-.452-2.769-.648-4.12-.222-1.55.298-2.408 1.62-2.736a51.603 51.603 0 0 1 2.607-.569c1.085-.211 2.177-.382 3.255-.608a24.92 24.92 0 0 0 3.096.189 29.88 29.88 0 0 0 3.68-.237c.087.02.174.038.257.058.685.162 1.367.327 2.053.49 1.718.41 2.821 1.531 3.533 3.097.373.823.275 1.643-.064 2.452-.32.776-.644 1.552-.968 2.33m-8.97-1.557c2.645 0 5.282.36 7.912 1.374.245-.591.467-1.086.651-1.594.377-1.032.373-2.071.012-3.11-.147-.424-.37-.794-.784-.996-.776-.377-1.526-.834-2.343-1.086a12.09 12.09 0 0 0-4.724-.497c-.942.088-1.884.188-2.83.22-1.819.06-3.585.439-5.356.818-.716.153-1.051.558-1.164 1.256-.249 1.516.207 2.944.422 4.436 2.754-.44 5.485-.821 8.205-.821"/><path fill="#E75D95" d="M63.778 47.552c-2.63-1.015-5.267-1.374-7.911-1.374-2.72 0-5.451.38-8.205.821-.215-1.492-.67-2.92-.422-4.436.113-.698.448-1.103 1.164-1.256 1.77-.38 3.537-.758 5.357-.818.945-.032 1.887-.132 2.829-.22a12.09 12.09 0 0 1 4.724.497c.817.252 1.567.709 2.343 1.086.414.202.637.572.784.996.361 1.039.365 2.078-.012 3.11-.184.508-.406 1.003-.651 1.594"/><path fill="#590F43" d="M50.774 74.376c.18.848.369 1.695.538 2.544.038.183.027.38.012.567-.053.577-.37.924-.893.998-.467.065-.878-.163-1.078-.668-.124-.298-.222-.626-.23-.942-.04-1.232-.286-2.42-.629-3.597a2.43 2.43 0 0 1-.094-.717c.012-.374.15-.708.558-.802.358-.085.64.09.81.399.248.449.474.91.682 1.378.12.27.184.567.275.852l.049-.012m12.472-1.686c.072.862.162 1.724.208 2.587.015.29-.057.598-.151.877-.158.474-.565.718-.995.66-.452-.058-.764-.449-.783-.981-.023-.622.011-1.252-.072-1.865-.109-.803-.312-1.595-.482-2.39-.045-.214-.12-.42-.154-.634-.064-.386.06-.717.41-.895a.68.68 0 0 1 .927.269c.332.582.58 1.214.851 1.831.076.172.102.366.151.55l.09-.01"/><path fill="#590F43" d="M67.624 20.359c-.833.748-1.134 1.684-.95 2.797.227 1.337.803 2.528 1.522 3.812-.18-.077-.256-.102-.327-.143-.09-.055-.174-.13-.268-.183-.618-.338-1.209-.738-1.857-.996-1.654-.661-3.017.28-3.063 2.068-.007.324.015.65.027 1.12-.287-.292-.475-.48-.663-.67-1.142-1.167-2.487-1.342-3.903-.531-.166.093-.463.175-.576.092-1.13-.815-2.242-.462-3.35.002-.444.185-.854.444-1.344.706.218-.543.474-.997.584-1.484.12-.573.226-1.192.14-1.76-.174-1.13-1.172-1.732-2.382-1.53-.399.067-.787.204-1.22.252 1.525-1.073 3.036-2.146 3.537-4.09.49-1.925-.207-3.633-1.058-5.396.59.368 1.092.683 1.593.992 2.584 1.581 4.867-.247 5.195-2.354a1.07 1.07 0 0 1 .196-.504c.083.256.135.527.252.764.279.553.497 1.167.897 1.615 1.013 1.136 2.569 1.342 3.925.552.663-.385 1.255-.895 1.955-1.406-.075.371-.147.677-.2.985-.071.428-.177.858-.184 1.288-.015 1.147.49 1.987 1.563 2.433.418.172.848.31 1.308.477-.483.387-.935.719-1.35 1.092zm-9.026 7.956c.621-.53 1.315-.47 1.97-.196.219.092.305.495.478.795-.84.093-1.747-.143-2.448-.599zm2.113 4.747c-2.136-.564-3.548-2.579-2.885-3.915 1.017.251 2.023.5 3.141.778-.079.984-.165 2.053-.256 3.137zm-.9 3.516c-1.206-.443-1.993-1.206-2.471-2.296-.324-.744.214-1.397.23-2.165.82.859 1.778 1.406 3.066 1.563l-.825 2.898zm-1.402 2.474c-.776-.334-1.56-.606-2.18-1.199-.283-.271-.396-.524-.159-.916.279-.459.475-.966.761-1.567.637 1.022 1.48 1.577 2.517 1.948-.144.667-.588 1.145-.939 1.734zm2.905 1.714c.817.252 1.567.709 2.343 1.086.414.202.637.572.784.996.361 1.039.365 2.078-.012 3.11-.184.508-.406 1.002-.651 1.594-5.335-2.057-10.688-1.423-16.116-.553-.215-1.492-.67-2.92-.422-4.436.113-.698.448-1.103 1.164-1.256 1.77-.38 3.537-.758 5.357-.818.945-.032 1.887-.132 2.829-.22a12.06 12.06 0 0 1 4.724.497zm16.722 19.138c1.172 1.964 2.163 4.025 2.671 6.27 1.356 6.006.836 11.785-2.317 17.168-2.403 4.094-5.488 7.549-9.685 9.867-6.562 3.625-13.49 4.993-20.892 3.329-3.15-.708-5.979-2.073-8.443-4.167-2.279-1.939-4.418-4.01-5.906-6.656-1.577-2.799-2.507-5.825-3.08-8.974a35.75 35.75 0 0 1-.561-7.46c.114-3.998 1.303-7.63 3.622-10.892 2.045-2.877 4.336-5.472 7.47-7.234 2.43-1.367 5.006-2.3 7.711-2.913 2.905-.666 5.828-1.226 8.827-1.04 1.337.083 2.678.319 3.997.585 7.368 1.488 12.77 5.716 16.586 12.117zM55.392 38.176c.35.291.618.514.995.83l-1.601.164.606-.994zm17.276-19.528c-.249-.07-.531-.025-.802-.01-1.142.065-2.272-.035-3.364-.374-1.323-.408-1.76-1.114-1.47-2.463.358-1.672.675-3.362 1.507-4.89.14-.257.241-.562.249-.849.004-.156-.192-.384-.354-.455-.11-.046-.332.103-.464.212-.094.078-.139.23-.184.358-.384 1.166-1.13 2.106-1.929 2.991-.467.518-1.01 1.006-1.608 1.348-1.507.854-2.683.382-3.316-.859a10.923 10.923 0 0 1-1.092-3.482c-.12-.885-.377-1.752-.58-2.624-.064-.26-.211-.457-.509-.422-.294.036-.395.254-.391.527.003.243.022.487.045.73.147 1.52.117 3.042-.166 4.54-.335 1.8-1.872 2.533-3.503 1.721a8.43 8.43 0 0 1-2.344-1.728c-.843-.88-1.721-1.728-2.588-2.59-.248-.25-.493-.559-.892-.28-.28.196-.23.474.143.99.034.043.071.083.101.127.709.997 1.455 1.966 2.102 3 .471.754.905 1.56 1.183 2.4.799 2.391.358 4.283-1.781 5.91-.728.55-1.556.965-2.355 1.418-.444.253-.927.44-1.367.695-.128.075-.268.313-.234.434.034.13.252.286.403.296.4.028.81.029 1.202-.04.557-.1 1.1-.292 1.657-.41a15.508 15.508 0 0 1 1.594-.266c.66-.07.987.144 1.073.807.06.437.027.936-.128 1.343-.308.81-.734 1.574-1.11 2.355-.216.44-.438.875-.645 1.319-.113.248-.23.518.056.736.28.211.509.066.716-.136.328-.32.64-.664.99-.963.55-.474 1.093-.98 1.711-1.357.69-.423 1.47-.647 2.377-.482.58.389.241 1.583.14 2.782-.234 2.805-.961 5.47-2.675 7.77-.154.209-.35.48-.569.529-1.16.253-2.335.431-3.503.658-.87.17-1.744.354-2.607.569-1.322.328-1.842 1.186-1.62 2.737.211 1.445.452 2.886.693 4.418-.2.07-.373.14-.554.19-2.516.707-4.863 1.798-7.074 3.193-2.739 1.728-4.784 4.138-6.642 6.733-2.152 3.004-3.395 6.36-3.757 10.039-.31 3.154-.107 6.29.4 9.417.469 2.896 1.305 5.677 2.642 8.276 2.286 4.447 5.782 7.772 10.001 10.328 3.191 1.935 6.758 2.721 10.447 2.976 5.063.35 9.877-.638 14.54-2.638 5.659-2.427 9.98-6.314 13.069-11.623 3.25-5.583 3.884-11.562 2.558-17.802-.596-2.797-1.895-5.307-3.395-7.717-3.284-5.28-7.809-9.029-13.648-11.153-.068-.025-.117-.093-.21-.171.323-.778.647-1.554.967-2.331.34-.81.437-1.63.064-2.452-.712-1.566-1.815-2.686-3.533-3.097-.686-.163-1.368-.328-2.053-.49-.23-.054-.46-.1-.773-.167 2.012-3.091 2.325-6.513 2.193-10.214.893 1.161 1.473 2.261 2.012 3.382.098.195.17.422.32.557.14.125.418.248.546.187.177-.085.365-.338.38-.53.016-.253-.135-.516-.21-.775-.336-1.147-.686-2.29-.987-3.444-.08-.303-.027-.648-.008-.971.034-.506.335-.833.818-.858.388-.019.813.041 1.164.199 1.45.654 2.667 1.645 3.76 2.798.316.334.617.684.945 1.01.196.198.474.387.69.102.105-.14.037-.437-.005-.655-.019-.12-.15-.219-.226-.333-.776-1.208-1.57-2.407-2.328-3.63-.557-.911-.896-1.917-1.066-2.976-.132-.846.098-1.543.791-2.092 1.002-.793 2.098-1.304 3.398-1.316a3.632 3.632 0 0 0 1.032-.17c.143-.043.343-.283.32-.39-.037-.17-.218-.386-.38-.432z"/><path fill="#590F43" d="M67.575 68.702c.403 1.603.633 3.244.663 4.91.049 2.357-.742 4.367-2.332 6.073a14.161 14.161 0 0 1-5.718 3.738 16.29 16.29 0 0 1-7.584.8c-1.989-.257-3.808-1.032-5.503-2.083-1.055-.651-1.884-1.565-2.54-2.603-1.348-2.144-2.245-4.463-2.305-7.034-.015-.753.026-1.537.219-2.26.576-2.179 1.235-4.336 1.876-6.498.098-.33.275-.636.493-1.138.418.87.761 1.572 1.089 2.28.388.835.753 1.683 1.149 2.515.294.612.52.605 1.156.404 1.258-.397 2.543-.726 3.828-1.036 2.859-.69 5.778-.798 8.698-.819.497-.003.73-.15.95-.653.617-1.436 1.355-2.822 2.082-4.303 1.078 1.498 1.948 2.99 2.637 4.578.445 1.017.867 2.058 1.142 3.13zm-3.3-8.328c-.516-.368-.802-.335-1.16.18-.32.466-.592.97-.86 1.474-.432.815-.847 1.64-1.254 2.467-.17.341-.407.452-.783.417-3.88-.366-7.644.39-11.385 1.277-.806.19-.764.195-1.156-.516-.704-1.282-1.409-2.566-2.2-3.793-.573-.885-1.288-.823-1.83.092-.26.44-.476.922-.619 1.412-.55 1.822-1.107 3.641-1.563 5.486a14.399 14.399 0 0 0-.41 3.055c-.065 2.238.523 4.36 1.43 6.388.818 1.836 1.933 3.49 3.614 4.623 2.44 1.651 5.138 2.677 8.118 2.736 1.755.035 3.507-.11 5.157-.638 2.053-.459 3.888-1.326 5.538-2.533 3.175-2.323 5.006-5.36 4.712-9.45-.14-1.931-.546-3.805-1.115-5.656-.734-2.407-1.981-4.506-3.582-6.414a3.5 3.5 0 0 0-.652-.607z"/></g></svg>