<svg xmlns="http://www.w3.org/2000/svg" width="137" height="110" viewBox="0 0 137 110"><g fill="none" fill-rule="evenodd"><path fill="#0070AE" d="M123.047 54.099c0 29.877-24.7 54.098-55.168 54.098S12.711 83.976 12.711 54.099C12.711 24.22 37.411 0 67.88 0c30.469 0 55.168 24.22 55.168 54.099"/><path fill="#00EEF1" d="M52.072 52.663c.064-.126.236-.235.378-.268.081-.019.23.11.3.207.407.573.402.577.828 0 .039-.053.066-.115.12-.21-.12-.207-.268-.426-.38-.66-.167-.344-.213-.714-.035-1.06.064-.122.252-.25.382-.247.123.002.323.07.394.462.119.656.454.918 1.101.824.516-.074.996-.083 1.423.245.467.36.728.85.873 1.418.41 1.613-.187 3.312-1.505 4.249-.773.549-1.57.505-2.274-.12-.523-.464-.84-1.026-.825-1.745.01-.467.024-.932.04-1.487-.212-.15-.419-.262-.583-.419-.332-.32-.435-.804-.237-1.189m21.457.112c.386-1.025 1.12-1.523 2.225-1.498.266.006.53.054.795.061a.48.48 0 0 0 .473-.425c.013-.197-.038-.398-.03-.596.011-.322.206-.555.449-.575.25-.021.465.147.583.455.138.361.137.723-.038 1.067-.12.235-.277.45-.503.811.195.153.354.371.542.402.26.042.521-.108.671-.355.085-.14.122-.309.2-.455.136-.255.356-.358.565-.285.263.092.357.315.344.553-.033.556-.24 1.042-.723 1.359-.219.143-.464.247-.696.368.012.583.07 1.147.025 1.704-.08 1.005-.586 1.75-1.507 2.194-.664.32-1.285.247-1.89-.153-1.378-.91-2.074-3.07-1.485-4.632M49.59 46.227c.311-.408.347-.809.212-1.306-.386-1.418-.282-2.863-.032-4.283.107-.605.183-1.17.059-1.778-.145-.71-.032-1.145.18-1.06.41.167.381.59.462.931.362 1.536.9 3.003 1.535 4.449.359.818.523 1.723.751 2.595.058.22.06.471.018.696-.025.136-.167.323-.285.347-.104.02-.312-.13-.357-.248-.094-.246-.103-.522-.157-.784-.08-.387-.17-.772-.302-1.374-.25.302-.363.421-.46.554a19.937 19.937 0 0 0-2.31 4.096c-.72 1.744-1.116 3.565-1.413 5.422-.49 3.057-.195 6.07.359 9.08.074.402.286.577.659.622.86.102 1.72.25 2.583.3 1.932.113 3.866.209 5.8.252 3.07.067 6.139.02 9.204-.182 2.43-.16 4.863-.276 7.286-.505a109.72 109.72 0 0 0 10.296-1.47c1.768-.338 3.524-.731 5.29-1.087.536-.108.842-.311.932-.946.449-3.225.35-6.405-.563-9.545-.987-3.394-2.737-6.304-5.39-8.65-.154-.137-.344-.232-.614-.412.041.463.09.792.089 1.12-.001.102-.115.241-.215.297a.285.285 0 0 1-.41-.167 9.856 9.856 0 0 1-.281-1.165c-.279-1.479-.033-2.938.227-4.385.142-.787.492-2.072.915-2.84.028-.043.119-.072.173-.062.055.01.135.067.143.115.03.16.063 1.378.266 1.82a23.5 23.5 0 0 1 .981 2.52c.29.896.451 1.83.306 2.773-.1.643.23.98.767 1.345.08-.431.17-.786.207-1.146a12.195 12.195 0 0 0-.455-4.764c-.636-2.128-1.64-4.095-2.586-6.087-.025-.054-.09-.09-.137-.133-.703.589-1.123 1.115-1.483 2.088-.713 1.933-1.108 3.927-.95 6 .05.633.174 1.26.23 1.893.034.395.015.797-.005 1.194-.004.063-.136.155-.218.167a.313.313 0 0 1-.255-.103.887.887 0 0 1-.135-.365c-.075-.462-.133-.927-.2-1.39-.201-1.374-.205-1.369-1.393-2.052-2.65-1.524-5.517-2.34-8.538-2.648a25.455 25.455 0 0 0-3.283-.102c.142.358.26.627.356.904.243.693.513 1.38.703 2.089.216.8.137 1.597-.287 2.33-.675 1.168-1.624 2.027-2.881 2.53a3.898 3.898 0 0 1-1.86.284c-.442-.044-.759-.258-.92-.667-.134-.34-.268-.69-.336-1.048-.195-1.017-.36-2.04-.527-3.064-.1-.614-.113-1.243-.25-1.916-.229.077-.386.117-.532.181-2.029.89-3.913 2.013-5.631 3.423-.463.38-.673.746-.538 1.364.105.48.081 1 .045 1.496-.022.286-.171.567-.29.837-.03.068-.196.144-.25.117-.102-.051-.212-.163-.238-.27-.038-.157-.013-.331-.001-.498.067-.988-.126-1.94-.477-2.85a15.183 15.183 0 0 0-.915-1.893c-.764-1.373-1.557-2.73-2.106-4.211-.02-.055-.093-.09-.18-.17-.095.128-.215.24-.277.38-.297.671-.63 1.333-.857 2.029-.627 1.926-.865 3.912-.813 5.937.03 1.146.165 2.27.57 3.347.078.207.203.396.366.708.246-.403.408-.725.623-1.006"/><path fill="#FFF" d="M75.31 56.373c.392.473.92.522 1.45.365.468-.138.604-.58.692-1.014.032-.161.029-.33.042-.496h-.016c.003-.1.016-.2.007-.299-.084-.915-.332-1.764-1.022-2.42-.632-.6-1.378-.52-1.845.219a2.2 2.2 0 0 0-.334 1.522c.116.822.51 1.5 1.026 2.123m-20.532.433c.55.177.995-.112 1.322-.502.74-.882.922-1.902.558-3.001a1.295 1.295 0 0 0-.3-.51.992.992 0 0 0-.51-.272c-.627-.09-1.402.328-1.63.924-.2.524-.305 1.084-.419 1.506.04.34.052.542.09.738.102.525.366.948.89 1.117"/><path fill="#FFFF45" d="M62.872 29.491a90.819 90.819 0 0 0-1.262-2.144c-.07-.115-.41-.797-.435-.455-.127 1.798.254 3.38.377 5.025.171-.017.25 0 .295-.033.65-.48.937-1.184 1.13-1.932.034-.137-.03-.327-.105-.46m-.561 7.208c-.249.056-.392.225-.363.514.098.961.18 1.925.284 2.886.017.155.111.302.171.457.137-.024.239-.025.327-.06 1.835-.723 2.83-2.13 3.232-4.014a2.213 2.213 0 0 0-.154-1.37c-.2-.457-.42-.906-.647-1.351-.064-.127-.182-.225-.318-.387-.152.442-.244.8-.394 1.132-.446.986-.942 1.931-2.138 2.194m40.011 37.333c-.346.286-.634.56-.956.78-.343.236-.719.423-1.08.631.367.39.745.714 1.029 1.107.28.387.465.843.727 1.337.499-.86 1.257-1.316 2.026-1.778-1.116-.916-1.148-.956-1.746-2.077M32.058 43.363c.623.681.98 1.503 1.294 2.353.047.126.148.233.292.454.231-2.042 1.094-3.559 2.843-4.696-.352-.156-.559-.252-.769-.34-1.062-.445-1.84-1.185-2.304-2.246-.16-.366-.306-.74-.461-1.108-.044-.104-.099-.202-.205-.42-.197.678-.333 1.22-.514 1.748-.197.572-.486 1.11-.922 1.532-.398.384-1.338.863-1.948.982.22.141.995.38 1.164.47.598.318 1.077.775 1.53 1.271"/><path fill="#00EEF1" d="M62.584 41.487c-.015.098-.056.2-.04.29.045.264.102.525.173.783.148.543.214.587.763.565 1.621-.066 3.436-1.48 3.888-3.032.103-.356.164-.711.04-1.083-.201-.599-.379-1.205-.565-1.808l-.19-.04c-.63 2.139-1.862 3.696-4.07 4.325m-.831-8.312c.04.431.022.867.047 1.3.02.332.055.665.108.994.052.32.28.426.588.306a1.54 1.54 0 0 0 .809-.713c.282-.526.525-1.075.77-1.62.43-.957.28-1.811-.475-2.548-.023-.023-.055-.036-.174-.11-.175.28-.294.52-.46.721-.23.281-.454.602-.754.78-.377.222-.497.478-.459.89"/><path fill="#E36255" d="M51.314 43.32c-.185-.556-.4-1.1-.774-1.574-.142.92-.21 1.805.114 2.73.334-.201.506-.48.646-.772a.565.565 0 0 0 .014-.384"/><path fill="#00EEF1" d="M72.85 69.422c-3.958.407-7.922.471-11.892.281a272.956 272.956 0 0 1-3.698-.197c-.933-.057-1.863-.14-2.795-.208-1.226-.09-2.451-.175-3.844-.275.154.262.208.38.284.481.947 1.258 1.936 2.483 3.108 3.535.767.689 1.558 1.387 2.44 1.906 4.6 2.709 9.542 3.86 14.878 3.183 4.807-.61 9.041-2.47 12.68-5.686 1.466-1.297 2.684-2.792 3.594-4.531.149-.284.244-.57.465-1.052-.296.074-.735.122-1.021.182-4.7.992-9.415 1.888-14.199 2.381"/><path fill="#00EEF1" d="M110.427 49.599c-1.516-.937-3.137-1.65-4.913-1.911-1.55-.229-3.107-.423-4.664-.583a68.57 68.57 0 0 0-11.596-.232c-.121.008-.237.07-.427.13l.838 1.973c.09.209.264.29.477.3.2.01.401.013.602.014 2.27.014 4.535.101 6.798.317 1.27.122 2.503.399 3.717.765.816.245 1.51.706 2.086 1.337.697.768.886 1.632.433 2.591a8.81 8.81 0 0 1-.584 1.05c-.77 1.173-1.81 2.045-3.026 2.722-2.225 1.241-4.56 2.236-7.009 2.92-2.18.61-4.38 1.17-6.595 1.636a120.29 120.29 0 0 1-17.833 2.393c-3.166.185-6.33.346-9.501.336a79.42 79.42 0 0 0-1.702.016c-2.44.045-4.873-.113-7.294-.376a58.082 58.082 0 0 1-7.582-1.344 83.133 83.133 0 0 1-4.724-1.3 8.048 8.048 0 0 1-3.241-1.933c-1.097-1.061-1.083-3.102.285-4.056.465-.323.953-.618 1.455-.879 2.518-1.304 5.235-1.975 8-2.474.882-.158 1.774-.25 2.693-.378l.515-2.004c-.465.057-.795.082-1.117.141-1.804.331-3.606.677-5.41 1.006-3.383.62-6.721 1.416-9.988 2.505-1.562.52-3.04 1.205-4.394 2.145-.41.285-.815.593-1.158.953-1.066 1.119-1.023 2.692.086 3.75.313.3.662.562 1.01.823 1.451 1.094 3.068 1.882 4.743 2.564 3.834 1.558 7.847 2.373 11.927 2.9 3.309.425 6.623.797 9.95 1.062 3.793.302 7.59.517 11.396.607 3.076.074 6.137-.121 9.188-.474a109.11 109.11 0 0 0 10.165-1.676c3.522-.75 7.048-1.488 10.547-2.338 3.681-.893 7.166-2.336 10.471-4.195 1.935-1.09 3.656-2.459 5.114-4.147a7.325 7.325 0 0 0 1.625-3.293c.318-1.468-.09-2.575-1.363-3.363"/><path fill="#E36255" d="M83.253 39.278c-.036.263-.06.53-.05.794.009.19.024.442.142.551.402.374.775.801 1.312 1.05.14-1.291-.326-3.144-1.119-4.312-.11.737-.206 1.326-.285 1.917"/><path fill="#FFFF45" d="M72.77 69.415c1.04.07 2.125.103 3.281.03 1.347-.084 2.894-.065 4.389-.405a.891.891 0 0 0 .273.09c-1 .418-1.963.806-2.868 1.185-3.513 1.459-7.34 3.67-10.011 4.367-2.564.654-4.133 1.733-6.71 2.282-.123.025-.247.044-.372.064 1.228.434 2.48.761 3.755.977 1.864-.712 3.591-1.46 5.454-2.186 2.474-.998 5.404-1.903 8.826-3.5 2.46-1.15 5.452-2.402 8.525-4.13.052-.093.105-.183.155-.278.149-.284.244-.57.465-1.052-.296.074-.735.122-1.021.182-4.681.988-9.377 1.88-14.14 2.374m-18.383 1.456c2.809-2.07 4.57.48 7.275.46 1.722-.003 3.848-1.022 5.994-1.658a84.31 84.31 0 0 1-6.875-.055 272.956 272.956 0 0 1-3.699-.197c-.932-.057-1.862-.14-2.794-.207l-2.255-.162c-.337.24-.676.49-1.016.747.596.78 1.216 1.54 1.89 2.25.498-.416.99-.811 1.48-1.178m12.28-24.191c3.963 1.724 7.175 3.25 10.26 4.385a.444.444 0 0 0 .135-.28c.013-.198-.038-.399-.03-.597.012-.321.206-.554.45-.575.25-.021.465.147.583.456.137.36.137.723-.038 1.066-.046.09-.096.175-.154.267.328.113.655.222.982.324.025-.063.05-.127.082-.187.136-.256.355-.358.565-.285.263.091.357.315.343.552-.004.07-.011.14-.021.209.182.052.365.104.548.152-.21.068-.419.127-.628.183a1.516 1.516 0 0 1-.621.815c-.22.144-.465.248-.696.368.01.45.044.89.04 1.323 1.963-.135 4.008-.813 6.073-1.87l.025-.013a25.75 25.75 0 0 0 5.313.055 20.811 20.811 0 0 0-.499-2.154 19.737 19.737 0 0 0-1.242-3.211 91.56 91.56 0 0 1-3.345 2.26 32.425 32.425 0 0 1-3.166-.4c-4.225-.729-8.296-2.288-13.465-4.384a286.157 286.157 0 0 0-3.543-1.41c-.47.138-.953.193-1.453.144-.441-.044-.758-.258-.92-.667a12.763 12.763 0 0 1-.167-.447c-.923-.346-1.873-.694-2.862-1.045-1.207-.429-2.42-.859-3.702-1.363-.183.14-.365.283-.545.43-.418.343-.627.677-.564 1.195a85.99 85.99 0 0 0 2.975 1.13c3.514 1.247 6.61 2.409 9.287 3.575"/><path fill="#FFFF45" d="M55.308 51.247a39.41 39.41 0 0 0-1.112-.134c.169.395.484.55.998.475.516-.075.996-.084 1.423.245.467.359.728.85.872 1.418v.002c1.806.255 3.471.566 5.021.962 5.08 1.29 9.089 3.18 13.451 4.407 4.01 1.126 8.417 1.665 14.178-.207.05-.752.066-1.5.046-2.247-.105.04-.213.08-.318.116-4.794 1.651-8.622 1.445-12.212.67a2.91 2.91 0 0 1-.717.482c-.664.32-1.285.247-1.89-.153-.48-.317-.875-.787-1.164-1.33-3.193-.973-6.436-2.2-10.288-3.212-2.435-.64-5.186-1.077-8.288-1.494m30.559-14.771c-.346-.548-.795-.854-1.285-.642-.132.065-.259.13-.388.196.036.223.08.426.141.559.376.818.704 1.663.982 2.52a7.06 7.06 0 0 1 .35 1.73l.162-.067c.312-.1.515-.382.63-.762.058.01.113.022.17.033a12.305 12.305 0 0 0-.488-2.727 19.939 19.939 0 0 0-.274-.84M51.994 52.87a.9.9 0 0 1 .064-.164c.064-.126.236-.235.378-.268.082-.019.23.11.3.207.085.12.151.212.208.282l.381.027c.064-.07.14-.173.239-.308.04-.054.066-.116.12-.211-.12-.207-.267-.426-.38-.66a1.354 1.354 0 0 1-.146-.591c-.856-.078-1.741-.147-2.66-.221-.718-.057-1.437-.152-2.176-.248a23.342 23.342 0 0 0-.483 1.868c.612.062 1.209.122 1.805.158.802.05 1.588.087 2.35.129m16.209-14.037c.119.442.144.882.075 1.311a47.899 47.899 0 0 0 4.33 1.397c2.32.612 4.445 1.142 6.558 1.123a9.779 9.779 0 0 0 1.708-.168.305.305 0 0 1-.181-.1.887.887 0 0 1-.135-.364c-.075-.462-.134-.927-.201-1.39-.201-1.374-.204-1.369-1.393-2.052-.155-.09-.312-.176-.47-.261-.032.005-.063.012-.095.018-1.973.341-4.062-.063-6.272-.467a43.494 43.494 0 0 1-4.62-1.117c.24.687.507 1.368.696 2.07"/><path fill="#FFFF45" d="M89.06 61.453c.537-.108.843-.31.932-.946.024-.175.046-.351.067-.526-2.713.787-5.228 1.067-7.391 1.139-4.88.186-8.772-1.042-12.57-2.46-3.642-1.366-7.224-2.85-11.836-3.652-.204-.039-.415-.073-.626-.108a4.004 4.004 0 0 1-.658 1.723c4.567.687 8.148 2.11 11.843 3.545 3.692 1.42 7.576 2.74 12.48 2.816.824-.138 1.647-.286 2.469-.443 1.768-.338 3.524-.732 5.29-1.088M59.418 50.327c5.268 1.18 9.145 2.858 12.995 3.912.308.084.617.159.926.23-.073-.595-.024-1.194.176-1.723.035-.094.074-.182.116-.267-.295-.057-.59-.118-.886-.183-3.675-.83-7.505-2.363-12.545-3.54a96.292 96.292 0 0 0-8.933-1.65 61.07 61.07 0 0 0-1.349-.178c-.326.576-.62 1.169-.887 1.78l.55.056c3.796.4 7.013.923 9.837 1.563m21.421-12.823c-.032.542-.03 1.089.012 1.642.05.632.173 1.259.23 1.891.033.396.014.797-.006 1.195-.002.04-.06.094-.122.13a14.43 14.43 0 0 0 1.535-.4l-.012-.061c-.278-1.479-.032-2.938.228-4.386.048-.271.122-.603.215-.951a28.5 28.5 0 0 1-2.08.94M58.097 59.838c4.056 1.017 7.401 2.752 11.2 4.488 1.363-.084 2.726-.177 4.085-.305l.162-.016c-.83-.295-1.618-.62-2.366-.957-3.995-1.812-7.5-3.778-11.884-4.983a29.55 29.55 0 0 0-3.078-.682 3.695 3.695 0 0 1-.266.21c-.773.549-1.57.505-2.274-.12a2.838 2.838 0 0 1-.43-.476c-1.808-.174-3.784-.266-5.981-.303a23.13 23.13 0 0 0 .004 2.084c4.315.016 7.774.275 10.828 1.06m-5.296-4.094c.008-.409.021-.82.034-1.29a124.89 124.89 0 0 0-5.366-.152c-.01.056-.02.112-.028.168a19.37 19.37 0 0 0-.198 1.74c2.035-.038 3.893-.037 5.607.045a2.145 2.145 0 0 1-.049-.511M48.87 37.56a16.363 16.363 0 0 0-.435 1.803 9.9 9.9 0 0 0 1.531.836c.065-.456.09-.901-.006-1.37-.103-.502-.076-.865.023-1.006a2.704 2.704 0 0 0-1.114-.263m1.553.598c.076.185.089.404.134.598.162.684.36 1.355.584 2.016.298.12.596.24.889.364.487.205.966.404 1.44.598a8.1 8.1 0 0 0-.204-.603 15.183 15.183 0 0 0-.916-1.893l-.024-.044c-.676-.293-1.323-.612-1.775-.944a3.169 3.169 0 0 0-.128-.092"/><path fill="#DFB9AE" d="M70.288 78.238h.008-.008m.023-.002c.31-.028.622-.06.936-.1 4.807-.611 9.04-2.47 12.68-5.687 1.462-1.295 2.677-2.786 3.587-4.52-.91 1.734-2.125 3.225-3.588 4.52-3.638 3.217-7.872 5.076-12.68 5.686-.313.04-.624.073-.935.1m4.548-9.047l.001-.002c4.035-.512 8.026-1.279 12.007-2.117-3.982.838-7.973 1.607-12.008 2.119m12.025-2.123"/><path fill="#46AFA6" d="M68.267 78.252a22.159 22.159 0 0 1-3.722-.313c1.864-.712 3.59-1.46 5.454-2.186 2.474-.998 5.404-1.903 8.826-3.5 2.46-1.15 5.451-2.402 8.525-4.13.05-.089.101-.177.149-.267-.91 1.734-2.126 3.225-3.588 4.52-3.639 3.217-7.873 5.076-12.68 5.686-.313.04-.625.073-.935.1l-.016.002h-.008c-.675.06-1.343.088-2.005.088m-7.476-1.29a24.552 24.552 0 0 1-2.621-1.104c.391.04.813.06 1.262.06 4.063 0 10.283-1.699 15.11-6.499a23.238 23.238 0 0 0 1.547-.04c1.347-.083 2.894-.065 4.388-.405a.891.891 0 0 0 .274.09c-1 .418-1.963.806-2.869 1.185-3.512 1.459-7.34 3.67-10.01 4.367-2.564.654-4.133 1.733-6.71 2.282-.123.025-.247.044-.371.064"/><path fill="#DFB93F" d="M64.507 78.005a22.331 22.331 0 0 1-3.755-.977c.124-.02.249-.039.372-.064 2.576-.55 4.146-1.628 6.709-2.282 2.671-.698 6.498-2.908 10.01-4.367.907-.38 1.87-.767 2.87-1.184a.891.891 0 0 1-.274-.09c-1.494.339-3.041.32-4.388.403a21 21 0 0 1-1.547.041c.1-.1.201-.202.3-.304 4.036-.512 8.027-1.28 12.009-2.12a.575.575 0 0 1 .045-.01l.052-.01c.286-.06.725-.108 1.021-.182-.22.481-.316.768-.465 1.052l-.006.01c-.048.091-.1.179-.149.269-3.073 1.727-6.065 2.979-8.525 4.128-3.422 1.598-6.352 2.503-8.826 3.5-1.863.727-3.59 1.475-5.453 2.187"/><path fill="#46AFA6" d="M81.58 61.182c-.6 0-1.184-.02-1.756-.06.176-.48.34-.975.493-1.483a21.72 21.72 0 0 0 2.407.134c2.22 0 4.64-.346 7.363-1.231.05-.751.066-1.5.046-2.246l-.318.116c-2.632.906-4.972 1.253-7.143 1.253-.62 0-1.227-.029-1.822-.08.222-1.009.4-2.067.529-3.177 1.023-.32 2.06-.757 3.102-1.29l.026-.013c.938.108 1.9.166 2.895.166.782 0 1.587-.036 2.417-.11a21.172 21.172 0 0 1 .324 3.782 26.021 26.021 0 0 1-.193 3.082c-2.713.787-5.228 1.067-7.391 1.139-.33.012-.657.018-.979.018m7.733-10.202a19.651 19.651 0 0 0-1.234-3.184 91.56 91.56 0 0 1-3.345 2.26 32.376 32.376 0 0 1-3.118-.39c-.024-2.218-.224-4.606-.628-7.177a14.485 14.485 0 0 0 1.523-.397c.071.372.154.744.27 1.104a.292.292 0 0 0 .271.203.284.284 0 0 0 .139-.037c.099-.055.213-.195.214-.297v-.008c0-.325-.048-.652-.09-1.111.271.18.461.275.616.412 2.644 2.34 4.394 5.24 5.382 8.622"/><path fill="#DFB93F" d="M81.413 54.338c.172-1.486.255-3.066.237-4.744a32.03 32.03 0 0 0 3.118.391 91.561 91.561 0 0 0 3.345-2.26 19.651 19.651 0 0 1 1.234 3.184v.002a.12.12 0 0 0 .008.026l.05.179c.184.656.331 1.315.449 1.975-.83.075-1.635.11-2.418.11-.995 0-1.957-.057-2.895-.166l-.025.013c-1.042.534-2.08.97-3.103 1.29"/><path fill="#46AFA6" d="M86.37 43.247c-.473-.321-.783-.62-.785-1.124 0-.07.006-.143.018-.22a4.728 4.728 0 0 0 .043-1.042l.163-.067c.312-.1.515-.382.63-.763l.17.034c-.059-.91-.218-1.81-.482-2.704a12.228 12.228 0 0 1 .45 4.74c-.037.36-.128.715-.207 1.146m-5.518-3.977a11.983 11.983 0 0 1-.035-.917c0-1.746.377-3.437.984-5.083.36-.973.78-1.5 1.483-2.088.047.044.112.08.137.133.93 1.956 1.912 3.887 2.55 5.97a22.006 22.006 0 0 0-.239-.723c-.272-.429-.605-.71-.973-.71a.779.779 0 0 0-.312.068c-.131.065-.258.13-.387.196.028.18.063.349.107.476-.173-.495-.205-1.587-.232-1.738-.008-.048-.088-.105-.143-.115a.135.135 0 0 0-.022-.002c-.054 0-.127.026-.151.063-.277.504-.523 1.228-.7 1.89-.7.344-1.389.665-2.08.94-.031.54-.03 1.088.013 1.64"/><path fill="#DFB93F" d="M82.826 59.773a21.72 21.72 0 0 1-2.406-.134c.198-.66.376-1.345.533-2.054.595.051 1.201.08 1.821.08 2.171 0 4.512-.347 7.144-1.253l.318-.116c.02.746.004 1.495-.046 2.246-2.724.885-5.143 1.231-7.364 1.231m2.84-18.933a7.013 7.013 0 0 0-.35-1.731 23.284 23.284 0 0 0-.98-2.52c-.013-.026-.023-.053-.035-.083a2.91 2.91 0 0 1-.107-.476l.388-.197a.779.779 0 0 1 .311-.067c.368 0 .702.281.974.71.083.24.163.48.238.724l.036.116.006.02v.003c.264.894.423 1.795.483 2.704-.058-.01-.113-.023-.171-.033-.115.38-.318.662-.63.762l-.163.068M81.33 62.886a28.125 28.125 0 0 1-2.102-.111c.263-.575.51-1.174.737-1.795a25.121 25.121 0 0 0 2.735.042c2.163-.072 4.678-.352 7.392-1.139-.018.146-.036.293-.056.439l-.012.088c-.09.635-.395.837-.931.946-1.767.355-3.523.749-5.29 1.087-.824.158-1.647.305-2.473.443m-.365-20.527v-.004a.399.399 0 0 0 .068-.053.172.172 0 0 0 .034-.045.067.067 0 0 0 .008-.024v-.002c.012-.239.024-.48.024-.72a5.48 5.48 0 0 0-.019-.474c-.056-.632-.18-1.26-.229-1.892-.042-.552-.044-1.1-.012-1.641a28.57 28.57 0 0 0 2.08-.94 12.623 12.623 0 0 0-.215.951c-.18.995-.351 1.996-.35 3.005 0 .458.035.918.122 1.38l.012.062c-.508.16-1.014.295-1.523.397"/><path fill="#63EFE6" d="M59.48 64.705c-.862 0-1.724-.01-2.586-.029a162.864 162.864 0 0 1-5.8-.25c-.865-.05-1.723-.2-2.584-.302-.373-.044-.585-.22-.659-.621-.358-1.946-.608-3.893-.608-5.853a20.386 20.386 0 0 1 .051-1.488c.813-.015 1.598-.024 2.356-.024 1.14 0 2.222.02 3.251.07.062.277.18.528.342.757-1.807-.173-3.781-.265-5.977-.302a23.13 23.13 0 0 0 .004 2.083c4.315.017 7.774.276 10.828 1.061 3.103.778 5.791 1.977 8.585 3.275a19.897 19.897 0 0 1-1.732 1.48 102.22 102.22 0 0 1-5.47.143m8.624-3.132c-2.824-1.35-5.578-2.65-8.81-3.54a29.52 29.52 0 0 0-3.076-.681c.258-.22.482-.473.67-.75 4.566.688 8.147 2.111 11.84 3.545l.383.147c-.322.442-.658.868-1.007 1.279m2.061-2.875l-.159-.059c-3.642-1.366-7.224-2.85-11.836-3.652-.204-.039-.414-.073-.624-.107a4.117 4.117 0 0 0-.09-1.565c1.804.255 3.47.566 5.02.962 3.156.802 5.9 1.836 8.571 2.798-.274.558-.568 1.1-.882 1.623m-14.207-1.142l.002-.002-.002.002m-2.288-.12l-.004-.003.004.004m-.801-1.419a2.191 2.191 0 0 1-.017-.322v.05c0 .094.005.184.017.272m18.93-.654c-2.55-.834-5.204-1.765-8.236-2.56-2.436-.642-5.187-1.078-8.289-1.495-.363-.05-.734-.093-1.111-.133.14.33.385.492.764.492a1.618 1.618 0 0 0-.004 0c-.493 0-.76-.272-.864-.842-.071-.392-.27-.46-.394-.463h-.003c-.13 0-.316.127-.379.249-.079.152-.114.31-.114.467-.855-.078-1.74-.146-2.658-.22-.717-.057-1.436-.152-2.175-.248a23.342 23.342 0 0 0-.483 1.868c.611.061 1.208.121 1.805.158.801.05 1.587.087 2.349.128a.936.936 0 0 0-.036.258c0 .277.12.558.339.768.163.157.37.269.582.418l-.006.198a124.89 124.89 0 0 0-5.366-.152c-.01.056-.02.112-.028.168.297-1.858.694-3.679 1.413-5.422a19.937 19.937 0 0 1 2.31-4.097c.097-.132.21-.252.46-.553.133.602.222.987.302 1.374.054.261.063.538.157.783.042.112.228.25.336.25.008 0 .015 0 .021-.002.118-.023.26-.21.285-.346a1.73 1.73 0 0 0 .029-.317c0-.13-.015-.26-.047-.38-.228-.872-.392-1.777-.75-2.595-.635-1.445-1.174-2.912-1.536-4.448.161.684.36 1.354.584 2.016.298.12.596.24.888.364.487.205.967.404 1.441.598a8.18 8.18 0 0 0-.197-.583c.3.782.482 1.596.482 2.438 0 .13-.004.26-.013.391-.007.1-.019.204-.019.304 0 .067.005.132.02.195a.478.478 0 0 0 .237.27.064.064 0 0 0 .03.005c.07 0 .195-.064.22-.122.12-.27.269-.551.29-.837.018-.23.032-.463.032-.695 0-.272-.02-.542-.076-.8a1.618 1.618 0 0 1-.04-.349c0-.408.198-.698.548-.992-.398.335-.595.665-.535 1.17a85.99 85.99 0 0 0 2.975 1.13c3.514 1.247 6.61 2.409 9.287 3.575 2.432 1.057 4.58 2.04 6.59 2.904-.098.867-.248 1.74-.453 2.613l-.004-.001c-3.675-.83-7.505-2.363-12.545-3.539a96.292 96.292 0 0 0-8.933-1.65 61.071 61.071 0 0 0-1.348-.18 19.29 19.29 0 0 0-.888 1.78l.55.057c3.796.401 7.013.923 9.837 1.563 5.18 1.16 9.014 2.802 12.801 3.859-.134.41-.279.814-.434 1.21m-24.311-.916l.004-.025-.004.025m5.67-1.476c-.103 0-.204-.144-.408-.431.085.119.151.212.207.282.128.008.255.018.382.027.05-.057.11-.135.183-.233-.176.237-.271.355-.364.355m20.199-5.716a173.848 173.848 0 0 1-5.236-2.05 285.904 285.904 0 0 0-3.542-1.41 4.43 4.43 0 0 0 .406-.14c1.257-.503 2.206-1.362 2.88-2.53.19-.328.311-.67.367-1.018 1.52.566 2.957 1.03 4.327 1.395l.026.007c.512 1.822.779 3.757.772 5.746m-24.44-.179c-.138-.257-.245-.428-.315-.613-.405-1.078-.54-2.202-.57-3.347a21.705 21.705 0 0 1-.007-.545c.001-1.837.25-3.64.82-5.393.227-.696.56-1.357.858-2.028.06-.14.18-.252.277-.381.086.08.158.115.179.17.549 1.482 1.342 2.839 2.106 4.212l-.025-.044c-.676-.293-1.323-.612-1.774-.944a2.966 2.966 0 0 0-.124-.089.572.572 0 0 0-.333-.336.135.135 0 0 0-.05-.01c-.041 0-.077.022-.107.064a2.705 2.705 0 0 0-1.112-.262 16.363 16.363 0 0 0-.434 1.802 9.9 9.9 0 0 0 1.53.837 4.54 4.54 0 0 0 .058-.715c0 .372-.055.739-.123 1.121a13.118 13.118 0 0 0-.223 2.26c0 .677.072 1.353.255 2.023.048.177.075.342.075.499 0 .285-.086.545-.287.808-.146.19-.268.4-.408.642l-.439-.048c.05.094.108.196.173.317m13.12-4.252c-.923-.345-1.873-.693-2.862-1.044-1.206-.429-2.42-.859-3.701-1.363a23.33 23.33 0 0 0-.51.401c1.71-1.396 3.581-2.51 5.596-3.393.147-.064.303-.104.532-.182.137.674.15 1.303.25 1.917.167 1.023.332 2.046.527 3.064.038.203.098.403.167.6m-8.85-1.764l-.006-.016.006.016m1.714-.189l.003-.002-.003.002m.011-.009v-.001m-5.026-1.655v-.001.001m18.284-.348l-.002-.005.002.005m-18.338-.052l-.002-.008.002.008m-.027-.142v-.006.006m-.001-.008l-.001-.005.001.005m-.002-.009v-.003.003m18.124-.598c-.15-.45-.32-.896-.476-1.344-.096-.276-.214-.546-.356-.904.281-.007.557-.011.829-.011a24.5 24.5 0 0 1 2.033.08c.39.563.75 1.153 1.077 1.765a43.402 43.402 0 0 1-3.576-.91c.155.441.32.88.47 1.324"/><path fill="#FCF97F" d="M73.258 49.585c-2.01-.864-4.159-1.847-6.59-2.904-2.677-1.166-5.773-2.328-9.287-3.575a85.99 85.99 0 0 1-2.975-1.13c-.061-.505.136-.835.534-1.17l.002-.001.003-.002a.051.051 0 0 0 .003-.003l.001-.001.004-.004h.001l.016-.014.036-.03c.168-.136.338-.269.51-.4 1.28.504 2.494.934 3.7 1.363.99.35 1.94.699 2.862 1.044.053.15.11.3.169.448.16.409.478.623.919.667a3.843 3.843 0 0 0 1.455-.143c1.238.482 2.42.955 3.541 1.41 1.87.757 3.595 1.445 5.236 2.048a21.976 21.976 0 0 1-.14 2.397m-2.176 7.427c-2.672-.961-5.415-1.995-8.572-2.797-1.55-.396-3.215-.707-5.02-.962v-.002c-.145-.568-.406-1.06-.873-1.418-.284-.219-.59-.288-.916-.288a3.58 3.58 0 0 0-.546.048 1.618 1.618 0 0 1-.195.013c-.378 0-.622-.162-.764-.493.378.04.748.085 1.112.134 3.102.417 5.853.853 8.288 1.494 3.033.796 5.687 1.726 8.237 2.561-.229.586-.48 1.157-.751 1.71m-17.757-4.058c-.126-.01-.253-.018-.381-.027a6.277 6.277 0 0 1-.208-.282c-.064-.091-.199-.209-.283-.209-.006 0-.011 0-.017.002-.142.033-.314.142-.378.268a.904.904 0 0 0-.065.164c-.762-.042-1.547-.078-2.349-.129a44.658 44.658 0 0 1-1.805-.158c.136-.63.295-1.252.483-1.868.74.096 1.458.19 2.175.248.919.074 1.803.143 2.659.22 0 .182.046.365.124.54l.001.003.023.048c.113.235.26.454.38.66-.054.096-.08.158-.12.212l-.056.075a3.503 3.503 0 0 1-.183.233m19.31-11.407l-.026-.006a47.371 47.371 0 0 1-4.327-1.396 3.098 3.098 0 0 0-.063-1.249l-.001-.005v-.003a12.767 12.767 0 0 0-.242-.8c-.15-.444-.315-.883-.47-1.325 1.239.371 2.422.668 3.577.91a19.303 19.303 0 0 1 1.552 3.874M69.2 60.314a95.291 95.291 0 0 1-.382-.146c-3.694-1.434-7.274-2.858-11.84-3.544a4.01 4.01 0 0 0 .657-1.724c.21.035.42.07.624.108 4.612.802 8.194 2.286 11.836 3.652l.16.06a21.982 21.982 0 0 1-1.055 1.594m3.02-6.129c-3.788-1.056-7.623-2.698-12.802-3.858-2.824-.64-6.04-1.162-9.837-1.563-.181-.02-.365-.038-.55-.057.266-.61.561-1.203.887-1.78.462.057.912.116 1.349.179 3.39.47 6.32 1.035 8.933 1.65 5.04 1.177 8.87 2.71 12.545 3.54h.004a23.008 23.008 0 0 1-.53 1.89m-5.537 8.927c-2.794-1.298-5.482-2.497-8.585-3.275-3.054-.785-6.513-1.044-10.828-1.06a23.13 23.13 0 0 1-.004-2.084c2.195.037 4.17.129 5.977.302a2.818 2.818 0 0 0 .421.466s.002 0 .003.002l.004.004.006.005c.377.334.78.502 1.191.502.358 0 .723-.127 1.083-.383l.008-.005.002-.002c.09-.064.175-.131.258-.202 1.08.183 2.1.407 3.076.682 3.232.888 5.985 2.19 8.81 3.539a20.693 20.693 0 0 1-1.422 1.509M52.85 56.255c-1.029-.05-2.11-.07-3.25-.07-.76 0-1.544.01-2.357.024a19.369 19.369 0 0 1 .194-1.714l.004-.025.028-.168c1.925.022 3.712.062 5.366.153l-.02.718-.014.57a2.191 2.191 0 0 0 .05.512M49.966 40.2a9.9 9.9 0 0 1-1.53-.837 16.24 16.24 0 0 1 .433-1.803c.34.002.724.083 1.113.262-.088.126-.118.429-.051.847v.005l.001.003v.004l.002.006v.007l.024.126.002.008.001.008c.027.135.045.267.054.399v.007a4.54 4.54 0 0 1-.049.957m3.5 1.532c-.475-.194-.955-.393-1.441-.598-.293-.124-.59-.244-.89-.364a21.996 21.996 0 0 1-.592-2.057c-.038-.182-.052-.383-.121-.554.042.029.083.057.124.089.451.332 1.098.651 1.774.944l.025.044c.34.612.664 1.241.916 1.893l.006.016.001.004c.074.193.139.387.198.583"/><path fill="#6A0B9B" d="M110.233 56.27c-1.458 1.688-3.179 3.057-5.114 4.146-3.305 1.86-6.79 3.302-10.471 4.196-3.498.849-7.025 1.587-10.547 2.337a108.857 108.857 0 0 1-10.165 1.676c-3.05.353-6.112.548-9.188.475-3.805-.09-7.603-.305-11.396-.608a206.194 206.194 0 0 1-9.95-1.062c-4.08-.526-8.093-1.341-11.926-2.9-1.676-.681-3.293-1.47-4.745-2.563a11.257 11.257 0 0 1-1.01-.823c-1.108-1.059-1.15-2.632-.085-3.75.343-.36.749-.668 1.158-.953 1.354-.94 2.832-1.625 4.394-2.146 3.267-1.089 6.605-1.885 9.988-2.504 1.805-.33 3.606-.675 5.41-1.006.323-.06.652-.084 1.117-.142l-.515 2.004c-.919.128-1.811.22-2.692.379-2.765.498-5.482 1.17-8 2.474-.503.26-.991.555-1.455.879-1.369.954-1.383 2.994-.286 4.056a8.05 8.05 0 0 0 3.24 1.933c1.561.482 3.14.91 4.726 1.3a58.116 58.116 0 0 0 7.581 1.344c2.42.263 4.854.42 7.294.375.568-.01 1.135-.016 1.702-.015 3.172.01 6.335-.152 9.5-.337a120.29 120.29 0 0 0 17.834-2.392 105.132 105.132 0 0 0 6.596-1.636c2.45-.684 4.783-1.68 7.008-2.92 1.216-.678 2.257-1.55 3.026-2.723a8.81 8.81 0 0 0 .584-1.05c.453-.958.264-1.822-.433-2.59a4.59 4.59 0 0 0-2.086-1.338c-1.214-.366-2.448-.643-3.717-.764-2.263-.216-4.527-.303-6.798-.318-.2 0-.401-.003-.602-.013-.213-.01-.387-.092-.477-.3l-.838-1.974c.19-.06.306-.121.427-.13a68.57 68.57 0 0 1 11.596.233c1.557.16 3.115.354 4.664.582 1.776.262 3.397.975 4.913 1.911 1.274.788 1.68 1.896 1.363 3.363a7.325 7.325 0 0 1-1.625 3.293zM87.59 67.9c-.91 1.739-2.128 3.233-3.594 4.53-3.639 3.217-7.873 5.076-12.68 5.687-5.336.677-10.278-.474-14.877-3.183-.883-.52-1.674-1.217-2.442-1.906-1.171-1.052-2.16-2.277-3.107-3.535-.076-.101-.13-.219-.285-.481 1.394.1 2.62.186 3.845.275.932.068 1.862.15 2.794.208 1.233.076 2.466.138 3.699.197 3.97.19 7.934.126 11.892-.281 4.784-.493 9.498-1.39 14.198-2.381.286-.06.725-.108 1.021-.182-.22.481-.315.768-.464 1.052zM46.7 58.666c.032.866.139 1.73.225 2.593.085.851.303 1.687.353 2.615-.354-.052-.642-.087-.928-.139-2.588-.47-5.15-1.054-7.669-1.819a7.553 7.553 0 0 1-2.624-1.406 5.1 5.1 0 0 1-.714-.697c-.773-.95-.613-2.183.388-2.88.963-.67 2.022-1.17 3.116-1.573a34.765 34.765 0 0 1 8.182-1.96c-.104.956-.227 1.808-.281 2.665a26.557 26.557 0 0 0-.047 2.601zm3.977-14.18c-.324-.924-.257-1.81-.114-2.73.373.474.589 1.018.774 1.574a.565.565 0 0 1-.015.385c-.139.292-.311.57-.645.77zm39.507 5.626c.22-.025.413-.069.604-.063 2.37.068 4.742.133 7.088.486 1.051.158 2.084.451 3.115.722.622.163 1.149.519 1.6.989.516.539.67 1.127.353 1.831-.473 1.056-1.093 2-2.038 2.684-.539.39-1.11.744-1.695 1.064-2.471 1.357-5.1 2.317-7.821 3.023-.095.025-.197.013-.344.021-.111-.914.223-1.788.185-2.685-.038-.902-.01-1.808-.077-2.707a26.492 26.492 0 0 0-.346-2.683c-.161-.884-.405-1.753-.624-2.682zm-5.417-8.502c-.537-.25-.91-.677-1.313-1.05-.117-.11-.132-.362-.14-.55a4.515 4.515 0 0 1 .049-.795c.079-.59.174-1.18.285-1.917.793 1.167 1.26 3.02 1.119 4.312zm-36.062 4.862c-.405-1.078-.54-2.201-.57-3.347-.052-2.025.186-4.012.813-5.937.226-.696.56-1.358.857-2.029.061-.139.182-.252.277-.381.087.08.159.116.18.17.548 1.482 1.342 2.839 2.105 4.212.34.612.664 1.241.916 1.893.35.91.543 1.862.477 2.85-.012.166-.037.341.001.498.025.107.136.219.237.27.054.027.22-.05.25-.117.12-.27.269-.551.29-.837.037-.496.061-1.016-.044-1.496-.135-.618.075-.985.537-1.364 1.719-1.41 3.603-2.534 5.632-3.423.146-.064.303-.104.531-.181.137.673.15 1.302.25 1.916.168 1.023.333 2.046.527 3.064.068.358.203.707.337 1.048.161.41.478.623.919.667a3.897 3.897 0 0 0 1.86-.284c1.258-.503 2.207-1.362 2.881-2.53.424-.733.503-1.53.288-2.33-.19-.709-.46-1.396-.703-2.09-.097-.276-.214-.545-.357-.904a25.453 25.453 0 0 1 3.283.103c3.021.308 5.89 1.124 8.539 2.648 1.188.683 1.191.678 1.392 2.051.068.464.126.928.2 1.39a.886.886 0 0 0 .136.365.313.313 0 0 0 .254.104c.082-.012.215-.104.218-.167.02-.398.04-.8.006-1.195-.056-.632-.18-1.259-.23-1.891-.158-2.074.237-4.068.95-6 .36-.974.78-1.5 1.483-2.089.047.044.111.079.137.133.946 1.992 1.95 3.96 2.585 6.087.467 1.563.618 3.147.455 4.764-.036.36-.127.715-.206 1.146-.537-.366-.867-.702-.767-1.345.145-.943-.016-1.878-.306-2.772a23.284 23.284 0 0 0-.982-2.52c-.202-.443-.236-1.661-.266-1.821-.008-.048-.087-.105-.143-.115-.053-.01-.145.019-.173.06-.423.77-.773 2.055-.914 2.842-.26 1.447-.506 2.906-.227 4.385.074.392.16.785.28 1.165a.286.286 0 0 0 .411.166c.1-.055.214-.195.214-.297.001-.327-.047-.656-.089-1.119.27.18.46.275.615.412 2.653 2.346 4.403 5.256 5.39 8.65.912 3.14 1.011 6.32.562 9.545-.09.635-.395.837-.931.946-1.766.355-3.523.749-5.29 1.087a109.773 109.773 0 0 1-10.297 1.47c-2.423.23-4.856.344-7.285.505-3.066.202-6.134.25-9.204.181a162.363 162.363 0 0 1-5.8-.25c-.864-.05-1.723-.199-2.583-.302-.374-.044-.585-.22-.66-.62-.554-3.011-.848-6.024-.359-9.081.298-1.858.694-3.678 1.414-5.422a19.937 19.937 0 0 1 2.31-4.096c.096-.133.209-.252.46-.554.133.602.222.987.301 1.374.054.262.064.538.157.784.045.119.254.268.358.247.118-.023.26-.21.285-.346.041-.225.04-.476-.018-.697-.228-.871-.392-1.777-.751-2.594-.635-1.446-1.173-2.913-1.536-4.449-.08-.34-.05-.764-.462-.93-.212-.086-.324.35-.18 1.06.125.606.048 1.172-.058 1.776-.25 1.42-.355 2.866.032 4.283.135.498.099.9-.213 1.307-.214.281-.376.603-.623 1.006-.162-.312-.287-.501-.365-.708zm13.143-14.643c-.044.033-.124.016-.295.033-.123-1.645-.504-3.227-.377-5.024.024-.342.365.34.435.455.429.71.852 1.422 1.262 2.143.075.134.14.325.104.462-.192.747-.479 1.45-1.13 1.931zm1.642-1.002c.119.075.15.088.173.11.755.737.906 1.591.476 2.548-.246.545-.488 1.094-.77 1.62a1.54 1.54 0 0 1-.81.714c-.307.12-.535.013-.587-.307a9.91 9.91 0 0 1-.108-.993c-.026-.433-.007-.87-.047-1.3-.039-.412.082-.669.458-.89.301-.178.525-.5.755-.78.166-.202.285-.442.46-.722zm1.483 2.573c.136.162.253.261.318.387.226.446.448.895.647 1.353.19.436.254.895.153 1.369-.402 1.885-1.396 3.29-3.231 4.014-.089.035-.19.036-.327.06-.06-.155-.155-.302-.171-.457-.104-.961-.186-1.925-.284-2.886-.03-.29.114-.458.363-.513 1.195-.263 1.692-1.208 2.138-2.195.15-.331.242-.689.394-1.132zm1.788 3.75l.19.041c.187.603.365 1.21.565 1.808.124.372.064.728-.04 1.083-.451 1.553-2.266 2.966-3.887 3.032-.549.022-.615-.022-.763-.565a8.052 8.052 0 0 1-.173-.782c-.016-.092.025-.193.04-.29 2.207-.63 3.44-2.187 4.068-4.326zm45.004 12.227c-.302-.26-.626-.51-.978-.691-1.337-.688-2.708-1.302-4.18-1.641-1.662-.383-3.353-.582-5.05-.7-3.862-.268-7.727-.405-11.6-.151-.365.024-.732.012-1.098.034-.304.02-.505-.112-.658-.362-.172-.286-.327-.594-.55-.837-.453-.497-.512-1.023-.35-1.664.259-1.007.314-2.043.277-3.087-.056-1.561-.48-3.034-.99-4.49-.6-1.709-1.44-3.31-2.233-4.932-.482-.993-.826-1.057-1.608-.262a7.334 7.334 0 0 0-1.887 3.264c-.298 1.1-.531 2.211-.573 3.357-.01.289-.06.576-.098.921a2.09 2.09 0 0 1-.522-.166c-3.203-1.824-6.675-2.654-10.328-2.807-.7-.029-1.4-.035-2.101-.032-.306.002-.504-.112-.627-.39a13.093 13.093 0 0 0-.437-.903c-.586-1.089-1.162-2.184-1.776-3.257-.531-.928-1.102-1.833-1.669-2.74-.335-.538-.665-1.084-1.055-1.582-.318-.406-.777-.323-.918.167-.128.442-.2.92-.188 1.38.036 1.303.104 2.606.203 3.906.09 1.167.294 2.326.34 3.494.051 1.247.315 1.137-1.09 1.783-1.921.882-5.666 3.508-5.798 3.589l-1.79-3.321c-.54-1.001-1.054-2.015-1.405-3.103-.113-.348-.184-.76-.635-.807-.418-.044-.646.292-.868.584-.141.186-.278.38-.381.589-.295.599-.613 1.19-.847 1.813a16.32 16.32 0 0 0-.981 4.393c-.207 2.442 0 4.812 1.175 7.017.122.227.143.436.044.668-.079.184-.155.37-.23.556-.37.921-.368.933-1.333 1.061-2.844.377-5.669.86-8.481 1.427a60.912 60.912 0 0 0-8.472 2.36 15.459 15.459 0 0 0-4.433 2.492c-.67.534-1.177 1.19-1.416 2.02-.35 1.215-.189 2.33.754 3.237.384.37.803.707 1.231 1.023 1.924 1.422 4.068 2.418 6.303 3.234 3.852 1.407 7.865 2.042 11.912 2.516 1.49.174 2.981.353 4.476.483.456.04.717.25.976.585.798 1.03 1.591 2.066 2.442 3.052 1.052 1.218 2.22 2.325 3.595 3.174 3.083 1.904 6.428 3.11 10.025 3.515 3.903.44 7.733.016 11.42-1.368 5.372-2.016 9.6-5.334 11.9-10.774.168-.396.446-.54.827-.62 1.144-.232 2.285-.474 3.425-.728a47.01 47.01 0 0 0 11.797-4.34c1.754-.928 3.349-2.08 4.734-3.505.58-.596 1.136-1.233 1.597-1.924.806-1.212 1.335-2.54 1.317-4.04-.012-.997-.387-1.825-1.136-2.47z"/><path fill="#6A0B9B" d="M31.305 40.774c.437-.422.725-.96.923-1.532.18-.526.317-1.069.514-1.746.106.217.161.315.204.418.156.37.301.743.462 1.109.464 1.06 1.241 1.8 2.304 2.246.21.087.417.183.769.34-1.75 1.137-2.612 2.653-2.843 4.696-.145-.221-.246-.328-.292-.454-.314-.85-.672-1.672-1.294-2.353-.453-.496-.932-.953-1.53-1.272-.17-.09-.943-.328-1.164-.47.61-.119 1.55-.598 1.947-.982zM28.37 42.09c.25.157.537.265.82.358 1.634.54 2.704 1.657 3.324 3.241.466 1.19.778 2.417.926 3.687.038.332.082.663.145.99.015.075.06.331.286.294.118-.02.127-.192.135-.282.029-.332.05-.666.049-1-.006-1.172-.003-2.344.28-3.492.52-2.122 1.586-3.735 3.887-4.202a.406.406 0 0 0 .206-.162c.201-.49-.945-.483-1.338-.534-1.343-.176-2.394-.776-3.023-2.025-.318-.63-.594-1.274-.69-1.98-.223-1.656-.438-3.314-.66-4.97-.058-.43-.123-.86-.205-1.286-.012-.062-.144-.152-.205-.14a.297.297 0 0 0-.195.185 2.59 2.59 0 0 0-.06.595c.01.602.046 1.204.052 1.807.01 1.07.032 2.141 0 3.21-.026.837-.155 1.671-.448 2.46-.5 1.349-1.388 2.15-2.883 2.436-.593.114-.58.27-.598.395a.51.51 0 0 0 .195.415zm73.51 35.734c-.262-.494-.447-.95-.727-1.336-.284-.394-.662-.718-1.03-1.107.362-.209.738-.396 1.082-.63.321-.223.61-.496.955-.781.598 1.12.63 1.16 1.746 2.076-.768.462-1.527.918-2.026 1.778zm4.232-2.035c-.229-.038-.463-.037-.696-.058-1.067-.097-2.416-1.061-2.515-2.47-.038-.534-.1-1.067-.1-1.6 0-1.34.035-2.678.043-4.017 0-.262-.034-.532-.102-.785-.024-.092-.192-.2-.296-.2-.105.001-.264.106-.302.203-.07.181-.087.39-.095.587-.026.636.046 1.28.036 1.917-.02 1.234-.253 2.256-.402 3.382-.127.963-.703 1.568-1.607 1.857a9.641 9.641 0 0 1-1.166.271c-.294.056-.602.046-.888.123a.515.515 0 0 0-.312.329c-.042.209.107.4.316.445.225.05.465.03.697.043.95.048 1.641.486 2.06 1.352a4.13 4.13 0 0 1 .378 2.531c-.183 1.122-.304 2.253-.443 3.382-.02.161-.028.34.018.491.034.105.163.237.26.247.1.01.242-.095.31-.19.071-.101.095-.247.113-.377.113-.761.217-1.523.324-2.285.115-.828.256-1.648.61-2.422.413-.904 1.065-1.53 2.018-1.813.445-.131.906-.21 1.36-.323a1.68 1.68 0 0 0 .454-.171c.066-.04.113-.176.101-.26-.008-.072-.103-.177-.174-.19zm-31.51-23.104c.466-.738 1.212-.819 1.844-.218.69.655.938 1.505 1.022 2.42.01.098-.004.199-.006.298l.015.001c-.013.165-.01.335-.042.496-.088.434-.224.875-.69 1.013-.532.157-1.06.108-1.452-.365-.515-.621-.91-1.3-1.026-2.122a2.205 2.205 0 0 1 .335-1.523zm.361 4.7c.605.4 1.226.473 1.89.153.922-.444 1.427-1.188 1.507-2.194.045-.556-.012-1.12-.024-1.704.23-.12.476-.225.695-.368.484-.317.69-.803.723-1.36.014-.237-.08-.46-.343-.551-.21-.074-.43.03-.565.285-.079.145-.115.314-.2.455-.15.246-.412.396-.671.354-.189-.03-.347-.249-.543-.401.227-.361.384-.577.503-.812.175-.343.176-.705.038-1.067-.117-.308-.332-.476-.583-.455-.243.02-.438.254-.45.575-.007.198.044.399.03.596a.48.48 0 0 1-.471.425c-.265-.007-.53-.055-.795-.06-1.107-.026-1.84.472-2.226 1.497-.589 1.562.107 3.722 1.485 4.632zm-20.83-3.995c.228-.596 1.003-1.014 1.63-.924a1 1 0 0 1 .509.272c.137.133.24.325.3.51.365 1.1.183 2.119-.558 3.002-.327.39-.772.678-1.321.501-.523-.169-.787-.592-.89-1.117-.038-.196-.049-.397-.09-.737.115-.422.22-.983.42-1.507zm-1.784.354c.164.157.371.269.583.418-.016.556-.03 1.021-.04 1.487-.014.72.302 1.282.825 1.746.704.625 1.5.668 2.274.12 1.318-.938 1.915-2.636 1.505-4.25-.145-.567-.406-1.058-.873-1.417-.427-.329-.907-.32-1.423-.245-.647.093-.982-.168-1.101-.824-.071-.392-.27-.46-.394-.463-.13-.002-.319.126-.382.249-.178.345-.132.714.034 1.058.113.235.26.453.382.66-.055.096-.082.158-.121.211-.426.577-.421.573-.828 0-.07-.098-.219-.226-.3-.207-.142.033-.314.142-.379.268-.197.384-.094.87.238 1.189zM62.54 57.01c.02-.136.02-.378.098-.592.048-.132.2-.288.33-.314.22-.046.375.13.413.339.047.26.041.529.07.792.032.296.047.598.122.884.088.335.309.574.644.71.539.218.799.028 1.138-.427.242-.326.481-.858.612-2.088.032-.291.48-.305.546.133.164 1.067.1 2.076-.66 2.899-.9.974-2.412.71-2.985-.487-.265-.554-.31-1.151-.328-1.849"/><path fill="#6E3F95" d="M102.527 96.653a56.085 56.085 0 0 1-7.421 5.227 56.094 56.094 0 0 1-10.835 4.902 55.998 55.998 0 0 0 19.184-9.942c-.221.08-.536.015-.928-.187m-68.416 0c-.265.136-.494.207-.685.218a55.97 55.97 0 0 0 17.373 9.365 55.84 55.84 0 0 1-9.267-4.356 56.023 56.023 0 0 1-7.42-5.227"/><path fill="#004B75" d="M64.261 107.897a56.433 56.433 0 0 1-19.082-5.803c.816-1 1.776-2.84 2.558-5.026 1.25-3.49 1.575-6.54.727-6.815-.847-.274-2.547 2.331-3.796 5.82-.714 1.996-1.125 3.846-1.188 5.118a55.524 55.524 0 0 1-8.096-5.483c1.16-.964 2.59-2.517 3.979-4.4 2.625-3.558 4.099-6.925 3.291-7.518-.807-.594-3.59 1.81-6.214 5.368-1.331 1.805-2.364 3.559-2.956 4.928a54.162 54.162 0 0 1-4.81-4.873 52.297 52.297 0 0 1-2.098-2.584c1.79-.47 4.602-1.916 7.532-3.971 4.449-3.12 7.47-6.448 6.746-7.433-.723-.985-4.915.746-9.363 3.866-2.927 2.053-5.227 4.191-6.258 5.697a52.996 52.996 0 0 1-4.541-7.891c1.78-.432 4.663-1.901 7.666-4.007 4.448-3.12 7.468-6.448 6.746-7.433-.723-.985-4.915.746-9.364 3.865-2.717 1.906-4.895 3.887-6.02 5.367a53.622 53.622 0 0 1-2.874-9.304c1.778-.421 4.68-1.897 7.702-4.016 4.448-3.12 7.468-6.448 6.745-7.433-.723-.985-4.915.746-9.363 3.866-2.407 1.688-4.389 3.433-5.592 4.84a53.71 53.71 0 0 1-.66-8.947c1.753-.346 4.766-1.852 7.913-4.06 4.449-3.12 7.47-6.448 6.746-7.433-.723-.985-4.915.746-9.363 3.866-2.14 1.501-3.944 3.048-5.166 4.362.19-2.652.602-5.245 1.213-7.778 1.617-.087 4.952-1.675 8.454-4.13 4.448-3.121 7.468-6.449 6.745-7.434-.723-.985-4.915.746-9.363 3.866-1.921 1.347-3.573 2.733-4.775 3.952 1.181-3.6 2.785-7.059 4.757-10.36 1.668-.345 4.727-2.147 7.868-4.742 4.18-3.456 6.92-7.007 6.12-7.933-.8-.926-4.839 1.125-9.02 4.58-3.71 3.066-6.28 6.204-6.253 7.52a52.64 52.64 0 0 0-7.235 24.468c-.217.461-.262.829-.09 1.061.013.019.036.03.052.046a53.073 53.073 0 0 0 .89 10.87c-.123.348-.127.628.013.819a.562.562 0 0 0 .175.152 53.797 53.797 0 0 0 1.038 4.199 53.27 53.27 0 0 0 2.501 6.811.608.608 0 0 0 .097.359c.026.035.067.06.101.088a55.201 55.201 0 0 0 5.597 9.559c.016.04.026.085.052.12.025.034.064.058.098.086A56.422 56.422 0 0 0 33 95.519c-.07.327-.08.593-.04.8.18.147.361.292.543.437.192-.012.42-.082.685-.219a56.023 56.023 0 0 0 7.422 5.227 55.84 55.84 0 0 0 9.266 4.356 56.589 56.589 0 0 0 14.041 2.7c.078-.379-.141-.862-.656-.923m39.702-12.377a56.467 56.467 0 0 0 8.157-8.911c.033-.028.072-.052.097-.086.026-.035.036-.08.052-.12a55.174 55.174 0 0 0 5.597-9.559c.035-.028.076-.053.101-.088a.605.605 0 0 0 .097-.359 53.27 53.27 0 0 0 2.502-6.811 53.674 53.674 0 0 0 1.037-4.199.558.558 0 0 0 .176-.152c.14-.191.136-.471.012-.82a53.04 53.04 0 0 0 .891-10.869c.016-.016.039-.027.052-.046.171-.232.126-.6-.09-1.06a52.645 52.645 0 0 0-7.235-24.47c.026-1.315-2.543-4.453-6.254-7.52-4.18-3.454-8.22-5.505-9.02-4.58-.8.927 1.94 4.478 6.121 7.934 3.14 2.595 6.2 4.397 7.867 4.742 1.973 3.301 3.576 6.76 4.758 10.36-1.202-1.22-2.855-2.605-4.775-3.952-4.449-3.12-8.64-4.85-9.364-3.866-.723.985 2.297 4.313 6.746 7.433 3.502 2.456 6.837 4.044 8.453 4.131a47.599 47.599 0 0 1 1.213 7.778c-1.221-1.314-3.025-2.86-5.165-4.362-4.449-3.12-8.64-4.85-9.363-3.866-.723.985 2.297 4.313 6.745 7.433 3.148 2.208 6.16 3.714 7.913 4.06a53.709 53.709 0 0 1-.659 8.946c-1.204-1.406-3.186-3.151-5.592-4.84-4.448-3.12-8.64-4.85-9.364-3.865-.722.985 2.298 4.313 6.746 7.433 3.022 2.12 5.923 3.595 7.701 4.016a53.583 53.583 0 0 1-2.874 9.304c-1.124-1.48-3.303-3.46-6.02-5.367-4.448-3.12-8.64-4.85-9.363-3.865-.723.985 2.297 4.313 6.745 7.433 3.004 2.106 5.886 3.575 7.666 4.007a52.952 52.952 0 0 1-4.54 7.891c-1.032-1.506-3.331-3.644-6.258-5.697-4.449-3.12-8.641-4.851-9.364-3.866-.722.985 2.298 4.313 6.746 7.433 2.93 2.055 5.742 3.5 7.532 3.971a52.014 52.014 0 0 1-2.098 2.584 54.162 54.162 0 0 1-4.81 4.873c-.591-1.37-1.624-3.123-2.956-4.928-2.625-3.559-5.407-5.962-6.214-5.368-.807.593.667 3.96 3.291 7.519 1.389 1.882 2.818 3.435 3.98 4.399a55.494 55.494 0 0 1-8.096 5.483c-.063-1.272-.474-3.122-1.189-5.118-1.249-3.489-2.948-6.094-3.796-5.82-.847.275-.522 3.326.727 6.815.783 2.186 1.742 4.025 2.559 5.026a56.432 56.432 0 0 1-19.083 5.803c-.52.061-.737.555-.652.936a56.68 56.68 0 0 0 12.47-2.167 56.094 56.094 0 0 0 10.834-4.902 56.085 56.085 0 0 0 7.421-5.227c.392.202.707.268.928.187l.203-.16c.142-.208.16-.564.058-1.045"/><path fill="#C0C90E" d="M62.236 107.909c-13.8-1.626-26.588-8.317-35.587-18.684-9.294-10.707-13.846-24.707-12.875-38.69.648-9.316 3.982-17.938 9.386-25.596.518-.733-.706-1.425-1.219-.697-9.364 13.27-12.083 29.832-7.57 45.355 3.887 13.37 13.039 25.01 25.213 32.179 6.919 4.074 14.644 6.57 22.652 7.513.9.106.892-1.275 0-1.38m51.921-83.426c9.075 13.223 11.916 29.864 7.385 45.201-3.785 12.814-12.52 23.98-24.15 30.946-6.795 4.068-14.43 6.615-22.335 7.54-.89.105-.902 1.487 0 1.381 14.175-1.659 27.34-8.41 36.604-19.07 9.539-10.976 14.365-25.378 13.293-39.747-.72-9.656-4.067-18.919-9.578-26.948-.503-.734-1.727-.044-1.219.697"/><path fill="#C0C90E" d="M22.38 18.436c0 5.352-1.004 9.69-2.244 9.69-1.24 0-2.246-4.338-2.246-9.69 0-5.352 1.006-9.691 2.246-9.691s2.245 4.339 2.245 9.69"/><path fill="#C0C90E" d="M28.461 23.804c-4.18 3.455-8.219 5.506-9.02 4.58-.8-.926 1.94-4.478 6.121-7.933 4.181-3.455 8.22-5.506 9.02-4.58.8.926-1.94 4.477-6.12 7.933m-5.339 14.742c-4.448 3.12-8.64 4.85-9.363 3.866-.723-.985 2.297-4.313 6.745-7.433 4.449-3.12 8.64-4.85 9.364-3.866.722.985-2.298 4.313-6.746 7.433m-.942 23.013c-4.448 3.12-8.64 4.85-9.363 3.865-.723-.984 2.297-4.313 6.746-7.432 4.448-3.12 8.64-4.851 9.363-3.866.723.985-2.297 4.313-6.746 7.433m4.237 11.506c-4.448 3.12-8.64 4.85-9.363 3.866-.723-.985 2.297-4.313 6.746-7.433 4.448-3.12 8.64-4.85 9.363-3.866.723.985-2.297 4.313-6.746 7.433m5.65 9.665c-4.449 3.12-8.64 4.85-9.363 3.866-.723-.985 2.297-4.313 6.745-7.433 4.449-3.12 8.64-4.85 9.363-3.865.724.984-2.297 4.312-6.745 7.432M21.24 49.592c-4.448 3.12-8.64 4.85-9.363 3.866-.723-.985 2.297-4.313 6.745-7.433 4.449-3.12 8.64-4.85 9.364-3.866.722.985-2.298 4.313-6.746 7.433"/><path fill="#C0C90E" d="M13.768 32.114c1.609 5.116 1.952 9.551.767 9.908-1.186.356-3.45-3.502-5.06-8.618-1.608-5.116-1.952-9.552-.766-9.908 1.185-.357 3.45 3.502 5.059 8.618M9.76 44.508c2.492 4.766 3.617 9.077 2.513 9.628-1.104.552-4.02-2.864-6.511-7.63-2.492-4.765-3.617-9.076-2.513-9.627 1.104-.552 4.02 2.864 6.511 7.63M8.548 56.914c3.694 3.951 5.945 7.817 5.03 8.635-.916.818-4.652-1.722-8.345-5.673C1.54 55.924-.71 52.059.203 51.24c.916-.818 4.652 1.722 8.345 5.673m2.994 13.027c4.622 2.87 7.83 6.025 7.165 7.048-.665 1.024-4.95-.472-9.572-3.341-4.622-2.87-7.83-6.026-7.165-7.049.665-1.023 4.95.473 9.572 3.343m3.8 11.52c5.245 1.532 9.21 3.715 8.855 4.877-.355 1.161-4.895.861-10.14-.67C8.81 84.136 4.845 81.953 5.2 80.79c.354-1.161 4.895-.861 10.14.67m21.697 9.915c-2.625 3.559-5.407 5.962-6.215 5.369-.807-.594.667-3.96 3.292-7.52 2.625-3.559 5.407-5.962 6.214-5.368.807.594-.667 3.96-3.291 7.519"/><path fill="#C0C90E" d="M24.447 94.821c4.425-.103 8.031.625 8.054 1.626.024 1.001-3.544 1.896-7.969 2-4.425.102-8.03-.625-8.054-1.626-.023-1.001 3.544-1.896 7.97-2m21.249 2.222c-1.249 3.49-2.948 6.095-3.796 5.82-.847-.274-.522-3.325.727-6.814 1.25-3.489 2.948-6.094 3.796-5.82.848.275.522 3.325-.727 6.814m69.176-78.607c0 5.352 1.005 9.69 2.246 9.69 1.24 0 2.245-4.338 2.245-9.69 0-5.352-1.005-9.691-2.245-9.691-1.24 0-2.246 4.339-2.246 9.69"/><path fill="#C0C90E" d="M108.892 23.804c4.181 3.455 8.22 5.506 9.02 4.58.8-.926-1.94-4.478-6.12-7.933-4.182-3.455-8.22-5.506-9.02-4.58-.801.926 1.939 4.477 6.12 7.933m4.358 14.742c4.45 3.12 8.641 4.85 9.364 3.866.723-.985-2.297-4.313-6.745-7.433s-8.64-4.85-9.364-3.866c-.722.985 2.298 4.313 6.746 7.433m.942 23.013c4.448 3.12 8.64 4.85 9.363 3.865.723-.984-2.297-4.313-6.746-7.432-4.448-3.12-8.64-4.851-9.363-3.866-.723.985 2.297 4.313 6.746 7.433m-3.767 11.506c4.448 3.12 8.64 4.85 9.363 3.866.724-.985-2.297-4.313-6.745-7.433-4.449-3.12-8.64-4.85-9.363-3.866-.723.985 2.297 4.313 6.745 7.433m-5.649 10.125c4.448 3.12 8.64 4.851 9.363 3.866.723-.985-2.297-4.313-6.746-7.433-4.448-3.12-8.64-4.85-9.363-3.865-.723.984 2.297 4.313 6.746 7.433m10.357-33.599c4.449 3.12 8.64 4.85 9.364 3.866.722-.985-2.298-4.313-6.746-7.433s-8.64-4.85-9.363-3.866c-.723.985 2.297 4.313 6.745 7.433"/><path fill="#C0C90E" d="M122.936 32.114c-1.609 5.116-1.952 9.551-.766 9.908 1.185.356 3.45-3.502 5.059-8.618 1.608-5.116 1.952-9.552.767-9.908-1.186-.357-3.45 3.502-5.06 8.618m3.819 12.394c-2.492 4.766-3.617 9.077-2.513 9.628 1.104.552 4.02-2.864 6.512-7.63 2.491-4.765 3.617-9.076 2.512-9.627-1.104-.552-4.019 2.864-6.51 7.63m1.354 12.405c-3.694 3.951-5.945 7.817-5.03 8.635.916.818 4.652-1.722 8.345-5.673 3.693-3.952 5.944-7.817 5.03-8.635-.916-.818-4.652 1.722-8.345 5.673m-3.16 13.026c-4.622 2.87-7.83 6.025-7.165 7.048.665 1.024 4.95-.472 9.571-3.341 4.622-2.87 7.83-6.026 7.165-7.049-.665-1.023-4.95.473-9.572 3.343m-3.552 11.52c-5.246 1.532-9.211 3.715-8.856 4.877.355 1.161 4.895.861 10.14-.67 5.246-1.532 9.211-3.715 8.856-4.877-.354-1.161-4.894-.861-10.14.67m-21.843 9.914c2.624 3.559 5.407 5.962 6.214 5.369.807-.594-.667-3.96-3.292-7.52-2.624-3.559-5.407-5.962-6.214-5.368-.807.594.666 3.96 3.292 7.519"/><path fill="#C0C90E" d="M112.57 94.361c-4.425-.103-8.03.625-8.054 1.625-.023 1.001 3.544 1.897 7.97 2 4.424.103 8.03-.625 8.053-1.626.023-1-3.545-1.896-7.97-1.999M91.12 97.043c1.249 3.49 2.948 6.095 3.796 5.82.847-.274.522-3.325-.727-6.814-1.25-3.489-2.948-6.094-3.796-5.82-.848.275-.522 3.325.727 6.814m-56.171 5.804c3.724-1.175 6.982-1.485 7.276-.692.295.793-2.485 2.389-6.209 3.564-3.724 1.175-6.982 1.484-7.276.691-.295-.793 2.485-2.388 6.209-3.563"/><path fill="#C0C90E" d="M100.985 102.847c-3.724-1.175-6.982-1.485-7.276-.692-.295.793 2.485 2.389 6.209 3.564 3.724 1.175 6.981 1.484 7.276.691.295-.793-2.485-2.388-6.21-3.563"/><path fill="#DCE52E" d="M22.055 14.053c.3 3-.05 5.49-.78 5.56-.732.069-1.566-2.307-1.866-5.308-.299-3 .05-5.49.781-5.559.731-.07 1.566 2.307 1.865 5.307M12.077 28.12c1.111 2.811 1.457 5.3.772 5.56-.685.258-2.14-1.813-3.251-4.625-1.111-2.812-1.457-5.302-.772-5.56.685-.259 2.14 1.812 3.251 4.624M7.647 40.29c1.677 2.53 2.537 4.897 1.92 5.287-.616.39-2.474-1.345-4.151-3.875-1.677-2.53-2.537-4.897-1.921-5.287.616-.39 2.474 1.344 4.152 3.874M6.028 54.448c2.253 2.06 3.672 4.154 3.17 4.678-.5.524-2.733-.72-4.985-2.78-2.253-2.06-3.672-4.154-3.17-4.678.501-.524 2.733.72 4.985 2.78M7.43 68.104c2.67 1.507 4.538 3.233 4.17 3.855-.366.621-2.829-.097-5.5-1.604-2.67-1.508-4.538-3.233-4.17-3.855.366-.622 2.829.096 5.5 1.604m3.497 12.502c3 .696 5.295 1.828 5.125 2.526-.169.698-2.74.7-5.74.002-3-.697-5.294-1.828-5.124-2.526.169-.698 2.74-.7 5.74-.002m10.99 14.299c3.071-.275 5.615.08 5.682.795.067.715-2.368 1.518-5.439 1.793-3.071.275-5.615-.08-5.682-.796-.067-.714 2.368-1.517 5.44-1.792m11.599 8.3c2.894-1.043 5.445-1.343 5.699-.67.254.674-1.885 2.065-4.78 3.108-2.893 1.043-5.444 1.343-5.698.67-.254-.674 1.886-2.065 4.78-3.108m81.461-89.152c-.3 3 .05 5.49.781 5.56.73.069 1.566-2.307 1.865-5.308.299-3-.05-5.49-.781-5.559-.731-.07-1.566 2.307-1.865 5.307m9.49 14.066c-1.11 2.812-1.456 5.302-.771 5.56.685.259 2.14-1.811 3.251-4.624 1.111-2.813 1.457-5.302.772-5.56-.685-.259-2.14 1.811-3.251 4.624m4.292 12.171c-1.677 2.53-2.537 4.897-1.921 5.287.616.39 2.475-1.345 4.152-3.875 1.677-2.53 2.537-4.897 1.92-5.287-.615-.39-2.474 1.344-4.151 3.874m2.563 13.699c-2.253 2.059-3.672 4.153-3.17 4.678.501.524 2.734-.721 4.986-2.78 2.252-2.06 3.671-4.155 3.17-4.678-.502-.525-2.734.72-4.986 2.78m-1.878 14.116c-2.671 1.507-4.539 3.233-4.172 3.855.368.621 2.83-.097 5.5-1.604 2.671-1.508 4.539-3.233 4.172-3.855-.367-.622-2.83.096-5.5 1.604m-3.321 12.502c-3 .696-5.295 1.828-5.125 2.526.17.698 2.74.7 5.74.002 3-.697 5.295-1.828 5.125-2.526-.17-.698-2.74-.7-5.74-.002m-11.22 14.299c-3.071-.275-5.615.08-5.682.795-.067.715 2.368 1.518 5.439 1.793 3.071.275 5.615-.08 5.682-.796.067-.714-2.368-1.517-5.44-1.792m-12.204 8.3c-2.893-1.043-5.445-1.343-5.699-.67-.254.674 1.886 2.065 4.78 3.108 2.893 1.043 5.445 1.343 5.699.67.253-.674-1.886-2.065-4.78-3.108"/></g></svg>