<svg xmlns="http://www.w3.org/2000/svg" width="35" height="21" viewBox="0 0 35 21"><path fill="#FFF" d="M34.814 18.411a2.348 2.348 0 0 0-.118-.224c-.607-1.077-1.768-2.4-3.48-3.967l-.055-.053c-.814-.748-1.307-1.239-1.513-1.49-.377-.479-.461-.963-.255-1.454.145-.371.693-1.154 1.64-2.351.498-.634.893-1.142 1.184-1.525 2.102-2.752 3.013-4.511 2.734-5.277l-.109-.179c-.073-.108-.261-.206-.564-.296-.304-.09-.693-.105-1.167-.045l-5.248.036c-.085-.03-.207-.027-.365.009l-.237.054-.091.045-.073.054a.805.805 0 0 0-.2.188 1.25 1.25 0 0 0-.182.314 29.11 29.11 0 0 1-1.95 4.038c-.45.742-.862 1.385-1.24 1.93-.376.544-.692.945-.947 1.202a6.576 6.576 0 0 1-.692.619c-.207.156-.365.222-.474.198-.11-.025-.212-.048-.31-.072a1.2 1.2 0 0 1-.41-.44 1.947 1.947 0 0 1-.21-.7 7.602 7.602 0 0 1-.063-.727c-.006-.203-.003-.49.009-.861a24.6 24.6 0 0 0 .018-.754c0-.455.01-.948.027-1.48l.046-1.266c.012-.311.018-.64.018-.987s-.021-.62-.064-.817a2.764 2.764 0 0 0-.19-.574.971.971 0 0 0-.374-.43 2.124 2.124 0 0 0-.61-.243c-.644-.144-1.464-.221-2.46-.233-2.26-.024-3.712.12-4.356.43a2.45 2.45 0 0 0-.692.539c-.22.263-.25.407-.092.43.73.108 1.245.365 1.55.772l.109.215c.085.156.17.431.255.826a8.2 8.2 0 0 1 .164 1.31c.06.873.06 1.621 0 2.243a26.34 26.34 0 0 1-.173 1.454 2.878 2.878 0 0 1-.246.844c-.11.215-.183.347-.22.394a.312.312 0 0 1-.09.09c-.158.06-.322.09-.492.09-.17 0-.377-.084-.62-.251a4.347 4.347 0 0 1-.756-.691c-.261-.294-.556-.703-.884-1.23a21.35 21.35 0 0 1-1.02-1.866l-.292-.52a44.508 44.508 0 0 1-.747-1.463c-.316-.64-.595-1.26-.838-1.858a1.185 1.185 0 0 0-.438-.574l-.09-.054a1.253 1.253 0 0 0-.292-.153 1.957 1.957 0 0 0-.42-.116l-4.993.035c-.51 0-.856.114-1.038.341l-.073.108A.573.573 0 0 0 0 2.285c0 .132.036.293.11.485a58.84 58.84 0 0 0 2.376 4.88c.857 1.568 1.601 2.83 2.233 3.787.631.957 1.275 1.86 1.931 2.71.656.85 1.09 1.394 1.303 1.633.213.24.38.419.501.539l.456.43c.292.287.72.631 1.285 1.032s1.19.796 1.877 1.185c.686.389 1.485.706 2.396.95a8.407 8.407 0 0 0 2.66.297h2.096c.425-.036.747-.167.966-.395l.073-.09a1.18 1.18 0 0 0 .136-.331 1.79 1.79 0 0 0 .064-.494 5.827 5.827 0 0 1 .118-1.39c.091-.413.195-.724.31-.934a2.316 2.316 0 0 1 .702-.789c.061-.03.11-.05.146-.063.291-.096.634-.003 1.03.278a6.01 6.01 0 0 1 1.111 1.041c.347.413.763.877 1.248 1.391.487.515.912.897 1.276 1.149l.364.215c.244.144.56.275.948.395.389.12.729.15 1.02.09l4.666-.072c.46 0 .82-.075 1.075-.224.255-.15.406-.315.455-.494a1.37 1.37 0 0 0 .01-.61 2.226 2.226 0 0 0-.129-.476z"/></svg>