<svg width="24" height="24" viewBox="0 0 24 24" xmlns="http://www.w3.org/2000/svg" xmlns:xlink="http://www.w3.org/1999/xlink"><title>-g-down</title><defs><path d="M11.027 18.707a.875.875 0 0 0 1.18 0l5.784-5.445a.759.759 0 0 0 0-1.116.868.868 0 0 0-1.18 0l-4.359 4.103V.79c0-.435-.373-.789-.834-.789-.461 0-.835.354-.835.79v15.46l-4.358-4.104a.868.868 0 0 0-1.18 0 .758.758 0 0 0 0 1.116l5.782 5.445z" id="a"/><path d="M22.5 21H0v2.476h24V21h-1.5z" id="b"/></defs><g fill-rule="nonzero" fill="none"><g><use fill-opacity=".597" fill="#000" fill-rule="evenodd" xlink:href="#a"/><path stroke="#666" stroke-width="2.4" d="M17.632 13.022l.001-.002-.001.002zm-12.03-.003H5.6h.002zm6.015 4.595l5.55-5.224a.442.442 0 0 0-.002.627c.137.13.332.13.467.005l-6.38 6.005V.79c0 .243.178.411.366.411.187 0 .365-.168.365-.41v18.237l-2.022-1.904L5.6 13.02a.332.332 0 0 0 .468 0 .443.443 0 0 0-.002-.63l5.55 5.225z"/></g><g><use fill="#676767" fill-rule="evenodd" xlink:href="#b"/><path stroke="#666" stroke-width="2.4" d="M22.8 22.2H24L22.8 21v1.2zm0 .076v1.2l1.2-1.2h-1.2zm-21.6 0H0l1.2 1.2v-1.2zm0-.076V21L0 22.2h1.2zm21.6 0v.076H1.2V22.2h21.6z"/></g></g></svg>