<svg xmlns="http://www.w3.org/2000/svg" width="108" height="108" viewBox="0 0 108 108"><g fill="none" fill-rule="evenodd"><path fill="#9DC950" d="M108 54c0 29.823-24.177 54-54 54S0 83.823 0 54 24.177 0 54 0s54 24.177 54 54"/><path fill="#C60A0A" d="M108 54c0 29.823-24.177 54-54 54S0 83.823 0 54 24.177 0 54 0s54 24.177 54 54"/><path fill="#FB393F" d="M102.14 54.419c0 26.818-21.74 48.558-48.558 48.558-26.819 0-48.559-21.74-48.559-48.558S26.763 5.86 53.582 5.86c26.817 0 48.558 21.741 48.558 48.559"/><path fill="#FFAE6D" d="M82.164 70.15c-.4.171-.808.366-1.23.436-1.427.242-2.86.449-4.295.64a9.964 9.964 0 0 1-1.583.066c-2.005-.068-3.998-.273-5.96-.7a14.282 14.282 0 0 1-4.104-1.583c-.77-.446-1.3-1.08-1.551-1.952-.121-.42-.313-.818-.462-1.23-.225-.622-.657-1.058-1.235-1.338-.598-.292-1.201-.583-1.825-.814-1.345-.496-2.721-.632-4.133-.27-.72.186-1.327.514-1.766 1.126-.284.39-.587.774-.841 1.183-.73 1.175-1.759 1.86-3.134 2.023-.341.04-.678.12-1.02.165-2.024.257-4.046.123-6.058-.1a47.869 47.869 0 0 1-6.047-1.065c-2.645-.643-5.113-1.65-7.317-3.277a12.232 12.232 0 0 1-2.42-2.354c-.59-.766-1.242-1.485-1.899-2.196-.172-.186-.454-.301-.706-.375-.64-.186-1.293-.325-1.94-.485-.783-.192-1.564-.386-2.347-.575-.154-.037-.322-.087-.332.186-.06 1.638-.184 3.275-.182 4.912.002 2.663.394 5.287.953 7.887.55 2.561 1.73 4.757 3.727 6.484.626.54 1.221 1.123 1.856 1.658 1.394 1.173 2.841 2.272 4.477 3.102 2.706 1.37 5.56 2.33 8.51 2.975 2.245.49 4.523.834 6.787 1.244 4.442.43 9.03.73 13.792.582 3.616-.113 7.2-.477 10.736-1.26 2.276-.5 4.506-1.138 6.584-2.227 1.907-1 3.34-2.445 4.103-4.49.556-1.492 1.05-3.009 1.232-4.601.134-1.17.213-2.346.066-3.524-.052-.42-.064-.407-.436-.252"/><path fill="#ACFF1D" d="M71.262 58.107c-7.406-.653-14.789-1.505-22.117-2.783-1.023-.178-2.049-.34-3.071-.52-2.977-.52-5.946-1.093-8.932-1.555-3.329-.518-6.666-1-10.012-1.399-.652-.077-6.058-.669-9.082-1.033-.39-.047-.781-.094-1.164-.173-.337-.068-.453.057-.485.379-.072.732-.19 1.46-.254 2.194-.098 1.135.292 1.79 1.368 2.196.752.282 1.532.502 2.312.7 1.7.426 3.406.826 5.112 1.229.443.102.823.298 1.119.64.678.781 1.382 1.545 2.017 2.363.675.862 1.473 1.573 2.344 2.23 2.671 2.009 5.762 2.966 8.992 3.517 1.93.327 3.887.518 5.838.711 1.683.167 3.362.047 5.023-.28.684-.136 1.25-.46 1.661-1.032.31-.431.631-.852.924-1.291.737-1.103 1.768-1.704 3.07-1.916 2.512-.41 4.744.337 6.833 1.63.373.23.683.628.907 1.012.297.515.541 1.077.7 1.647.225.802.722 1.351 1.444 1.662.971.416 1.95.886 2.974 1.09 1.83.363 3.692.56 5.545.792a7.031 7.031 0 0 0 1.658.018c1.578-.18 3.152-.407 4.725-.63.634-.091 1.169-.389 1.646-.82 1.05-.946 1.638-2.13 1.967-3.487.425-1.756.437-3.557.624-5.34a1.97 1.97 0 0 0 .005-.344c-.032-.419-.28-.704-.552-1.001-.259-.283-.54-.186-.83-.17-.301.015-.6.034-.9.034H81.26c-1.282.002-2.563.005-3.843-.024-2.053-.047-4.111-.063-6.154-.246"/><path fill="#FFAE6D" d="M87.223 27.552c-2.615-1.082-5.261-1.434-8.032-.781-.952.225-1.775.648-2.434 1.359-.674.726-1.363 1.445-1.96 2.23-.79 1.043-1.508 2.142-2.24 3.229-.38.566-.485.63-1.13.49-.288-.063-.576-.058-.869-.084-.271-.025-.541-.068-.814-.052.025.058.05.116.079.172.68 1.346 1.245 2.739 1.315 4.257.092 2.016-.17 4.002-.848 5.912-.686 1.932-1.884 3.495-3.657 4.532-3.846 2.25-7.716 2.153-11.528-.094a5.724 5.724 0 0 1-2.707-3.618c-.727-2.88.149-5.362 2.07-7.515.722-.808 1.72-1.158 2.799-1.156a5.73 5.73 0 0 1 3.48 1.157c.647.482 1.128 1.1 1.322 1.888.085.347.1.735.04 1.087-.137.836-.927 1.276-1.72.99-.125-.045-.342-.155-.317-.3.021-.123.223-.138.34-.151.94-.101 1.001-.787.793-1.402-.166-.491-.432-.936-.867-1.22-.458-.3-.935-.606-1.448-.777-1.96-.651-3.45-.202-4.51 1.569a9.28 9.28 0 0 0-.926 2.07c-.807 2.688.013 4.998 2.177 6.355 3.28 2.056 6.709 2.253 10.156.358 1.612-.887 2.759-2.212 3.4-3.944.229-.624.417-1.267.568-1.915.696-2.963.304-5.75-1.345-8.347-1.126-1.773-2.622-3.145-4.432-4.174-4.384-2.494-8.779-2.652-13.15.034-.782.481-1.511 1.049-2.257 1.59-.435.314-.806.225-1.197.15-.363-.072-1.398-.432-1.858-.448-1.495-.053-2.99-.123-4.486-.158-.62-.014-1.24.06-1.86.064-.496.002-.958.013-1.517-.158-.647-.197-.724-.567-.957-.963-.267-.455-.491-.938-.716-1.417-.487-1.043-.925-2.11-1.457-3.13a21.277 21.277 0 0 0-1.508-2.47c-.555-.785-1.34-1.316-2.252-1.649a7.85 7.85 0 0 0-3.048-.496c-4.303.18-7.813 1.79-10.085 5.61-1.371 2.304-2.473 4.724-3.093 7.347-.427 1.809-.32 3.534.843 5.064 1.452 1.91 3.196 3.438 5.582 4.079.445.12.893.225 1.334.357.373.111.76.208 1.1.387.398.21.442.695.063.888-.53.27-.65.75-.799 1.222-.447 1.41-.687 2.863-.856 4.33-.07.616-.066.627.587.693 1.353.137 2.712.23 4.06.398 3.544.44 7.091.868 10.625 1.382 2.712.395 5.405.918 8.108 1.37 2.907.49 5.808 1.029 8.729 1.429 3.995.549 8.006.98 12.008 1.48 4.856.607 9.731.806 14.62.782.551-.003.567-.024.587-.575.055-1.45.113-2.895.174-4.344.018-.408.198-.704.62-.808.179-.044.357-.094.536-.136 1.999-.47 3.952-1.08 5.797-1.993 2.978-1.475 4.82-3.82 5.485-7.103.71-3.514.294-6.847-1.29-10.073-1.133-2.308-2.858-3.88-5.227-4.86"/><path fill="#EFC0DC" d="M61.56 50.172c-1.995 0-3.986-.59-5.96-1.745-1.404-.82-2.347-2.068-2.747-3.638-.613-2.41-.101-4.543 1.211-6.438-1.17 3.603-1.872 7.357 2.041 9.683 1.747 1.09 3.478 1.554 5.159 1.554 3.321 0 6.447-1.816 9.108-4.213a8.128 8.128 0 0 1-3.076 3.147c-1.91 1.108-3.825 1.65-5.737 1.65"/><path fill="#EF835E" d="M59.663 53.354c-4.448 0-8.832-2.058-10.025-6.319-.97-3.882 1.184-7.763 4.613-9.593-.105.31-.209.62-.31.933-1.304 1.902-1.813 4.042-1.203 6.46.397 1.576 1.334 2.828 2.729 3.65 1.962 1.158 3.94 1.75 5.921 1.75 1.9 0 3.803-.543 5.7-1.655a8.119 8.119 0 0 0 3.057-3.158l.227-.209c-.628 2.61-1.531 4.955-3.85 6.308-1.963 1.216-4.42 1.833-6.86 1.833"/><path fill="#EFC0DC" d="M82.84 52.445c-.351-.227-.713-.41-1.073-.59a.76.76 0 0 1 .49-.338c.179-.045.356-.095.534-.138 1.993-.475 3.94-1.092 5.779-2.016 2.294-1.152 3.911-2.829 4.834-5.063.4-.12.777-.283 1.126-.493-.2.62-.444 1.229-.74 1.82-.74 1.485-1.857 2.646-3.187 3.606-1.593 1.148-3.38 1.869-5.23 2.448-.767.241-1.538.466-2.316.669a.66.66 0 0 0-.218.095"/><path fill="#EF835E" d="M81.851 51.535c-.522-.25-1.038-.49-1.502-.828-2.11-1.284-2.902-4.11-1.583-6.421a4.296 4.296 0 0 1 3.496-1.843c.508 0 1.021.095 1.516.302 2.11.77 5.073 1.73 7.677 1.73.762 0 1.494-.082 2.164-.276-.933 2.17-2.57 3.798-4.889 4.917-1.86.897-3.829 1.495-5.844 1.957-.18.042-.36.09-.539.134-.235.057-.396.17-.496.328"/><path fill="#EFC0DC" d="M56.948 87.907c-4.544 0-9.064-.394-13.564-1.053-4.36-.637-8.607-1.73-12.635-3.585a21.785 21.785 0 0 1-4.668-2.927c-.876-.711-1.706-1.48-2.57-2.205-2.232-1.874-3.52-4.292-4.082-7.127-.517-2.609-.852-5.242-.85-7.903 0-1.5.135-2.998.206-4.5.015-.322-.012-.648.025-.966.046-.37-.165-.485-.449-.577-.436-.142-.876-.278-1.303-.446-1.43-.567-2.148-1.638-2.067-3.176.05-.966.204-1.93.331-2.892.026-.2.119-.4.217-.579.103-.185.255-.221.45-.221l.131.003c.657.032 3.256.45 4.15.522.105.008.187.015.253.015.24 0 .25-.086.317-.46.23-1.272.448-2.546.71-3.811.11-.54.286-1.072.491-1.584.132-.33.053-.438-.258-.529-.771-.224-1.562-.411-2.297-.727-2.325-.997-4.063-2.69-5.322-4.856-.962-1.652-.902-3.448-.467-5.25a22.92 22.92 0 0 1 1.103-3.36c.124.533.284 1.062.473 1.584a22.182 22.182 0 0 0-.616 2.128c-.426 1.815-.32 3.547.843 5.082 1.45 1.917 3.192 3.451 5.576 4.094.444.12.892.227 1.332.358.373.112.76.21 1.1.39.396.21.44.697.062.89-.53.271-.65.752-.798 1.227-.447 1.415-.686 2.873-.855 4.345-.07.62-.066.63.586.696.345.035.69.068 1.036.1-.366.299-.76.556-1.182.762a614.35 614.35 0 0 1-4.328-.504c-.388-.047-.779-.094-1.16-.173a.79.79 0 0 0-.159-.018c-.215 0-.299.132-.325.398-.072.735-.19 1.467-.253 2.204-.098 1.14.291 1.798 1.364 2.205.75.284 1.527.504 2.305.704 1.403.354 2.81.69 4.219 1.023l-.059.594c1.604.635 2.79 2.04 4.01 3.286 3.74 3.827 12.537 6.216 18.553 6.216 2.393 0 4.346-.378 5.365-1.195 1.143-2.336 3.56-3.2 5.915-3.2 1.415 0 2.808.313 3.888.804 1.307.525 1.569 2.362 2.353 3.412 2.045 3.014 5.263 3.89 8.775 3.888 3.221 0 6.69-.735 9.726-1.236a.525.525 0 0 1 .088-.008c.125 0 .223.044.317.092.094.044.184.089.29.089.05 0 .104-.008.163-.034l.001.008c.09.404.148.813.186 1.217-.339.226-.688.444-1.045.657a10.835 10.835 0 0 0-.079-1.313c-.032-.257-.049-.351-.142-.351-.06 0-.15.039-.294.1-.401.17-.808.364-1.23.435-1.427.241-2.86.449-4.295.64-.387.05-.782.071-1.174.071-.137 0-.273-.002-.41-.005-2.004-.068-3.997-.273-5.96-.7a14.278 14.278 0 0 1-4.103-1.584c-.77-.446-1.3-1.081-1.55-1.953-.122-.42-.314-.819-.463-1.23-.225-.623-.656-1.058-1.234-1.34-.599-.29-1.202-.582-1.825-.813-.83-.305-1.671-.475-2.525-.475-.531 0-1.068.065-1.609.205-.72.186-1.326.514-1.766 1.126-.283.39-.586.774-.84 1.183-.73 1.176-1.759 1.862-3.134 2.024-.342.04-.679.121-1.021.166-.784.1-1.569.139-2.352.139-1.238 0-2.474-.103-3.706-.24a47.848 47.848 0 0 1-6.046-1.065c-2.645-.643-5.113-1.65-7.317-3.278a12.235 12.235 0 0 1-2.419-2.355c-.591-.766-1.243-1.486-1.9-2.197-.172-.186-.453-.302-.706-.375-.64-.187-1.292-.326-1.94-.486-.782-.192-1.563-.386-2.346-.575-.058-.013-.118-.029-.171-.029-.088 0-.155.045-.161.216-.061 1.638-.185 3.275-.183 4.913.002 2.665.395 5.29.953 7.891.55 2.562 1.73 4.759 3.727 6.486.627.541 1.222 1.124 1.857 1.66 1.394 1.173 2.84 2.272 4.476 3.102 2.706 1.37 5.56 2.33 8.51 2.977 2.245.49 4.523.834 6.786 1.244 3.66.354 7.418.62 11.29.62.83 0 1.663-.011 2.503-.037 3.615-.113 7.199-.478 10.735-1.26 2.276-.502 4.506-1.14 6.584-2.229 1.907-1 3.34-2.446 4.103-4.491.323-.87.626-1.746.858-2.641a19.587 19.587 0 0 0 1.513-2.181c-.04.338-.09.68-.15 1.018-.303 1.685-.783 3.329-1.49 4.888-.913 2.013-2.45 3.436-4.382 4.452-1.948 1.023-4.02 1.698-6.153 2.213-3.884.937-7.826 1.362-11.812 1.498-.87.03-1.737.045-2.605.045"/><path fill="#EF835E" d="M57.377 86.543c-3.872 0-7.631-.265-11.29-.62-2.264-.409-4.542-.752-6.788-1.243-2.95-.645-5.803-1.606-8.51-2.976-1.635-.829-3.082-1.928-4.476-3.101-.635-.535-1.23-1.118-1.856-1.658-1.998-1.727-3.177-3.923-3.727-6.484-.559-2.6-.951-5.225-.953-7.888-.002-1.637.121-3.275.182-4.912.007-.17.074-.215.162-.215.052 0 .112.016.17.029.783.189 1.564.383 2.346.574.648.16 1.3.3 1.94.486.253.073.535.189.707.375.657.711 1.308 1.43 1.9 2.196.7.903 1.504 1.677 2.42 2.354 2.203 1.627 4.67 2.634 7.316 3.277 1.995.486 4.011.84 6.047 1.066 1.232.136 2.467.238 3.705.238.784 0 1.568-.039 2.352-.139.343-.044.68-.126 1.021-.165 1.375-.163 2.404-.847 3.134-2.023.254-.41.557-.792.84-1.183.44-.612 1.047-.94 1.767-1.126a6.439 6.439 0 0 1 1.608-.205c.854 0 1.696.17 2.525.475.624.231 1.227.522 1.825.814.578.28 1.01.716 1.235 1.338.149.412.34.81.462 1.23.25.872.78 1.507 1.55 1.953a14.282 14.282 0 0 0 4.104 1.582c1.963.428 3.956.632 5.96.7.137.003.273.006.41.006.392 0 .787-.021 1.174-.071a126.19 126.19 0 0 0 4.294-.64c.423-.071.83-.265 1.23-.436.146-.06.236-.1.295-.1.093 0 .11.095.142.352.055.438.078.874.08 1.312-2.851 1.682-6.263 2.897-9.426 2.897-2.797 0-5.4-.95-7.247-3.37-2.193-2.87-5.547-5.523-8.724-5.523-1.176 0-2.328.365-3.388 1.215-3.648 3.296-7.533 4.65-11.393 4.65-6.85 0-13.618-4.264-18.836-9.494-.322 4.21-.15 8.381 2.606 11.514 7.135 7.468 16.825 9.89 26.922 9.89 7.291 0 14.796-1.265 21.701-2.805 3.006-.695 5.397-2.47 7.265-4.8a27.23 27.23 0 0 1-.858 2.64c-.762 2.045-2.196 3.49-4.103 4.49-2.078 1.089-4.308 1.727-6.584 2.228-3.537.782-7.12 1.146-10.736 1.26-.84.026-1.673.036-2.502.036"/><path fill="#A1C019" d="M23.85 56.991a277.59 277.59 0 0 1-4.121-.997c-.76-.194-1.52-.409-2.252-.685-1.048-.396-1.428-1.038-1.333-2.148.062-.718.178-1.43.247-2.147.026-.259.108-.388.318-.388a.77.77 0 0 1 .155.018c.373.077.755.123 1.134.169 1.185.143 2.745.323 4.228.49a5.38 5.38 0 0 1-.645.264c-1.788.766-.511 5.112 2.298 5.112l-.029.312"/><path fill="#EF835E" d="M23.46 50.172a99.367 99.367 0 0 1-1.04-.098c-.655-.065-.66-.076-.59-.689.17-1.455.41-2.897.86-4.297.15-.469.269-.945.801-1.213.38-.19.336-.673-.063-.88-.341-.178-.73-.275-1.104-.385-.443-.13-.892-.236-1.338-.355-2.395-.635-4.146-2.153-5.602-4.048-1.167-1.518-1.275-3.23-.846-5.026.17-.716.379-1.417.619-2.104.596 1.615 1.488 3.16 2.513 4.541 2.23 3.185 6.098 5.214 10.058 5.214.236 0 .473-.007.71-.022-1.086 3.002-2.35 7.245-4.978 9.362"/><path fill="#490040" d="M94.186 42.329c-.667 3.297-2.517 5.652-5.507 7.133-1.853.918-3.814 1.53-5.82 2.002-.18.043-.359.093-.538.137-.424.105-.605.401-.623.811-.062 1.456-.12 2.908-.175 4.363-.02.555-.035.576-.59.578-4.907.024-9.803-.176-14.678-.785-4.018-.502-8.045-.935-12.057-1.487-2.932-.402-5.845-.943-8.763-1.434-2.715-.455-5.418-.98-8.141-1.377-3.549-.516-7.11-.947-10.668-1.388-1.354-.17-2.718-.262-4.077-.4-.655-.066-.66-.077-.588-.697.17-1.472.41-2.932.859-4.348.15-.475.27-.956.802-1.228.38-.193.336-.68-.063-.89-.342-.18-.73-.278-1.105-.39-.443-.132-.893-.239-1.339-.359-2.396-.643-4.147-2.179-5.605-4.096-1.167-1.537-1.275-3.27-.846-5.086.622-2.635 1.729-5.065 3.106-7.38 2.28-3.837 5.805-5.453 10.125-5.634a7.88 7.88 0 0 1 3.06.498c.917.334 1.704.868 2.262 1.657.56.789 1.067 1.622 1.513 2.48.534 1.024.974 2.097 1.464 3.144.225.48.45.966.719 1.423.233.398.31.77.96.967.561.172 1.026.161 1.523.159.623-.003 1.246-.078 1.868-.064 1.502.035 3.002.105 4.504.158.462.016 1.5.377 1.866.45.391.076.765.165 1.2-.151.75-.543 1.482-1.113 2.268-1.597 4.388-2.697 8.8-2.54 13.202-.034 1.817 1.034 3.32 2.412 4.45 4.193 1.655 2.607 2.049 5.408 1.35 8.383-.151.65-.34 1.297-.57 1.924-.643 1.74-1.796 3.07-3.414 3.961-3.461 1.904-6.903 1.705-10.196-.36-2.173-1.363-2.996-3.683-2.186-6.382a9.31 9.31 0 0 1 .93-2.08c1.063-1.779 2.56-2.23 4.527-1.575.515.17.995.48 1.455.78.436.286.703.732.87 1.225.21.618.148 1.307-.796 1.408-.118.013-.32.029-.342.152-.025.145.193.256.32.302.795.287 1.588-.155 1.726-.994a2.773 2.773 0 0 0-.04-1.092c-.196-.792-.679-1.413-1.327-1.897a5.748 5.748 0 0 0-3.495-1.162c-1.083-.002-2.086.35-2.81 1.162-1.93 2.161-2.808 4.655-2.079 7.547a5.748 5.748 0 0 0 2.718 3.634c3.828 2.257 7.713 2.355 11.575.094 1.78-1.041 2.983-2.611 3.672-4.552.68-1.918.944-3.912.851-5.937-.07-1.525-.638-2.925-1.32-4.276-.03-.057-.054-.114-.08-.172.274-.016.545.027.818.051.294.027.583.021.872.084.647.141.753.077 1.135-.491.734-1.092 1.455-2.196 2.25-3.243.598-.79 1.29-1.511 1.966-2.24.663-.714 1.488-1.14 2.444-1.366 2.783-.655 5.44-.302 8.065.785 2.378.984 4.11 2.563 5.248 4.882 1.59 3.24 2.008 6.588 1.295 10.117zm-11.382 16.11c.3 0 .6-.02.9-.035.292-.016.574-.113.833.17.272.3.522.586.553 1.007.009.115.007.23-.005.346-.187 1.792-.199 3.602-.625 5.367-.33 1.363-.918 2.553-1.97 3.504-.479.434-1.015.733-1.65.825-1.577.223-3.153.452-4.735.633a7.024 7.024 0 0 1-1.66-.018c-1.857-.234-3.723-.431-5.556-.796-1.026-.205-2.008-.678-2.98-1.096-.724-.312-1.222-.864-1.447-1.67a7.246 7.246 0 0 0-.702-1.655c-.225-.386-.535-.786-.908-1.017-2.093-1.3-4.33-2.051-6.847-1.639-1.305.213-2.338.817-3.076 1.926-.294.44-.616.864-.926 1.297-.412.575-.979.901-1.665 1.038-1.664.328-3.346.449-5.032.28-1.956-.194-3.916-.385-5.85-.714-3.237-.554-6.333-1.515-9.01-3.535-.872-.66-1.672-1.374-2.348-2.24-.636-.823-1.342-1.59-2.022-2.376-.296-.344-.677-.54-1.12-.643-1.71-.405-3.42-.807-5.123-1.235-.781-.2-1.563-.42-2.316-.704-1.078-.407-1.47-1.066-1.371-2.206.063-.738.182-1.47.254-2.206.032-.323.15-.449.486-.38.384.08.777.126 1.167.173 3.03.366 8.447.961 9.1 1.039 3.353.401 6.696.885 10.032 1.405 2.991.465 5.966 1.04 8.949 1.563 1.025.182 2.052.344 3.077.523 7.343 1.285 14.74 2.14 22.161 2.798 2.047.183 4.11.2 6.166.246 1.755.042 3.51.021 5.266.024zm-.05 15.563c-.183 1.594-.68 3.112-1.239 4.607-.766 2.046-2.207 3.494-4.124 4.495-2.088 1.09-4.33 1.728-6.617 2.23-3.555.782-7.156 1.148-10.79 1.26-4.786.148-9.398-.152-13.863-.583-2.275-.41-4.565-.754-6.822-1.245-2.965-.646-5.833-1.607-8.553-2.978-1.644-.83-3.098-1.931-4.499-3.105-.638-.536-1.236-1.12-1.866-1.66-2.008-1.729-3.193-3.927-3.746-6.491-.561-2.603-.956-5.23-.958-7.896-.002-1.64.122-3.279.183-4.918.01-.273.179-.223.334-.186.787.189 1.572.383 2.358.575.651.16 1.307.302 1.95.486.254.074.537.19.71.376.661.712 1.315 1.431 1.91 2.198a12.273 12.273 0 0 0 2.431 2.357c2.215 1.628 4.696 2.637 7.354 3.28 2.006.486 4.032.84 6.078 1.067 2.022.223 4.055.357 6.088.1.345-.045.683-.126 1.027-.166 1.382-.163 2.416-.848 3.15-2.025.255-.41.559-.793.844-1.185.442-.612 1.052-.94 1.775-1.127 1.42-.362 2.802-.226 4.155.27.626.232 1.233.524 1.834.815.58.281 1.015.717 1.24 1.34.15.412.343.812.465 1.232.252.872.785 1.508 1.559 1.954a14.39 14.39 0 0 0 4.124 1.584c1.973.428 3.976.633 5.991.701.53.016 1.067.003 1.591-.065 1.442-.192 2.883-.4 4.317-.641.425-.071.834-.265 1.236-.436.374-.155.387-.168.44.252.146 1.18.067 2.356-.067 3.528zm10.998-41.905c-1.227-2.598-3.083-4.487-5.768-5.611-2.894-1.21-5.824-1.557-8.877-.805-.943.233-1.773.665-2.47 1.34-1.551 1.501-2.943 3.135-4.123 4.945-.238.365-.375.92-.702 1.07-.36.163-.89-.027-1.342-.091-.34-.049-.66-.037-.926-.057l-.044-.055c-1.285-1.927-2.978-3.405-4.995-4.518-3.324-1.835-6.82-2.37-10.508-1.324-1.898.539-3.564 1.54-5.124 2.71-.572.428-1.063.53-1.799.436-2.176-.279-4.373-.406-6.564-.54a7.879 7.879 0 0 0-2.064.156c-.365.077-.47.016-.603-.283-.684-1.542-1.357-3.091-2.089-4.612-.44-.912-.923-1.816-1.49-2.655-1.314-1.951-3.238-2.789-5.545-2.928-1.886-.112-3.677.269-5.434.889-2.508.884-4.51 2.431-5.932 4.68-1.613 2.551-2.938 5.238-3.654 8.19-.438 1.804-.498 3.602.469 5.255 1.266 2.168 3.012 3.862 5.349 4.86.738.315 1.534.503 2.309.728.312.09.392.2.26.529a9.294 9.294 0 0 0-.495 1.584c-.263 1.266-.481 2.542-.713 3.814-.086.477-.079.485-.572.445-.9-.071-3.512-.49-4.172-.521-.259-.013-.459-.008-.584.218-.099.18-.192.38-.218.579-.128.963-.282 1.927-.333 2.893-.081 1.54.64 2.611 2.077 3.179.43.168.872.304 1.31.446.286.092.498.208.452.578-.038.318-.01.644-.026.967-.071 1.502-.207 3.002-.207 4.502-.001 2.664.335 5.298.855 7.91.565 2.836 1.86 5.256 4.102 7.131.869.725 1.703 1.495 2.584 2.207a21.911 21.911 0 0 0 4.691 2.928c4.049 1.858 8.317 2.95 12.7 3.589 5.387.785 10.8 1.192 16.252 1.008 4.006-.136 7.968-.562 11.872-1.5 2.144-.515 4.227-1.19 6.185-2.214 1.942-1.017 3.486-2.44 4.405-4.455.71-1.56 1.193-3.205 1.496-4.891.293-1.623.375-3.26.016-4.891-.106-.48-.026-.875.302-1.28.678-.835 1.083-1.817 1.356-2.857.437-1.666.554-3.373.698-5.08.028-.345.022-.691.022-1.038 0-.885-.78-2.099-1.553-2.398-.14-.053-.316-.037-.474-.027-.322.021-.642.082-.964.09-.44.008-.454-.03-.452-.473.002-.993-.004-1.986.004-2.976.003-.347.043-.694.054-1.04.009-.25.127-.345.37-.405.783-.201 1.56-.424 2.333-.663 1.863-.576 3.663-1.292 5.268-2.432 1.34-.954 2.464-2.107 3.21-3.58.846-1.67 1.286-3.473 1.45-5.322.255-2.923-.384-5.688-1.635-8.334z"/><path fill="#490040" d="M77.442 49.037c-.343.03-.682.096-1.021.156-.268.048-.402.031-.42-.324-.02-.41-.249-.54-.66-.512-.136.009-.275.03-.408.064-2.645.689-5.292 1.378-7.935 2.075-.194.051-.423.132-.54.277-.126.156-.218.42-.18.607.03.148.266.307.44.359.212.063.455.036.684.02 1.214-.08 2.427-.17 3.641-.253.112-.008.225.003.338.006-.12.046-.237.108-.36.134-.427.09-.857.17-1.286.25-.497.095-1.003.154-1.487.293-.464.133-.597.615-.277.91.143.131.354.191.465.25.204.002.32.01.434.002 2.34-.14 4.68-.278 7.019-.422.182-.01.397-.005.534-.1.17-.114.379-.33.377-.5-.004-.17-.214-.404-.39-.488-.19-.089-.446-.033-.673-.045-.068-.003-.135-.022-.202-.033.057-.047.11-.106.174-.14.66-.338.707-.384.548-1.04-.06-.244.084-.219.189-.245.402-.095.814-.154 1.21-.266.28-.08.496-.265.461-.602-.03-.288-.297-.467-.675-.433M47.19 47.386c-.1-.059-.21-.099-.316-.146a96.316 96.316 0 0 0-8.571-3.295c-.26-.085-.544-.11-.82-.138-.066-.007-.182.072-.203.135-.02.067.019.197.077.236.17.118.354.22.545.3.936.4 1.874.791 2.954 1.245-.264-.032-.38-.033-.49-.06-.877-.225-1.75-.463-2.629-.677-.36-.088-.732-.169-1.097-.168-.157 0-.404.19-.446.34-.041.15.085.385.205.526.091.107.285.134.44.178.825.236 1.668.421 2.475.707 1.333.474 2.643 1.01 3.96 1.522.081.032.148.099.222.15-.09-.003-.181.01-.267-.009-.612-.135-1.225-.27-1.834-.415-1.288-.306-2.573-.62-3.861-.92-.154-.036-.347-.063-.477-.001-.17.08-.388.237-.417.392-.03.155.123.369.245.517.078.094.24.135.374.166.858.203 1.717.411 2.581.59 1.806.375 3.544.936 5.177 1.797.144.076.285.162.437.215.405.14.631.006.634-.42 0-.202-.01-.3.227-.27.113.015.254.032.341-.019.19-.11.446-.237.496-.409.05-.168-.09-.423-.21-.595-.1-.143-.295-.218-.443-.328-.034-.025-.051-.071-.076-.108.036-.012.074-.035.109-.033.116.008.23.031.347.037.304.015.568-.076.672-.38.113-.327-.11-.513-.361-.662m38.654-5.936c-.845-.537-1.79-.795-2.792-.845-.306-.015-.345-.1-.268-.375.186-.66.333-1.332.447-1.797.108-1.263.163-2.32-.148-3.344-.143-.474-.382-.93-.646-1.355-.146-.235-.42-.51-.756-.322-.305.17-.081.463-.015.683.412 1.342.477 2.71.252 4.077-.412 2.503-1.463 4.716-3.294 6.551a3.084 3.084 0 0 0-.398.477c-.156.237-.14.486.06.695.203.21.465.239.709.097a3.25 3.25 0 0 0 .604-.466c1.019-.971 1.803-2.108 2.423-3.351.164-.328.33-.503.74-.45.601.078 1.214.08 1.82.144.348.037.687.172 1.035.195.23.016.607.077.703-.137.053-.119-.29-.359-.476-.477M29.915 27.908c-.19.083-.384.191-.529.335a8.188 8.188 0 0 0-.782.885c-1.057 1.416-1.677 3.011-2.018 4.715-.114.57-.105.57-.72.484-.211-.03-.423-.053-.635-.075-.28-.029-1.322-.09-1.982-.068a3.024 3.024 0 0 0-.963.19c-.312.12-.304.425.007.56.207.089.453.11.685.127.872.063 1.757.046 2.614.185.706.115.832.043.754.86-.025.249.004.503.024.754.094 1.227.39 2.395 1.115 3.427.239.339.578.42.852.254.252-.151.316-.44.173-.794a1.27 1.27 0 0 0-.095-.183c-.755-1.335-.911-2.78-.809-4.261.156-2.26.916-4.332 2.151-6.25.175-.27.33-.555.476-.84.036-.069.038-.219-.003-.244-.086-.054-.233-.098-.315-.061M63.661 77c-1.744.379-3.491 1.174-5.29.975-.59-.064-.62-.075-.48-.628.386-1.525.629-3.068.657-4.641.006-.38.158-.447.502-.457.98-.035 1.86-.417 2.606-1.031.382-.314.712-.744.931-1.19.373-.758.094-1.491-.628-1.914a4.36 4.36 0 0 0-.499-.247 10.617 10.617 0 0 0-5.02-.845 6.24 6.24 0 0 0-1.882.415c-.992.406-1.211 1.286-.595 2.17a4.6 4.6 0 0 0 .904.96c.705.566 1.426 1.121 2.319 1.368.305.085.456.25.394.611-.097.574-.111 1.084-.155 1.751-.087 1.353-.362 1.93-.56 2.888-.12.577-.158.617-.758.497-1.408-.273-3.482-.68-4.88-1.004-1.102-.258-1.52-.922-2.619-1.199-.156-.04-.414-.032-.498.067-.177.204.004.414.178.52.373.229.83.385 1.16.612 1.78 1.22 5.016 1.937 7.593 2.402 2.254.409 4.471-.36 6.675-.843.313-.066.623-.188.906-.34.243-.13.346-.377.237-.661-.103-.271-.312-.415-.593-.388-.205.018-.402.106-.605.151zm-29.543-9.086c-.198-.061-.409.141-.546.272-.15.146-.27.351-.318.551a73.313 73.313 0 0 0-.685 3.091c-.057.29-.022.61.026.909.06.365.37.607.713.62a.764.764 0 0 0 .773-.559c.06-.2.077-.415.084-.623.022-.704.03-1.407.043-1.99.039-.305.07-.491.085-.678.03-.373.082-.748.067-1.119-.006-.162-.061-.42-.242-.474m2.996.444c-.423.035-.604.344-.677.667-.252 1.11-.474 2.226-.7 3.34-.018.089.004.184.02.277.074.476.337.719.764.716.39 0 .655-.22.738-.666.082-.434.121-.873.199-1.462.027-.569.073-1.285.095-2.005.015-.518-.173-.888-.439-.867m-7.522-1.218a1.666 1.666 0 0 0-.366.678 96.429 96.429 0 0 0-.762 3.642c-.11.589.127.94.56.985.432.043.696-.245.775-.851.08-.604.157-1.206.235-1.81h-.013c.075-.58.163-1.157.22-1.74.027-.25.032-.516-.025-.761-.074-.311-.41-.391-.624-.144m28.765 13.245a63.582 63.582 0 0 0-3.276-.206c-.221-.007-.602.133-.646.275-.099.306.277.399.527.502.215.09.446.16.677.203.606.12 1.216.22 1.96.353.149.005.436.047.717.025.422-.035.648-.25.66-.561.013-.304-.193-.552-.619-.59m19.698-7.502c-.108-.195-.378-.439-.567-.434-.356.01-.26.36-.275.597a1.37 1.37 0 0 0 0 .205l.187 3.057c.025.412.237.677.548.687.322.01.567-.241.623-.64 0-.317.015-.636-.005-.953-.052-.861-.077-1.736-.511-2.52m-3.161.478c-.276.022-.294.362-.307.621-.044.818-.07 1.637-.102 2.455-.006.179-.015.355-.008.531.01.282.146.506.374.481.15-.015.338-.191.414-.357.085-.182.067-.428.082-.65.094-1.344-.002-1.677-.076-2.51-.022-.25-.099-.592-.377-.572m-2.784-.454c-.366-.02-.515.252-.547.488-.12.85-.203 1.704-.277 2.56-.025.298.13.557.507.586.374.028.572-.221.643-.499.083-.329.07-.655.15-1.007.004-.02.09-1.033.058-1.55-.016-.275-.142-.558-.533-.578M52.848 57.862c-.114-.023-.23-.028-.345-.048-1.004-.176-2.01-.338-3.012-.529-2.07-.393-4.138-.8-6.205-1.206-1.771-.348-3.54-.711-5.311-1.06-1.885-.367-5.669-1.038-5.674-1.01-.553-.064-1.105-.142-1.66-.188a5.633 5.633 0 0 0-.97.02c-.113.01-.302.082-.32.204-.021.142.17.243.285.325.086.06.219.066.334.083.662.112 1.326.214 1.988.333 2.232.404 4.468.795 6.695 1.224 1.954.379 3.898.8 5.848 1.204 1.291.267 2.581.544 3.876.798 1.34.264 2.686.505 4.03.757.114.02.23.045.345.04.328-.007.791-.353.753-.584-.06-.35-.396-.312-.657-.363m22.262 2.084c-1.889-.103-3.777-.184-5.665-.307-1.334-.09-2.665-.235-3.998-.347-.299-.025-.6-.025-.9-.028-.337-.002-.501.224-.549.546-.047.307.127.489.496.547.25.042.503.067.755.101l.003-.034c1.448.135 2.894.297 4.343.397 1.91.132 3.822.216 5.733.322.83.047 1.659.106 2.487.148 1.75.084 3.5.16 5.25.237.16.009.323.017.482-.002.282-.04.484-.213.499-.52.014-.308-.176-.506-.445-.582a3.327 3.327 0 0 0-.684-.103c-1.082-.048-2.165-.078-3.249-.131-1.52-.076-3.039-.162-4.558-.244m-23.557.189c-.068-.018-.137-.026-.206-.036-1.102-.182-2.204-.355-3.304-.544a62.288 62.288 0 0 1-2.398-.454c-2.066-.443-4.123-.933-6.195-1.35-2.095-.42-4.206-.77-6.306-1.168-.73-.138-1.448-.332-2.172-.5.003-.008-.657.036-.705.22-.048.181.184.34.318.469.09.085.252.104.384.145 1.906.627 3.903.84 5.862 1.226 1.253.246 2.505.505 3.757.761 2.548.524 5.093 1.055 7.643 1.57 1.024.208 2.057.373 3.083.573.47.09.73.015.809-.282.078-.301-.118-.521-.57-.63m-1.147 1.88c-.194-.063-.404-.086-.609-.113-1.352-.173-2.71-.311-4.054-.524-2.277-.356-4.548-.763-6.822-1.146-1.342-.229-2.684-.45-4.024-.687-1.203-.216-2.402-.454-3.605-.667-.292-.053-.594-.058-.892-.068-.044-.003-.093.083-.14.128.034.03.062.07.102.085.17.065.341.138.52.18 1.453.354 2.905.71 4.363 1.046 2.199.507 4.398 1.016 6.605 1.485 1.62.346 4.075.65 4.91.79 1.025.17 2.065.235 3.097.353.138.015.278.033.414.02.243-.027.452-.123.494-.386.043-.266-.125-.421-.359-.496m31.846 1.225c-.336-.068-.681-.09-1.024-.113-1.302-.084-2.606-.146-3.907-.241-2.81-.202-5.618-.416-8.426-.635-.891-.07-1.78-.168-2.67-.247-.584-.05-.84.057-.865.34-.026.286.244.53.75.61.725.114 1.453.21 2.182.285.856.093 3.334.242 5 .36 2.879.202 5.756.435 8.633.657.068.002.137.014.205.008.278-.011.504-.126.544-.45.04-.325-.15-.521-.422-.575m-.807 1.963c-.115-.083-.304-.08-.462-.09-2.14-.143-4.28-.288-6.422-.42-2.413-.147-4.829-.28-7.243-.422-.267-.015-.535-.013-.586.313-.048.306.178.46.44.51.359.07.725.093 1.087.137l.003-.018c.317.039.634.09.952.111 3.12.197 6.24.386 9.36.58.82.051 1.64.116 2.46.17.113.006.254.031.335-.023.159-.106.381-.25.398-.398.015-.14-.174-.342-.322-.45m-33.274-1.319c-.093-.077-.264-.067-.402-.085-3.159-.428-6.323-.826-9.475-1.296-1.469-.22-2.915-.586-4.372-.88-.203-.043-.416-.104-.614-.078-.317.043-.419.417-.185.637a.84.84 0 0 0 .362.2c1.337.305 2.673.612 4.016.888.66.138 1.338.186 2.001.306 1.488.265 3.38.488 4.483.658 1.264.196 2.54.308 3.81.46.092.01.208.05.274.01.163-.098.409-.223.423-.361.016-.14-.175-.337-.32-.46m30.127 3.688c-.123-.077-.31-.044-.468-.052-1.503-.077-3.006-.137-4.508-.236-1.094-.068-2.185-.186-3.277-.276-.223-.016-.518-.063-.577.235-.066.334.253.356.461.386.994.14 1.96.238 2.957.364.458.057 3.212.257 4.807.326.183.008.38.073.542.019.143-.05.328-.222.34-.356.012-.131-.145-.328-.277-.41"/><path fill="#FFF" d="M60.736 68.3c-.908-.187-1.863-.36-2.797-.396-.983-.037-1.078.977-.088 1.014.8.031 1.616.165 2.393.322.957.194 1.455-.747.492-.94m-7.914-23.09l-.078.06h.204l-.126-.06"/><path fill="#FFF" d="M52.76 45.21l-.016.013.072.057-.056-.07m0-.434l.32-.404-.252.2-.084.173.015.03"/><path fill="#FFF" d="M52.823 45.21l-.079.062.175-.04-.096-.023"/><path fill="#FFF" d="M52.773 45.337v-.121l-.029-.007.03.128"/><path fill="#77992B" d="M14.607 67.814c-2.527 0-4.317-.673-5.332-2.008-1.282-1.688-.914-3.92-.606-5.04a.674.674 0 0 1 .897-.44l.581.225-.625-.242.045.017a.649.649 0 0 1 .403.777c-.245.894-.558 2.684.388 3.924.82 1.076 2.449 1.566 4.85 1.46a.666.666 0 0 1 .697.6.665.665 0 0 1-.643.713c-.223.01-.442.014-.655.014"/><path fill="#FFE97B" d="M15.904 31.47c-.049 2.556-.748 4.353-2.084 5.351-1.689 1.262-3.882.843-4.98.508-.373-.114-.567-.541-.417-.917l.234-.583-.251.627.018-.045a.636.636 0 0 1 .773-.392c.878.268 2.635.622 3.876-.31 1.077-.807 1.592-2.445 1.535-4.875-.009-.363.259-.67.604-.693.367-.025.682.278.69.664.006.227.006.448.002.664"/><path fill="#008EE6" d="M103.839 57.896c-2.12 1.413-4.024 1.86-5.673 1.33-2.085-.67-3.11-2.711-3.52-3.804-.14-.371.089-.774.49-.864l.622-.14-.67.15.049-.01a.69.69 0 0 1 .802.413c.328.873 1.135 2.518 2.669 3.01 1.332.425 2.992-.082 4.942-1.51a.707.707 0 0 1 .943.102.642.642 0 0 1-.112.945c-.182.133-.363.26-.542.378"/><path fill="#FFE97B" d="M95.442 32.232a2.93 2.93 0 1 1-5.86 0 2.93 2.93 0 0 1 5.86 0M15.907 75.35a2.512 2.512 0 1 1-5.023-.001 2.512 2.512 0 0 1 5.023 0M62.79 92.093a4.186 4.186 0 1 1-8.371 0 4.186 4.186 0 0 1 8.372 0"/><path fill="#FF5252" d="M36 9.21a2.511 2.511 0 1 1-5.023 0 2.511 2.511 0 0 1 5.023 0m62.79 61.953a2.512 2.512 0 1 1-5.023 0 2.512 2.512 0 0 1 5.024 0"/><path fill="#008EE6" d="M9.225 50.88l-4.408-1.87a2.418 2.418 0 0 1-1.279-3.162 2.395 2.395 0 0 1 3.144-1.286l4.408 1.87a2.418 2.418 0 0 1 1.279 3.162 2.395 2.395 0 0 1-3.144 1.285m78.761-29.224l-4.466 1.647c-1.238.456-2.588-.241-3.017-1.559-.428-1.318.227-2.755 1.465-3.212l4.466-1.647c1.237-.456 2.588.242 3.016 1.56.429 1.317-.227 2.754-1.464 3.21m-39.083 80.103l-4.208-2.624a2.43 2.43 0 0 1-.77-3.39c.74-1.144 2.285-1.482 3.45-.755l4.209 2.623a2.43 2.43 0 0 1 .77 3.39c-.74 1.144-2.285 1.483-3.45.756"/></g></svg>