<svg xmlns="http://www.w3.org/2000/svg" width="137" height="110" viewBox="0 0 137 110"><g fill="none" fill-rule="evenodd"><path fill="#6F4694" d="M123.047 54.099c0 29.877-24.7 54.098-55.168 54.098S12.711 83.976 12.711 54.099C12.711 24.22 37.411 0 67.88 0c30.469 0 55.168 24.22 55.168 54.099"/><path fill="#6E3F95" d="M102.527 96.653a56.085 56.085 0 0 1-7.421 5.227 56.094 56.094 0 0 1-10.835 4.902 55.998 55.998 0 0 0 19.184-9.942c-.221.08-.536.015-.928-.187m-68.416 0c-.265.136-.494.207-.685.218a55.97 55.97 0 0 0 17.373 9.365 55.84 55.84 0 0 1-9.267-4.356 56.023 56.023 0 0 1-7.42-5.227"/><path fill="#58377B" d="M64.261 107.897a56.433 56.433 0 0 1-19.082-5.803c.816-1 1.776-2.84 2.558-5.026 1.25-3.49 1.575-6.54.727-6.815-.847-.274-2.547 2.331-3.796 5.82-.714 1.996-1.125 3.846-1.188 5.118a55.524 55.524 0 0 1-8.096-5.483c1.16-.964 2.59-2.517 3.979-4.4 2.625-3.558 4.099-6.925 3.291-7.518-.807-.594-3.59 1.81-6.214 5.368-1.331 1.805-2.364 3.559-2.956 4.928a54.162 54.162 0 0 1-4.81-4.873 52.297 52.297 0 0 1-2.098-2.584c1.79-.47 4.602-1.916 7.532-3.971 4.449-3.12 7.47-6.448 6.746-7.433-.723-.985-4.915.746-9.363 3.866-2.927 2.053-5.227 4.191-6.258 5.697a52.996 52.996 0 0 1-4.541-7.891c1.78-.432 4.663-1.901 7.666-4.007 4.448-3.12 7.468-6.448 6.746-7.433-.723-.985-4.915.746-9.364 3.865-2.717 1.906-4.895 3.887-6.02 5.367a53.622 53.622 0 0 1-2.874-9.304c1.778-.421 4.68-1.897 7.702-4.016 4.448-3.12 7.468-6.448 6.745-7.433-.723-.985-4.915.746-9.363 3.866-2.407 1.688-4.389 3.433-5.592 4.84a53.71 53.71 0 0 1-.66-8.947c1.753-.346 4.766-1.852 7.913-4.06 4.449-3.12 7.47-6.448 6.746-7.433-.723-.985-4.915.746-9.363 3.866-2.14 1.501-3.944 3.048-5.166 4.362.19-2.652.602-5.245 1.213-7.778 1.617-.087 4.952-1.675 8.454-4.13 4.448-3.121 7.468-6.449 6.745-7.434-.723-.985-4.915.746-9.363 3.866-1.921 1.347-3.573 2.733-4.775 3.952 1.181-3.6 2.785-7.059 4.757-10.36 1.668-.345 4.727-2.147 7.868-4.742 4.18-3.456 6.92-7.007 6.12-7.933-.8-.926-4.839 1.125-9.02 4.58-3.71 3.066-6.28 6.204-6.253 7.52a52.64 52.64 0 0 0-7.235 24.468c-.217.461-.262.829-.09 1.061.013.019.036.03.052.046a53.073 53.073 0 0 0 .89 10.87c-.123.348-.127.628.013.819a.562.562 0 0 0 .175.152 53.797 53.797 0 0 0 1.038 4.199 53.27 53.27 0 0 0 2.501 6.811.608.608 0 0 0 .097.359c.026.035.067.06.101.088a55.201 55.201 0 0 0 5.597 9.559c.016.04.026.085.052.12.025.034.064.058.098.086A56.422 56.422 0 0 0 33 95.519c-.07.327-.08.593-.04.8.18.147.361.292.543.437.192-.012.42-.082.685-.219a56.023 56.023 0 0 0 7.422 5.227 55.84 55.84 0 0 0 9.266 4.356 56.589 56.589 0 0 0 14.041 2.7c.078-.379-.141-.862-.656-.923m39.702-12.377a56.467 56.467 0 0 0 8.157-8.911c.033-.028.072-.052.097-.086.026-.035.036-.08.052-.12a55.174 55.174 0 0 0 5.597-9.559c.035-.028.076-.053.101-.088a.605.605 0 0 0 .097-.359 53.27 53.27 0 0 0 2.502-6.811 53.674 53.674 0 0 0 1.037-4.199.558.558 0 0 0 .176-.152c.14-.191.136-.471.012-.82a53.04 53.04 0 0 0 .891-10.869c.016-.016.039-.027.052-.046.171-.232.126-.6-.09-1.06a52.645 52.645 0 0 0-7.235-24.47c.026-1.315-2.543-4.453-6.254-7.52-4.18-3.454-8.22-5.505-9.02-4.58-.8.927 1.94 4.478 6.121 7.934 3.14 2.595 6.2 4.397 7.867 4.742 1.973 3.301 3.576 6.76 4.758 10.36-1.202-1.22-2.855-2.605-4.775-3.952-4.449-3.12-8.64-4.85-9.364-3.866-.723.985 2.297 4.313 6.746 7.433 3.502 2.456 6.837 4.044 8.453 4.131a47.599 47.599 0 0 1 1.213 7.778c-1.221-1.314-3.025-2.86-5.165-4.362-4.449-3.12-8.64-4.85-9.363-3.866-.723.985 2.297 4.313 6.745 7.433 3.148 2.208 6.16 3.714 7.913 4.06a53.709 53.709 0 0 1-.659 8.946c-1.204-1.406-3.186-3.151-5.592-4.84-4.448-3.12-8.64-4.85-9.364-3.865-.722.985 2.298 4.313 6.746 7.433 3.022 2.12 5.923 3.595 7.701 4.016a53.583 53.583 0 0 1-2.874 9.304c-1.124-1.48-3.303-3.46-6.02-5.367-4.448-3.12-8.64-4.85-9.363-3.865-.723.985 2.297 4.313 6.745 7.433 3.004 2.106 5.886 3.575 7.666 4.007a52.952 52.952 0 0 1-4.54 7.891c-1.032-1.506-3.331-3.644-6.258-5.697-4.449-3.12-8.641-4.851-9.364-3.866-.722.985 2.298 4.313 6.746 7.433 2.93 2.055 5.742 3.5 7.532 3.971a52.014 52.014 0 0 1-2.098 2.584 54.162 54.162 0 0 1-4.81 4.873c-.591-1.37-1.624-3.123-2.956-4.928-2.625-3.559-5.407-5.962-6.214-5.368-.807.593.667 3.96 3.291 7.519 1.389 1.882 2.818 3.435 3.98 4.399a55.494 55.494 0 0 1-8.096 5.483c-.063-1.272-.474-3.122-1.189-5.118-1.249-3.489-2.948-6.094-3.796-5.82-.847.275-.522 3.326.727 6.815.783 2.186 1.742 4.025 2.559 5.026a56.432 56.432 0 0 1-19.083 5.803c-.52.061-.737.555-.652.936a56.68 56.68 0 0 0 12.47-2.167 56.094 56.094 0 0 0 10.834-4.902 56.085 56.085 0 0 0 7.421-5.227c.392.202.707.268.928.187l.203-.16c.142-.208.16-.564.058-1.045"/><path fill="#C0C90E" d="M62.236 107.909c-13.8-1.626-26.588-8.317-35.587-18.684-9.294-10.707-13.846-24.707-12.875-38.69.648-9.316 3.982-17.938 9.386-25.596.518-.733-.706-1.425-1.219-.697-9.364 13.27-12.083 29.832-7.57 45.355 3.887 13.37 13.039 25.01 25.213 32.179 6.919 4.074 14.644 6.57 22.652 7.513.9.106.892-1.275 0-1.38m51.921-83.426c9.075 13.223 11.916 29.864 7.385 45.201-3.785 12.814-12.52 23.98-24.15 30.946-6.795 4.068-14.43 6.615-22.335 7.54-.89.105-.902 1.487 0 1.381 14.175-1.659 27.34-8.41 36.604-19.07 9.539-10.976 14.365-25.378 13.293-39.747-.72-9.656-4.067-18.919-9.578-26.948-.503-.734-1.727-.044-1.219.697"/><path fill="#C0C90E" d="M22.38 18.436c0 5.352-1.004 9.69-2.244 9.69-1.24 0-2.246-4.338-2.246-9.69 0-5.352 1.006-9.691 2.246-9.691s2.245 4.339 2.245 9.69"/><path fill="#C0C90E" d="M28.461 23.804c-4.18 3.455-8.219 5.506-9.02 4.58-.8-.926 1.94-4.478 6.121-7.933 4.181-3.455 8.22-5.506 9.02-4.58.8.926-1.94 4.477-6.12 7.933m-5.339 14.742c-4.448 3.12-8.64 4.85-9.363 3.866-.723-.985 2.297-4.313 6.745-7.433 4.449-3.12 8.64-4.85 9.364-3.866.722.985-2.298 4.313-6.746 7.433m-.942 23.013c-4.448 3.12-8.64 4.85-9.363 3.865-.723-.984 2.297-4.313 6.746-7.432 4.448-3.12 8.64-4.851 9.363-3.866.723.985-2.297 4.313-6.746 7.433m4.237 11.506c-4.448 3.12-8.64 4.85-9.363 3.866-.723-.985 2.297-4.313 6.746-7.433 4.448-3.12 8.64-4.85 9.363-3.866.723.985-2.297 4.313-6.746 7.433m5.65 9.665c-4.449 3.12-8.64 4.85-9.363 3.866-.723-.985 2.297-4.313 6.745-7.433 4.449-3.12 8.64-4.85 9.363-3.865.724.984-2.297 4.312-6.745 7.432M21.24 49.592c-4.448 3.12-8.64 4.85-9.363 3.866-.723-.985 2.297-4.313 6.745-7.433 4.449-3.12 8.64-4.85 9.364-3.866.722.985-2.298 4.313-6.746 7.433"/><path fill="#C0C90E" d="M13.768 32.114c1.609 5.116 1.952 9.551.767 9.908-1.186.356-3.45-3.502-5.06-8.618-1.608-5.116-1.952-9.552-.766-9.908 1.185-.357 3.45 3.502 5.059 8.618M9.76 44.508c2.492 4.766 3.617 9.077 2.513 9.628-1.104.552-4.02-2.864-6.511-7.63-2.492-4.765-3.617-9.076-2.513-9.627 1.104-.552 4.02 2.864 6.511 7.63M8.548 56.914c3.694 3.951 5.945 7.817 5.03 8.635-.916.818-4.652-1.722-8.345-5.673C1.54 55.924-.71 52.059.203 51.24c.916-.818 4.652 1.722 8.345 5.673m2.994 13.027c4.622 2.87 7.83 6.025 7.165 7.048-.665 1.024-4.95-.472-9.572-3.341-4.622-2.87-7.83-6.026-7.165-7.049.665-1.023 4.95.473 9.572 3.343m3.8 11.52c5.245 1.532 9.21 3.715 8.855 4.877-.355 1.161-4.895.861-10.14-.67C8.81 84.136 4.845 81.953 5.2 80.79c.354-1.161 4.895-.861 10.14.67m21.697 9.915c-2.625 3.559-5.407 5.962-6.215 5.369-.807-.594.667-3.96 3.292-7.52 2.625-3.559 5.407-5.962 6.214-5.368.807.594-.667 3.96-3.291 7.519"/><path fill="#C0C90E" d="M24.447 94.821c4.425-.103 8.031.625 8.054 1.626.024 1.001-3.544 1.896-7.969 2-4.425.102-8.03-.625-8.054-1.626-.023-1.001 3.544-1.896 7.97-2m21.249 2.222c-1.249 3.49-2.948 6.095-3.796 5.82-.847-.274-.522-3.325.727-6.814 1.25-3.489 2.948-6.094 3.796-5.82.848.275.522 3.325-.727 6.814m69.176-78.607c0 5.352 1.005 9.69 2.246 9.69 1.24 0 2.245-4.338 2.245-9.69 0-5.352-1.005-9.691-2.245-9.691-1.24 0-2.246 4.339-2.246 9.69"/><path fill="#C0C90E" d="M108.892 23.804c4.181 3.455 8.22 5.506 9.02 4.58.8-.926-1.94-4.478-6.12-7.933-4.182-3.455-8.22-5.506-9.02-4.58-.801.926 1.939 4.477 6.12 7.933m4.358 14.742c4.45 3.12 8.641 4.85 9.364 3.866.723-.985-2.297-4.313-6.745-7.433s-8.64-4.85-9.364-3.866c-.722.985 2.298 4.313 6.746 7.433m.942 23.013c4.448 3.12 8.64 4.85 9.363 3.865.723-.984-2.297-4.313-6.746-7.432-4.448-3.12-8.64-4.851-9.363-3.866-.723.985 2.297 4.313 6.746 7.433m-3.767 11.506c4.448 3.12 8.64 4.85 9.363 3.866.724-.985-2.297-4.313-6.745-7.433-4.449-3.12-8.64-4.85-9.363-3.866-.723.985 2.297 4.313 6.745 7.433m-5.649 10.125c4.448 3.12 8.64 4.851 9.363 3.866.723-.985-2.297-4.313-6.746-7.433-4.448-3.12-8.64-4.85-9.363-3.865-.723.984 2.297 4.313 6.746 7.433m10.357-33.599c4.449 3.12 8.64 4.85 9.364 3.866.722-.985-2.298-4.313-6.746-7.433s-8.64-4.85-9.363-3.866c-.723.985 2.297 4.313 6.745 7.433"/><path fill="#C0C90E" d="M122.936 32.114c-1.609 5.116-1.952 9.551-.766 9.908 1.185.356 3.45-3.502 5.059-8.618 1.608-5.116 1.952-9.552.767-9.908-1.186-.357-3.45 3.502-5.06 8.618m3.819 12.394c-2.492 4.766-3.617 9.077-2.513 9.628 1.104.552 4.02-2.864 6.512-7.63 2.491-4.765 3.617-9.076 2.512-9.627-1.104-.552-4.019 2.864-6.51 7.63m1.354 12.405c-3.694 3.951-5.945 7.817-5.03 8.635.916.818 4.652-1.722 8.345-5.673 3.693-3.952 5.944-7.817 5.03-8.635-.916-.818-4.652 1.722-8.345 5.673m-3.16 13.026c-4.622 2.87-7.83 6.025-7.165 7.048.665 1.024 4.95-.472 9.571-3.341 4.622-2.87 7.83-6.026 7.165-7.049-.665-1.023-4.95.473-9.572 3.343m-3.552 11.52c-5.246 1.532-9.211 3.715-8.856 4.877.355 1.161 4.895.861 10.14-.67 5.246-1.532 9.211-3.715 8.856-4.877-.354-1.161-4.894-.861-10.14.67m-21.843 9.914c2.624 3.559 5.407 5.962 6.214 5.369.807-.594-.667-3.96-3.292-7.52-2.624-3.559-5.407-5.962-6.214-5.368-.807.594.666 3.96 3.292 7.519"/><path fill="#C0C90E" d="M112.57 94.361c-4.425-.103-8.03.625-8.054 1.625-.023 1.001 3.544 1.897 7.97 2 4.424.103 8.03-.625 8.053-1.626.023-1-3.545-1.896-7.97-1.999M91.12 97.043c1.249 3.49 2.948 6.095 3.796 5.82.847-.274.522-3.325-.727-6.814-1.25-3.489-2.948-6.094-3.796-5.82-.848.275-.522 3.325.727 6.814m-56.171 5.804c3.724-1.175 6.982-1.485 7.276-.692.295.793-2.485 2.389-6.209 3.564-3.724 1.175-6.982 1.484-7.276.691-.295-.793 2.485-2.388 6.209-3.563"/><path fill="#C0C90E" d="M100.985 102.847c-3.724-1.175-6.982-1.485-7.276-.692-.295.793 2.485 2.389 6.209 3.564 3.724 1.175 6.981 1.484 7.276.691.295-.793-2.485-2.388-6.21-3.563"/><path fill="#DCE52E" d="M22.055 14.053c.3 3-.05 5.49-.78 5.56-.732.069-1.566-2.307-1.866-5.308-.299-3 .05-5.49.781-5.559.731-.07 1.566 2.307 1.865 5.307M12.077 28.12c1.111 2.811 1.457 5.3.772 5.56-.685.258-2.14-1.813-3.251-4.625-1.111-2.812-1.457-5.302-.772-5.56.685-.259 2.14 1.812 3.251 4.624M7.647 40.29c1.677 2.53 2.537 4.897 1.92 5.287-.616.39-2.474-1.345-4.151-3.875-1.677-2.53-2.537-4.897-1.921-5.287.616-.39 2.474 1.344 4.152 3.874M6.028 54.448c2.253 2.06 3.672 4.154 3.17 4.678-.5.524-2.733-.72-4.985-2.78-2.253-2.06-3.672-4.154-3.17-4.678.501-.524 2.733.72 4.985 2.78M7.43 68.104c2.67 1.507 4.538 3.233 4.17 3.855-.366.621-2.829-.097-5.5-1.604-2.67-1.508-4.538-3.233-4.17-3.855.366-.622 2.829.096 5.5 1.604m3.497 12.502c3 .696 5.295 1.828 5.125 2.526-.169.698-2.74.7-5.74.002-3-.697-5.294-1.828-5.124-2.526.169-.698 2.74-.7 5.74-.002m10.99 14.299c3.071-.275 5.615.08 5.682.795.067.715-2.368 1.518-5.439 1.793-3.071.275-5.615-.08-5.682-.796-.067-.714 2.368-1.517 5.44-1.792m11.599 8.3c2.894-1.043 5.445-1.343 5.699-.67.254.674-1.885 2.065-4.78 3.108-2.893 1.043-5.444 1.343-5.698.67-.254-.674 1.886-2.065 4.78-3.108m81.461-89.152c-.3 3 .05 5.49.781 5.56.73.069 1.566-2.307 1.865-5.308.299-3-.05-5.49-.781-5.559-.731-.07-1.566 2.307-1.865 5.307m9.49 14.066c-1.11 2.812-1.456 5.302-.771 5.56.685.259 2.14-1.811 3.251-4.624 1.111-2.813 1.457-5.302.772-5.56-.685-.259-2.14 1.811-3.251 4.624m4.292 12.171c-1.677 2.53-2.537 4.897-1.921 5.287.616.39 2.475-1.345 4.152-3.875 1.677-2.53 2.537-4.897 1.92-5.287-.615-.39-2.474 1.344-4.151 3.874m2.563 13.699c-2.253 2.059-3.672 4.153-3.17 4.678.501.524 2.734-.721 4.986-2.78 2.252-2.06 3.671-4.155 3.17-4.678-.502-.525-2.734.72-4.986 2.78m-1.878 14.116c-2.671 1.507-4.539 3.233-4.172 3.855.368.621 2.83-.097 5.5-1.604 2.671-1.508 4.539-3.233 4.172-3.855-.367-.622-2.83.096-5.5 1.604m-3.321 12.502c-3 .696-5.295 1.828-5.125 2.526.17.698 2.74.7 5.74.002 3-.697 5.295-1.828 5.125-2.526-.17-.698-2.74-.7-5.74-.002m-11.22 14.299c-3.071-.275-5.615.08-5.682.795-.067.715 2.368 1.518 5.439 1.793 3.071.275 5.615-.08 5.682-.796.067-.714-2.368-1.517-5.44-1.792m-12.204 8.3c-2.893-1.043-5.445-1.343-5.699-.67-.254.674 1.886 2.065 4.78 3.108 2.893 1.043 5.445 1.343 5.699.67.253-.674-1.886-2.065-4.78-3.108"/><path fill="#863340" d="M51.115 73.402c.307-.285.4-.259.487.098.19.779.344 1.566.574 2.336.105.35-.017.574-.268.784-.774.65-1.635 1.185-2.642 1.495-.337.104-.694.158-1.046.214-.058.01-.136-.085-.19-.121.013-.094.011-.156.03-.21.634-1.74 1.64-3.28 3.055-4.596"/><path fill="#ACFF1D" d="M77 69.81c-.177.157-.32.145-.464-.045a7.522 7.522 0 0 0-1.768-1.655 6.372 6.372 0 0 0-.964-.568c-1.044-.467-2.083-.025-2.52 1.045-.283.695-.27 1.405-.07 2.11.091.328.219.655.386.95 1.046 1.845 2.106 3.682 3.483 5.309.1.12.19.248.299.36.238.246.508.347.84.176.582-.298 1.195-.545 1.748-.89a13.967 13.967 0 0 0 3.899-3.588c.596-.813.994-1.73 1.006-2.767a3.151 3.151 0 0 0-.085-.832c-.212-.816-.84-1.326-1.674-1.399a3.023 3.023 0 0 0-1.372.221c-.99.39-1.936.863-2.744 1.573m-13.696-1.1c-.086-.928-.617-1.485-1.534-1.595a3.044 3.044 0 0 0-1.293.114 6.024 6.024 0 0 0-2.336 1.334c-.205.19-.407.386-.627.56-.046.035-.196.015-.236-.032-.141-.165-.252-.355-.38-.532-.44-.61-.928-1.173-1.538-1.622a3.977 3.977 0 0 0-1.333-.66c-1.52-.403-2.353.314-2.725 1.653-.033.12-.035.247-.068.491-.026 1.152.407 2.272 1.16 3.265a19.385 19.385 0 0 0 1.58 1.846c.872.89 1.785 1.742 2.694 2.594.388.363.452.35.887.064 1.433-.947 2.835-1.93 3.942-3.275.66-.802 1.197-1.672 1.55-2.649.18-.5.307-1.014.257-1.556m16.078-1.307a3.932 3.932 0 0 1 1.885-.475c1.22.005 2.062.647 2.395 1.832.152.548.183 1.105.152 1.678-.101.454-.15.926-.313 1.357-.481 1.275-1.225 2.386-2.272 3.266a79.612 79.612 0 0 1-2.704 2.157c-.795.61-1.693 1.05-2.597 1.473-.365.17-.478.137-.743-.138a3.508 3.508 0 0 1-.244-.283c-1.482-1.927-3.071-3.771-4.399-5.814-.383-.589-.876-1.06-1.523-1.339-1.169-.503-2.393-.745-3.65-.476-1.056.227-1.985.708-2.585 1.688-.258.423-.582.81-.913 1.182-1.229 1.385-2.65 2.541-4.21 3.538-.347.223-.593.222-.918-.02-1.632-1.216-3.132-2.57-4.426-4.144-.826-1.003-1.344-2.165-1.733-3.392-.23-.725-.275-1.467-.188-2.219.206-1.802 1.902-2.866 3.618-2.29 1.187.4 2.007 1.218 2.649 2.252.147.237.268.492.424.724.133.2.383.241.574.095.172-.13.312-.304.478-.442.453-.379.884-.794 1.376-1.112.793-.512 1.681-.65 2.605-.415.982.25 1.667.83 1.891 1.852.08.362.095.738.124 1.109.015.185-.033.378.004.557.018.09.168.225.248.219.275-.023.558-.069.819-.16 1.286-.453 2.512-.281 3.706.315.193.096.388.194.592.262.205.068.38-.044.408-.252.032-.246.057-.495.06-.744.013-.939.448-1.667 1.12-2.279a1.9 1.9 0 0 1 1.27-.517c.6-.013 1.177.074 1.731.325.608.275 1.112.685 1.581 1.145.311.307.604.632.92.931.384.36.57.365.946-.025.545-.567 1.145-1.052 1.842-1.42"/><path fill="#863340" d="M83.98 75.15c1.583 1.373 2.327 3.123 2.624 5.072.049.328-.078.439-.426.436-.095-.002-.193-.013-.287-.02-1.142-.185-2.27-.408-3.319-.892a3.142 3.142 0 0 1-.334-.179c-.31-.19-.345-.284-.158-.577.611-.96 1.031-1.992 1.355-3.062.07-.23.115-.466.184-.697.05-.178.21-.212.36-.081"/><path fill="#ECBBAF" d="M76.926 67.556c-.282-.29-.555-.59-.85-.868a5.563 5.563 0 0 0-1.807-1.15c-2.015-.785-3.46.03-4.339 1.64-.19.349-.276.753-.39 1.138-.052.176-.047.368-.086.549-.032.149-.142.192-.278.116-.998-.56-2.072-.683-3.19-.513-.308.046-.61.135-.913.215-.149.04-.239.015-.26-.148-.045-.337-.07-.678-.138-1.01-.285-1.373-1.186-2.227-2.586-2.49-1.115-.209-2.129.05-3.04.674-.435.298-.81.68-1.208 1.028-.208.182-.282.18-.433-.055a28.29 28.29 0 0 1-.494-.79c-.03-.05-.034-.117-.051-.176.039-.041.07-.102.118-.121.232-.095.474-.166.702-.267 1.108-.488 2.09-1.136 2.756-2.168.27-.42.492-.863.56-1.365.09-.666.24-.675.873-.64a4.74 4.74 0 0 0 1.304-.123c1.057-.242 2.004-.714 2.806-1.448.115-.105.211-.24.344-.312.088-.048.23-.034.337-.006.084.022.147.111.226.162 1.512.98 3.071 1.818 4.974 1.705.338-.02.394.038.485.423.234 1.005.862 1.7 1.747 2.193a5.2 5.2 0 0 0 .94.42c.386.125.789.2 1.187.285.426.09.466.091.497.537.057.842.365 1.557.983 2.144.055.05.095.17.074.235-.135.406-.551.492-.85.186"/><path fill="#863340" d="M97.965 32.229a.175.175 0 0 1-.16-.035c-.031-.032-.042-.119-.028-.168.238-.748.478-1.495.72-2.242.17-.521.461-.923.932-1.147.11-.052.22-.134.35-.125.123.008.229.094.325.166.493.362.612 1.075.23 1.663a4.72 4.72 0 0 1-2.369 1.888"/><path fill="#FF7CC7" d="M81.022 68.636c.744-.019 1.21.395 1.358 1.133a2.26 2.26 0 0 1-.036 1.096 5.723 5.723 0 0 1-.897 1.816c-1.15 1.564-2.475 2.927-4.293 3.732-.197.087-.383.202-.576.299-.655.33-.655.329-1.137-.264a4.966 4.966 0 0 1-.113-.147c-1.147-1.54-2.14-3.178-3.08-4.848a3.483 3.483 0 0 1-.333-.762c-.098-.352-.14-.72-.177-.923.045-.29.055-.414.084-.534.25-1.04 1.108-1.43 2.058-.934.11.058.215.124.319.19.683.433 1.31.934 1.833 1.555.139.165.277.334.431.485.26.251.436.26.738.042.15-.11.288-.236.428-.356a7.609 7.609 0 0 1 2.314-1.354c.34-.128.717-.216 1.08-.226m-.344 12.985c.029 0 .076.015.082.033.059.18.11.362.165.544.24.826.62 1.59 1.127 2.29.363.502.824.88 1.447 1.052 1.463.4 2.608-.03 3.388-1.318a5.28 5.28 0 0 0 .761-3.173c-.065-.95-.29-1.865-.588-2.768-.47-1.421-1.284-2.606-2.484-3.536-.102-.078-.24-.132-.304-.232-.055-.086-.12-.247-.043-.334.056-.064.188-.04.256-.007.706.336 1.31.81 1.832 1.377 1.613 1.751 2.578 3.792 2.62 6.156.037 2.09-.854 3.784-2.66 4.974-.843.554-1.766.63-2.694.302-1.037-.368-1.866-1.04-2.333-2.026-.42-.887-.706-1.83-.678-2.833.011-.154.025-.334.039-.463.002-.015.045-.037.067-.038M61.827 71.68c-1.025 1.277-2.313 2.255-3.667 3.159-.463.309-.475.315-.912-.02-1.655-1.267-3.034-2.792-4.196-4.502-.297-.437-.486-.956-.659-1.459-.12-.35-.192-.734-.177-1.049.015-.294.104-.506.186-.707.28-.683.669-.915 1.414-.873.522.03 1 .184 1.438.47.622.406 1.126.927 1.552 1.525.202.282.38.582.577.869.256.376.39.392.766.082.244-.203.47-.426.707-.637.675-.602 1.455-1.021 2.316-1.299.401-.13.81-.177 1.23-.118.577.08.954.42.968.989.009.4-.054.82-.18 1.2-.286.878-.783 1.648-1.363 2.37"/><path fill="#863340" d="M59.562 20.076c-.09.526-.17 1.054-.645 1.451-.49-.356-.799-.82-1.015-1.329-.274-.643-.021-1.339.601-1.762.417-.284.83-.208.967.224.115.368.125.76.182 1.142l-.065.006c-.008.09-.01.18-.025.268M32.703 40.752a1.44 1.44 0 0 1 .561-.133c.42-.022.8.114 1.088.357.495.416.954.863 1.427 1.297.02.02.172.165.164.184-.018.044-.184.007-.212.006-.265-.007-.793-.035-.794-.03-.297-.031-.605-.032-.889-.102-.474-.117-.973-.223-1.391-.433-.603-.304-.563-.83.046-1.146m1.337 13.286c.225-.164.474-.299.723-.428.596-.31.659-.51.328-1.11-.198-.357-.437-.696-.59-1.071-.42-1.024-.531-2.076-.008-3.097a8.37 8.37 0 0 1 2.769-3.144 2.75 2.75 0 0 1 1.31-.477 2.56 2.56 0 0 0 .543-.107c.181-.06.25-.34.124-.473a1.589 1.589 0 0 0-.353-.304c-.356-.2-.526-.517-.632-.893-.407-1.446-.48-2.913-.178-4.38.334-1.63 1.883-2.755 3.294-2.722.125.002.25.011.374.003.412-.029.574-.21.515-.606-.06-.403-.17-.8-.213-1.204-.22-2.054.725-3.75 2.543-4.612 1.467-.694 3.863-.361 4.665 1.827.075.206.13.42.207.625.081.216.281.348.425.254a.697.697 0 0 0 .25-.353c.035-.109-.032-.246-.026-.37.025-.594.007-1.196.1-1.78.309-1.961 1.427-3.04 3.403-3.556.576-.15 1.176-.214 1.735.118.052.031.126.069.176.054.14-.04.306-.074.396-.172.098-.107.108-.29.18-.428.526-.973 1.567-1.208 2.47-.56.102.073.176.18.273.259.318.254.565.198.76-.148.23-.408.424-.85.721-1.201a16.872 16.872 0 0 1 1.572-1.614c1.176-1.06 2.56-1.737 4.15-1.77 2.07-.04 4.002.339 5.19 2.334.214.36.516.348.733.006.183-.29.31-.637.55-.866 1.279-1.22 2.82-1.62 4.51-1.182 1.044.27 1.963.825 2.546 1.803a1.7 1.7 0 0 0 .228.299c.14.145.33.22.513.138.834-.375 1.602-.068 2.352.245.34.141.661.364.934.613.448.405.79.883.81 1.537.009.253.236.382.468.324.12-.03.236-.079.352-.126a7.109 7.109 0 0 1 2.84-.55c1.729.032 3.258.588 4.445 1.9a8.174 8.174 0 0 1 1.713 3.002c.358 1.11.409 2.217-.118 3.3-.068.14-.117.291-.15.442a.346.346 0 0 0 .287.414c.248.033.498.042.746.061 1.34.062 2.585.47 3.745 1.12 1.057.591 1.938 1.38 2.479 2.498.375.775.506 1.602.595 2.453.168 1.639-.52 2.852-1.765 3.82-.147.114-.33.194-.454.329-.095.102-.192.281-.165.397.028.12.193.267.32.293.335.069.684.074 1.025.112.934.105 1.753.47 2.407 1.153 2.098 2.195 2.056 5.344.422 7.402a8.982 8.982 0 0 1-2.143 1.956c-.208.136-.422.27-.616.427-.134.109-.16.286-.055.42.067.083.205.117.317.15.05.015.123-.02.178-.046.798-.373 1.523-.144 2.227.267 1.224.713 1.876 1.726 1.654 3.193a1.24 1.24 0 0 0-.013.188c-.016.732-.323 1.332-.834 1.836-.607.597-1.266 1.123-2.05 1.47-.145.063-.292.119-.427.196-.22.124-.24.406-.047.544a.66.66 0 0 0 .16.094c.817.297 1.079.965 1.221 1.75.212 1.182-.059 2.256-.712 3.224-1.156 1.715-2.633 2.932-4.835 2.928a.41.41 0 0 0-.42.418c-.006.218.045.438.038.655-.008.31.019.644-.086.925-.282.764-.527 1.566-.962 2.24-.827 1.28-1.966 2.093-3.61 1.836-.347-.054-.444-.014-.548.346-.288 1.006-1.042 1.447-1.969 1.675-.78.193-.822.152-.965-.638a6.103 6.103 0 0 0-.077-.368c-.68-2.803-2.01-5.125-4.713-6.439-.161-.077-.222-.195-.231-.368-.027-.426.153-.8.305-1.174.436-1.088.477-2.196.202-3.322-.46-1.885-2.077-2.692-3.581-2.44-.724.12-1.404.334-2.022.716-.442.272-.885.069-1.141-.294a1.365 1.365 0 0 1-.233-.509 7.83 7.83 0 0 1-.135-1.111c-.028-.62-.053-.663-.697-.756-.153-.022-.312-.03-.465-.06-.743-.147-1.45-.387-2.071-.839-.696-.506-1.14-1.157-1.188-2.039-.032-.594-.047-1.19-.083-1.783-.005-.075-.09-.144-.137-.216-.064.046-.156.077-.187.14-.165.326-.025.851-.399.993-.318.122-.733-.005-1.106-.031a4.639 4.639 0 0 1-.558-.074c-.957-.19-1.924-.407-2.682-1.053-1.448-1.232-2.398-2.728-2.22-4.74.01-.124.02-.256-.009-.373-.02-.075-.117-.188-.171-.184a.53.53 0 0 0-.305.142c-.058.057-.076.173-.079.264-.012.375-.042.754-.008 1.126a7.28 7.28 0 0 0 .819 2.78c.18.337.13.586-.12.837-1.159 1.166-2.569 1.62-4.187 1.483-.212-.017-.318-.142-.376-.35-.057-.208-.16-.405-.256-.601-.023-.048-.095-.099-.145-.1-.042 0-.11.065-.122.112-.095.395-.181.794-.267 1.191-.1.46-.153.933-.303 1.376-.532 1.572-1.62 2.573-3.212 3.02-.444.125-.831.072-1.213-.264-.655-.575-1.466-.825-2.326-.904-.41-.037-.817-.011-1.197.163-1.185.544-1.984 1.403-2.192 2.735a4.79 4.79 0 0 0 .156 2.233c.22.686.466 1.363.715 2.04.065.173.043.302-.089.416-.07.062-.144.121-.225.168-1.339.763-2.322 1.908-3.22 3.116-.83 1.116-1.419 2.363-1.658 3.754-.09.518-.143.563-.69.479-1.6-.245-3.094-.78-4.427-1.711-.57-.399-1.066-.882-1.385-1.513-.47-.927-.844-1.893-1.014-2.923-.124-.754-.078-1.491.239-2.211.436-.991.37-1.098-.69-1.232-.575-.073-1.077-.26-1.51-.672-.995-.942-1.097-2.06-.71-3.288.064-.209.185-.4.256-.606.07-.204-.02-.385-.19-.483-.215-.124-.454-.208-.685-.304a3.242 3.242 0 0 1-1.213-.866c-.763-.875-1.235-1.894-1.377-3.042-.122-.999-.092-2.005.038-3.006.157-1.215.705-2.2 1.7-2.92"/><path fill="#FFF" d="M66.938 80.643c-.762-.064-1.318-.317-1.69-.799-.036-.046-.01-.255.025-.272a3.03 3.03 0 0 1 .654-.226 103.45 103.45 0 0 1 2.62-.481c.285-.049.575-.048.863-.07.042.439-.232.687-.433.961-.536.738-1.244.967-2.039.887"/><path fill="#FF7CC7" d="M50.318 72.675c.234-.185.549-.274.832-.395.035-.015.12.032.15.074.03.041.042.124.019.166a.771.771 0 0 1-.181.206c-1.56 1.316-2.57 2.997-3.302 4.855-.283.72-.46 1.47-.463 2.25-.004.838.29 1.565.854 2.187.374.413.852.635 1.41.624.842-.017 1.59-.288 2.19-.901.523-.538.967-1.126 1.245-1.827.09-.228.181-.457.284-.68.015-.032.11-.057.15-.04.046.018.1.084.1.131.004.12.008.253-.036.362-.244.598-.454 1.216-.762 1.78-.747 1.37-1.978 2.105-3.494 2.396-1.112.213-1.957-.21-2.49-1.198-.513-.948-.713-1.962-.638-3.282.074-.358.153-.974.337-1.559.672-2.133 2.058-3.774 3.795-5.149"/><path fill="#ECBBAF" d="M63.956 79.864c.312 1.126.88 1.878 2.033 2.513a3.5 3.5 0 0 0 1.527.417c1.109.042 2.08-.43 2.842-1.241.165-.177.296-.406.384-.633.302-.783.277-1.585.038-2.378-.11-.366-.326-.49-.709-.462-.25.017-.498.044-.744.088-1.412.253-2.823.51-4.233.772a4.283 4.283 0 0 0-.72.194c-.356.134-.515.384-.418.73M52.222 73.75c-.014-.06-.007-.125-.002-.187.003-.028.025-.078.038-.078.05 0 .121-.001.15.03.168.183.324.38.49.566 1.27 1.43 2.647 2.739 4.272 3.771.298.19.536.235.855.035 2.002-1.256 3.798-2.744 5.289-4.584.216-.266.436-.53.666-.785.586-.653 1.313-1.047 2.194-1.135.658-.067 1.31-.06 1.952.135 1.135.347 2.08.875 2.725 1.97.676 1.15 1.523 2.208 2.35 3.265.595.76 1.278 1.453 1.924 2.175.422.47.926.607 1.522.364.29-.118.599-.2.868-.351 2.054-1.15 4.038-2.396 5.537-4.263.066-.081.191-.114.29-.169.005.092.028.187.013.275a7.327 7.327 0 0 1-.14.638c-.31 1.152-.78 2.238-1.351 3.28-1.372 2.504-3.417 4.273-6.052 5.358-2.84 1.17-5.827 1.34-9.03 1.22-.6-.092-1.374-.197-2.144-.33-2.869-.497-5.574-1.396-7.916-3.196-1.723-1.325-3.097-2.918-3.77-5.009-.315-.975-.493-1.996-.73-2.995"/><path fill="#932752" d="M64.349 79.483c.02-.014.067-.02.083-.007.123.098.235.208.36.302 1.45 1.086 3.863 1.041 4.792-.98a2.49 2.49 0 0 1 .246-.404c.085-.12.36-.063.385.088.063.37.1.746.129.967-.064.632-.09 1.117-.422 1.498-.638.734-1.437 1.16-2.426 1.102a4.38 4.38 0 0 1-1.821-.524c-.787-.423-1.141-1.157-1.374-1.968-.006-.02.025-.06.048-.074"/><path fill="#E7B7DB" d="M77.36 68.552a17.14 17.14 0 0 0-.855-1.379c.227.226.446.462.669.692a.561.561 0 0 0 .395.183c.195 0 .375-.128.455-.369.021-.065-.019-.184-.074-.235-.618-.586-.927-1.3-.984-2.14-.03-.445-.07-.446-.497-.537-.398-.084-.802-.16-1.188-.284a5.271 5.271 0 0 1-.94-.42c-.886-.492-1.515-1.186-1.75-2.19-.08-.34-.133-.425-.382-.425-.03 0-.065 0-.103.003a5.83 5.83 0 0 1-.345.01c-1.75 0-3.212-.794-4.632-1.712-.079-.05-.143-.14-.227-.162a.761.761 0 0 0-.185-.026.316.316 0 0 0-.151.032c-.134.073-.23.207-.345.312-.803.732-1.75 1.204-2.808 1.445a4.97 4.97 0 0 1-1.087.13c-.073 0-.146-.003-.218-.007a5.64 5.64 0 0 0-.295-.01c-.39 0-.506.102-.58.65-.068.5-.289.944-.56 1.363-.666 1.03-1.649 1.676-2.757 2.164-.229.1-.47.172-.703.266-.048.02-.08.08-.119.121.017.06.021.125.052.176.16.266.324.53.494.79.081.124.14.183.208.183.06 0 .128-.045.225-.13.398-.348.775-.728 1.21-1.026.237-.162.482-.3.734-.411-.815.699-1.715 1.333-2.436 2.017-.132-.76-.847-1.377-1.183-1.964 2.306-.202 4.568-2.282 4.743-4.52.318.05.638.075.957.075 1.95 0 3.85-.914 4.954-2.442 1.295 1.483 3.575 2.187 5.223 2.187.135 0 .267-.005.393-.014.565 2.605 2.34 3.146 4.44 3.492.716.422.199 2.539 1.603 2.888-.39.412-.87.818-1.35 1.224"/><path fill="#B05657" d="M77.321 67.621a.563.563 0 0 1-.395-.181c-.223-.227-.441-.46-.668-.683-.505-.71-1.089-1.333-1.772-1.612-1.473-.665-3.326-1.358-3.166-3.384-.435.145-1.01.225-1.613.225-1.295 0-2.718-.372-3.166-1.29-.85 1.163-1.69 1.664-2.753 1.664-.542 0-1.142-.13-1.832-.369-.213 1.34-1.123 2.333-2.173 3.221-.251.11-.496.246-.734.406-.435.294-.81.67-1.208 1.014-.097.083-.165.128-.225.128-.069 0-.127-.058-.208-.182-.17-.257-.334-.517-.494-.78-.03-.049-.034-.114-.051-.173.039-.04.07-.1.118-.119.232-.093.474-.164.702-.263 1.108-.482 2.09-1.12 2.756-2.137.27-.414.492-.852.56-1.347.073-.54.188-.642.578-.642.085 0 .182.005.295.011.072.004.145.006.218.006.363 0 .734-.048 1.086-.127 1.057-.239 2.004-.704 2.806-1.428.115-.104.211-.236.344-.307a.32.32 0 0 1 .152-.032c.063 0 .129.011.185.025.084.022.147.11.226.16 1.42.907 2.88 1.692 4.628 1.692a6.725 6.725 0 0 0 .448-.014c.25 0 .302.083.383.42.234.991.862 1.677 1.747 2.163.299.164.615.311.94.414.386.123.789.197 1.187.281.426.09.466.09.497.53.057.83.365 1.535.983 2.113.055.05.095.168.074.232-.08.238-.26.365-.455.365"/><path fill="#E7B7DB" d="M84.894 87.176c-.172 0-.344-.014-.52-.043-1.708-.28-2.904-1.24-3.564-2.834-.31-.75-.529-1.537-.582-2.36-.01-.13-.064-.197-.147-.197-.045 0-.1.02-.159.061-.1.073-.196.153-.293.232a12.851 12.851 0 0 1-2.777 1.701c.175-.285.341-.578.496-.879 1.952-1.095 3.504-2.649 4.615-4.69.57-1.044 1.04-2.134 1.348-3.29.054-.211.104-.425.14-.64.015-.088-.008-.184-.014-.276-.098.055-.223.088-.289.17-1.102 1.38-2.466 2.423-3.929 3.337.04-.16.078-.32.115-.48.405-.261.815-.537 1.2-.87 2.299-1.664 4.224-4.243 3.926-7.227.183-.05.359-.114.525-.193.166.972.085 1.93-.293 2.874-.151.374-.33.746-.304 1.17.01.173.07.29.23.368 2.695 1.31 4.022 3.625 4.7 6.42.03.12.055.243.078.366.098.545.147.733.429.733.123 0 .293-.037.533-.096.924-.228 1.676-.668 1.963-1.67.08-.278.157-.365.348-.365.055 0 .121.007.199.02.204.031.4.047.59.047 1.328 0 2.29-.76 3.01-1.878.434-.672.678-1.472.96-2.233.104-.28.077-.613.085-.923.007-.216-.044-.435-.038-.653a.407.407 0 0 1 .418-.416h.012c2.191 0 3.66-1.213 4.81-2.92.653-.965.923-2.035.711-3.214-.142-.783-.402-1.449-1.217-1.745a.645.645 0 0 1-.16-.094c-.193-.137-.172-.418.047-.542.134-.077.281-.133.425-.196.782-.346 1.44-.87 2.045-1.466.51-.502.816-1.1.831-1.83 0-.063.004-.126.014-.187.22-1.463-.43-2.473-1.65-3.184-.454-.265-.917-.454-1.403-.454-.264 0-.536.056-.818.187-.047.022-.104.05-.151.05-.01 0-.017 0-.027-.003-.111-.033-.249-.067-.315-.15-.106-.134-.08-.31.055-.419.192-.156.406-.29.614-.425a8.956 8.956 0 0 0 2.137-1.95c1.63-2.052 1.67-5.193-.421-7.38-.652-.682-1.469-1.046-2.4-1.15-.34-.039-.688-.044-1.023-.112-.126-.026-.29-.172-.319-.292-.027-.115.07-.295.164-.396.125-.135.307-.214.454-.329 1.242-.964 1.928-2.174 1.76-3.808-.09-.848-.22-1.673-.594-2.446-.539-1.114-1.417-1.9-2.472-2.49a9.808 9.808 0 0 0-.813-.408 4.344 4.344 0 0 0-.597-1.01 8.47 8.47 0 0 1 1.42.54c2.45 1.198 3.688 3.17 3.794 5.892.053 1.38-.32 2.594-1.238 3.632-.083.094-.177.183-.232.292-.02.042.032.166.085.193.108.058.234.077.355.11.734.204 1.418.515 1.966 1.046 1.343 1.302 2.048 2.893 2.043 4.777-.008 1.643-.624 3.046-1.724 4.244-.315.346-.665.661-.996.993-.106.108-.113.22.05.274.6.197 1.122.527 1.634.894 1.297.929 1.599 2.55 1.262 4.139-.168.8-.64 1.418-1.234 1.947-.35.31-.735.58-1.103.87-.295.23-.32.268-.114.615.531.897.71 1.86.594 2.895 0 1.062-.352 2.02-.949 2.89-1.098 1.597-2.46 2.831-4.454 3.155-.263.043-.386.165-.405.42a5.497 5.497 0 0 1-.05.467c-.279 1.764-1.172 3.144-2.618 4.168-.62.44-1.306.743-2.075.784-.342.019-.567.136-.777.416-.586.783-1.383 1.243-2.341 1.437-.3.06-.692.049-.862.236-.176.191-.127.585-.184.89-.347 1.835-1.205 3.338-2.821 4.345-.54.336-1.117.516-1.724.516m-3.982-6.096c-.02 0-.062.022-.064.037-.013.128-.026.306-.038.46-.026.994.25 1.928.654 2.809.45.977 1.25 1.643 2.25 2.008.349.128.698.194 1.044.194.535 0 1.059-.16 1.552-.494 1.74-1.18 2.598-2.859 2.562-4.931-.04-2.344-.969-4.368-2.524-6.104a5.798 5.798 0 0 0-1.765-1.366.346.346 0 0 0-.14-.032c-.044 0-.083.01-.108.04-.074.086-.011.245.042.33.062.1.194.153.292.23 1.157.923 1.941 2.097 2.395 3.506.287.896.504 1.803.567 2.745a5.355 5.355 0 0 1-.733 3.146c-.573.97-1.346 1.45-2.304 1.45-.303 0-.624-.047-.962-.143-.601-.17-1.045-.545-1.395-1.043a7.454 7.454 0 0 1-1.086-2.27c-.053-.18-.102-.361-.16-.54-.005-.018-.05-.032-.079-.032m1.121-1.423c-.077 0-.145.041-.217.113-.34.337-.427.707-.297 1.19.26.976.605 1.907 1.225 2.712.45.587 1.018.872 1.69.872.173 0 .356-.019.545-.058.45-.092.796-.352 1.083-.692.586-.693.832-1.525.93-2.409.02-.18-.085-.294-.266-.313-.218-.024-.435-.036-.652-.052-1.369-.18-2.701-.482-3.858-1.293a.323.323 0 0 0-.183-.07m2.213-5.08c-.08 0-.145.058-.176.168-.066.24-.11.487-.177.726-.314 1.115-.72 2.19-1.312 3.19-.181.306-.147.404.153.602.104.069.212.132.323.187 1.015.503 2.108.736 3.213.928.09.008.185.02.278.021h.015c.325 0 .444-.117.397-.454-.287-2.03-1.007-3.854-2.54-5.285a.265.265 0 0 0-.174-.082"/><path fill="#7A2537" d="M86.194 80.658h-.016c-.095-.002-.193-.013-.287-.02-1.142-.185-2.27-.408-3.319-.892a3.142 3.142 0 0 1-.334-.179c-.31-.19-.345-.284-.158-.577.611-.96 1.031-1.992 1.355-3.062.07-.23.115-.466.184-.697.03-.106.1-.16.181-.16.057 0 .12.025.18.079 1.583 1.373 2.327 3.123 2.624 5.072.049.323-.074.436-.41.436"/><path fill="#E759AB" d="M84.669 87.176c-.36 0-.722-.066-1.085-.195-1.037-.368-1.866-1.04-2.333-2.026-.42-.887-.706-1.83-.678-2.833.011-.154.025-.333.039-.463.002-.015.045-.037.067-.037.029 0 .076.014.082.032.059.18.11.362.165.544.24.826.62 1.59 1.127 2.29.363.502.824.88 1.447 1.052.351.096.684.144.998.144.994 0 1.796-.484 2.39-1.462a5.28 5.28 0 0 0 .761-3.173c-.065-.95-.29-1.865-.588-2.768-.47-1.421-1.284-2.606-2.484-3.536-.102-.078-.24-.132-.304-.232-.055-.086-.12-.247-.043-.334.025-.029.066-.04.111-.04.053 0 .108.015.145.033.706.336 1.31.81 1.832 1.377 1.613 1.751 2.578 3.792 2.62 6.156.037 2.09-.854 3.784-2.66 4.974a2.888 2.888 0 0 1-1.61.497"/><path fill="#7A2537" d="M89.811 81.123c-.286 0-.336-.188-.435-.734a6.032 6.032 0 0 0-.079-.368c-.689-2.8-2.035-5.122-4.77-6.435-.164-.077-.225-.195-.235-.368-.026-.426.156-.799.31-1.173a5.165 5.165 0 0 0 .297-2.882 2.423 2.423 0 0 0 1.394-1.826c.514-1.675.25-3.219-.399-4.792.56.472 1.187.677 1.81.677 1.59 0 3.158-1.325 3.56-2.936.542-2.054.16-4.559-1.048-6.365.573.044 1.197.118 1.81.118 1.027 0 2.02-.207 2.692-1.11 2.162-3.073 1.1-6.773-.812-9.394.219.037.434.054.647.054 1.812 0 3.335-1.284 3.81-2.954.496-1.568.619-3.565-.062-5.14.28.123.554.26.825.409 1.07.59 1.962 1.38 2.509 2.496.38.775.512 1.601.602 2.452.17 1.638-.526 2.85-1.786 3.817-.15.115-.334.195-.46.33-.096.101-.194.28-.167.397.029.12.196.267.324.293.34.068.693.073 1.038.111.946.105 1.774.47 2.436 1.153 2.123 2.193 2.081 5.34.428 7.397a9.05 9.05 0 0 1-2.17 1.955c-.21.136-.428.27-.623.427-.136.109-.163.285-.056.42.067.082.207.117.32.15a.1.1 0 0 0 .027.003c.048 0 .106-.028.154-.05a1.97 1.97 0 0 1 .83-.188c.493 0 .963.19 1.424.455 1.239.713 1.899 1.725 1.674 3.192a1.16 1.16 0 0 0-.013.187c-.016.732-.326 1.332-.844 1.835-.614.597-1.282 1.123-2.076 1.47-.145.063-.295.118-.431.195-.223.125-.244.406-.048.544a.66.66 0 0 0 .163.094c.827.297 1.091.965 1.235 1.749.215 1.182-.06 2.255-.721 3.222-1.168 1.71-2.659 2.927-4.884 2.927H98a.41.41 0 0 0-.424.417c-.006.218.046.437.038.655-.007.31.02.644-.086.924-.286.763-.533 1.565-.975 2.238-.73 1.12-1.707 1.883-3.055 1.883a3.92 3.92 0 0 1-.599-.047 1.373 1.373 0 0 0-.201-.02c-.194 0-.272.087-.353.366-.292 1.005-1.055 1.446-1.993 1.674-.244.06-.416.096-.541.096"/><path fill="#EDBCBC" d="M77.317 82.986c.849-1.648 1.406-3.51 1.851-5.36 1.447-.909 2.798-1.945 3.888-3.318.065-.081.189-.114.286-.169.006.092.028.187.013.274a7.382 7.382 0 0 1-.138.637c-.305 1.15-.769 2.233-1.334 3.272-1.1 2.03-2.635 3.575-4.566 4.664"/><path fill="#FFF" d="M48.533 84.382c-1.095 0-1.93-.565-2.483-1.668-.41-.82-.654-1.686-.657-2.616-.002-.403-.038-.428-.395-.508-.424-.093-.852-.172-1.276-.268-.97-.22-1.924-.487-2.821-.94a5.374 5.374 0 0 1-2.072-1.843 9.472 9.472 0 0 1-1.157-2.35c-.38-1.177-.59-2.37-.136-3.584.011-.029.013-.06.022-.09.064-.217-.015-.368-.217-.45-.26-.103-.523-.197-.785-.292-.944-.344-1.568-1.019-1.86-1.964-.268-.867-.45-1.756-.174-2.674.128-.429.11-.462-.289-.661-1.283-.64-2.015-1.727-2.469-3.04-.523-1.518-.618-3.088-.236-4.629.37-1.497.957-2.92 2.389-3.772.331-.198.345-.266.155-.599-.832-1.455-.876-2.974-.37-4.531.528-1.626 1.583-2.812 3.071-3.616.245-.132.51-.227.763-.349.124-.06.174-.168.126-.307-.061-.178-.14-.35-.183-.532-.385-1.598-.595-3.205-.097-4.816.46-1.488 1.468-2.424 2.94-2.883.319-.098.79.072.931-.275.115-.281-.024-.667-.05-1.005-.005-.063-.015-.125-.02-.187-.208-2.162.925-4.28 3.26-5.133a4.521 4.521 0 0 1 1.797-.282c-.173.23-.337.471-.493.721a3.483 3.483 0 0 0-1.304.32c-1.805.86-2.743 2.55-2.524 4.599.043.402.15.798.21 1.2.06.394-.1.576-.51.604a1.747 1.747 0 0 1-.113.003c-.086 0-.173-.004-.258-.006h-.06c-1.384 0-2.883 1.113-3.21 2.715-.3 1.463-.227 2.925.177 4.367.105.375.274.69.627.89.132.075.245.191.35.304.125.133.058.412-.122.471a2.53 2.53 0 0 1-.54.107 2.72 2.72 0 0 0-1.3.476 8.334 8.334 0 0 0-2.748 3.135c-.52 1.018-.408 2.067.008 3.088.152.374.389.712.585 1.068.329.598.267.797-.325 1.107a5.68 5.68 0 0 0-.719.426c-.987.719-1.53 1.701-1.686 2.913-.13.998-.16 2-.038 2.997.141 1.145.61 2.16 1.367 3.033.333.384.738.668 1.204.864.229.096.466.18.68.303.17.098.259.279.189.482-.071.206-.191.396-.256.604-.383 1.225-.281 2.34.705 3.28.431.41.929.596 1.5.669 1.051.134 1.118.24.684 1.228-.314.718-.36 1.453-.236 2.205.169 1.027.54 1.99 1.006 2.915.316.629.808 1.111 1.374 1.508 1.324.93 2.807 1.463 4.394 1.707.134.02.238.033.32.033.252 0 .299-.121.366-.51.237-1.388.822-2.631 1.645-3.744.892-1.205 1.868-2.347 3.197-3.108.08-.046.154-.105.223-.167.132-.114.152-.242.088-.415-.246-.675-.49-1.35-.71-2.034a4.55 4.55 0 0 1-.092-.33c.09.043.183.083.275.12.754 3 3.028 5.387 5.246 7.488l.052.294c-1.089-.858-2.066-1.84-2.987-2.889-.165-.187-.32-.383-.486-.567-.029-.032-.099-.03-.15-.03-.012 0-.034.05-.037.078-.004.062-.011.128.002.187.236 1.003.412 2.027.724 3.006.67 2.099 2.033 3.698 3.743 5.027l.25.19c.101.328.213.653.336.972a12.283 12.283 0 0 1-2.072-1.695c-.24-.245-.464-.506-.709-.746-.081-.08-.201-.121-.304-.18-.159.407-.31.817-.476 1.22-.75 1.825-2.12 2.893-4.018 3.281-.262.054-.513.08-.751.08m2.372-12.405c-.006 0-.01 0-.015.003-.282.124-.595.213-.827.402-1.726 1.398-3.103 3.066-3.77 5.234-.184.595-.262 1.22-.336 1.585-.074 1.342.125 2.373.634 3.336.44.835 1.094 1.273 1.937 1.273.17 0 .35-.018.537-.055 1.506-.295 2.73-1.043 3.472-2.435.306-.574.515-1.202.757-1.81.044-.11.04-.245.037-.368-.002-.048-.055-.115-.1-.134a.088.088 0 0 0-.032-.005c-.045 0-.106.021-.117.047-.103.227-.193.459-.283.691-.276.713-.717 1.31-1.238 1.857-.595.624-1.338.899-2.175.916h-.04c-.536 0-.998-.225-1.36-.634-.56-.633-.853-1.371-.85-2.223.004-.794.18-1.556.46-2.287.728-1.89 1.732-3.599 3.282-4.937.07-.06.136-.13.18-.209.022-.042.01-.127-.02-.169-.024-.037-.093-.078-.133-.078m1.229 5.198c-.059 0-.127.036-.217.104-.373.279-.733.58-1.124.829a7.303 7.303 0 0 1-2.587 1.017c-.462.087-.524.2-.527.725-.024.557.2 1.125.618 1.622.276.327.624.5 1.037.5.038 0 .077-.001.116-.004.536-.04 1.04-.19 1.46-.545.941-.795 1.467-1.844 1.785-3.012.037-.136-.001-.31-.052-.45-.075-.203-.188-.394-.294-.584-.076-.138-.137-.202-.215-.202M51.1 73.04c-.067 0-.157.069-.288.205-1.339 1.386-2.29 3.01-2.89 4.844-.018.058-.017.123-.028.222.048.036.118.129.172.129l.007-.001c.333-.06.671-.116.99-.225.953-.328 1.766-.89 2.5-1.577.236-.222.352-.457.252-.827-.217-.811-.363-1.642-.542-2.463-.046-.206-.093-.307-.173-.307"/><path fill="#9E3744" d="M48.212 78.33c-.057 0-.13-.088-.182-.123.013-.093.011-.155.03-.21.634-1.74 1.64-3.28 3.055-4.595.14-.128.234-.194.305-.194.085 0 .134.096.182.292.19.779.344 1.566.574 2.336.105.35-.017.574-.268.784-.774.65-1.635 1.185-2.642 1.495-.337.104-.694.158-1.046.214a.04.04 0 0 1-.008 0m-2.957.466c-.082 0-.186-.012-.32-.033-1.59-.245-3.075-.78-4.402-1.714-.567-.398-1.06-.882-1.377-1.514-.466-.928-.838-1.896-1.008-2.927-.123-.755-.077-1.493.238-2.214.434-.992.367-1.099-.686-1.233-.572-.074-1.07-.26-1.502-.673-.988-.943-1.09-2.062-.706-3.293.064-.208.184-.399.255-.606.07-.204-.02-.385-.19-.484-.213-.124-.45-.208-.68-.304a3.224 3.224 0 0 1-1.206-.867 5.631 5.631 0 0 1-1.369-3.046c-.122-1-.092-2.007.037-3.01.157-1.216.701-2.203 1.69-2.924a5.53 5.53 0 0 1 .72-.428c.592-.311.655-.512.325-1.112-.196-.357-.433-.696-.585-1.072-.418-1.026-.53-2.078-.009-3.1a8.363 8.363 0 0 1 2.753-3.148 2.72 2.72 0 0 1 1.302-.478 2.53 2.53 0 0 0 .541-.108c.18-.06.248-.34.124-.473a1.583 1.583 0 0 0-.352-.305c-.354-.2-.523-.518-.628-.894-.405-1.448-.477-2.916-.177-4.385.328-1.609 1.83-2.727 3.216-2.727h.059c.086.003.173.007.259.007.038 0 .076 0 .114-.003.41-.028.57-.21.51-.607-.06-.403-.167-.8-.21-1.205-.22-2.057.72-3.755 2.528-4.618a3.482 3.482 0 0 1 1.306-.32c-.037.06-.075.12-.111.182-1.503 2.365-1.66 6.932 1.635 8.332a2.047 2.047 0 0 0-.156-.006c-1.063 0-1.994.838-2.242 1.729-1.112 2.203-1.198 5.822 1.967 6.449-2.919 1.11-3.93 4.466-3.582 7.356.058 1.212 1.157 2.745 2.594 2.745.379 0 .78-.107 1.193-.353-1.632 1.59-2.007 4.042-1.414 6.187.434 1.512 1.804 2.38 3.438 2.38.054 0 .107 0 .161-.002-.823.89-1.3 2.189-.634 3.385.332.507.796.844 1.307 1.085.026.11.057.22.092.33.22.687.464 1.365.711 2.043.065.173.044.302-.088.417a1.43 1.43 0 0 1-.224.167c-1.33.764-2.308 1.91-3.202 3.12-.825 1.118-1.41 2.366-1.648 3.76-.067.39-.114.512-.367.512"/><path fill="#FF86D2" d="M48.773 83.917c-.848 0-1.506-.431-1.95-1.252-.512-.948-.712-1.962-.637-3.282.074-.358.153-.974.337-1.559.672-2.133 2.058-3.773 3.795-5.149.234-.185.549-.274.832-.395a.038.038 0 0 1 .015-.003c.04 0 .11.04.135.077.03.041.042.124.019.166a.771.771 0 0 1-.181.206c-1.56 1.316-2.57 2.997-3.302 4.855-.283.72-.46 1.47-.463 2.25-.004.838.29 1.565.854 2.187.365.403.83.624 1.37.624h.04c.842-.017 1.59-.288 2.19-.901.523-.538.967-1.126 1.245-1.827.09-.228.181-.457.284-.68.012-.025.073-.046.118-.046a.09.09 0 0 1 .032.005c.046.019.1.085.1.132.004.12.008.253-.036.362-.244.598-.454 1.216-.762 1.78-.747 1.37-1.978 2.105-3.494 2.396a2.866 2.866 0 0 1-.541.054"/><path fill="#ECB3A2" d="M57.328 81.589c-.09-.061-.18-.124-.27-.187-1.851-1.312-3.327-2.891-4.052-4.963-.337-.967-.528-1.978-.784-2.968-.014-.059-.006-.123-.002-.185.003-.028.027-.078.04-.078.056 0 .132 0 .162.03.181.182.349.376.527.56.997 1.035 2.054 2.006 3.232 2.853.32 1.668.61 3.356 1.147 4.938"/><path fill="#FFF" d="M54.042 67.621c.256.005.433.318.264.502-.567.62.801 2.41 1.212 2.951.347.458 1.7 1.284 1.256 1.917-.21.3-.65.265-.9.043-1.09-.972-1.938-2.136-2.451-3.442-.275-.7-.668-1.993.619-1.97m20.024 1.471c.263-.172.765-.043.693.326a3.901 3.901 0 0 0-.066-.058.194.194 0 0 1-.024.286c-.142.114.208 1.172.26 1.361.288 1.063.793 1.934 1.38 2.877.363.581-.646 1.027-1.006.453-.64-1.02-1.198-1.97-1.459-3.134-.165-.739-.558-1.598.222-2.11"/><path fill="#590F43" d="M55.812 41.113c0 .188.007.377 0 .565-.01.357-.014.356-.418.477-.178.053-.358.1-.529.172-.83.349-1.487 1.329-1.18 2.381.208.71.466 1.37 1.1 1.794.123.082.275.132.42.164.075.015.213-.019.155-.154-.15-.344-.32-.678-.475-1.02-.13-.283-.281-.563-.372-.86-.211-.693.025-1.234.662-1.562.163-.083.348-.123.52-.192.232-.092.406-.05.558.17a2 2 0 0 0 .443.465c.07.053.25.028.333-.03.085-.06.172-.216.154-.309-.034-.177-.132-.345-.222-.506-.786-1.413-.469-3.714 1.828-4.307 1.175-.304 2.329-.195 3.444.293.403.176.769.413 1.041.766.361.465.794.422 1.016-.215a4.16 4.16 0 0 1 .328-.674c1.084-1.898 3.234-2.41 5.023-1.191a6.95 6.95 0 0 1 1.982 2.089c.43.689.822 1.402 1.24 2.1.034.055.14.065.213.095.02-.057.058-.114.057-.17a.95.95 0 0 0-.046-.277c-.593-1.766-1.51-3.305-3.04-4.396-1.656-1.18-3.616-1.05-5.07.156-.422.35-.742.833-1.091 1.27-.244.305-.235.324-.586.098-1.377-.889-2.88-1.074-4.452-.8a3.752 3.752 0 0 0-2.098 1.124c-.661.69-.958 1.525-.938 2.484M91.72 47.5c.275-1.11-.08-2.059-.809-2.902-.443-.513-.956-.95-1.636-1.15a.873.873 0 0 0-.382-.028c-.053.01-.14.172-.12.196.18.222.378.428.573.638.327.35.69.676.972 1.057.634.847.7 1.744.118 2.654-.051.08-.114.155-.156.24-.122.252-.039.501.225.64.142.076.304.115.45.183 1.223.568 1.773 1.473 1.682 2.829-.092 1.384-1.04 2.22-2.016 2.54-.833.273-.896.456-.333 1.074.586.64.875 1.398.982 2.227.106.827-.197 1.496-.94 1.937-.387.229-.8.415-1.206.612-.144.07-.312.099-.452.177-.148.083-.256.24-.165.395.067.119.217.208.35.27.075.034.194-.004.284-.031.854-.251 1.624-.655 2.265-1.26.567-.537.794-1.214.754-1.977-.049-.904-.352-1.728-.847-2.49-.079-.123-.067-.225.07-.316.32-.214.642-.428.95-.66 1.613-1.219 1.81-4.476-.238-5.808-.08-.052-.157-.112-.242-.158-.262-.145-.392-.324-.217-.617.048-.079.055-.18.083-.272m-.239 25.232c1.048.086 1.745-.379 2.052-1.317a3.95 3.95 0 0 0 .135-.548c.062-.333.114-.668.167-1.001.3-.046.606-.062.896-.143.656-.184 1.04-.657 1.141-1.335a3.338 3.338 0 0 0-.544-2.418.6.6 0 0 0-.288-.209c-.054-.019-.207.07-.207.106.01.247.045.494.073.74.055.466.152.93.161 1.396.015.748-.56 1.148-1.354.821-.193-.08-.346-.267-.539-.344-.12-.047-.301-.017-.42.047-.147.081-.17.265-.09.415.356.654.27 1.344.138 2.024-.146.753-.58 1.049-1.328.954-.21-.027-.418-.093-.623-.149-.193-.052-.368-.045-.477.152-.1.177-.006.413.228.54.16.089.335.153.51.205.144.043.3.053.37.064m-8.925-34.949c-.042.193-.112.386-.114.58-.002.108.09.246.174.321.136.12.313.076.406-.06.124-.18.25-.39.285-.605.358-2.196-1.159-3.694-2.884-3.372-.384.071-.759.226-1.128.372-.21.083-.332.04-.448-.168-.125-.226-.26-.461-.434-.636a4.073 4.073 0 0 0-.74-.556c-.083-.05-.254-.025-.327.04-.048.04-.035.268.024.334a5.29 5.29 0 0 1 1.117 1.919c.097.298.343.372.595.232.134-.075.248-.198.386-.261.305-.14.612-.294.931-.375 1.361-.341 2.304.744 2.157 2.235M46.478 66.69c.072-.007.238.006.379-.044.103-.036.237-.152.243-.24.008-.13-.044-.32-.143-.389-.142-.099-.352-.105-.528-.165-.413-.14-.852-.242-1.228-.447-.666-.36-.62-1.08.066-1.413.164-.08.363-.09.54-.148.33-.11.422-.389.207-.634-.081-.091-.183-.166-.272-.25-.485-.462-.649-1.016-.521-1.655.03-.146.067-.296.064-.443-.001-.075-.066-.182-.134-.213-.062-.029-.19-.002-.248.046-.354.3-.45.709-.47 1.139-.004.119.024.24.043.358.098.582-.038 1.201-.386 1.757-.414.658-.295 1.458.32 1.961.568.465 1.246.693 2.068.78m18.899 6.073c-.03-.008-.06-.023-.09-.02-.703.05-1.096.515-1.348 1.17-.234.608-.055 1.13.37 1.521.27.25.626.403.96.552.106.046.34-.015.394-.11.105-.179-.067-.283-.21-.353-.168-.081-.346-.142-.507-.237-.781-.458-.834-1.355-.108-1.915.173-.133.38-.213.565-.33a.215.215 0 0 0 .086-.157c-.001-.042-.073-.081-.112-.121"/><path fill="#590F43" d="M32.258 60.25c.142 1.153.617 2.177 1.382 3.056.337.387.747.673 1.218.87.232.097.471.181.688.306.17.099.261.28.19.486-.071.207-.192.399-.257.608-.388 1.235-.285 2.358.712 3.305.436.413.94.601 1.518.675 1.063.134 1.13.241.691 1.237-.317.724-.364 1.464-.239 2.222.17 1.035.546 2.006 1.017 2.937.32.634.818 1.12 1.39 1.52 1.34.936 2.84 1.474 4.445 1.72.55.084.603.039.693-.481.24-1.399.831-2.651 1.664-3.772.902-1.215 1.89-2.365 3.233-3.132.081-.047.156-.106.226-.168.133-.115.154-.244.09-.419-.25-.68-.497-1.36-.719-2.05a4.817 4.817 0 0 1-.156-2.243c.209-1.339 1.011-2.202 2.2-2.748.382-.175.791-.201 1.202-.164.864.08 1.678.33 2.335.908.383.338.772.39 1.218.265 1.598-.449 2.69-1.455 3.224-3.034.15-.445.204-.921.305-1.383.086-.4.172-.8.268-1.196.011-.048.08-.114.122-.113.05.001.122.052.146.1.096.197.199.395.257.604.058.21.164.335.378.352 1.624.138 3.04-.319 4.202-1.49.25-.252.3-.503.12-.841a7.293 7.293 0 0 1-.82-2.794c-.035-.373-.005-.754.007-1.13.002-.092.02-.209.08-.266a.533.533 0 0 1 .305-.143c.054-.004.153.11.172.185.03.118.02.25.009.375-.178 2.022.775 3.525 2.228 4.763.761.649 1.732.866 2.693 1.058.185.036.373.06.56.074.374.026.79.153 1.11.032.376-.143.235-.67.4-.999.032-.062.125-.094.189-.14.047.072.132.142.137.217.036.597.052 1.195.084 1.792.047.886.493 1.54 1.192 2.048.624.454 1.334.696 2.08.843.153.03.312.039.466.06.647.094.672.137.7.76.017.374.065.75.135 1.117.035.18.128.36.234.511.257.365.702.568 1.146.295.62-.383 1.303-.599 2.03-.72 1.51-.253 3.133.559 3.595 2.453.276 1.131.234 2.245-.204 3.338-.152.376-.332.751-.306 1.18.01.173.07.292.232.37 2.713 1.32 4.049 3.653 4.732 6.469.03.122.055.246.078.37.142.794.184.835.968.641.93-.229 1.687-.672 1.977-1.683.104-.361.201-.402.55-.348 1.65.26 2.794-.558 3.623-1.845.438-.677.683-1.483.967-2.25.105-.282.078-.617.085-.93.008-.218-.043-.439-.038-.658a.411.411 0 0 1 .423-.42c2.21.005 3.692-1.22 4.853-2.942.656-.972.928-2.051.715-3.24-.143-.788-.405-1.46-1.225-1.758a.643.643 0 0 1-.162-.095c-.194-.138-.173-.421.048-.546.135-.077.283-.133.428-.197.787-.349 1.45-.877 2.058-1.477.514-.506.822-1.109.837-1.845 0-.063.004-.127.014-.189.222-1.474-.432-2.491-1.661-3.209-.706-.413-1.435-.642-2.235-.268-.056.027-.128.061-.18.047-.112-.033-.25-.068-.317-.15-.107-.136-.08-.314.055-.423.194-.158.41-.292.618-.43a9.02 9.02 0 0 0 2.152-1.965c1.64-2.067 1.682-5.232-.424-7.437-.656-.687-1.478-1.054-2.416-1.159-.343-.038-.693-.044-1.03-.112-.127-.026-.292-.174-.32-.294-.028-.117.07-.298.165-.4.125-.136.308-.215.456-.331 1.25-.972 1.94-2.19 1.771-3.838-.09-.855-.22-1.686-.597-2.465-.542-1.123-1.427-1.915-2.488-2.51-1.165-.652-2.415-1.063-3.76-1.125-.249-.02-.5-.028-.75-.061a.348.348 0 0 1-.286-.417 1.93 1.93 0 0 1 .15-.443c.529-1.089.477-2.201.118-3.316a8.215 8.215 0 0 0-1.72-3.018c-1.19-1.317-2.726-1.876-4.461-1.909a7.127 7.127 0 0 0-2.852.553c-.116.048-.232.097-.354.127-.232.058-.46-.071-.47-.326-.019-.656-.363-1.137-.812-1.544a3.343 3.343 0 0 0-.938-.616c-.753-.315-1.524-.622-2.36-.246-.185.082-.375.007-.516-.14a1.668 1.668 0 0 1-.229-.299c-.586-.982-1.508-1.541-2.556-1.812-1.697-.44-3.243-.038-4.527 1.188-.242.23-.369.579-.552.87-.218.344-.521.355-.737-.006-1.193-2.005-3.132-2.386-5.21-2.345-1.597.032-2.985.712-4.165 1.779a16.971 16.971 0 0 0-1.579 1.621c-.299.353-.493.797-.724 1.207-.195.348-.444.404-.763.148-.098-.078-.172-.186-.273-.259-.907-.652-1.952-.415-2.48.562-.073.138-.082.322-.181.43-.09.099-.258.133-.398.173-.05.015-.124-.023-.176-.055-.561-.334-1.164-.269-1.742-.118-1.984.519-3.106 1.603-3.417 3.573-.093.587-.075 1.192-.1 1.789-.005.124.061.262.026.372a.7.7 0 0 1-.25.355c-.145.094-.346-.04-.427-.256-.077-.207-.132-.421-.209-.628-.804-2.199-3.21-2.533-4.682-1.836-1.826.867-2.774 2.57-2.553 4.635.044.405.153.804.213 1.21.06.397-.102.58-.516.608-.124.008-.25 0-.376-.003-1.416-.033-2.971 1.098-3.307 2.735a9.213 9.213 0 0 0 .18 4.401c.106.378.276.697.633.897.134.075.248.193.355.306.126.135.058.416-.124.475-.176.057-.362.09-.546.108a2.765 2.765 0 0 0-1.315.48 8.408 8.408 0 0 0-2.78 3.159c-.525 1.026-.412 2.082.01 3.112.152.377.392.717.59 1.076.333.602.27.803-.328 1.115-.25.13-.5.265-.727.43-.998.724-1.548 1.714-1.706 2.934-.13 1.006-.16 2.017-.038 3.021zm14.507 22.687c.536 1.012 1.385 1.446 2.502 1.227 1.524-.297 2.76-1.051 3.512-2.453.31-.58.52-1.212.765-1.825.045-.111.041-.247.037-.37-.001-.048-.055-.116-.1-.135-.04-.016-.136.009-.151.042-.104.228-.196.462-.286.696-.28.718-.726 1.32-1.252 1.871-.602.63-1.354.906-2.2.924-.56.011-1.041-.217-1.417-.64-.566-.637-.862-1.381-.858-2.24.003-.8.18-1.568.465-2.305.736-1.904 1.75-3.626 3.318-4.974.07-.06.139-.13.182-.21.024-.043.01-.128-.019-.17-.029-.043-.116-.092-.15-.077-.285.125-.602.216-.837.405-1.745 1.41-3.138 3.09-3.813 5.275-.185.599-.264 1.23-.339 1.597-.075 1.352.126 2.391.64 3.362zm9.797-1.287c2.351 1.82 5.067 2.73 7.947 3.233.773.134 1.55.24 2.152.333 3.216.122 6.214-.051 9.066-1.234 2.645-1.097 4.698-2.886 6.075-5.42.575-1.052 1.047-2.15 1.357-3.315.055-.213.104-.429.14-.646.016-.089-.007-.185-.013-.278-.099.056-.224.089-.29.171-1.506 1.889-3.497 3.147-5.56 4.311-.27.153-.58.236-.87.356-.6.245-1.105.107-1.53-.369-.648-.73-1.333-1.43-1.93-2.2-.83-1.068-1.68-2.138-2.36-3.301-.647-1.108-1.596-1.642-2.735-1.993-.644-.197-1.3-.204-1.96-.137-.884.09-1.614.488-2.203 1.148-.23.259-.452.525-.669.795-1.496 1.86-3.3 3.365-5.31 4.635-.32.202-.558.156-.857-.035-1.632-1.044-3.014-2.368-4.29-3.814-.166-.189-.323-.387-.492-.572-.028-.032-.099-.03-.15-.031-.014 0-.035.051-.038.08-.005.062-.012.128.002.188.238 1.011.416 2.043.732 3.03.677 2.114 2.056 3.726 3.786 5.065zm25.495-1.515c-.163-.115-.277-.082-.403.042-.342.34-.43.713-.299 1.2.263.983.61 1.922 1.233 2.734.57.745 1.332 1.008 2.25.82.453-.093.802-.355 1.09-.697.59-.7.838-1.538.937-2.428.02-.182-.086-.297-.269-.317-.218-.023-.437-.035-.656-.052-1.377-.182-2.718-.485-3.883-1.302zm1.688-4.29c-.316 1.124-.725 2.207-1.32 3.215-.183.308-.149.407.154.607.104.07.213.132.325.188 1.021.507 2.121.742 3.234.936.091.007.186.02.28.02.338.004.462-.112.414-.457-.289-2.046-1.014-3.884-2.556-5.326-.147-.137-.301-.102-.352.085-.067.243-.11.491-.18.733zm-35.88 4.384c-.024.561.203 1.134.625 1.634.305.36.697.536 1.167.5.542-.04 1.05-.192 1.476-.55.952-.8 1.484-1.857 1.806-3.034.037-.137-.002-.313-.053-.453-.076-.205-.19-.397-.298-.59-.134-.242-.222-.257-.437-.098-.377.281-.74.585-1.136.836a7.403 7.403 0 0 1-2.616 1.024c-.468.088-.53.201-.533.731zm.4-1.422c.337-.06.679-.117 1.001-.227.964-.33 1.787-.897 2.528-1.588.24-.224.357-.461.256-.834-.22-.817-.368-1.654-.549-2.482-.084-.379-.172-.406-.466-.103-1.354 1.397-2.316 3.033-2.922 4.882-.019.058-.017.123-.03.223.052.038.127.139.182.13zm29.666-11.333c-.618-.598-.927-1.327-.984-2.185-.03-.455-.07-.455-.497-.548-.398-.086-.801-.163-1.187-.29a5.206 5.206 0 0 1-.94-.429c-.885-.502-1.514-1.212-1.748-2.236-.09-.392-.146-.452-.485-.431-1.903.116-3.463-.74-4.976-1.738-.078-.052-.142-.143-.226-.166-.107-.028-.25-.043-.337.007-.133.074-.23.21-.344.318a6.059 6.059 0 0 1-2.807 1.476 4.64 4.64 0 0 1-1.305.125c-.633-.035-.783-.026-.874.653-.067.512-.288.964-.56 1.392-.665 1.052-1.648 1.712-2.755 2.21-.23.103-.47.176-.703.272-.048.02-.08.082-.119.124.017.06.021.128.052.18.16.27.324.54.494.805.151.239.225.241.433.055.398-.355.774-.744 1.209-1.047.911-.637 1.926-.9 3.04-.687 1.401.267 2.302 1.138 2.587 2.537.07.34.094.687.139 1.031.021.166.11.191.26.151.302-.081.605-.172.914-.22 1.117-.172 2.191-.048 3.19.524.136.077.246.033.278-.119.04-.184.034-.38.087-.56.114-.391.2-.804.39-1.159.879-1.641 2.324-2.474 4.34-1.672a5.557 5.557 0 0 1 1.808 1.172c.295.283.568.589.85.885.298.312.715.224.85-.19.021-.067-.019-.188-.074-.24zm-.93 1.259c-.32-.303-.614-.632-.928-.942-.473-.466-.98-.88-1.594-1.16-.559-.253-1.141-.34-1.744-.328-.49.01-.919.191-1.281.523-.677.62-1.117 1.356-1.13 2.306a6.618 6.618 0 0 1-.06.753c-.027.21-.204.324-.411.255a4.493 4.493 0 0 1-.597-.266c-1.204-.602-2.44-.776-3.737-.318a3.35 3.35 0 0 1-.825.162c-.08.006-.232-.13-.25-.221-.037-.182.011-.377-.004-.564-.029-.376-.045-.756-.125-1.122-.225-1.034-.917-1.622-1.907-1.875-.93-.237-1.826-.097-2.625.42-.497.322-.931.742-1.388 1.125-.167.14-.308.316-.481.448a.39.39 0 0 1-.58-.096c-.156-.235-.278-.493-.427-.733-.647-1.046-1.473-1.873-2.67-2.277-1.73-.584-3.44.493-3.648 2.316-.087.76-.043 1.512.19 2.245.392 1.241.914 2.417 1.747 3.433 1.305 1.592 2.817 2.962 4.462 4.192.328.245.576.246.925.02 1.573-1.008 3.006-2.178 4.245-3.58.333-.376.66-.768.92-1.195.605-.992 1.541-1.479 2.606-1.708 1.267-.273 2.502-.028 3.68.481.652.282 1.15.76 1.535 1.356 1.339 2.066 2.941 3.932 4.435 5.881.076.1.159.196.246.288.267.278.381.311.749.139.911-.427 1.817-.873 2.618-1.491a80.308 80.308 0 0 0 2.726-2.182c1.056-.89 1.805-2.015 2.29-3.304.164-.437.214-.915.316-1.374.03-.58 0-1.143-.154-1.698-.335-1.199-1.183-1.848-2.414-1.853a3.952 3.952 0 0 0-1.9.48c-.702.374-1.307.864-1.857 1.438-.379.395-.567.39-.953.026zm4.3 16.096c.452.986 1.257 1.656 2.263 2.024.9.329 1.796.253 2.614-.302 1.752-1.188 2.616-2.88 2.58-4.97-.04-2.362-.976-4.402-2.542-6.151a5.838 5.838 0 0 0-1.777-1.377c-.066-.032-.194-.056-.25.008-.073.087-.01.248.043.334.063.1.196.153.295.231 1.164.93 1.953 2.113 2.41 3.533.29.903.508 1.818.57 2.767a5.402 5.402 0 0 1-.737 3.17c-.758 1.287-1.869 1.718-3.288 1.318-.605-.172-1.052-.55-1.404-1.052a7.516 7.516 0 0 1-1.094-2.288c-.053-.182-.102-.364-.16-.544-.005-.018-.05-.032-.08-.032-.02 0-.062.023-.064.038a17.69 17.69 0 0 0-.038.462c-.027 1.003.251 1.944.658 2.831zM33.945 53.206c.336-.2.35-.268.158-.604-.842-1.466-.887-2.996-.375-4.566.534-1.638 1.601-2.833 3.106-3.643.248-.133.516-.229.772-.351.126-.061.176-.17.128-.31-.062-.18-.141-.353-.186-.536-.39-1.61-.601-3.23-.098-4.853.466-1.5 1.485-2.443 2.974-2.905.322-.1.798.072.941-.278.116-.283-.024-.671-.05-1.012l-.021-.189c-.21-2.178.936-4.312 3.297-5.172 1.574-.574 3.096-.31 4.4.833.07.062.132.135.203.197.123.11.247.083.271-.061.036-.217.045-.44.093-.655.545-2.422 2.049-3.394 3.726-3.612.56-.073 1.123-.143 1.686-.153.322-.006.511-.107.69-.37.498-.741 1.232-1.047 2.104-1.03.344.007.702.013 1.027.112.503.152.534.083.8-.374.517-.89 1.25-1.574 2.076-2.166.9-.646 1.882-1.147 2.904-1.554.457-.181.974-.26 1.468-.282.945-.042 1.866.106 2.787.369.996.283 1.866.73 2.618 1.429l.209.192c.142.131.273.11.405-.023a5.274 5.274 0 0 1 2.15-1.321c1.203-.388 2.422-.37 3.627-.053 1.042.274 2.043.66 2.663 1.642.126.195.297.199.493.157.997-.211 1.859.105 2.646.697.687.515 1.286 1.102 1.63 1.92.162.384.197.39.566.258a6.978 6.978 0 0 1 2.4-.424c2.236.01 4.121.791 5.476 2.626.447.603.833 1.267 1.145 1.95.628 1.383.896 2.82.37 4.316-.104.299-.018.418.29.428 1.214.04 2.36.327 3.45.86 2.467 1.207 3.713 3.194 3.82 5.938.052 1.39-.322 2.614-1.247 3.66-.084.094-.179.184-.234.294-.02.042.032.167.086.195.108.058.236.077.357.11.738.206 1.427.52 1.98 1.055 1.351 1.312 2.061 2.916 2.055 4.814-.007 1.655-.627 3.07-1.735 4.277-.32.348-.67.666-1.002 1.001-.107.109-.114.223.05.276.604.199 1.13.531 1.645.901 1.305.936 1.61 2.57 1.27 4.17-.169.807-.644 1.43-1.242 1.963-.352.314-.74.586-1.11.877-.297.232-.322.27-.115.62.535.904.714 1.875.598 2.918 0 1.07-.354 2.036-.955 2.913-1.106 1.609-2.477 2.852-4.484 3.179-.265.043-.389.166-.408.424a5.56 5.56 0 0 1-.05.47c-.28 1.778-1.18 3.169-2.636 4.2-.624.443-1.314.75-2.089.79-.344.02-.57.138-.782.42-.59.789-1.392 1.252-2.357 1.447-.3.06-.696.05-.867.238-.177.193-.128.59-.185.897-.35 1.85-1.213 3.364-2.84 4.38-.694.433-1.451.609-2.258.477-1.72-.283-2.924-1.251-3.588-2.857-.312-.755-.533-1.549-.586-2.378-.013-.202-.14-.254-.306-.137-.103.073-.2.154-.297.233-1.543 1.25-3.3 2.064-5.203 2.577-2.112.57-4.272.713-6.445.667-2.275-.048-4.494-.489-6.677-1.113-2.302-.66-4.37-1.75-6.07-3.479-.242-.246-.47-.509-.716-.751-.083-.081-.204-.122-.308-.18-.16.409-.314.822-.482 1.228-.758 1.838-2.145 2.915-4.063 3.306-1.487.303-2.59-.246-3.27-1.6-.416-.826-.662-1.699-.666-2.636-.002-.407-.037-.431-.399-.512-.43-.094-.862-.173-1.29-.27-.982-.222-1.946-.49-2.854-.948a5.427 5.427 0 0 1-2.095-1.857 9.525 9.525 0 0 1-1.17-2.367c-.384-1.186-.598-2.388-.138-3.612.011-.029.013-.061.022-.092.065-.218-.015-.37-.219-.451-.263-.105-.529-.2-.795-.296-.954-.346-1.585-1.026-1.88-1.979-.271-.873-.455-1.769-.176-2.694.13-.432.111-.466-.292-.666-1.298-.644-2.039-1.74-2.497-3.064-.53-1.53-.626-3.11-.24-4.664.375-1.509.969-2.942 2.416-3.801z"/><path fill="#590F43" d="M32.448 41.965c.394.244.864.366 1.312.501.268.08.558.082.838.118 0-.006.5.026.749.035.026.001.183.044.2-.007.008-.022-.136-.19-.156-.213-.445-.502-.878-1.018-1.344-1.499a1.296 1.296 0 0 0-1.027-.413c-.18.012-.378.058-.53.154-.573.366-.612.973-.042 1.324zm1.255-2.15c.287.115.565.29.805.49.797.662 1.343 1.537 1.831 2.45.166.307.024.613-.314.65-.432.046-2.608-.207-3.24-.379a2.112 2.112 0 0 1-1.22-.86c-.356-.522-.36-1.112-.012-1.637.491-.74 1.338-1.037 2.15-.714zm66.7-11.065c-.107-.072-.224-.159-.359-.167-.143-.009-.266.073-.387.126-.52.224-.842.628-1.029 1.151-.266.75-.532 1.5-.794 2.25-.016.05-.004.137.03.168.039.036.126.054.178.036 1.065-.363 1.96-.976 2.614-1.895.421-.59.29-1.305-.253-1.669zm-2.806 4.416c-.647.015-.858-.268-.711-.64.024-.061.054-.121.088-.177.4-.627.599-1.332.826-2.028.105-.315.206-.634.343-.936a2.385 2.385 0 0 1 1.08-1.137c.89-.47 1.83-.096 2.165.855.193.545.096 1.06-.158 1.543-.815 1.557-2.278 2.142-3.633 2.52zM59.365 18.449c-.114-.469-.464-.55-.816-.243a1.791 1.791 0 0 0-.507 1.91c.182.55.442 1.054.857 1.439.4-.43.47-1.003.544-1.572.013-.096.014-.194.021-.29l.055-.007c-.048-.413-.056-.838-.154-1.237zm-.054 3.746c-.246.324-.477.354-.737.062-.475-.534-.87-1.138-1.094-1.85-.104-.328-.125-.69-.152-.849.07-.894.455-1.626.954-1.98.665-.47 1.346-.24 1.644.562.055.149.097.306.123.464.202 1.203-.062 2.308-.583 3.357a1.53 1.53 0 0 1-.155.234zm6.427 59.685c.55.324 1.15.519 1.771.559.963.06 1.74-.393 2.36-1.175.324-.407.35-.925.411-1.598-.027-.236-.064-.636-.125-1.032-.024-.16-.291-.22-.375-.093-.09.136-.174.278-.238.43-.905 2.156-3.251 2.204-4.662 1.046-.122-.1-.232-.218-.35-.322-.017-.014-.061-.007-.082.008-.022.015-.052.057-.046.078.226.865.571 1.647 1.336 2.099zm3.305-3.248c-.271.02-.545.019-.814.06-.826.13-1.651.268-2.475.416a3.08 3.08 0 0 0-.618.196c-.033.014-.058.196-.024.235.352.417.877.636 1.597.69.75.07 1.419-.128 1.926-.766.19-.237.449-.452.408-.83zm-4.766.38c.23-.094.473-.162.715-.211a545.64 545.64 0 0 1 4.195-.837c.243-.048.49-.077.737-.096.38-.03.593.104.702.502.237.86.262 1.73-.037 2.58a2.203 2.203 0 0 1-.381.686c-.754.88-1.718 1.393-2.816 1.347a3.228 3.228 0 0 1-1.513-.452c-1.142-.689-1.706-1.506-2.016-2.727-.096-.376.062-.647.414-.792zM62.711 68.3c-.013-.562-.38-.9-.942-.978a2.622 2.622 0 0 0-1.197.117c-.84.275-1.599.69-2.256 1.285-.23.208-.451.43-.69.63-.364.307-.495.29-.745-.081-.192-.284-.365-.58-.561-.86-.415-.591-.906-1.106-1.512-1.508a2.77 2.77 0 0 0-1.4-.465c-.726-.042-1.104.188-1.377.863-.08.199-.167.41-.182.7-.014.312.056.692.173 1.037.168.498.352 1.012.641 1.444 1.132 1.69 2.475 3.2 4.087 4.454.426.33.437.324.888.019 1.319-.894 2.572-1.862 3.57-3.126.566-.714 1.05-1.475 1.33-2.343.12-.377.182-.792.173-1.188zm-1.16 4.213c-1.107 1.346-2.51 2.329-3.943 3.277-.434.286-.499.299-.887-.064-.91-.853-1.823-1.705-2.695-2.596a19.366 19.366 0 0 1-1.58-1.848c-.753-.993-1.187-2.114-1.16-3.266.032-.245.035-.372.067-.492.372-1.34 1.206-2.057 2.726-1.653.49.13.927.362 1.333.66.611.449 1.1 1.012 1.54 1.623.127.177.238.367.379.532.04.047.19.067.237.031.22-.173.422-.369.627-.56a6.024 6.024 0 0 1 2.336-1.334 3.04 3.04 0 0 1 1.294-.114c.917.11 1.449.667 1.535 1.596.05.542-.077 1.057-.257 1.557-.354.977-.891 1.848-1.552 2.65zm15.904-2.172c-.311.22-.493.212-.76-.042-.158-.153-.3-.323-.443-.49-.539-.629-1.183-1.135-1.886-1.573a4.43 4.43 0 0 0-.328-.192c-.978-.502-1.86-.108-2.117.944-.03.121-.04.246-.086.54.038.206.081.578.181.934.076.268.203.527.343.771.968 1.689 1.989 3.346 3.169 4.903.037.05.076.1.116.15.496.599.496.6 1.17.266.198-.098.39-.214.592-.303 1.87-.814 3.234-2.192 4.416-3.774a5.75 5.75 0 0 0 .923-1.837c.11-.377.112-.738.037-1.108-.153-.747-.632-1.166-1.396-1.146-.373.01-.762.098-1.111.228a7.843 7.843 0 0 0-2.38 1.37c-.145.121-.286.25-.44.359zm4.104-2.525c.854.073 1.497.585 1.714 1.402.071.268.09.556.087.834-.012 1.04-.42 1.958-1.03 2.773a14.187 14.187 0 0 1-3.99 3.597c-.567.345-1.194.593-1.79.892-.34.17-.617.07-.86-.178-.11-.111-.203-.24-.306-.36-1.41-1.63-2.495-3.472-3.564-5.32a4.262 4.262 0 0 1-.397-.952c-.204-.707-.217-1.419.073-2.116.448-1.072 1.51-1.515 2.58-1.047.345.152.67.359.986.57a7.637 7.637 0 0 1 1.81 1.658c.146.19.293.203.477.046.824-.712 1.792-1.187 2.806-1.577a3.154 3.154 0 0 1 1.404-.222z"/></g></svg>