<svg xmlns="http://www.w3.org/2000/svg" width="108" height="108" viewBox="0 0 108 108"><g fill="none" fill-rule="evenodd"><path fill="#9DC950" d="M107.845 53.923c0 29.78-24.142 53.922-53.922 53.922C24.142 107.845 0 83.703 0 53.923 0 24.143 24.142 0 53.923 0c29.78 0 53.922 24.142 53.922 53.923"/><path fill="#77992B" d="M107.845 53.923c0 29.78-24.142 53.922-53.922 53.922C24.142 107.845 0 83.703 0 53.923 0 24.143 24.142 0 53.923 0c29.78 0 53.922 24.142 53.922 53.923"/><path fill="#9DC950" d="M102.528 53.543c0 26.803-21.727 48.53-48.53 48.53-26.802 0-48.53-21.727-48.53-48.53 0-26.802 21.728-48.53 48.53-48.53 26.803 0 48.53 21.728 48.53 48.53"/><path fill="#FF7CC7" d="M76.686 42.859c-.288.085-.737-.01-.98-.194-.967-.728-1.952-1.455-2.569-2.533-.2-.292-.428-.57-.59-.882-.254-.488-.172-.94.187-1.295.369-.366.807-.507 1.303-.303.245.1.505.222.683.405.887.908 1.788 1.808 2.606 2.775.619.732.285 1.754-.64 2.027m-14.22-8.566c-.168.203-.386.365-.447.421-.725.544-1.37.564-2.02.346a140.14 140.14 0 0 1-3.373-1.187 2.315 2.315 0 0 1-.617-.35c-.52-.405-.582-.933-.086-1.345.672-.559 1.44-.983 2.372-.777.491.108.978.27 1.44.469.819.35 1.618.743 2.422 1.125.712.34.802.702.309 1.298m5.656 9.976c.424.91.316 1.376-.459 2.011a43.672 43.672 0 0 1-2.053 1.56c-.456.332-.94.627-1.411.939-3.628 2.585-7.63 4.246-12.126 4.573-2.257.164-4.477-.106-6.592-.966-1.77-.718-3.15-1.875-4.07-3.548-.564-1.026-.413-2.622.514-3.43 1.159-1.01 2.403-1.933 3.661-2.823.682-.484.839-.37 1.325.32.154.22.433.448.687.494 1.592.287 3.081.203 4.223-1.185.203-.248.676-.401 1.019-.39.692.02 1.27-.245 1.887-.462a53.581 53.581 0 0 1 3.565-1.14c1.025-.282 2.072-.212 3.099.076 1.03.29 2.081.525 3.093.87 1.147.392 2.104 1.109 2.909 1.999.294.324.544.707.729 1.102m-.058 9.002a1.952 1.952 0 0 1-.422.326 283.43 283.43 0 0 1-3.61 1.912 2.204 2.204 0 0 1-.68.204c-.442.066-.834-.049-1.092-.436-.273-.41-.275-.842.012-1.237.17-.233.389-.447.624-.617.505-.364 1.035-.693 1.554-1.037-.013-.02 1.438-.948 2.214-1.313.737-.346 1.089-.202 1.505.436.425.652.39 1.283-.105 1.762m-10.219 8.642c-.239.023-.554-.06-.735-.21-.98-.813-1.994-1.601-2.703-2.736-.077-.111-.174-.26-.276-.405-.292-.409-.464-.832-.151-1.306.321-.488.992-.767 1.557-.632.23.055.47.125.67.245 1.134.68 2.114 1.55 2.864 2.62.672.958-.037 2.308-1.226 2.424M33.053 42.87c.49 1.687.482 3.368-.13 5.024-.224.602-.628 1.067-1.309 1.211-1.025.217-1.85-.42-1.864-1.461-.004-.35.06-.703.124-1.049.193-1.04.384-2.082.613-3.115.082-.368.233-.733.42-1.063.483-.846 1.384-.846 1.965.054.036.078.132.232.181.399m50.102-5.262c-1.064-1.309-2.402-2.285-3.874-3.09-1.513-.827-3.017-1.68-4.575-2.422-2.421-1.15-4.86-2.3-7.567-2.66a52.767 52.767 0 0 0-3.926-.35c-7.564-.436-14.97.416-22.163 2.793-2.286.755-4.487 1.756-6.748 2.59-2.795 1.03-5.16 2.645-7.232 4.758-2.495 2.542-4.502 5.413-6.153 8.526-.724 1.363-1.164 2.878-.894 4.435.276 1.601.86 3.132 1.786 4.49 1.06 1.556 1.461 3.263 1.414 5.104a18.23 18.23 0 0 1-.024.618c-.042.76.289 1.38.791 1.909.297.311.656.58 1.058.47.005-1.011.026-1.945.011-2.879-.015-.974-.172-1.9-.57-2.828-.462-1.074-.724-2.236-1.011-3.374-.14-.553-.081-1.128.301-1.647.106.106.17.14.182.187.068.256.126.514.183.772.514 2.286 1.498 4.33 3.179 6.019.572.573.848 1.236.715 2.082-.145.914.1 1.242 1.034 1.422.515.1 1.071.098 1.593.028.668-.09.992-.479 1.039-1.136.022-.317-.054-.64-.084-.962l-.146-1.507c.453.249.729.38.982.546.455.295.896.516 1.494.452.414-.045.893.074 1.276.256 1.352.645 2.746 1.16 4.211 1.48.963.212 1.926.426 2.894.608 1.018.19 1.856.618 2.388 1.54.13.226.347.403.527.6.837.913 1.781 1.454 3.057.773.264 1.083.178 2.104.02 3.128-.076.494-.172.994-.167 1.49.015 1.583 1.674 2.925 3.166 2.542.537-.138 1.063-.4 1.532-.698.656-.419 1.074-1.038 1.034-1.846-.037-.731-.063-1.475-.223-2.185-.255-1.13-.166-2.22.133-3.316.189-.697.606-1.127 1.362-1.193.832-.072 1.662-.186 2.495-.225 4.558-.212 8.995-1.002 13.316-2.488 1.738-.597 3.209-1.68 4.917-2.3.352-.128.77-.488 1.015-.39.261.105.36.62.518.961.34.738.799.973 1.574.794.975-.224 1.359-.666 1.296-1.493-.014-.197-.025-.393-.046-.719.267.159.441.242.594.355.911.677 1.901.704 2.87.218 1.358-.68 2.344-1.704 2.714-3.222.146-.598.35-1.182.553-1.856.597 1.158.605 1.416.424 2.821-.13 1.005-.178 2.02-.27 3.106 1.471-.759 1.979-1.793 1.667-3.195a4.138 4.138 0 0 0-.172-.593c-.35-.887-.34-1.785-.091-2.69.173-.625.363-1.245.53-1.872.446-1.674.629-3.336.11-5.05-.603-1.994-1.463-3.866-2.672-5.551-1.031-1.438-2.228-2.76-3.347-4.136"/><path fill="#AE27A7" d="M42.994 35.362c.267-.105.587-.115.882-.11.524.007.901.315.976.742.07.404-.209.845-.665 1.04-.082.035-.17.06-.259.072-1.208.183-2.238.785-3.286 1.348-.157.084-.31.178-.472.252-.375.17-.793.257-1.06-.108-.256-.348-.12-.757.16-1.054.343-.364 2.84-1.836 3.724-2.182"/><path fill="#72FFFF" d="M66.706 52.028c-1.117.726-2.23 1.457-3.334 2.202-.15.1-.571.356-.274.598.238.193.608-.126.892-.236a8.25 8.25 0 0 0 1.043-.498 53.404 53.404 0 0 0 2.148-1.255c.29-.18.489-.445.22-.809-.235-.319-.477-.143-.695-.002"/><path fill="#FF9C82" d="M61.668 41.357c-.382-.055-.762-.156-1.147-.177-.59-.031-1.19-.07-1.772.006-.494.064-.97.275-1.45.437-1.516.514-2.974 1.226-4.628 1.262-.156.003-.333.198-.457.34-1.107 1.272-4.761 1.967-6.283.136-1.184.78-2.384 1.54-3.401 2.547-.448.444-.599.98-.563 1.61.048.87.545 1.458 1.113 2.04.605.618.614.652 1.29.088 1.334-1.112 2.816-1.983 4.384-2.721 2.54-1.197 5.244-1.815 8.029-1.978 2.914-.172 5.784.159 8.483 1.371.313.14.552.167.815-.057.158-.133.336-.244.503-.368.836-.624.87-1.201.16-1.988-1.358-1.505-3.09-2.266-5.076-2.548"/><path fill="#72FFFF" d="M55.384 57.565c-.203-.041-.522-.111-.65.065-.113.156.017.427.128.554a66.25 66.25 0 0 0 2.27 2.492c.33.342.68.297 1.02-.003.366-.322-1.421-2.172-2.137-2.791a1.452 1.452 0 0 0-.63-.317M31.864 42.318c-.536.007-.467.744-.549 1.056-.184.71-.313 1.438-.444 2.16-.117.638-.245 1.276-.299 1.92-.046.554.187.743.738.756.559.011.79-.359.939-.793.474-1.378.476-2.778.126-4.178-.065-.263-.013-.927-.511-.921"/><path fill="#FFD182" d="M85.654 59.772c-1.105 1.08-2.39 1.652-3.97 1.331-.344-.07-.47.109-.653.318a3.294 3.294 0 0 1-2.337 1.16c-.909.058-1.644-.24-2.045-1.114-.094-.203-.201-.399-.291-.579-1.38.695-2.708 1.36-4.03 2.032-1.72.875-3.624 1.16-5.46 1.657-.86.232-1.744.412-2.63.53-2.662.352-5.33.66-7.995.988-.237.029-.475.057-.707.106-.918.194-1.156.573-1.15 1.488.004 1.011.264 1.968.455 2.946.34 1.726-.385 3.254-1.918 4.12-1.768 1-3.609.783-4.86-.833-.756-.976-.96-1.984-.773-3.145.116-.719.18-1.445.28-2.255-1.576-.057-2.716-.776-3.523-1.95-.526-.764-1.187-1.171-2.088-1.37-2.393-.53-4.75-1.185-6.962-2.267a1.703 1.703 0 0 0-.598-.145c-.608-.05-1.217-.078-1.84-.114.005.154.013.389.023.623.044 1.159-.516 1.9-1.663 2.168a4.282 4.282 0 0 1-2.47-.152c-1.052-.38-1.537-1.019-1.357-2.094.144-.858-.233-1.383-.832-1.975-.542 1.066-.536 2.12-.251 3.14.596 2.13 1.635 4.051 3.194 5.652 3.102 3.186 6.656 5.714 10.935 7.164 3.115 1.054 6.348 1.41 9.61 1.579 3.504.182 6.987.054 10.41-.814 5.663-1.437 11.073-3.47 16.183-6.314 3.336-1.858 6.106-4.293 8.487-7.214 1.238-1.52 1.528-3.256 1.374-5.188-.215.204-.384.36-.548.521"/><path fill="#72FFFF" d="M56.342 32.832c.14.114.215.213.314.248 1.23.445 2.456.908 3.702 1.306.633.203 1.135-.09 1.583-.714-1.28-.554-2.41-1.273-3.741-1.536-.733-.144-1.3.18-1.858.696m17.727 5.931c-.146-.13-.785-.607-.747-.006.034.55.571.961.945 1.362.58.622 1.225 1.186 1.87 1.744.118.102.406.198.554.08.165-.13.074-.42.044-.62-.02-.127-.152-.25-.259-.35-.796-.743-1.591-1.488-2.407-2.21"/><path fill="#AE27A7" d="M45.949 55.808c.108-.099.189-.23.304-.317.586-.447 1.338-.155 1.358.574.01.384-.101.849-.332 1.147-.824 1.067-1.887 1.869-3.188 2.299-.757.25-1.301-.127-1.326-.824-.012-.358.136-.618.448-.797.308-.178.613-.36.92-.54.02.02 1.233-1.005 1.816-1.542m-11.764-5.461c.061-.675.232-.944.663-.99.441-.048.714.178.919.764l.434 1.249c.26.752.53 1.495 1.108 2.087.262.268.405.596.144.954-.281.386-.708.388-1.038.188-.572-.345-2.328-3.19-2.23-4.252m40.293.619c-.47.325-.891.336-1.222.033-.324-.297-.284-.711-.013-1.204.308-.559.537-1.162.793-1.748.153-.351.282-.712.446-1.057.154-.325.455-.545.79-.434.275.09.504.355.713.578.086.092.08.278.093.423.1 1.081-.704 2.789-1.6 3.409m-6.49-13.096c-.194.071-.384.176-.584.206-.574.084-1.025-.367-.758-.845.632-1.126 1.345-2.21 2.082-3.272.228-.328.665-.386 1.056-.16.369.214.468.584.31.92-.54 1.148-1.13 2.27-2.106 3.152m13.008 12.515c-.35-.707-.74-1.399-1.038-2.128-.28-.682-.11-1.206.332-1.378.469-.182.873.094 1.2.77.33.684.64 1.387 1.054 2.022.359.55.376 1.045-.004 1.335-.398.303-.91.145-1.366-.417-.056-.069-.1-.145-.15-.217l-.028.013"/><path fill="#F2A9DC" d="M45.251 79.414c-2.177-.294-4.316-.772-6.38-1.588-4.646-1.833-8.555-4.661-11.587-8.596-.674-.876-1.08-1.953-1.605-2.94-.113-.211-.112-.487-.463-.487a1.97 1.97 0 0 1-.173.006c-1.567 0-2.872-1.934-2.785-3.334.04-.644.001-1.293-.012-1.94-.023-1.127-.486-2.097-1.038-3.06-.54-.944-1.055-1.918-1.44-2.932-1.115-2.941-.737-5.787.766-8.511l.136-.242c.12.52.282 1.03.48 1.53a42.79 42.79 0 0 0-.233.433c-.724 1.363-1.164 2.878-.894 4.435.276 1.601.86 3.132 1.786 4.49 1.06 1.556 1.461 3.263 1.414 5.104a18.23 18.23 0 0 1-.024.618c-.042.76.289 1.38.791 1.909.25.263.546.496.873.496.06 0 .122-.009.185-.026.005-1.011.026-1.945.011-2.879-.015-.974-.172-1.9-.57-2.828-.462-1.074-.724-2.236-1.011-3.374-.14-.553-.081-1.128.301-1.647.106.106.17.14.182.187.068.256.126.514.183.772.514 2.286 1.498 4.33 3.179 6.019.572.573.848 1.236.715 2.082-.145.914.1 1.242 1.034 1.422.278.054.567.078.856.078.248 0 .496-.018.737-.05.668-.09.992-.479 1.039-1.136.022-.317-.054-.64-.084-.962l-.146-1.507c.453.249.729.38.982.546.402.26.792.463 1.288.463.067 0 .135-.004.206-.011.059-.007.12-.01.18-.01.37 0 .768.11 1.096.266 1.352.645 2.746 1.16 4.211 1.48.963.212 1.926.426 2.894.608 1.018.19 1.856.618 2.388 1.54.13.226.347.403.527.6.575.628 1.201 1.08 1.95 1.08.342 0 .708-.094 1.107-.307.264 1.083.178 2.104.02 3.128-.076.494-.172.994-.167 1.49.014 1.398 1.308 2.608 2.638 2.608.176 0 .353-.021.528-.066.537-.138 1.063-.4 1.532-.698.656-.419 1.074-1.038 1.034-1.846-.037-.731-.063-1.475-.223-2.185-.255-1.13-.166-2.22.133-3.316.189-.697.606-1.127 1.362-1.193.606-.052 1.211-.127 1.817-.179 1.17.23 2.36.333 3.56.333 5.063 0 10.312-1.849 14.965-3.968a770.278 770.278 0 0 0-3.175 1.601c-1.719.875-3.623 1.16-5.459 1.657-.86.232-1.744.412-2.63.53-2.662.352-5.33.66-7.995.988-.237.029-.475.057-.707.106-.608.128-.917.338-1.056.73a9.623 9.623 0 0 1-.416-.28c.435 2.378.54 5.33-.404 7.584-.22.193-.465.367-.737.52-.705.4-1.422.605-2.109.605-1.034 0-1.999-.466-2.751-1.438-.756-.976-.96-1.984-.773-3.145.116-.719.18-1.445.28-2.255-1.576-.057-2.716-.776-3.523-1.95-.526-.764-1.187-1.171-2.088-1.37-2.393-.53-4.75-1.185-6.962-2.267a1.703 1.703 0 0 0-.598-.145c-.608-.05-1.217-.078-1.84-.114.005.154.013.389.023.623.044 1.159-.516 1.9-1.663 2.168-.33.076-.658.114-.984.114-.5 0-.997-.09-1.485-.266-1.053-.38-1.538-1.019-1.358-2.094.144-.858-.233-1.383-.832-1.975-.542 1.066-.536 2.12-.251 3.14.596 2.13 1.635 4.051 3.194 5.652 3.102 3.186 6.656 5.714 10.935 7.164 2.062.698 4.174 1.09 6.313 1.323-.372.316-.748.656-1.2.89"/><path fill="#F252AB" d="M50.794 74.437c-1.33 0-2.624-1.21-2.638-2.608-.005-.496.09-.996.167-1.49.158-1.024.244-2.045-.02-3.128-.4.213-.765.306-1.106.306-.75 0-1.376-.451-1.951-1.08-.18-.196-.397-.373-.527-.599-.532-.922-1.37-1.35-2.388-1.54-.968-.182-1.931-.396-2.894-.607-1.465-.32-2.859-.836-4.21-1.481a2.657 2.657 0 0 0-1.096-.265 1.66 1.66 0 0 0-.181.009c-.07.007-.14.011-.206.011-.496 0-.886-.203-1.288-.463-.253-.165-.53-.297-.982-.546l.146 1.507c.03.322.106.645.084.962-.047.657-.371 1.046-1.04 1.136-.24.032-.488.05-.736.05-.289 0-.578-.024-.856-.078-.934-.18-1.179-.508-1.034-1.422.133-.846-.143-1.509-.715-2.082-1.681-1.69-2.665-3.733-3.179-6.019a19.217 19.217 0 0 0-.183-.772c-.013-.047-.076-.081-.182-.187-.382.52-.44 1.094-.301 1.647.287 1.138.549 2.3 1.01 3.374.399.928.556 1.854.571 2.828.015.934-.006 1.868-.011 2.88a.697.697 0 0 1-.185.025c-.327 0-.622-.233-.873-.496-.502-.529-.833-1.149-.79-1.91.011-.205.018-.411.023-.617.047-1.841-.353-3.548-1.414-5.105-.926-1.357-1.51-2.888-1.786-4.489-.27-1.557.17-3.072.894-4.435.077-.145.154-.29.233-.433 1.785 4.529 6.518 8.26 10.714 10.516 6.964 4.166 14.942 4.217 22.852 6.504a16.03 16.03 0 0 0 2.261.614c-.606.052-1.211.127-1.817.18-.756.065-1.173.495-1.362 1.192-.3 1.096-.388 2.186-.133 3.316.16.71.186 1.454.223 2.185.04.808-.378 1.427-1.034 1.846-.469.299-.995.56-1.532.698a2.11 2.11 0 0 1-.528.066"/><path fill="#F2A9DC" d="M78.478 62.588c-.809 0-1.46-.317-1.83-1.121-.088-.192-.189-.379-.276-.55l.364-.172.734 1.08c1.254-.305 2.572-.434 3.816-.66-.092.062-.167.156-.255.256a3.294 3.294 0 0 1-2.337 1.16 3.372 3.372 0 0 1-.216.007m8.348-.193a2.426 2.426 0 0 0-.499-.161 3.482 3.482 0 0 0-.323-.103c.237-.904.28-1.865.198-2.88-.215.204-.384.36-.548.521-.898.877-1.916 1.42-3.113 1.42a4.295 4.295 0 0 1-.896-.096c1.589-.32 3.028-.849 4.014-2.18.438-.29 1.096-.724 1.24-1.446-.314 1.572-.146 2.975.233 4.346a1.23 1.23 0 0 0-.306.579"/><path fill="#F28A70" d="M46.45 78.525c-2.138-.234-4.25-.625-6.312-1.323-4.28-1.45-7.833-3.978-10.935-7.164-1.559-1.6-2.598-3.522-3.194-5.652-.285-1.02-.291-2.074.25-3.14.6.592.977 1.117.833 1.975-.18 1.075.305 1.713 1.358 2.094a4.34 4.34 0 0 0 1.485.266c.326 0 .655-.038.984-.114 1.147-.268 1.707-1.009 1.663-2.168-.01-.234-.018-.469-.023-.623.623.036 1.232.064 1.84.114.203.016.418.057.598.145 2.212 1.082 4.569 1.738 6.962 2.267.9.199 1.562.606 2.088 1.37.807 1.174 1.947 1.893 3.522 1.95-.099.81-.163 1.536-.28 2.255-.187 1.16.018 2.17.774 3.145.752.972 1.717 1.438 2.751 1.438.687 0 1.404-.206 2.11-.605a4.37 4.37 0 0 0 .736-.52c-.83 1.985-2.474 3.43-5.42 3.472a1.658 1.658 0 0 0-.095-.003c-.68 0-1.183.388-1.694.821M59.96 68.441c-1.921 0-3.773-.422-5.48-1.51.139-.392.448-.602 1.056-.73.232-.05.47-.077.707-.106 2.666-.327 5.333-.636 7.996-.989a20.376 20.376 0 0 0 2.63-.53c1.835-.495 3.74-.78 5.458-1.656 1.047-.532 2.098-1.06 3.175-1.601.292-.133.583-.268.87-.403.087.172.188.359.277.55.368.805 1.02 1.122 1.829 1.122.07 0 .142-.003.216-.008a3.294 3.294 0 0 0 2.337-1.159c.088-.1.163-.194.255-.256.12-.022.24-.045.359-.069a4.295 4.295 0 0 0 .896.096c1.197 0 2.215-.543 3.113-1.42.164-.161.333-.317.548-.52.081 1.014.04 1.975-.198 2.88a3.536 3.536 0 0 0-.912-.119c-1.73 0-3.475 1.203-5.125 2.547-.317.28-.687.385-1.084.385-.578 0-1.215-.22-1.829-.441-.614-.221-1.206-.442-1.694-.442-.16 0-.31.023-.445.079-4.585 1.487-10 4.3-14.955 4.3"/><path fill="#FFF" d="M88.684 53.685c.129-.447.26-.891.38-1.34.446-1.674.629-3.336.11-5.05-.603-1.994-1.463-3.866-2.672-5.551-1.031-1.438-2.228-2.76-3.347-4.136-1.064-1.309-2.402-2.285-3.874-3.09-1.513-.827-3.017-1.68-4.575-2.422-2.421-1.15-4.86-2.3-7.567-2.66a52.767 52.767 0 0 0-3.926-.35 65.648 65.648 0 0 0-3.771-.109c-6.258 0-12.399.922-18.392 2.902-2.286.755-4.487 1.756-6.748 2.59-2.75 1.014-5.084 2.594-7.133 4.657a3.301 3.301 0 0 1-.641-.877c.445-.426.901-.843 1.373-1.249.562-.482 1.19-.889 1.789-1.33 1.676-1.106 3.503-1.883 5.404-2.53 1.549-.527 3.039-1.225 4.591-1.74 6.469-2.152 13.095-3.191 19.866-3.191 1.079 0 2.162.026 3.248.079 2.693.13 5.389.255 7.924 1.272 1.853.743 3.68 1.553 5.497 2.376.867.392 1.68.896 2.53 1.327 2.315 1.174 4.301 2.73 5.93 4.747 1.302 1.612 2.691 3.155 3.653 5.01.817 1.577 1.586 3.19 1.9 4.932.261 1.447.106 2.93-.261 4.371-.088.343-.17.69-.289 1.022-.024.067-.042.134-.064.2-.31.053-.621.1-.935.14M76.444 42.89c-.26 0-.557-.087-.738-.225-.212-.159-.425-.318-.634-.482a24.059 24.059 0 0 0-2.616-3.147c-.133-.405-.028-.778.278-1.081.253-.252.54-.397.855-.397.143 0 .293.03.448.094.245.1.505.222.683.405.887.908 1.788 1.808 2.606 2.775.619.732.285 1.754-.64 2.027a.857.857 0 0 1-.243.031m-2.946-4.43c-.112 0-.19.076-.175.297.034.55.571.961.945 1.362.58.622 1.225 1.186 1.87 1.744a.632.632 0 0 0 .374.135.284.284 0 0 0 .18-.054c.165-.131.074-.421.044-.621-.02-.127-.152-.25-.259-.35-.796-.743-1.591-1.488-2.407-2.21-.093-.082-.381-.302-.572-.302m-11.054-4.142a16.126 16.126 0 0 0-.199-.016c-.278-.03-.554-.056-.831-.08.186-.131.361-.318.528-.55-1.28-.555-2.41-1.274-3.741-1.537a1.768 1.768 0 0 0-.344-.034c-.572 0-1.046.297-1.514.73.14.114.215.213.314.248.958.347 1.912.704 2.876 1.033a39.6 39.6 0 0 0-2.281-.013l-.625-.227a2.315 2.315 0 0 1-.617-.35c-.52-.405-.582-.933-.086-1.345.554-.461 1.173-.83 1.897-.83.153 0 .311.017.475.053.491.108.978.27 1.44.469.819.35 1.618.743 2.422 1.125.712.34.802.702.309 1.298a2.026 2.026 0 0 1-.023.026"/><path fill="#FFB0DD" d="M86.4 53.837c-2.695 0-5.18-.711-6.398-2.77-1.507-3.118-3.046-6.214-4.93-8.884.21.164.422.323.634.482.181.138.479.225.737.225.088 0 .17-.01.243-.031.925-.273 1.259-1.295.64-2.027-.818-.967-1.719-1.867-2.606-2.775-.178-.183-.438-.304-.683-.405a1.174 1.174 0 0 0-.448-.094c-.316 0-.602.145-.855.397-.306.303-.411.676-.278 1.081a16.896 16.896 0 0 0-3.285-2.588c.352-.55.644-1.136.923-1.728.158-.337.059-.707-.31-.92a.96.96 0 0 0-.478-.137c-.23 0-.442.1-.578.296a53.07 53.07 0 0 0-1.12 1.674c-1.528-.684-3.235-1.141-5.165-1.314l.023-.026c.493-.596.403-.959-.31-1.298-.803-.382-1.602-.775-2.422-1.125a8.075 8.075 0 0 0-1.439-.47 2.211 2.211 0 0 0-.475-.052c-.724 0-1.343.369-1.897.83-.496.412-.435.94.086 1.345.185.144.397.27.617.35l.625.227c-4.229.094-8.333.829-12.41 1.841-.095-.399-.463-.682-.965-.689h-.109c-.263 0-.539.018-.773.11-.807.316-2.96 1.571-3.588 2.064-2.494.727-4.993 1.497-7.52 2.226-.824.174-1.803.45-2.662.45-.589 0-1.122-.13-1.51-.51a4.771 4.771 0 0 1-.545-.466c2.05-2.063 4.383-3.643 7.133-4.656 2.261-.835 4.462-1.836 6.748-2.591 5.993-1.98 12.134-2.902 18.392-2.902 1.252 0 2.51.037 3.77.11 1.313.076 2.627.175 3.927.348 2.706.36 5.146 1.51 7.567 2.661 1.558.741 3.062 1.595 4.575 2.422 1.472.805 2.81 1.781 3.874 3.09 1.119 1.376 2.316 2.698 3.347 4.136 1.209 1.685 2.07 3.557 2.672 5.55.519 1.715.336 3.377-.11 5.05-.12.45-.251.894-.38 1.34-.762.098-1.531.153-2.284.153m-5.375-3.464c.05.072.093.148.15.217.302.373.63.568.932.568.153 0 .3-.05.433-.15.38-.29.363-.787.004-1.336-.415-.635-.724-1.338-1.055-2.023-.26-.54-.57-.824-.924-.824a.758.758 0 0 0-.275.055c-.443.172-.612.696-.332 1.378.297.73.688 1.42 1.038 2.128l.029-.013"/><path fill="#CE48CA" d="M39.406 37.426c.628-.493 2.78-1.748 3.588-2.064.234-.092.51-.11.773-.11h.109c.502.007.87.29.965.69-1.814.45-3.623.955-5.435 1.484"/><path fill="#AFF" d="M61.413 34.224c-.63-.053-1.257-.09-1.881-.111-.964-.33-1.918-.686-2.876-1.033-.1-.035-.174-.134-.314-.248.468-.433.942-.73 1.514-.73.111 0 .225.011.344.034 1.331.263 2.46.982 3.74 1.536-.166.233-.34.42-.527.552m15.098 7.774a.634.634 0 0 1-.374-.135c-.645-.558-1.29-1.122-1.87-1.744-.374-.4-.91-.812-.945-1.362-.014-.221.063-.296.175-.296.19 0 .48.22.572.302.816.722 1.61 1.467 2.407 2.21.107.1.24.223.259.35.03.2.12.49-.044.62a.284.284 0 0 1-.18.055"/><path fill="#CE48CA" d="M69.171 36.448c-.5-.3-1.02-.571-1.563-.815a53.07 53.07 0 0 1 1.12-1.674.687.687 0 0 1 .578-.296.96.96 0 0 1 .478.136c.369.214.468.584.31.92-.279.593-.57 1.18-.923 1.729m12.936 14.71c-.303 0-.63-.195-.933-.568-.056-.069-.1-.145-.15-.217l-.028.013c-.35-.707-.74-1.399-1.038-2.128-.28-.682-.11-1.206.332-1.378a.758.758 0 0 1 .275-.055c.354 0 .664.285.924.824.331.685.64 1.388 1.055 2.023.359.55.376 1.045-.004 1.335a.704.704 0 0 1-.433.151"/><path fill="#490040" d="M67.181 52.84c-.703.438-1.425.849-2.148 1.254a8.25 8.25 0 0 1-1.043.498c-.284.11-.654.43-.892.236-.297-.242.124-.497.274-.598a236.887 236.887 0 0 1 3.334-2.202c.218-.141.46-.317.694.002.27.364.071.629-.219.81zm-.517-1.767c-.776.365-2.227 1.293-2.214 1.313-.52.344-1.05.673-1.554 1.037-.235.17-.454.384-.624.617-.288.395-.285.827-.012 1.237.258.387.65.502 1.092.436.233-.035.473-.097.68-.204a283.43 283.43 0 0 0 3.61-1.912c.155-.083.295-.203.422-.326.496-.48.53-1.11.105-1.762-.416-.638-.768-.782-1.505-.436zm-8.511 9.6c-.34.3-.69.345-1.02.003a66.25 66.25 0 0 1-2.271-2.492c-.11-.127-.241-.398-.128-.554.128-.176.447-.106.65-.065.224.046.458.166.631.317.716.619 2.503 2.47 2.138 2.791zm-2.616-4.049c-.565-.135-1.236.144-1.557.632-.313.474-.14.897.15 1.306.103.145.2.294.277.405.71 1.135 1.722 1.923 2.703 2.736.181.15.496.233.735.21 1.189-.116 1.898-1.466 1.226-2.425-.75-1.069-1.73-1.94-2.865-2.62a2.402 2.402 0 0 0-.669-.244zM32.375 43.239c.35 1.4.348 2.8-.126 4.178-.15.434-.38.804-.94.793-.55-.013-.783-.202-.737-.756.054-.644.182-1.282.299-1.92.131-.722.26-1.45.444-2.16.082-.312.013-1.049.549-1.056.498-.006.446.658.51.92zm-1.467-.822c-.188.33-.34.695-.42 1.063-.23 1.033-.421 2.074-.614 3.115-.064.346-.128.7-.124 1.049.014 1.042.839 1.678 1.864 1.461.68-.144 1.085-.61 1.308-1.211.613-1.656.62-3.337.131-5.024-.049-.167-.145-.32-.18-.399-.582-.9-1.483-.9-1.965-.054zm45.827-1.094c.03.2.12.49-.044.62-.148.118-.436.022-.554-.08-.645-.558-1.29-1.122-1.87-1.744-.374-.4-.91-.812-.945-1.362-.038-.601.6-.123.747.006.816.722 1.61 1.467 2.407 2.21.107.1.24.223.259.35zm-2.015-3.266c-.178-.183-.438-.304-.683-.405-.496-.204-.934-.063-1.303.302-.36.356-.441.808-.187 1.296.162.312.39.59.59.882.617 1.078 1.602 1.805 2.569 2.533.243.184.692.279.98.194.925-.273 1.259-1.295.64-2.027-.818-.967-1.719-1.867-2.606-2.775zm-14.362-3.671c-1.246-.398-2.471-.86-3.702-1.306-.1-.035-.174-.134-.314-.248.559-.517 1.125-.84 1.858-.696 1.331.263 2.46.982 3.74 1.536-.447.624-.95.917-1.582.714zm-.624-2.516a8.055 8.055 0 0 0-1.439-.47c-.933-.205-1.7.219-2.372.778-.496.412-.435.94.086 1.345.185.144.397.27.617.35 1.12.407 2.242.81 3.373 1.187.65.218 1.295.198 2.02-.346.061-.056.279-.218.447-.421.493-.596.403-.959-.31-1.298-.803-.382-1.602-.775-2.422-1.125z"/><path fill="#490040" d="M89.174 47.295c.519 1.714.336 3.376-.11 5.05-.167.627-.357 1.247-.53 1.873-.249.904-.259 1.802.09 2.689.075.191.128.393.173.593.312 1.402-.196 2.436-1.666 3.195.09-1.086.139-2.101.269-3.106.181-1.405.173-1.663-.424-2.821-.202.674-.407 1.258-.553 1.856-.37 1.518-1.356 2.542-2.713 3.222-.97.486-1.96.459-2.871-.218-.153-.113-.327-.196-.594-.355.021.326.032.522.046.719.063.827-.32 1.269-1.296 1.493-.775.18-1.234-.056-1.574-.794-.158-.341-.257-.856-.518-.96-.244-.099-.663.26-1.015.389-1.708.62-3.18 1.703-4.917 2.3-4.321 1.486-8.757 2.276-13.316 2.488-.833.04-1.663.153-2.495.225-.756.066-1.173.496-1.362 1.193-.3 1.096-.388 2.186-.133 3.316.16.71.186 1.454.223 2.185.04.808-.378 1.427-1.034 1.846-.469.299-.995.56-1.532.698-1.492.383-3.15-.959-3.166-2.542-.005-.496.09-.996.167-1.49.159-1.024.244-2.045-.02-3.128-1.276.68-2.22.14-3.057-.773-.18-.197-.397-.374-.527-.6-.532-.922-1.37-1.35-2.388-1.54-.968-.182-1.931-.396-2.894-.607-1.465-.32-2.859-.836-4.21-1.481-.384-.182-.863-.3-1.277-.256-.598.064-1.039-.157-1.494-.452-.253-.165-.53-.297-.982-.546l.146 1.507c.03.322.106.645.084.962-.047.657-.371 1.046-1.04 1.136a5.028 5.028 0 0 1-1.592-.028c-.934-.18-1.179-.508-1.034-1.422.133-.846-.143-1.509-.715-2.082-1.681-1.69-2.665-3.733-3.179-6.019a18.776 18.776 0 0 0-.183-.772c-.013-.047-.076-.081-.182-.187-.382.52-.44 1.094-.3 1.647.286 1.138.548 2.3 1.01 3.374.398.928.555 1.854.57 2.828.015.934-.006 1.868-.011 2.88-.402.11-.76-.16-1.058-.471-.502-.529-.833-1.149-.79-1.91.011-.205.018-.411.023-.617.047-1.841-.353-3.548-1.414-5.105-.926-1.357-1.51-2.888-1.786-4.489-.27-1.557.17-3.072.894-4.435 1.651-3.113 3.658-5.984 6.153-8.526 2.073-2.113 4.437-3.727 7.232-4.757 2.261-.835 4.462-1.836 6.748-2.591 7.192-2.377 14.6-3.228 22.163-2.792a52.66 52.66 0 0 1 3.926.348c2.706.36 5.146 1.51 7.567 2.661 1.558.741 3.062 1.595 4.575 2.422 1.472.805 2.81 1.781 3.874 3.09 1.119 1.376 2.316 2.698 3.347 4.136 1.21 1.685 2.07 3.557 2.672 5.55zm-4.346 17.144c-2.38 2.921-5.151 5.356-8.487 7.214-5.11 2.844-10.52 4.877-16.183 6.314-3.423.868-6.906.996-10.41.814-3.262-.17-6.495-.525-9.61-1.58-4.28-1.45-7.833-3.977-10.935-7.163-1.559-1.6-2.598-3.522-3.194-5.652-.285-1.02-.291-2.074.25-3.14.6.592.977 1.117.833 1.975-.18 1.075.305 1.714 1.357 2.094a4.28 4.28 0 0 0 2.47.152c1.147-.268 1.707-1.009 1.663-2.168-.01-.234-.018-.469-.023-.623.623.036 1.232.064 1.84.114.203.016.418.057.598.145 2.212 1.082 4.569 1.738 6.962 2.267.9.199 1.562.606 2.088 1.37.807 1.174 1.947 1.893 3.522 1.95-.099.81-.163 1.536-.28 2.255-.187 1.16.018 2.17.774 3.145 1.251 1.616 3.092 1.834 4.86.833 1.533-.866 2.257-2.395 1.918-4.12-.19-.978-.451-1.935-.456-2.946-.005-.915.233-1.294 1.15-1.488.233-.05.471-.077.708-.106 2.666-.327 5.334-.636 7.996-.989a20.376 20.376 0 0 0 2.63-.53c1.835-.495 3.74-.78 5.458-1.656 1.323-.673 2.652-1.337 4.031-2.032.09.18.197.376.29.579.402.874 1.137 1.172 2.046 1.113a3.294 3.294 0 0 0 2.337-1.159c.183-.21.309-.388.653-.318 1.58.321 2.865-.251 3.97-1.33.164-.162.333-.318.548-.522.154 1.932-.136 3.669-1.374 5.188zm-6.077-31.176c-.85-.431-1.664-.935-2.53-1.327-1.819-.823-3.645-1.633-5.498-2.376-2.535-1.017-5.231-1.142-7.924-1.272-7.903-.382-15.615.618-23.114 3.111-1.552.516-3.042 1.214-4.591 1.741-1.901.647-3.728 1.424-5.404 2.53-.598.441-1.227.848-1.79 1.33-2.999 2.578-5.465 5.584-7.366 9.032-1.503 2.724-1.88 5.57-.765 8.511.384 1.014.898 1.988 1.44 2.931.551.964 1.014 1.934 1.037 3.06.013.648.052 1.297.012 1.941-.09 1.436 1.288 3.435 2.91 3.33.4-.027.393.264.51.485.525.987.932 2.064 1.606 2.94 3.032 3.935 6.94 6.763 11.586 8.596 3.002 1.185 6.156 1.669 9.361 1.89 4.222.292 8.418.228 12.546-.85 5.358-1.4 10.492-3.339 15.367-5.968 3.534-1.906 6.59-4.336 9.15-7.398.737-.883 1.313-1.822 1.5-2.96.088-.538.344-.842.877-1.086 1.766-.804 2.594-2.515 1.967-4.321-.456-1.314-.407-2.528.045-3.788.12-.333.201-.68.289-1.022.367-1.44.522-2.924.26-4.371-.313-1.743-1.082-3.355-1.9-4.932-.96-1.855-2.35-3.398-3.653-5.01-1.628-2.018-3.614-3.573-5.928-4.747z"/><path fill="#490040" d="M66.584 45.893c-.167.124-.345.235-.503.368-.263.224-.502.198-.815.057-2.699-1.212-5.57-1.543-8.483-1.371-2.785.163-5.49.781-8.029 1.978-1.568.738-3.05 1.61-4.384 2.72-.676.565-.685.531-1.29-.087-.568-.582-1.065-1.17-1.113-2.04-.036-.63.115-1.166.563-1.61 1.017-1.006 2.217-1.768 3.4-2.547 1.523 1.83 5.177 1.136 6.284-.136.124-.142.3-.337.457-.34 1.654-.036 3.112-.748 4.629-1.262.479-.162.955-.373 1.45-.437.58-.075 1.181-.037 1.771-.006.385.02.765.122 1.147.177 1.986.282 3.718 1.043 5.075 2.548.71.787.677 1.364-.16 1.988zm-5.181 3.544c-1.91 1.04-3.95 1.806-6.066 2.336-3.01.755-6.025.827-9.003-.16-.633-.211-1.224-.543-1.962-.878 3.64-2.873 7.624-4.4 12.059-4.834 2.804-.274 6.816.386 8.236 1.402-1.101.728-2.134 1.518-3.264 2.134zm3.08-8.268c-1.011-.346-2.06-.581-3.092-.871-1.027-.288-2.074-.358-3.099-.076-1.202.33-2.388.726-3.565 1.14-.617.217-1.195.482-1.887.461-.343-.01-.816.143-1.02.39-1.14 1.39-2.63 1.473-4.222 1.186-.254-.046-.533-.274-.687-.493-.486-.692-.643-.805-1.325-.321-1.258.89-2.502 1.812-3.661 2.823-.927.808-1.078 2.404-.513 3.43.92 1.673 2.3 2.83 4.069 3.548 2.115.86 4.335 1.13 6.592.966 4.496-.327 8.498-1.988 12.126-4.573.471-.312.955-.607 1.411-.939a43.494 43.494 0 0 0 2.053-1.56c.775-.635.883-1.102.459-2.01a4.505 4.505 0 0 0-.729-1.103c-.805-.89-1.762-1.607-2.91-1.998z"/><path fill="#77992B" d="M14.999 68.449c-2.57 0-4.39-.7-5.423-2.09-1.304-1.756-.93-4.079-.616-5.244a.683.683 0 0 1 .913-.459l.59.235-.635-.252.046.018a.68.68 0 0 1 .41.808c-.25.93-.569 2.793.393 4.083.835 1.12 2.491 1.63 4.932 1.52a.682.682 0 1 1 .056 1.366c-.227.01-.45.015-.666.015m1.608-34.759c-.052 2.57-.789 4.376-2.2 5.38-1.782 1.267-4.096.846-5.254.51a.682.682 0 0 1-.44-.922l.246-.586-.265.63.019-.045a.68.68 0 0 1 .816-.394c.926.269 2.781.625 4.09-.31 1.137-.813 1.68-2.458 1.62-4.9a.682.682 0 1 1 1.367-.03c.005.228.006.45.001.668"/><path fill="#FB393F" d="M14.543 66.17c-2.57 0-4.39-.7-5.422-2.09-1.304-1.756-.93-4.078-.617-5.244a.683.683 0 0 1 .913-.458l.59.234-.635-.252.046.018a.68.68 0 0 1 .41.808c-.25.931-.568 2.793.394 4.083.835 1.12 2.49 1.63 4.932 1.52a.682.682 0 0 1 .708.624.686.686 0 0 1-.652.742c-.228.01-.45.015-.667.015"/><path fill="#FFE97B" d="M16.152 31.412c-.052 2.57-.79 4.375-2.2 5.379-1.782 1.268-4.097.847-5.255.51a.683.683 0 0 1-.44-.922l.246-.586-.265.63.02-.045a.68.68 0 0 1 .815-.393c.926.268 2.78.624 4.09-.311 1.138-.812 1.681-2.458 1.62-4.9a.682.682 0 0 1 .639-.697c.387-.024.72.28.728.668.006.228.006.45.002.667"/><path fill="#008EE6" d="M103.972 58.297c-2.11 1.468-4.004 1.933-5.645 1.381-2.074-.696-3.092-2.816-3.501-3.952a.683.683 0 0 1 .487-.898l.619-.144-.666.155.048-.01a.68.68 0 0 1 .798.429c.327.907 1.13 2.616 2.656 3.126 1.325.443 2.976-.085 4.917-1.569a.682.682 0 0 1 .937.107.686.686 0 0 1-.111.982c-.182.138-.361.27-.54.393"/><path fill="#77992B" d="M103.516 61.487c-2.11 1.468-4.004 1.933-5.644 1.381-2.074-.696-3.093-2.816-3.502-3.951a.683.683 0 0 1 .488-.899l.619-.145-.666.157.048-.012a.68.68 0 0 1 .798.43c.326.906 1.129 2.616 2.655 3.126 1.325.443 2.976-.085 4.917-1.569a.682.682 0 0 1 .938.107.686.686 0 0 1-.112.982c-.181.138-.36.27-.54.393m-7.793-26.841a2.747 2.747 0 1 1-5.494 0 2.747 2.747 0 0 1 5.494 0"/><path fill="#FFE97B" d="M95.266 32.367a2.747 2.747 0 1 1-5.494 0 2.747 2.747 0 0 1 5.494 0"/><path fill="#77992B" d="M16.057 77.75a2.56 2.56 0 1 1-5.121 0 2.56 2.56 0 0 1 5.12 0M62.74 94.256a4.028 4.028 0 1 1-8.057-.001 4.028 4.028 0 0 1 8.056 0M36.976 11.653a2.539 2.539 0 1 1-5.078 0 2.539 2.539 0 0 1 5.078 0m62.43 61.974a2.539 2.539 0 1 1-5.077 0 2.539 2.539 0 0 1 5.077 0M10.07 53.51l-4.478-1.888a2.438 2.438 0 0 1 1.895-4.493l4.478 1.889a2.438 2.438 0 1 1-1.895 4.492m78.873-29.629l-4.593 1.591a2.438 2.438 0 1 1-1.596-4.607l4.593-1.59a2.438 2.438 0 1 1 1.596 4.606m-39.051 80.284l-4.102-2.606a2.438 2.438 0 1 1 2.613-4.115l4.103 2.605a2.438 2.438 0 0 1-2.614 4.116"/><path fill="#FFE97B" d="M15.6 75.471a2.56 2.56 0 1 1-5.119 0 2.56 2.56 0 0 1 5.12 0m46.682 16.506a4.027 4.027 0 1 1-8.055 0 4.027 4.027 0 0 1 8.055 0"/><path fill="#FF5252" d="M36.52 9.374a2.539 2.539 0 1 1-5.077 0 2.539 2.539 0 0 1 5.077 0m62.43 61.975a2.539 2.539 0 1 1-5.077 0 2.539 2.539 0 0 1 5.078 0"/><path fill="#008EE6" d="M9.615 51.232l-4.478-1.89A2.437 2.437 0 1 1 7.03 44.85l4.479 1.89a2.438 2.438 0 0 1-1.895 4.492m78.873-29.629l-4.592 1.59a2.438 2.438 0 1 1-1.596-4.606l4.592-1.591a2.438 2.438 0 1 1 1.596 4.607m-39.05 80.283l-4.103-2.605a2.438 2.438 0 0 1 2.614-4.116l4.103 2.605a2.438 2.438 0 0 1-2.614 4.116"/></g></svg>