<svg xmlns="http://www.w3.org/2000/svg" width="108" height="108" viewBox="0 0 108 108"><g fill="none" fill-rule="evenodd"><path fill="#40C5F1" d="M107.845 53.923c0 29.78-24.142 53.922-53.922 53.922C24.142 107.845 0 83.703 0 53.923 0 24.142 24.142 0 53.923 0c29.78 0 53.922 24.142 53.922 53.923"/><path fill="#032E8C" d="M16.879 64.461l-.027-.027c-1.85 0-5.048-3.541-5.116-5.07l-.038.038c-.148 1.529-3.16 4.864-4.999 5l-.06.06.003.002c1.856.07 4.983 3.544 5.06 5.06l.057.057c0-1.5 3.249-5.12 5.12-5.12m81.794-.701l-.027-.028c-1.85 0-5.048-3.541-5.116-5.07l-.038.038c-.148 1.529-3.16 4.864-4.999 4.999l-.06.06.004.003c1.856.07 4.983 3.544 5.06 5.06l.057.057c0-1.5 3.248-5.12 5.12-5.12M86.849 86.971l-.019-.018c-1.302 0-3.55-2.491-3.599-3.566l-.026.026c-.104 1.076-2.222 3.421-3.515 3.516l-.042.042.002.003c1.305.048 3.504 2.491 3.558 3.558l.04.04c0-1.055 2.285-3.6 3.6-3.6m-51.673-7.495l-.016-.016c-1.094 0-2.984-2.093-3.024-2.997l-.022.022c-.088.904-1.868 2.876-2.955 2.956l-.036.035.002.002c1.097.04 2.946 2.094 2.99 2.99l.035.034c0-.886 1.92-3.026 3.026-3.026M32.982 62.73a1.93 1.93 0 1 1-3.86.001 1.93 1.93 0 0 1 3.86 0M10.64 48.42a2.049 2.049 0 1 1-4.099 0 2.049 2.049 0 0 1 4.098 0m67.993 23.621a1.823 1.823 0 1 1-3.646 0 1.823 1.823 0 0 1 3.646 0m26.878-25.857a3.004 3.004 0 1 1-6.007 0 3.004 3.004 0 0 1 6.008 0M23.777 91.23c-2.57 0-4.39-.7-5.422-2.09-1.304-1.756-.93-4.078-.617-5.243a.683.683 0 0 1 .913-.459l.59.235-.635-.253.046.019a.68.68 0 0 1 .41.808c-.25.93-.568 2.792.394 4.083.835 1.12 2.49 1.63 4.932 1.52a.682.682 0 0 1 .709.624.687.687 0 0 1-.653.742c-.228.01-.45.014-.667.014M12.611 33.321c2.57 0 4.39.7 5.423 2.09 1.303 1.756.93 4.079.616 5.244a.683.683 0 0 1-.913.458l-.59-.234.635.252-.045-.018a.68.68 0 0 1-.41-.808c.25-.931.567-2.793-.394-4.083-.835-1.12-2.491-1.63-4.932-1.52a.683.683 0 1 1-.057-1.366c.228-.01.45-.015.667-.015m28.033 35.705c.411 1.668.247 2.96-.49 3.853-.93 1.127-2.498 1.255-3.304 1.238a.457.457 0 0 1-.444-.52l.058-.42-.062.452.004-.032c.032-.23.228-.4.46-.395.644.013 1.903-.078 2.586-.909.594-.72.66-1.877.199-3.443a.455.455 0 0 1 .291-.56.458.458 0 0 1 .586.305c.043.147.082.29.116.43m57.152 5.852c.41 1.668.247 2.961-.49 3.853-.932 1.127-2.499 1.255-3.305 1.238a.457.457 0 0 1-.443-.52l.057-.42-.061.453.004-.033c.03-.23.227-.4.459-.395.644.013 1.903-.078 2.586-.908.594-.72.66-1.877.199-3.443a.456.456 0 1 1 .877-.255c.043.146.082.29.117.43"/><path fill="#FFE97B" d="M15.221 62.803l-.027-.026c-1.85 0-5.048-3.542-5.116-5.07l-.037.038c-.149 1.529-3.16 4.864-5 4.999l-.06.06.004.003c1.856.07 4.983 3.543 5.06 5.06l.057.057c0-1.5 3.248-5.12 5.12-5.12"/><path fill="#2BB4F6" d="M97.015 62.101l-.026-.026c-1.851 0-5.049-3.542-5.117-5.07l-.037.038c-.148 1.529-3.16 4.864-4.999 4.999l-.06.06.003.003c1.856.07 4.983 3.543 5.06 5.06l.057.057c0-1.5 3.248-5.12 5.12-5.12"/><path fill="#FFE97B" d="M85.19 85.314l-.018-.02c-1.302 0-3.55-2.49-3.598-3.564l-.026.026c-.105 1.075-2.222 3.42-3.516 3.516l-.042.042.002.002c1.306.05 3.505 2.492 3.558 3.558l.04.04c0-1.054 2.285-3.6 3.6-3.6"/><path fill="#2BB4F6" d="M33.517 77.82l-.015-.017c-1.095 0-2.984-2.093-3.025-2.996l-.022.022c-.087.904-1.868 2.875-2.955 2.955l-.035.035.002.002c1.097.042 2.945 2.095 2.99 2.99l.034.035c0-.887 1.92-3.027 3.026-3.027"/><path fill="#75DC5E" d="M31.325 61.073a1.93 1.93 0 1 1-3.86 0 1.93 1.93 0 0 1 3.86 0"/><path fill="#FF5252" d="M8.982 46.762a2.05 2.05 0 1 1-4.099 0 2.05 2.05 0 0 1 4.099 0"/><path fill="#FFE97B" d="M76.974 70.383a1.823 1.823 0 1 1-3.645 0 1.823 1.823 0 0 1 3.645 0"/><path fill="#FF9F38" d="M103.853 44.527a3.004 3.004 0 1 1-6.008-.001 3.004 3.004 0 0 1 6.008 0"/><path fill="#75DC5E" d="M22.12 89.573c-2.57 0-4.39-.7-5.422-2.09-1.305-1.756-.93-4.079-.617-5.244a.683.683 0 0 1 .912-.458l.59.234-.634-.252.045.018a.68.68 0 0 1 .41.808c-.25.931-.567 2.793.394 4.083.835 1.12 2.49 1.63 4.932 1.52a.683.683 0 1 1 .057 1.366c-.228.01-.45.015-.668.015"/><path fill="#FFE97B" d="M10.954 31.663c2.57 0 4.39.701 5.422 2.09 1.304 1.757.93 4.079.617 5.244a.683.683 0 0 1-.913.459l-.59-.235.634.253-.045-.018a.68.68 0 0 1-.41-.809c.25-.93.568-2.792-.394-4.083-.835-1.12-2.49-1.63-4.932-1.52a.682.682 0 0 1-.709-.623.686.686 0 0 1 .653-.743c.228-.01.45-.015.667-.015"/><path fill="#FF9F38" d="M38.987 67.368c.41 1.668.247 2.961-.49 3.853-.931 1.127-2.498 1.255-3.304 1.238a.456.456 0 0 1-.444-.52l.058-.42-.062.453.004-.033c.031-.23.228-.4.459-.395.644.014 1.903-.078 2.587-.908.593-.72.66-1.877.198-3.444a.456.456 0 1 1 .877-.254c.043.146.082.29.117.43"/><path fill="#FF5252" d="M96.138 73.22c.41 1.668.247 2.961-.49 3.852-.932 1.127-2.498 1.255-3.304 1.238a.456.456 0 0 1-.444-.519l.058-.42-.062.452.004-.032c.031-.23.227-.4.46-.395.643.013 1.902-.078 2.586-.908.593-.721.66-1.877.198-3.444a.456.456 0 1 1 .878-.255c.042.147.081.29.116.43"/><path fill="#FF2849" d="M54.596 59.711c-.382-.436-.716-.917-1.071-1.378-.145.634-.322 1.263-.425 1.904-.234 1.45-.62 2.886-.541 4.385.111.798.198 1.6.337 2.394.21 1.197.948 1.988 2.049 2.46.695.298 1.155.19 1.637-.365.388-.443.755-.9 1.14-1.342.253-.288.361-.602.34-.991-.102-1.965-.629-3.79-1.866-5.353-.484-.61-1.083-1.127-1.6-1.714"/><path fill="#FFFF45" d="M26.746 83.076c.388-.153.81-.226 1.22-.315 2.367-.516 4.766-.783 7.184-.913a4.552 4.552 0 0 0 1.299-.287c.497-.182.484-.22.16-.626-3.269-4.118-4.433-8.757-3.41-13.897.515-2.592 1.155-5.16 1.747-7.737.406-1.767.799-3.534.823-5.355.019-1.282.009-2.565.022-3.847.003-.249.034-.503.091-.744.131-.545.623-.68 1.002-.257.18.2.281.476.4.726.142.303.242.627.41.914.085.147.29.33.423.317.149-.014.365-.211.4-.364.107-.453.21-.927.185-1.385-.081-1.474-.7-2.801-1.264-4.137-.534-1.264-.985-2.566-1.111-3.926-.381-4.156.316-8.007 3.45-11.104.158-.157.289-.447.265-.655-.05-.437-.2-.864-.33-1.288-.12-.384-.284-.31-.511-.052-1.33 1.512-2.655 3.031-4.017 4.516-2.858 3.117-3.823 6.733-2.987 10.845.1.491.209.982.266 1.479.04.362-.113.667-.509.76-.394.092-.657-.121-.803-.453-.136-.304-.169-.658-.33-.945-.238-.43-.473-.92-.85-1.203-.55-.412-1.208-.7-1.849-.97-.503-.214-.6-.102-.452.449.26.958.341 1.934.13 2.897-.356 1.631-.68 3.279-1.196 4.861a55.13 55.13 0 0 1-2.207 5.692 15.724 15.724 0 0 0-1.438 6.48c-.012 1.897.628 2.277 1.881 2.66.243.073.484.151.72.243.943.371 1.708.976 2.247 1.825.772 1.216.682 2.454-.089 3.622-.725 1.096-1.81 1.437-3.089 1.228-.968-.158-1.825-.535-2.51-1.257-.085-.09-.21-.143-.316-.214-.043.128-.119.252-.129.381-.056.777-.096 1.556-.137 2.267.264 2.452.888 4.73 1.971 6.864a7.873 7.873 0 0 0 2.31 2.737c.29.219.556.315.928.168"/><path fill="#FF8D1D" d="M58.841 66.3c.172-.174.35-.347.52-.525.058-.06.103-.131.154-.198 2.115-2.784 4.21-5.585 6.358-8.344.623-.8.623-1.696.67-2.6.013-.223-.14-.478-.276-.68-.87-1.29-2.055-1.945-3.653-1.759-.541.063-.544.055-.424.606.205.936-.18 1.646-1.068 1.999-1.071.426-2.555.054-2.543-1.587.01-1.048.205-2.098.361-3.14.53-3.58-1.314-5.928-4.239-7.285-.247-.116-.539-.156-.815-.186-.713-.078-.716-.069-.77.684-.1 1.377-1.288 1.982-2.474 1.259a2.303 2.303 0 0 1-1.035-1.378c-.187-.669-.292-1.36-.433-2.04-.021-.108-.048-.216-.072-.323-.088.091-.208.168-.262.277-.764 1.566-1.83 2.938-2.835 4.351a18.69 18.69 0 0 0-2.392 4.592c-.346.99-.394 2.016-.186 3.05.174.88.927 1.28 1.492 1.85.608.61 1.183 1.268 1.661 1.98.265.391.391.929.421 1.41.043.788-.616 1.683-1.278 1.912-.686.236-1.487-.066-2.058-.794-.187-.241-.34-.511-.524-.758-.253-.335-.514-.662-.773-.991-.187-.237-.322-.165-.382.086-.193.785-.398 1.568-.554 2.36-.547 2.792-.542 5.549.704 8.186 1.42 3.008 3.46 5.398 6.743 6.523.274.094.496.172.794.028 2.013-.977 3.888-2.128 5.287-3.92.298-.382.316-.383-.172-.574-1.555-.602-2.57-1.683-2.906-3.317-.157-.76-.292-1.535-.304-2.313-.01-.417.075-1.073.15-1.595.115-.826.295-1.642.437-2.464.201-1.206.394-2.415.59-3.622.041-.24.017-.57.363-.554.169.007.364.194.485.348.755.967 1.486 1.953 2.238 2.922.683.883 1.4 1.743 2.073 2.632.708.936.822 2.053.91 3.169.017.24.011.482.017.723"/><path fill="#FFFF45" d="M58.33 31.2c-.364 1.077-.566 2.211-.807 3.326-.123.561-.009.759.376.88.395.122.753-.044.921-.507.1-.278.139-.597.124-.893-.019-.31-.115-.616.201-.83.346-.232.65-.056.939.121 1.667 1.016 2.54 3.19 2.055 5.095-.123.486-.24.973-.38 1.454-.156.554-.06 1.083.29 1.505a18.45 18.45 0 0 0 1.718 1.824c.252.232.632.372.978.45.562.13.999-.259 1.005-.832 0-.135-.076-.27-.088-.406-.045-.481.214-.733.707-.667.19.025.385.094.554.184 1.832.98 3.177 2.384 3.78 4.397.435 1.452.736 2.925.33 4.446-.042.158-.07.347-.021.495.081.25.168.572.361.697.93.594 1.917 1.05 3.072.968.758-.054 1.514-.08 2.272-.118v-.011c.842-.043 1.685-.106 2.527-.12.424-.007.65-.168.819-.555.349-.791.719-1.576 1.143-2.329.394-.695.475-1.404.367-2.175a32.2 32.2 0 0 1-.21-2.153c-.076-1.027-.076-2.06-.193-3.081-.56-4.867-4.294-7.281-8.079-8.413-.379-.113-.421-.031-.313.362.21.779.467 1.552.599 2.344.334 1.984-.575 3.44-2.446 4.01-.24.072-.494.107-.743.152-.804.148-1.499-.063-2.095-.613-.574-.526-.926-1.187-1.182-1.904-.62-1.748-.599-3.565-.527-5.377.058-1.392.235-2.779.277-4.169.063-1.925-.424-3.693-1.7-5.208a12.507 12.507 0 0 0-3.84-3.088c-1.65-.855-3.065-1.963-4.019-3.59-.048-.086-.144-.148-.22-.221-.057.084-.141.16-.168.254-.662 2.174-.614 4.293.587 6.286 1.528 2.528 1.989 5.158 1.029 8.01"/><path fill="#FFBD00" d="M37.613 39.478c.053 2.25.622 4.4 1.328 6.528.366 1.106.66 2.241.894 3.382.176.865-.12 1.657-.738 2.307-.5.527-1.123.784-1.78.236-.097-.082-.24-.11-.362-.163-.02.13-.048.262-.054.393-.077 1.446-.017 2.914-.253 4.332-.384 2.306-.966 4.577-1.454 6.865-.475 2.234-1.043 4.452-.974 6.766.077 2.572.62 5.027 1.82 7.321.538 1.029 1.25 1.913 2.195 2.612.354.262.645.31 1.062.1 2.129-1.071 4.277-2.105 6.414-3.163.728-.36 1.44-.755 2.157-1.138.07-.037.12-.113.18-.17-.06-.038-.114-.092-.18-.112-1.646-.507-2.874-1.609-4.044-2.786-2.862-2.87-4.059-6.328-3.792-10.345.134-1.991.614-3.902 1.123-5.813.22-.819.629-.97 1.24-.375.617.603 1.146 1.297 1.703 1.957.235.277.418.601.683.846.322.301.659.239.942-.102.364-.432.397-.996.072-1.563a3.11 3.11 0 0 0-1.327-1.25c-.322-.168-.653-.324-.975-.493-.815-.427-1.228-1.107-1.306-2.013-.1-1.153.051-2.273.352-3.39.602-2.217 1.751-4.157 3.054-6.016 1.207-1.719 2.42-3.428 3.111-5.436.1-.287.28-.548.416-.822.141-.282.288-.584.67-.511.383.072.416.397.43.72.022.584-.008.932-.068 1.773-.07.94.258 1.871.466 2.789.075.32.352.624.605.866.12.115.493.162.587.072.147-.146.201-.428.213-.657.006-.143-.135-.297-.223-.438-.406-.655-.28-1.011.452-1.09 1.309-.14 2.59-.022 3.722.734.535.357 1.062.735 1.561 1.142 2.001 1.637 2.787 3.779 2.567 6.306-.048.551-.226 1.09-.304 1.642a26.294 26.294 0 0 0-.174 1.822c-.025.324.08.607.427.738.39.146.722-.005 1.02-.227.307-.23.222-.549.123-.843-.06-.184-.18-.348-.25-.53-.204-.52-.045-.869.503-1.02.295-.08.608-.095.918-.131 2.677-.311 4.654 1.086 5.226 3.702.051.247.141.25.328.126.605-.402 1.194-.831 1.832-1.183.388-.217.397-.439.271-.806a4.522 4.522 0 0 1-.153-2.473c.346-1.597-.027-3.105-.593-4.577-.391-1.018-1.131-1.784-1.998-2.435-.283-.21-.421-.231-.614.145-.523 1.019-1.375 1.358-2.464.978a4.975 4.975 0 0 1-1.381-.771c-.46-.36-.852-.81-1.246-1.243-1.002-1.09-1.23-2.335-.749-3.729.144-.419.244-.857.337-1.29.205-.959-.229-1.738-.752-2.483-.118-.17-.265-.21-.34.048-.04.133-.048.276-.096.406a1.963 1.963 0 0 1-1.896 1.272c-.909-.026-1.49-.428-1.757-1.29-.106-.34-.193-.725-.142-1.066.115-.71.295-1.413.506-2.102.394-1.306.933-2.589.903-3.974-.06-3.025-1.288-5.429-3.954-7.032a210.41 210.41 0 0 1-4.219-2.612c-1.366-.867-2.178-2.065-2.169-3.733.003-.67-.027-1.339-.048-2.008 0-.08-.027-.16-.042-.24-.09.043-.202.066-.265.135-1.276 1.415-2.536 2.84-3.385 4.568a6.633 6.633 0 0 0-.698 2.985c0 1.507.28 1.882 1.763 2.311.19.055.382.1.569.156 1.237.373 2.476.727 3.586 1.42 1.285.802 2.065 1.889 1.962 3.44a7.763 7.763 0 0 1-.376 1.958c-.37 1.115-1.206 1.814-2.35 2.072a5.384 5.384 0 0 1-2.59-.055c-.837-.224-1.445-.73-1.785-1.53-.153-.364-.295-.732-.442-1.099-.33.259-.665.511-.987.776a8.427 8.427 0 0 0-.692.614c-.895.92-1.952 1.703-2.52 2.898-.912 1.92-1.383 3.945-1.332 6.069"/><path fill="#ACFF1D" d="M84.693 46.523c-.054.064-.111.125-.165.19-1.517 1.91-2.994 3.85-3.812 6.177-.208.581-.533.794-1.108.794-.845 0-1.688.029-2.53.046-.93.019-1.857.033-2.783.061-.115.004-.226.079-.34.12.111.07.216.155.334.203.156.063.322.097.484.142.888.245 1.778.496 2.669.732.325.087.532.225.587.6.084.577.31 1.14.346 1.716.057.979.574 1.391 1.492 1.599 1.637.37 3.015 1.188 3.963 2.618.246.371.52.728.788 1.084.06.082.162.133.247.199.009-.107.036-.216.024-.32-.06-.497-.087-1.004-.205-1.487a38.554 38.554 0 0 0-.821-2.893 4.815 4.815 0 0 1-.015-3.039c.295-.93.602-1.86.99-2.752.523-1.201 1.134-2.365 1.706-3.546.093-.198.319-.38.298-.675-.043-.587-.6-1.046-.97-1.53-.571-.752-.592-.734-1.179-.04"/><path fill="#FF2849" d="M82.69 61.403c-.277-.456-.639-.772-1.141-.932-.909-.29-1.811-.596-2.729-.852-.635-.178-1.03-.525-1.137-1.186-.1-.604-.28-1.2-.328-1.807-.04-.52-.241-.799-.747-.947-1.233-.364-2.458-.774-3.694-1.147a3.434 3.434 0 0 0-.912-.135c-2.133-.042-3.716 1.042-4.926 2.624a81.681 81.681 0 0 0-4.098 5.835c-2.253 3.535-4.937 6.71-7.865 9.7-.93.95-1.998 1.701-3.147 2.359-2.239 1.278-4.61 2.298-6.842 3.603-2.582 1.51-5.335 2.741-8.028 4.064-.469.23-1 .388-1.518.45-1.674.197-3.36.293-5.033.504-1.671.21-3.326.52-4.86 1.281-1.12.555.448 1.265.583 1.303 1.077.303 2.16.59 3.228.924 1.259.39 2.498.843 3.757 1.23 1.651.508 3.329.695 5.07.539 1.201-.108 2.415-.107 3.627-.106h.755c1.91-.007 4.47.005 5.735.037.77.02 3.087-.232 3.673-.322a35.042 35.042 0 0 0 3.731-.804c3.56-.959 6.98-2.286 10.342-3.787 4.946-2.21 9.387-5.154 13.209-8.984 2.178-2.185 3.884-4.69 4.985-7.585.515-1.351.446-2.617-.352-3.83-.442-.68-.917-1.337-1.339-2.03"/><path fill="#E4B2B2" d="M39.835 89.903c-1.476 0-3.131-.058-4.734-.258-1.843-.23-3.54-.816-5.275-1.36-1.041-.326-2.082-.66-3.116-1.013a47.323 47.323 0 0 1-2.12-.793 1.95 1.95 0 0 1-.494-.317c-.338-.275-.513-.57-.534-.867.667.151 1.333.29 2 .417.268.226.643.39.706.408 1.077.303 2.16.59 3.228.924 1.259.39 2.498.843 3.757 1.23a13.108 13.108 0 0 0 5.07.539c1.092-.098 2.195-.106 3.296-.106h1.085a280.9 280.9 0 0 1 1.024-.002 226.692 226.692 0 0 1 4.808.04c.851 0 3.012-.236 3.577-.323a35.042 35.042 0 0 0 3.731-.804c3.56-.959 6.98-2.286 10.342-3.787 4.946-2.21 9.387-5.154 13.209-8.984 2.178-2.185 3.884-4.69 4.985-7.585.515-1.351.446-2.617-.352-3.83-.298-.456-.608-.902-.908-1.355.16-.297.316-.595.466-.897.084.11.165.223.244.34.246.372.52.73.788 1.085.06.082.162.133.247.199.009-.107.036-.216.024-.32-.06-.497-.087-1.004-.205-1.487-.114-.455-.231-.91-.355-1.361.19-.418.373-.84.55-1.267.458 1.426.934 2.858.906 4.389-.015 1.03.037 2.064-.05 3.087-.055.654-.25 1.315-.485 1.935-1.354 3.57-3.58 6.546-6.373 9.136-4.585 4.252-9.932 7.257-15.76 9.471-2.994 1.138-6.027 2.154-9.177 2.754-1.432.272-2.895.396-4.748.64-1.011.004-2.248.013-3.542.013-.424 0-.854 0-1.281-.003h-.042c-.365 0-.975.028-1.749.056-.776.028-1.716.056-2.743.056"/><path fill="#9AB214" d="M84.865 62.804c-.085-.066-.187-.117-.247-.199-.268-.356-.542-.713-.788-1.084a6.001 6.001 0 0 0-.244-.341 44.78 44.78 0 0 0 .743-1.544c.124.452.24.906.355 1.361.118.483.145.99.205 1.487.012.104-.015.213-.024.32"/><path fill="#E41C33" d="M37.135 88.867c-1.32 0-2.609-.202-3.882-.593-1.259-.387-2.498-.84-3.757-1.23-1.068-.334-2.151-.621-3.228-.924a2.681 2.681 0 0 1-.706-.408c3.53.669 7.058.99 10.588.989 4.476 0 8.953-.515 13.43-1.486 14.442-2.672 26.875-10.711 33.54-23.138.3.453.61.9.908 1.355.798 1.213.867 2.479.352 3.83-1.1 2.896-2.807 5.4-4.985 7.585-3.822 3.83-8.263 6.773-13.21 8.984-3.36 1.501-6.781 2.828-10.34 3.787-1.713.46-3.003.691-3.732.804-.565.087-2.726.323-3.577.323h-.096c-1.047-.027-2.988-.04-4.712-.04l-1.023.001h-1.086c-1.101 0-2.204.009-3.297.107a13.27 13.27 0 0 1-1.187.054"/><path fill="#FFF" d="M40.624 80.878a14.577 14.577 0 0 1-.673-.216c11.859-4.323 19.703-13.559 26.8-23.379a5.653 5.653 0 0 1-.042.218 81.505 81.505 0 0 0-3.73 5.355c-2.254 3.535-4.938 6.71-7.866 9.7-.93.95-1.998 1.701-3.147 2.359-2.239 1.278-4.61 2.298-6.842 3.603-1.46.854-2.973 1.618-4.5 2.36"/><path fill="#FF835F" d="M44.853 81.483c-1.402 0-2.813-.189-4.229-.605 1.527-.742 3.04-1.506 4.5-2.36 2.232-1.305 4.603-2.325 6.842-3.603 1.15-.658 2.218-1.408 3.147-2.36 2.928-2.99 5.612-6.164 7.865-9.699a81.505 81.505 0 0 1 3.731-5.355c-1.263 6.604-1.318 14.293-7.558 18.514-4.399 3.056-9.282 5.468-14.298 5.468"/><path fill="#490040" d="M86.544 48.767c-.572 1.181-1.183 2.345-1.706 3.546-.388.892-.695 1.823-.99 2.752a4.815 4.815 0 0 0 .015 3.039c.319.95.577 1.921.821 2.893.118.483.145.99.205 1.487.012.104-.015.213-.024.32-.085-.065-.184-.117-.247-.199-.268-.356-.542-.713-.788-1.084-.948-1.43-2.326-2.248-3.963-2.618-.918-.208-1.435-.62-1.492-1.6-.036-.576-.262-1.138-.346-1.715-.055-.375-.262-.513-.587-.6-.89-.236-1.781-.487-2.669-.732-.162-.045-.328-.079-.484-.142-.118-.048-.223-.134-.334-.203.114-.041.225-.116.34-.12.926-.028 1.853-.042 2.783-.061.842-.017 1.685-.046 2.53-.046.575 0 .9-.213 1.108-.794.818-2.326 2.295-4.266 3.812-6.177.054-.065.111-.126.165-.19.587-.695.608-.713 1.18.038.37.485.926.944.969 1.53.02.296-.205.478-.298.676zM84.38 67.262c-1.1 2.896-2.807 5.4-4.985 7.585-3.822 3.83-8.263 6.773-13.21 8.984-3.36 1.501-6.781 2.828-10.34 3.787-1.713.46-3.003.691-3.732.804-.586.09-2.903.343-3.673.322a252.669 252.669 0 0 0-5.735-.038c-1.46.005-2.93-.024-4.383.107-1.74.156-3.418-.03-5.069-.54-1.259-.386-2.498-.839-3.757-1.23-1.068-.333-2.151-.62-3.228-.923-.135-.038-1.703-.748-.583-1.303 1.534-.76 3.189-1.071 4.86-1.28 1.673-.212 3.36-.308 5.033-.505a4.788 4.788 0 0 0 1.518-.45c2.693-1.323 5.446-2.553 8.028-4.064 2.232-1.305 4.603-2.325 6.842-3.603 1.15-.658 2.218-1.408 3.147-2.36 2.928-2.99 5.612-6.164 7.865-9.699a81.681 81.681 0 0 1 4.098-5.835c1.21-1.582 2.793-2.666 4.926-2.624.307.006.62.048.912.135 1.236.373 2.46.783 3.694 1.147.506.148.708.426.747.947.048.607.228 1.203.328 1.807.108.661.502 1.008 1.137 1.186.918.256 1.82.562 2.729.852.502.16.864.476 1.14.932.422.692.897 1.35 1.34 2.029.797 1.213.866 2.479.351 3.83zM23.508 80.171c-1.083-2.135-1.707-4.412-1.971-6.864.04-.711.081-1.49.137-2.267.01-.13.086-.253.13-.38.105.07.23.124.314.213.686.722 1.543 1.099 2.511 1.257 1.28.21 2.364-.132 3.089-1.228.771-1.168.861-2.406.09-3.622-.54-.85-1.305-1.454-2.249-1.825a9.376 9.376 0 0 0-.719-.243c-1.253-.383-1.893-.763-1.88-2.66a15.724 15.724 0 0 1 1.437-6.48 55.13 55.13 0 0 0 2.207-5.692c.516-1.582.84-3.23 1.197-4.86.21-.964.128-1.94-.13-2.898-.149-.55-.052-.663.451-.45.641.271 1.3.559 1.849.971.377.282.612.774.85 1.203.161.287.194.64.33.945.146.332.409.545.803.452.396-.092.55-.397.509-.76-.057-.496-.167-.987-.266-1.478-.836-4.112.129-7.728 2.987-10.845 1.362-1.485 2.686-3.004 4.017-4.516.227-.259.39-.332.51.052.132.424.282.85.33 1.288.025.208-.106.498-.264.655-3.134 3.097-3.831 6.948-3.45 11.104.126 1.36.577 2.662 1.11 3.926.564 1.336 1.184 2.663 1.265 4.137.026.458-.078.932-.184 1.385-.036.153-.252.35-.4.364-.135.013-.339-.17-.424-.317-.168-.287-.268-.611-.41-.914-.119-.25-.22-.525-.4-.726-.379-.423-.87-.288-1.002.257a3.406 3.406 0 0 0-.09.744c-.014 1.282-.004 2.565-.023 3.847-.024 1.82-.417 3.588-.823 5.355-.592 2.576-1.232 5.145-1.747 7.737-1.023 5.14.141 9.78 3.41 13.897.324.405.337.444-.16.626a4.54 4.54 0 0 1-1.3.287c-2.417.13-4.816.397-7.183.913-.41.089-.832.162-1.22.315-.372.147-.639.05-.928-.168a7.873 7.873 0 0 1-2.31-2.737zm34.554-13.393c.021.389-.087.703-.34.991-.385.442-.752.9-1.14 1.342-.482.556-.942.663-1.637.365-1.101-.472-1.839-1.263-2.05-2.46-.138-.793-.225-1.596-.336-2.394-.079-1.499.307-2.935.541-4.385.103-.641.28-1.27.425-1.904.355.46.689.942 1.07 1.378.518.587 1.117 1.104 1.601 1.714 1.237 1.564 1.764 3.388 1.866 5.353zm-.148-4.37c-.674-.89-1.39-1.749-2.073-2.632-.752-.97-1.483-1.955-2.238-2.922-.12-.154-.316-.34-.485-.348-.346-.015-.322.314-.364.554-.195 1.207-.388 2.416-.59 3.622-.14.822-.321 1.638-.436 2.464-.075.522-.16 1.178-.15 1.595.012.778.147 1.553.304 2.313.337 1.634 1.35 2.715 2.906 3.317.488.19.47.192.172.575-1.4 1.791-3.274 2.942-5.287 3.92-.298.143-.52.065-.794-.029-3.283-1.125-5.323-3.515-6.743-6.523-1.246-2.637-1.251-5.394-.704-8.187.156-.791.361-1.574.554-2.359.06-.251.195-.323.382-.086.259.33.52.656.773.991.184.247.337.517.524.758.571.728 1.372 1.03 2.058.794.662-.229 1.324-1.124 1.278-1.912-.03-.481-.156-1.019-.42-1.41a13.645 13.645 0 0 0-1.662-1.98c-.565-.57-1.318-.97-1.492-1.85-.208-1.034-.16-2.06.186-3.05a18.69 18.69 0 0 1 2.392-4.592c1.005-1.413 2.07-2.785 2.835-4.351.054-.11.174-.186.262-.277.024.107.05.215.072.322.141.681.246 1.372.433 2.041.16.577.509 1.055 1.035 1.378 1.186.723 2.374.118 2.473-1.26.055-.752.058-.761.77-.683.277.03.57.07.816.186 2.925 1.357 4.77 3.704 4.24 7.284-.157 1.043-.353 2.093-.362 3.141-.012 1.64 1.472 2.013 2.543 1.587.888-.353 1.273-1.063 1.068-1.999-.12-.551-.117-.543.424-.606 1.598-.186 2.783.469 3.653 1.758.135.203.289.458.277.682-.048.903-.048 1.799-.671 2.599-2.148 2.76-4.243 5.56-6.358 8.344-.051.067-.096.138-.153.199-.172.177-.35.35-.52.524-.007-.24 0-.483-.019-.723-.087-1.116-.201-2.233-.909-3.169zM41.465 30.511c.214-.22.454-.418.692-.614.322-.265.656-.517.987-.776.147.367.289.735.442 1.1.34.8.948 1.305 1.785 1.529.857.23 1.739.247 2.59.055 1.144-.258 1.98-.957 2.35-2.072.21-.627.334-1.3.376-1.958.103-1.551-.677-2.638-1.962-3.44-1.11-.693-2.35-1.047-3.586-1.42-.187-.056-.38-.101-.569-.156-1.483-.429-1.763-.804-1.763-2.311a6.633 6.633 0 0 1 .698-2.985c.849-1.728 2.11-3.153 3.385-4.568.063-.07.175-.092.265-.136.015.08.042.16.042.241.021.67.051 1.339.048 2.008-.009 1.668.803 2.866 2.17 3.733a210.41 210.41 0 0 0 4.218 2.612c2.666 1.603 3.893 4.007 3.954 7.032.03 1.385-.509 2.668-.903 3.974-.21.69-.391 1.392-.506 2.102-.05.34.036.726.142 1.066.268.862.848 1.264 1.757 1.29a1.963 1.963 0 0 0 1.896-1.272c.048-.13.057-.273.096-.406.075-.259.222-.218.34-.048.523.745.957 1.524.752 2.482-.093.434-.193.872-.337 1.291-.481 1.394-.253 2.639.75 3.73.393.432.785.882 1.245 1.242.412.321.89.599 1.381.77 1.09.381 1.94.042 2.464-.977.193-.376.331-.356.614-.145.867.65 1.607 1.417 1.998 2.435.566 1.472.939 2.98.593 4.577a4.522 4.522 0 0 0 .153 2.473c.126.367.117.59-.27.806-.639.352-1.228.78-1.833 1.183-.187.125-.277.121-.328-.126-.572-2.616-2.549-4.013-5.226-3.702-.31.036-.623.05-.918.132-.548.15-.707.499-.503 1.02.07.181.19.345.25.529.1.294.184.613-.123.843-.298.222-.63.373-1.02.227-.346-.13-.452-.414-.427-.738.039-.61.093-1.22.174-1.822.078-.551.256-1.09.304-1.642.22-2.527-.566-4.669-2.567-6.306-.5-.407-1.026-.785-1.561-1.142-1.132-.756-2.413-.875-3.722-.734-.731.079-.858.435-.452 1.09.088.141.23.295.223.438-.012.229-.066.511-.213.657-.094.09-.467.043-.587-.072-.253-.242-.53-.545-.605-.866-.208-.918-.536-1.848-.466-2.789.06-.841.09-1.189.069-1.773-.015-.323-.048-.648-.43-.72-.383-.073-.53.23-.671.51-.136.275-.316.536-.416.823-.692 2.008-1.904 3.717-3.11 5.436-1.304 1.859-2.453 3.799-3.055 6.017-.3 1.116-.451 2.236-.352 3.39.078.905.49 1.585 1.306 2.012.322.17.653.325.975.492.566.29 1.017.701 1.327 1.25.325.568.292 1.132-.072 1.564-.283.34-.62.403-.942.102-.265-.245-.448-.57-.683-.846-.557-.66-1.086-1.354-1.703-1.957-.611-.596-1.02-.444-1.24.375-.51 1.911-.989 3.822-1.123 5.813-.267 4.017.93 7.474 3.792 10.345 1.17 1.177 2.398 2.279 4.044 2.786.066.02.12.074.18.112-.06.057-.11.133-.18.17-.716.383-1.43.777-2.157 1.138-2.137 1.058-4.285 2.092-6.414 3.164-.417.21-.708.16-1.062-.101-.945-.7-1.657-1.583-2.195-2.612-1.2-2.294-1.743-4.749-1.82-7.321-.069-2.314.499-4.532.974-6.766.488-2.288 1.07-4.56 1.454-6.865.236-1.418.176-2.886.253-4.332.006-.131.035-.262.054-.393.121.053.265.081.362.163.657.548 1.28.29 1.78-.236.618-.65.914-1.442.738-2.307a29.828 29.828 0 0 0-.894-3.382c-.706-2.128-1.275-4.278-1.328-6.528-.051-2.124.42-4.149 1.332-6.069.568-1.195 1.625-1.979 2.52-2.898zm15.249-13.607c.027-.094.111-.17.168-.254.076.073.172.135.22.221.954 1.627 2.368 2.735 4.02 3.59 1.49.77 2.759 1.808 3.84 3.088 1.275 1.515 1.762 3.283 1.7 5.208-.043 1.39-.22 2.777-.278 4.169-.072 1.812-.093 3.629.527 5.377.256.717.608 1.378 1.182 1.904.596.55 1.291.76 2.095.613.25-.045.502-.08.743-.153 1.871-.57 2.78-2.025 2.446-4.009-.132-.792-.388-1.565-.599-2.344-.108-.393-.066-.475.313-.362 3.785 1.132 7.52 3.546 8.079 8.413.117 1.02.117 2.054.192 3.081.052.72.112 1.44.211 2.153.108.77.027 1.48-.367 2.175a26.484 26.484 0 0 0-1.143 2.329c-.169.387-.395.548-.819.555-.842.014-1.685.077-2.527.12v.011c-.758.039-1.514.064-2.272.118-1.155.083-2.142-.374-3.072-.968-.193-.125-.28-.448-.361-.697-.048-.148-.021-.337.021-.495.406-1.521.105-2.994-.33-4.446-.603-2.013-1.948-3.417-3.78-4.397a1.665 1.665 0 0 0-.554-.184c-.493-.066-.752.186-.707.667.012.137.088.27.088.406-.006.573-.443.962-1.005.833-.346-.08-.726-.219-.978-.451a18.45 18.45 0 0 1-1.718-1.824c-.35-.422-.446-.951-.29-1.505.14-.481.257-.968.38-1.454.484-1.904-.388-4.079-2.055-5.095-.289-.177-.593-.353-.939-.122-.316.215-.22.52-.201.831a2.37 2.37 0 0 1-.124.893c-.168.463-.526.63-.92.506-.386-.12-.5-.318-.377-.879.241-1.115.443-2.249.807-3.327.96-2.85.5-5.481-1.03-8.01-1.2-1.992-1.248-4.111-.586-6.285zM85.906 45.34c-.641-.528-1.03-.479-1.556.167-.37.457-.746.909-1.104 1.374-.193.25-.316.208-.512-.013-.424-.471-.433-1.02-.349-1.579.181-1.17.16-2.337-.05-3.496-.386-2.139-1.252-4.04-2.865-5.56-1.706-1.607-3.701-2.71-5.943-3.379-.592-.176-1.194-.308-1.79-.473-.328-.09-.632-.07-.842.204-.226.29-.106.578.102.838.036.043.066.09.1.134.815 1.056 1.152 2.29 1.275 3.58.138 1.423-.61 2.334-2.034 2.586-.138.024-.28.042-.418.056-.455.045-.867-.084-1.11-.463-.328-.511-.671-1.038-.861-1.607-.53-1.594-.412-3.254-.349-4.896.057-1.419.247-2.834.274-4.253.033-1.789-.37-3.48-1.435-4.977-1.174-1.647-2.66-2.936-4.417-3.94-.777-.446-1.559-.902-2.27-1.441-1.197-.909-2.06-2.05-2.144-3.629-.018-.327-.142-.617-.503-.687-.37-.072-.566.175-.704.472-.057.126-.105.258-.156.387-.717 1.775-1.05 3.637-1.219 5.527-.036.405-.117.401-.418.215-.647-.396-1.327-.736-1.959-1.152-1.05-.692-2.11-1.384-3.105-2.154-1.279-.99-1.6-2.372-1.351-3.903.132-.823.328-1.637.517-2.45.06-.262.115-.506-.141-.673-.298-.194-.533-.033-.734.188-.057.062-.108.128-.166.191-.722.82-1.453 1.63-2.16 2.46-.635.745-1.279 1.488-1.853 2.277-1.039 1.415-1.794 2.941-1.947 4.736-.19 2.197.463 3.225 2.593 3.835.62.178 1.246.337 1.857.548.939.325 1.802.783 2.446 1.571.782.96.894 2.318.286 3.374-.518.893-1.607 1.325-2.864 1.133-.112-.017-.22-.05-.331-.065-.497-.07-.804-.363-.984-.81-.283-.711-.328-1.408.123-2.075.208-.31.277-.615-.027-.905-.265-.254-.536-.213-.96.139-.108.089-.204.193-.31.285-.656.568-1.306 1.145-1.974 1.7-.448.373-.43.345-.627-.199-.295-.808-.62-1.61-.993-2.386-.1-.206-.405-.385-.646-.435-.33-.07-.337.281-.446.5-.233.47-.424.987-.76 1.374-1.121 1.287-2.255 2.567-3.463 3.772-2.799 2.797-4.241 6.12-4.131 10.076.01.416-.112.341-.363.197-.885-.504-1.822-.863-2.835-1.02-1.258-.195-1.63.234-1.19 1.423.324.87.626 1.743.542 2.682-.059.664-.158 1.33-.306 1.98-.672 2.973-1.639 5.856-2.976 8.599-1.147 2.354-1.753 4.817-1.775 7.418-.017 2.074.768 3.189 2.631 3.797.268.087.544.15.804.249a3.29 3.29 0 0 1 1.625 1.28c.427.64.407 1.577-.058 2.21-.465.635-1.097.792-1.865.643-1.112-.216-1.886-.829-2.335-1.844-.144-.33-.226-.687-.329-1.033-.097-.323-.268-.56-.648-.535-.366.023-.553.267-.615.59-.39 2.028-.805 4.068-.51 6.138a20.41 20.41 0 0 0 1.533 5.372c.558 1.273 1.38 2.358 2.379 3.317.262.252.544.484.815.724-.294.22-.591.435-.882.658-.76.583-.778 1.279-.044 1.877.15.123.315.246.494.317.702.277 1.406.55 2.12.793 1.034.353 2.075.687 3.116 1.014 1.735.543 3.432 1.13 5.275 1.36 3.878.482 8.061.137 9.268.145 1.742.01 3.48-.006 4.823-.01 1.853-.244 3.316-.368 4.748-.64 3.15-.6 6.183-1.616 9.177-2.754 5.828-2.214 11.175-5.22 15.76-9.471 2.795-2.59 5.019-5.565 6.373-9.136.235-.62.43-1.28.484-1.935.088-1.023.036-2.058.051-3.087.028-1.593-.487-3.078-.962-4.562-.337-1.057-.301-2.071-.012-3.115.439-1.595 1.11-3.095 1.874-4.557.298-.57.632-1.124.882-1.714.12-.285.192-.677.09-.95-.361-.98-.933-1.843-1.751-2.52z"/></g></svg>