<svg xmlns="http://www.w3.org/2000/svg" xmlns:xlink="http://www.w3.org/1999/xlink" width="66" height="65" viewBox="0 0 66 65">
    <defs>
        <linearGradient id="b" x1="50%" x2="50%" y1="100%" y2="0%">
            <stop offset="0%" stop-color="#FFF" stop-opacity="0"/>
            <stop offset="100%" stop-color="#FFF"/>
        </linearGradient>
        <path id="a" d="M33 1.168c17.9 0 32.41 14.383 32.41 32.124 0 17.742-14.51 32.124-32.41 32.124S.59 51.034.59 33.292C.59 15.551 15.1 1.168 33 1.168z"/>
        <filter id="c" width="228.8%" height="228.8%" x="-64.4%" y="-64.4%" filterUnits="objectBoundingBox">
            <feGaussianBlur in="SourceAlpha" result="shadowBlurInner1" stdDeviation="30"/>
            <feOffset dy="-25" in="shadowBlurInner1" result="shadowOffsetInner1"/>
            <feComposite in="shadowOffsetInner1" in2="SourceAlpha" k2="-1" k3="1" operator="arithmetic" result="shadowInnerInner1"/>
            <feColorMatrix in="shadowInnerInner1" result="shadowMatrixInner1" values="0 0 0 0 1 0 0 0 0 0.6039216 0 0 0 0 0 0 0 0 1 0"/>
            <feGaussianBlur in="SourceAlpha" result="shadowBlurInner2" stdDeviation="7.5"/>
            <feOffset dy="-8" in="shadowBlurInner2" result="shadowOffsetInner2"/>
            <feComposite in="shadowOffsetInner2" in2="SourceAlpha" k2="-1" k3="1" operator="arithmetic" result="shadowInnerInner2"/>
            <feColorMatrix in="shadowInnerInner2" result="shadowMatrixInner2" values="0 0 0 0 0.6509804 0 0 0 0 0.40392157 0 0 0 0 0.02745098 0 0 0 0.5 0"/>
            <feOffset dy="-1" in="SourceAlpha" result="shadowOffsetInner3"/>
            <feComposite in="shadowOffsetInner3" in2="SourceAlpha" k2="-1" k3="1" operator="arithmetic" result="shadowInnerInner3"/>
            <feColorMatrix in="shadowInnerInner3" result="shadowMatrixInner3" values="0 0 0 0 0.70980394 0 0 0 0 0.3647059 0 0 0 0 0.019607844 0 0 0 1 0"/>
            <feGaussianBlur in="SourceAlpha" result="shadowBlurInner4" stdDeviation=".5"/>
            <feOffset dy="1" in="shadowBlurInner4" result="shadowOffsetInner4"/>
            <feComposite in="shadowOffsetInner4" in2="SourceAlpha" k2="-1" k3="1" operator="arithmetic" result="shadowInnerInner4"/>
            <feColorMatrix in="shadowInnerInner4" result="shadowMatrixInner4" values="0 0 0 0 0 0 0 0 0 0 0 0 0 0 0 0 0 0 1 0"/>
            <feMerge>
                <feMergeNode in="shadowMatrixInner1"/>
                <feMergeNode in="shadowMatrixInner2"/>
                <feMergeNode in="shadowMatrixInner3"/>
                <feMergeNode in="shadowMatrixInner4"/>
            </feMerge>
        </filter>
        <linearGradient id="d" x1="50%" x2="50%" y1="25.073%" y2="-43.597%">
            <stop offset="0%" stop-color="#FFF" stop-opacity="0"/>
            <stop offset="100%" stop-color="#FFF"/>
        </linearGradient>
        <linearGradient id="f" x1="50%" x2="50%" y1="0%" y2="50%">
            <stop offset="0%" stop-color="#FFF"/>
            <stop offset="100%" stop-color="#FFF" stop-opacity="0"/>
        </linearGradient>
        <path id="e" d="M33 4.088c16.273 0 29.464 13.598 29.464 30.372S49.273 64.832 33 64.832c-16.273 0-29.464-13.598-29.464-30.372S16.727 4.088 33 4.088z"/>
        <path id="h" d="M33.018 40.885h-.607c-10.433 0-15.74-2.293-20.029-3.507-1.156 0-1.186.804-1.186 1.755 0 4.864 2.45 8.988 6.483 12.85 3.8 3.638 9.012 5.84 14.732 5.84 0-.01.006-.017.018-.022v.022s.141-.021.285-.033c.145.012.286.033.286.033v-.022c.011.006.018.013.018.022 5.715 0 10.922-2.202 14.72-5.84 4.029-3.862 6.476-7.986 6.476-12.85 0-.951-.03-1.755-1.185-1.755-4.284 1.214-9.587 3.507-20.011 3.507z"/>
        <filter id="g" width="109.1%" height="118%" x="-4.5%" y="-4.5%" filterUnits="objectBoundingBox">
            <feOffset dy="1" in="SourceAlpha" result="shadowOffsetOuter1"/>
            <feGaussianBlur in="shadowOffsetOuter1" result="shadowBlurOuter1" stdDeviation=".5"/>
            <feColorMatrix in="shadowBlurOuter1" values="0 0 0 0 1 0 0 0 0 1 0 0 0 0 1 0 0 0 0.4 0"/>
        </filter>
        <filter id="i" width="120.6%" height="141%" x="-10.3%" y="-16%" filterUnits="objectBoundingBox">
            <feMorphology in="SourceAlpha" radius=".5" result="shadowSpreadInner1"/>
            <feGaussianBlur in="shadowSpreadInner1" result="shadowBlurInner1" stdDeviation="2.3"/>
            <feOffset dy="2" in="shadowBlurInner1" result="shadowOffsetInner1"/>
            <feComposite in="shadowOffsetInner1" in2="SourceAlpha" k2="-1" k3="1" operator="arithmetic" result="shadowInnerInner1"/>
            <feColorMatrix in="shadowInnerInner1" result="shadowMatrixInner1" values="0 0 0 0 0 0 0 0 0 0 0 0 0 0 0 0 0 0 1 0"/>
            <feGaussianBlur in="SourceAlpha" result="shadowBlurInner2" stdDeviation="1.5"/>
            <feOffset in="shadowBlurInner2" result="shadowOffsetInner2"/>
            <feComposite in="shadowOffsetInner2" in2="SourceAlpha" k2="-1" k3="1" operator="arithmetic" result="shadowInnerInner2"/>
            <feColorMatrix in="shadowInnerInner2" result="shadowMatrixInner2" values="0 0 0 0 0 0 0 0 0 0 0 0 0 0 0 0 0 0 0.75 0"/>
            <feMerge>
                <feMergeNode in="shadowMatrixInner1"/>
                <feMergeNode in="shadowMatrixInner2"/>
            </feMerge>
        </filter>
        <linearGradient id="l" x1="0%" y1="50%" y2="57.887%">
            <stop offset="0%" stop-color="#C7CACD"/>
            <stop offset="43.06%" stop-color="#FFF"/>
            <stop offset="100%" stop-color="#C7CACD"/>
        </linearGradient>
        <path id="k" d="M49.479 47.361a25.376 25.376 0 0 1-2.977 3.37c-3.485 3.327-8.264 5.34-13.51 5.34 0-.004-.014-.004-.016-.007v.007s-.13-.02-.263-.03c-.132.01-.262.03-.262.03v-.007c-.002.003-.016.003-.016.007-5.25 0-10.033-2.013-13.521-5.34a25.436 25.436 0 0 1-2.96-3.344c3.323.915 10.543 2.259 16.457 2.259 5.887 0 13.603-1.37 17.068-2.285z"/>
        <filter id="j" width="111.5%" height="140.3%" x="-5.8%" y="-10.1%" filterUnits="objectBoundingBox">
            <feMorphology in="SourceAlpha" operator="dilate" radius=".1" result="shadowSpreadOuter1"/>
            <feOffset dy="1" in="shadowSpreadOuter1" result="shadowOffsetOuter1"/>
            <feGaussianBlur in="shadowOffsetOuter1" result="shadowBlurOuter1" stdDeviation=".4"/>
            <feColorMatrix in="shadowBlurOuter1" values="0 0 0 0 0 0 0 0 0 0 0 0 0 0 0 0 0 0 1 0"/>
        </filter>
        <filter id="m" width="114.4%" height="150.4%" x="-7.2%" y="-15.1%" filterUnits="objectBoundingBox">
            <feMorphology in="SourceAlpha" radius=".5" result="shadowSpreadInner1"/>
            <feGaussianBlur in="shadowSpreadInner1" result="shadowBlurInner1" stdDeviation="1.25"/>
            <feOffset in="shadowBlurInner1" result="shadowOffsetInner1"/>
            <feComposite in="shadowOffsetInner1" in2="SourceAlpha" k2="-1" k3="1" operator="arithmetic" result="shadowInnerInner1"/>
            <feColorMatrix in="shadowInnerInner1" values="0 0 0 0 1 0 0 0 0 1 0 0 0 0 1 0 0 0 0.2 0"/>
        </filter>
        <path id="o" d="M32.557 42.637c-10.186-.019-18.363-1.993-19.887-3.504 0 2.314.823 4.904 1.473 5.548.65.645 10.577 2.92 18.268 2.92 7.582 0 18.233-2.275 18.874-2.92.64-.644 1.456-3.223 1.456-5.548-1.503 1.51-10.136 3.485-20.184 3.504z"/>
        <filter id="n" width="110%" height="147.2%" x="-5%" y="-11.8%" filterUnits="objectBoundingBox">
            <feMorphology in="SourceAlpha" operator="dilate" radius=".1" result="shadowSpreadOuter1"/>
            <feOffset dy="1" in="shadowSpreadOuter1" result="shadowOffsetOuter1"/>
            <feGaussianBlur in="shadowOffsetOuter1" result="shadowBlurOuter1" stdDeviation=".4"/>
            <feColorMatrix in="shadowBlurOuter1" values="0 0 0 0 0 0 0 0 0 0 0 0 0 0 0 0 0 0 1 0"/>
        </filter>
        <filter id="p" width="112.5%" height="159%" x="-6.2%" y="-17.7%" filterUnits="objectBoundingBox">
            <feMorphology in="SourceAlpha" radius=".5" result="shadowSpreadInner1"/>
            <feGaussianBlur in="shadowSpreadInner1" result="shadowBlurInner1" stdDeviation="1.25"/>
            <feOffset in="shadowBlurInner1" result="shadowOffsetInner1"/>
            <feComposite in="shadowOffsetInner1" in2="SourceAlpha" k2="-1" k3="1" operator="arithmetic" result="shadowInnerInner1"/>
            <feColorMatrix in="shadowInnerInner1" values="0 0 0 0 1 0 0 0 0 1 0 0 0 0 1 0 0 0 0.2 0"/>
        </filter>
        <path id="r" d="M27.623 32.622c-.32-.58-1.267-3.768-3.757-3.768s-3.436 3.188-3.757 3.768c-.32.58-1.48 1.162-1.48 0 0-9.402 3.605-10.427 5.237-10.427 1.632 0 5.203 1.025 5.203 10.453 0 1.162-1.126.554-1.446-.026z"/>
        <filter id="q" width="132.3%" height="131.1%" x="-16.2%" y="-7.8%" filterUnits="objectBoundingBox">
            <feOffset dy="1" in="SourceAlpha" result="shadowOffsetOuter1"/>
            <feGaussianBlur in="shadowOffsetOuter1" result="shadowBlurOuter1" stdDeviation=".5"/>
            <feColorMatrix in="shadowBlurOuter1" values="0 0 0 0 1 0 0 0 0 1 0 0 0 0 1 0 0 0 1 0"/>
        </filter>
        <filter id="s" width="173.5%" height="170.8%" x="-36.8%" y="-27.6%" filterUnits="objectBoundingBox">
            <feMorphology in="SourceAlpha" radius=".5" result="shadowSpreadInner1"/>
            <feGaussianBlur in="shadowSpreadInner1" result="shadowBlurInner1" stdDeviation="2.3"/>
            <feOffset dy="2" in="shadowBlurInner1" result="shadowOffsetInner1"/>
            <feComposite in="shadowOffsetInner1" in2="SourceAlpha" k2="-1" k3="1" operator="arithmetic" result="shadowInnerInner1"/>
            <feColorMatrix in="shadowInnerInner1" result="shadowMatrixInner1" values="0 0 0 0 0 0 0 0 0 0 0 0 0 0 0 0 0 0 1 0"/>
            <feGaussianBlur in="SourceAlpha" result="shadowBlurInner2" stdDeviation="1.5"/>
            <feOffset in="shadowBlurInner2" result="shadowOffsetInner2"/>
            <feComposite in="shadowOffsetInner2" in2="SourceAlpha" k2="-1" k3="1" operator="arithmetic" result="shadowInnerInner2"/>
            <feColorMatrix in="shadowInnerInner2" result="shadowMatrixInner2" values="0 0 0 0 0 0 0 0 0 0 0 0 0 0 0 0 0 0 0.75 0"/>
            <feMerge>
                <feMergeNode in="shadowMatrixInner1"/>
                <feMergeNode in="shadowMatrixInner2"/>
            </feMerge>
        </filter>
        <path id="u" d="M45.89 32.622c-.32-.58-1.266-3.768-3.756-3.768-2.49 0-3.436 3.188-3.757 3.768-.32.58-1.48 1.162-1.48 0 0-9.402 3.605-10.427 5.237-10.427 1.632 0 5.203 1.025 5.203 10.453 0 1.162-1.126.554-1.446-.026z"/>
        <filter id="t" width="132.3%" height="131.1%" x="-16.2%" y="-7.8%" filterUnits="objectBoundingBox">
            <feOffset dy="1" in="SourceAlpha" result="shadowOffsetOuter1"/>
            <feGaussianBlur in="shadowOffsetOuter1" result="shadowBlurOuter1" stdDeviation=".5"/>
            <feColorMatrix in="shadowBlurOuter1" values="0 0 0 0 1 0 0 0 0 1 0 0 0 0 1 0 0 0 1 0"/>
        </filter>
        <filter id="v" width="173.5%" height="170.8%" x="-36.8%" y="-27.6%" filterUnits="objectBoundingBox">
            <feMorphology in="SourceAlpha" radius=".5" result="shadowSpreadInner1"/>
            <feGaussianBlur in="shadowSpreadInner1" result="shadowBlurInner1" stdDeviation="2.3"/>
            <feOffset dy="2" in="shadowBlurInner1" result="shadowOffsetInner1"/>
            <feComposite in="shadowOffsetInner1" in2="SourceAlpha" k2="-1" k3="1" operator="arithmetic" result="shadowInnerInner1"/>
            <feColorMatrix in="shadowInnerInner1" result="shadowMatrixInner1" values="0 0 0 0 0 0 0 0 0 0 0 0 0 0 0 0 0 0 1 0"/>
            <feGaussianBlur in="SourceAlpha" result="shadowBlurInner2" stdDeviation="1.5"/>
            <feOffset in="shadowBlurInner2" result="shadowOffsetInner2"/>
            <feComposite in="shadowOffsetInner2" in2="SourceAlpha" k2="-1" k3="1" operator="arithmetic" result="shadowInnerInner2"/>
            <feColorMatrix in="shadowInnerInner2" result="shadowMatrixInner2" values="0 0 0 0 0 0 0 0 0 0 0 0 0 0 0 0 0 0 0.75 0"/>
            <feMerge>
                <feMergeNode in="shadowMatrixInner1"/>
                <feMergeNode in="shadowMatrixInner2"/>
            </feMerge>
        </filter>
    </defs>
    <g fill="none" fill-rule="evenodd">
        <g transform="translate(0 -1)">
            <use fill="#FFEE40" xlink:href="#a"/>
            <use fill="url(#b)" style="mix-blend-mode:overlay" xlink:href="#a"/>
            <use fill="#000" filter="url(#c)" xlink:href="#a"/>
        </g>
        <g transform="translate(0 -1)">
            <use fill="url(#d)" xlink:href="#e"/>
            <use fill="url(#f)" style="mix-blend-mode:overlay" xlink:href="#e"/>
        </g>
        <g transform="translate(0 -1)">
            <use fill="#000" filter="url(#g)" xlink:href="#h"/>
            <use fill="#A66707" xlink:href="#h"/>
            <use fill="#000" filter="url(#i)" xlink:href="#h"/>
        </g>
        <g transform="translate(0 -1)">
            <use fill="#000" filter="url(#j)" xlink:href="#k"/>
            <use fill="#FFF" xlink:href="#k"/>
            <use fill="url(#l)" xlink:href="#k"/>
            <use fill="#000" filter="url(#m)" xlink:href="#k"/>
        </g>
        <g transform="translate(0 -1)">
            <use fill="#000" filter="url(#n)" xlink:href="#o"/>
            <use fill="#FFF" xlink:href="#o"/>
            <use fill="url(#l)" xlink:href="#o"/>
            <use fill="#000" filter="url(#p)" xlink:href="#o"/>
        </g>
        <g transform="translate(0 -1)">
            <use fill="#000" filter="url(#q)" xlink:href="#r"/>
            <use fill="#A66707" xlink:href="#r"/>
            <use fill="#000" filter="url(#s)" xlink:href="#r"/>
        </g>
        <g transform="translate(0 -1)">
            <use fill="#000" filter="url(#t)" xlink:href="#u"/>
            <use fill="#A66707" xlink:href="#u"/>
            <use fill="#000" filter="url(#v)" xlink:href="#u"/>
        </g>
    </g>
</svg>
