<svg xmlns="http://www.w3.org/2000/svg" xmlns:xlink="http://www.w3.org/1999/xlink" width="63" height="65" viewBox="0 0 63 65">
    <defs>
        <linearGradient id="b" x1="50%" x2="50%" y1="100%" y2="0%">
            <stop offset="0%" stop-color="#FFF" stop-opacity="0"/>
            <stop offset="100%" stop-color="#FFF"/>
        </linearGradient>
        <path id="a" d="M31.59.584c17.135 0 31.025 14.382 31.025 32.124 0 17.741-13.89 32.124-31.025 32.124C14.455 64.832.564 50.449.564 32.708.564 14.966 14.454.584 31.59.584z"/>
        <filter id="c" width="233.3%" height="228.8%" x="-66.7%" y="-64.4%" filterUnits="objectBoundingBox">
            <feGaussianBlur in="SourceAlpha" result="shadowBlurInner1" stdDeviation="30"/>
            <feOffset dy="-25" in="shadowBlurInner1" result="shadowOffsetInner1"/>
            <feComposite in="shadowOffsetInner1" in2="SourceAlpha" k2="-1" k3="1" operator="arithmetic" result="shadowInnerInner1"/>
            <feColorMatrix in="shadowInnerInner1" result="shadowMatrixInner1" values="0 0 0 0 1 0 0 0 0 0.6039216 0 0 0 0 0 0 0 0 1 0"/>
            <feGaussianBlur in="SourceAlpha" result="shadowBlurInner2" stdDeviation="7.5"/>
            <feOffset dy="-8" in="shadowBlurInner2" result="shadowOffsetInner2"/>
            <feComposite in="shadowOffsetInner2" in2="SourceAlpha" k2="-1" k3="1" operator="arithmetic" result="shadowInnerInner2"/>
            <feColorMatrix in="shadowInnerInner2" result="shadowMatrixInner2" values="0 0 0 0 0.6509804 0 0 0 0 0.40392157 0 0 0 0 0.02745098 0 0 0 0.5 0"/>
            <feOffset dy="-1" in="SourceAlpha" result="shadowOffsetInner3"/>
            <feComposite in="shadowOffsetInner3" in2="SourceAlpha" k2="-1" k3="1" operator="arithmetic" result="shadowInnerInner3"/>
            <feColorMatrix in="shadowInnerInner3" result="shadowMatrixInner3" values="0 0 0 0 0.70980394 0 0 0 0 0.3647059 0 0 0 0 0.019607844 0 0 0 1 0"/>
            <feGaussianBlur in="SourceAlpha" result="shadowBlurInner4" stdDeviation=".5"/>
            <feOffset dy="1" in="shadowBlurInner4" result="shadowOffsetInner4"/>
            <feComposite in="shadowOffsetInner4" in2="SourceAlpha" k2="-1" k3="1" operator="arithmetic" result="shadowInnerInner4"/>
            <feColorMatrix in="shadowInnerInner4" result="shadowMatrixInner4" values="0 0 0 0 0 0 0 0 0 0 0 0 0 0 0 0 0 0 1 0"/>
            <feMerge>
                <feMergeNode in="shadowMatrixInner1"/>
                <feMergeNode in="shadowMatrixInner2"/>
                <feMergeNode in="shadowMatrixInner3"/>
                <feMergeNode in="shadowMatrixInner4"/>
            </feMerge>
        </filter>
        <linearGradient id="d" x1="50%" x2="50%" y1="25.073%" y2="-43.597%">
            <stop offset="0%" stop-color="#FFF" stop-opacity="0"/>
            <stop offset="100%" stop-color="#FFF"/>
        </linearGradient>
        <linearGradient id="f" x1="50%" x2="50%" y1="0%" y2="50%">
            <stop offset="0%" stop-color="#FFF"/>
            <stop offset="100%" stop-color="#FFF" stop-opacity="0"/>
        </linearGradient>
        <path id="e" d="M31.59 3.504c15.577 0 28.205 13.598 28.205 30.372S47.167 64.248 31.59 64.248c-15.578 0-28.205-13.598-28.205-30.372S16.012 3.504 31.59 3.504z"/>
        <path id="h" d="M31.59 50.814c-11.01 0-14.667-7.73-14.667-9.01 0-1.282 2.438 1.433 6.81 3.378 5.204 2.317 10.51 2.396 15.714.135 4.371-1.899 6.81-4.55 6.81-3.298 0 1.25-3.657 8.795-14.667 8.795z"/>
        <filter id="g" width="112.7%" height="134.2%" x="-6.3%" y="-8.6%" filterUnits="objectBoundingBox">
            <feOffset dy="1" in="SourceAlpha" result="shadowOffsetOuter1"/>
            <feGaussianBlur in="shadowOffsetOuter1" result="shadowBlurOuter1" stdDeviation=".5"/>
            <feColorMatrix in="shadowBlurOuter1" values="0 0 0 0 1 0 0 0 0 1 0 0 0 0 1 0 0 0 1 0"/>
        </filter>
        <filter id="i" width="128.8%" height="177.9%" x="-14.4%" y="-30.4%" filterUnits="objectBoundingBox">
            <feMorphology in="SourceAlpha" radius=".5" result="shadowSpreadInner1"/>
            <feGaussianBlur in="shadowSpreadInner1" result="shadowBlurInner1" stdDeviation="2.3"/>
            <feOffset dy="2" in="shadowBlurInner1" result="shadowOffsetInner1"/>
            <feComposite in="shadowOffsetInner1" in2="SourceAlpha" k2="-1" k3="1" operator="arithmetic" result="shadowInnerInner1"/>
            <feColorMatrix in="shadowInnerInner1" result="shadowMatrixInner1" values="0 0 0 0 0 0 0 0 0 0 0 0 0 0 0 0 0 0 1 0"/>
            <feGaussianBlur in="SourceAlpha" result="shadowBlurInner2" stdDeviation="1.5"/>
            <feOffset in="shadowBlurInner2" result="shadowOffsetInner2"/>
            <feComposite in="shadowOffsetInner2" in2="SourceAlpha" k2="-1" k3="1" operator="arithmetic" result="shadowInnerInner2"/>
            <feColorMatrix in="shadowInnerInner2" result="shadowMatrixInner2" values="0 0 0 0 0 0 0 0 0 0 0 0 0 0 0 0 0 0 0.75 0"/>
            <feMerge>
                <feMergeNode in="shadowMatrixInner1"/>
                <feMergeNode in="shadowMatrixInner2"/>
            </feMerge>
        </filter>
        <path id="k" d="M31.59 22.779v3.504l-2.82 5.257s-2.636 5.84-10.719 5.84c-8.083 0-8.993-4.054-9.59-5.84-.596-1.786-3.055-8.842-3.384-9.93-.33-1.087 1.128-1.168 1.128-1.168h10.718c6.594 0 12.41 2.337 12.41 2.337h2.257zm0 0h2.252s5.805-2.337 12.385-2.337h10.697s1.455.081 1.126 1.169c-.329 1.087-2.783 8.143-3.378 9.929-.595 1.786-1.504 5.84-9.57 5.84-8.067 0-10.697-5.84-10.697-5.84l-2.815-5.257V22.78z"/>
        <filter id="j" width="121.7%" height="164.2%" x="-10.9%" y="-16.1%" filterUnits="objectBoundingBox">
            <feOffset dy="3" in="SourceAlpha" result="shadowOffsetOuter1"/>
            <feGaussianBlur in="shadowOffsetOuter1" result="shadowBlurOuter1" stdDeviation="1.5"/>
            <feColorMatrix in="shadowBlurOuter1" values="0 0 0 0 0 0 0 0 0 0 0 0 0 0 0 0 0 0 0.5 0"/>
        </filter>
        <filter id="l" width="114.5%" height="142.8%" x="-7.2%" y="-5.4%" filterUnits="objectBoundingBox">
            <feGaussianBlur in="SourceAlpha" result="shadowBlurInner1" stdDeviation=".5"/>
            <feOffset dy="1" in="shadowBlurInner1" result="shadowOffsetInner1"/>
            <feComposite in="shadowOffsetInner1" in2="SourceAlpha" k2="-1" k3="1" operator="arithmetic" result="shadowInnerInner1"/>
            <feColorMatrix in="shadowInnerInner1" values="0 0 0 0 1 0 0 0 0 1 0 0 0 0 1 0 0 0 0.1 0"/>
        </filter>
        <path id="n" d="M28.77 25.7c0 1.766-1.652 5.076-3.385 7.008-1.734 1.932-2.953 2.336-7.334 2.336-4.38 0-6.25-1.527-7.333-3.504-1.083-1.977-2.256-5.84-2.256-5.84s-.834-4.09 8.461-4.09S28.77 24.977 28.77 25.7zm5.64 0c0-.724 2.549-4.09 11.836-4.09S54.7 25.7 54.7 25.7s-1.172 3.863-2.254 5.84c-1.082 1.977-2.95 3.504-7.327 3.504s-5.595-.404-7.327-2.336c-1.732-1.932-3.382-5.242-3.382-7.009z"/>
        <filter id="m" width="108.1%" height="126.3%" x="-4%" y="-6.6%" filterUnits="objectBoundingBox">
            <feOffset dy="1" in="SourceAlpha" result="shadowOffsetOuter1"/>
            <feGaussianBlur in="shadowOffsetOuter1" result="shadowBlurOuter1" stdDeviation=".5"/>
            <feColorMatrix in="shadowBlurOuter1" values="0 0 0 0 1 0 0 0 0 1 0 0 0 0 1 0 0 0 0.2 0"/>
        </filter>
        <filter id="o" width="116.1%" height="152.7%" x="-8.1%" y="-19.8%" filterUnits="objectBoundingBox">
            <feGaussianBlur in="SourceAlpha" result="shadowBlurInner1" stdDeviation="3"/>
            <feOffset in="shadowBlurInner1" result="shadowOffsetInner1"/>
            <feComposite in="shadowOffsetInner1" in2="SourceAlpha" k2="-1" k3="1" operator="arithmetic" result="shadowInnerInner1"/>
            <feColorMatrix in="shadowInnerInner1" values="0 0 0 0 0 0 0 0 0 0 0 0 0 0 0 0 0 0 1 0"/>
        </filter>
        <linearGradient id="r" x1="50%" x2="50%" y1="26.861%" y2="0%">
            <stop offset="0%" stop-color="#FFF" stop-opacity="0"/>
            <stop offset="100%" stop-color="#FFF" stop-opacity=".65"/>
        </linearGradient>
        <path id="q" d="M27.498 27.165c.092-.391.143-.75.143-1.06 0-.691-2.336-3.91-10.85-3.91-8.513 0-7.75 3.91-7.75 3.91s.26.89.64 2.019l17.817-.96zm26.09-1.404c-.045-.955-.807-3.566-7.764-3.566-8.513 0-10.85 3.219-10.85 3.91 0 .2.021.419.06.654l18.555-.998z"/>
        <filter id="p" width="108%" height="127%" x="-4%" y="-6.8%" filterUnits="objectBoundingBox">
            <feOffset dy="2" in="SourceAlpha" result="shadowOffsetOuter1"/>
            <feGaussianBlur in="shadowOffsetOuter1" result="shadowBlurOuter1" stdDeviation=".5"/>
            <feComposite in="shadowBlurOuter1" in2="SourceAlpha" operator="out" result="shadowBlurOuter1"/>
            <feColorMatrix in="shadowBlurOuter1" values="0 0 0 0 0 0 0 0 0 0 0 0 0 0 0 0 0 0 0.25 0"/>
        </filter>
        <filter id="s" width="106.4%" height="122.5%" x="-3.2%" y="-4.5%" filterUnits="objectBoundingBox">
            <feGaussianBlur in="SourceAlpha" result="shadowBlurInner1" stdDeviation=".5"/>
            <feOffset dy="1" in="shadowBlurInner1" result="shadowOffsetInner1"/>
            <feComposite in="shadowOffsetInner1" in2="SourceAlpha" k2="-1" k3="1" operator="arithmetic" result="shadowInnerInner1"/>
            <feColorMatrix in="shadowInnerInner1" values="0 0 0 0 1 0 0 0 0 1 0 0 0 0 1 0 0 0 0.45 0"/>
        </filter>
    </defs>
    <g fill="none" fill-rule="evenodd">
        <g>
            <use fill="#FFEE40" xlink:href="#a"/>
            <use fill="url(#b)" style="mix-blend-mode:overlay" xlink:href="#a"/>
            <use fill="#000" filter="url(#c)" xlink:href="#a"/>
        </g>
        <g>
            <use fill="url(#d)" xlink:href="#e"/>
            <use fill="url(#f)" style="mix-blend-mode:overlay" xlink:href="#e"/>
        </g>
        <g>
            <use fill="#000" filter="url(#g)" xlink:href="#h"/>
            <use fill="#A66707" xlink:href="#h"/>
            <use fill="#000" filter="url(#i)" xlink:href="#h"/>
        </g>
        <g>
            <use fill="#000" filter="url(#j)" xlink:href="#k"/>
            <use fill="#141414" xlink:href="#k"/>
            <use fill="#000" filter="url(#l)" xlink:href="#k"/>
        </g>
        <g>
            <use fill="#000" filter="url(#m)" xlink:href="#n"/>
            <use fill="#353534" xlink:href="#n"/>
            <use fill="#000" filter="url(#o)" xlink:href="#n"/>
        </g>
        <g>
            <use fill="#000" filter="url(#p)" xlink:href="#q"/>
            <use fill="#FFF" fill-opacity="0" xlink:href="#q"/>
            <use fill="url(#r)" fill-opacity=".65" xlink:href="#q"/>
            <use fill="#000" filter="url(#s)" xlink:href="#q"/>
        </g>
    </g>
</svg>
