<svg xmlns="http://www.w3.org/2000/svg" width="343" height="271" viewBox="0 0 343 271"><g fill="none" fill-rule="evenodd" transform="translate(-8 1)"><path fill="#FF2D7B" d="M251 37.727h4.667L258 33l2.333 4.727H265l-3.5 3.546L262.667 46 258 43.636 253.333 46l1.167-4.727zm-251 37h4.667L7 70l2.333 4.727H14l-3.5 3.546L11.667 83 7 80.636 2.333 83 3.5 78.273z"/><path fill="#57DDA7" d="M87 41.727h4.667L94 37l2.333 4.727H101l-3.5 3.546L98.667 50 94 47.636 89.333 50l1.167-4.727z"/><path fill="#F9AE00" d="M284 259.727h4.667L291 255l2.333 4.727H298l-3.5 3.546 1.167 4.727-4.667-2.364-4.667 2.364 1.167-4.727z"/><path fill="#0AC6FF" d="M31 222.727h4.667L38 218l2.333 4.727H45l-3.5 3.546L42.667 231 38 228.636 33.333 231l1.167-4.727z"/><circle cx="67.5" cy="5.5" r="5.5" stroke="#7C5BFD" stroke-width="2"/><circle cx="136.5" cy="260.5" r="5.5" stroke="#FF2D7B" stroke-width="2"/><path stroke="#F9AE00" stroke-width="2" d="M179.5 221l5.5 11h-11zm161-141l5.5 11h-11z"/><circle cx="321.5" cy="28.5" r="5.5" stroke="#00CFB9" stroke-width="2"/><path fill="#42CCAF" fill-rule="nonzero" d="M197.007 16.714c0 2.367 1.88 4.286 4.199 4.286 2.318 0 4.198-1.919 4.198-4.286V5.286h9.797v7.143a4.129 4.129 0 0 0-3.926.61 4.321 4.321 0 0 0-1.672 3.675c0 2.367 1.88 4.286 4.198 4.286 2.32 0 4.199-1.919 4.199-4.286V1h-15.395v11.429a4.129 4.129 0 0 0-3.926.61 4.321 4.321 0 0 0-1.672 3.675"/><path fill="#0AC6FF" fill-rule="nonzero" d="M250.97 225.322c-.202-1.56-1.46-3.065-3.096-3.292-.846-.118-1.555.14-1.94.318v12.96a4.892 4.892 0 0 0-2.196-.498c-2.064 0-3.738 1.161-3.738 2.595 0 1.433 1.674 2.595 3.738 2.595 2.065 0 3.738-1.162 3.738-2.595v-11.319c.215-.214.403-.275.542-.287.688-.058 1.496.965 1.969 2.581.213-.25 1.193-1.447.984-3.058z"/><path fill="#FF2D7B" fill-rule="nonzero" d="M36.97 27.322c-.202-1.56-1.46-3.065-3.096-3.292-.846-.118-1.555.14-1.94.318v12.96a4.892 4.892 0 0 0-2.196-.498c-2.064 0-3.738 1.16-3.738 2.595C26 40.838 27.674 42 29.738 42c2.065 0 3.738-1.162 3.738-2.595V28.086c.215-.214.403-.275.542-.287.688-.058 1.496.965 1.969 2.581.213-.25 1.193-1.447.984-3.058z"/><path fill="#7C5BFD" d="M36.963 252.06c-.258-1.906-1.86-3.746-3.942-4.024-1.076-.143-1.978.171-2.468.39v15.84c-.785-.382-1.75-.61-2.795-.61-2.628 0-4.758 1.42-4.758 3.172 0 1.752 2.13 3.172 4.758 3.172 2.627 0 4.757-1.42 4.757-3.172v-13.834c.273-.262.512-.336.69-.35.875-.072 1.903 1.179 2.505 3.154.272-.305 1.52-1.768 1.253-3.738zm314-58c-.258-1.906-1.86-3.746-3.942-4.024-1.076-.143-1.978.171-2.468.39v15.84c-.785-.382-1.75-.61-2.795-.61-2.628 0-4.758 1.42-4.758 3.172 0 1.752 2.13 3.172 4.758 3.172 2.627 0 4.757-1.42 4.757-3.172v-13.834c.273-.262.512-.336.69-.35.875-.072 1.903 1.179 2.505 3.154.272-.305 1.52-1.768 1.253-3.738z"/><circle cx="152.5" cy="40.5" r="2.5" fill="#F9AE00"/><circle cx="94.5" cy="229.5" r="2.5" fill="#00CFB9"/><circle cx="293.5" cy="213.5" r="2.5" fill="#FF2D7B"/></g></svg>