<svg xmlns="http://www.w3.org/2000/svg" width="356" height="271" viewBox="0 0 356 271"><g fill="none" fill-rule="evenodd"><g transform="translate(0 -7)"><path d="M0 0h360v284H0z"/><path fill="#FF2D7B" d="M256 45.727h4.667L263 41l2.333 4.727H270l-3.5 3.546L267.667 54 263 51.636 258.333 54l1.167-4.727zm-251 37h4.667L12 78l2.333 4.727H19l-3.5 3.546L16.667 91 12 88.636 7.333 91 8.5 86.273z"/><path fill="#57DDA7" d="M92 49.727h4.667L99 45l2.333 4.727H106l-3.5 3.546L103.667 58 99 55.636 94.333 58l1.167-4.727z"/><path fill="#F9AE00" d="M289 267.727h4.667L296 263l2.333 4.727H303l-3.5 3.546 1.167 4.727-4.667-2.364-4.667 2.364 1.167-4.727z"/><path fill="#0AC6FF" d="M36 230.727h4.667L43 226l2.333 4.727H50l-3.5 3.546L47.667 239 43 236.636 38.333 239l1.167-4.727z"/><circle cx="72.5" cy="13.5" r="5.5" stroke="#7C5BFD" stroke-width="2"/><circle cx="141.5" cy="268.5" r="5.5" stroke="#FF2D7B" stroke-width="2"/><path stroke="#F9AE00" stroke-width="2" d="M184.5 229l5.5 11h-11zm161-141l5.5 11h-11z"/><circle cx="326.5" cy="36.5" r="5.5" stroke="#00CFB9" stroke-width="2"/><path fill="#42CCAF" fill-rule="nonzero" d="M202.007 24.714c0 2.367 1.88 4.286 4.199 4.286 2.318 0 4.198-1.919 4.198-4.286V13.286h9.797v7.143a4.129 4.129 0 0 0-3.926.61 4.321 4.321 0 0 0-1.672 3.675c0 2.367 1.88 4.286 4.198 4.286 2.32 0 4.199-1.919 4.199-4.286V9h-15.395v11.429a4.129 4.129 0 0 0-3.926.61 4.321 4.321 0 0 0-1.672 3.675"/><path fill="#0AC6FF" fill-rule="nonzero" d="M255.97 233.322c-.202-1.56-1.46-3.065-3.096-3.292-.846-.118-1.555.14-1.94.318v12.96a4.892 4.892 0 0 0-2.196-.498c-2.064 0-3.738 1.161-3.738 2.595 0 1.433 1.674 2.595 3.738 2.595 2.065 0 3.738-1.162 3.738-2.595v-11.319c.215-.214.403-.275.542-.287.688-.058 1.496.965 1.969 2.581.213-.25 1.193-1.447.984-3.058z"/><path fill="#FF2D7B" fill-rule="nonzero" d="M41.97 35.322c-.202-1.56-1.46-3.065-3.096-3.292-.846-.118-1.555.14-1.94.318v12.96a4.892 4.892 0 0 0-2.196-.498c-2.064 0-3.738 1.16-3.738 2.595C31 48.838 32.674 50 34.738 50c2.065 0 3.738-1.162 3.738-2.595V36.086c.215-.214.403-.275.542-.287.688-.058 1.496.965 1.969 2.581.213-.25 1.193-1.447.984-3.058z"/><path fill="#7C5BFD" d="M41.963 260.06c-.258-1.906-1.86-3.746-3.942-4.024-1.076-.143-1.978.171-2.468.39v15.84c-.785-.382-1.75-.61-2.795-.61-2.628 0-4.758 1.42-4.758 3.172 0 1.752 2.13 3.172 4.758 3.172 2.627 0 4.757-1.42 4.757-3.172v-13.834c.273-.262.512-.336.69-.35.875-.072 1.903 1.179 2.505 3.154.272-.305 1.52-1.768 1.253-3.738zm314-58c-.258-1.906-1.86-3.746-3.942-4.024-1.076-.143-1.978.171-2.468.39v15.84c-.785-.382-1.75-.61-2.795-.61-2.628 0-4.758 1.42-4.758 3.172 0 1.752 2.13 3.172 4.758 3.172 2.627 0 4.757-1.42 4.757-3.172v-13.834c.273-.262.512-.336.69-.35.875-.072 1.903 1.179 2.505 3.154.272-.305 1.52-1.768 1.253-3.738z"/><circle cx="157.5" cy="48.5" r="2.5" fill="#F9AE00"/><circle cx="99.5" cy="237.5" r="2.5" fill="#00CFB9"/><circle cx="298.5" cy="221.5" r="2.5" fill="#FF2D7B"/></g><path fill="#FFF" d="M291.416 51.962c-.768-.649-1.69-1.186-2.629-1.595-2.663-1.164-5.66.545-5.13 3.663.155.916.56 1.877-.188 2.979-.743-.522-1.345-1.02-2.023-1.401-.89-.502-1.791-1.089-2.774-1.33-2.702-.664-5.018 1.221-4.63 3.82.157 1.035.775 2.058 1.387 2.962.55.813 1.38 1.457 2.268 2.36-.179.138-.257.245-.357.268-1.51.363-3.062.773-3.138 2.584-.08 1.858 1.576 2.325 2.989 2.761 4.008 1.238 8.126 2.024 12.356 1.964 4.122-.06 7.52-3.402 7.452-7.313-.08-4.641-1.896-8.613-5.583-11.722"/><path fill="#CA82B2" d="M268.952 174.43c.847 1.33 1.472 2.8 2.034 4.262.11.285-.436.912-.834 1.198-.236.17-.956.137-1.133-.062-1.971-2.184-4.77-6.773-3.833-7.508 1.405-1.103 2.999.905 3.766 2.11m-13.547-.19c2.525-1.369 4.17 3.464 4.587 6.06.084.527-.494 1.496-.995 1.658-.524.17-1.646-.201-1.949-.656-1.386-2.07-2.75-6.463-1.643-7.063m4.655-.192c1.939-.29 2.583.811 3.23 1.657.753.988 1.275 2.104 1.697 3.212.107.282-.49 1.012-.866 1.062-.61.081-1.613-.064-1.906-.404-1.428-1.649-2.483-3.433-2.155-5.527"/><path fill="#C1E5DB" d="M291.166 161.853c1.363-1.44 2.865-2.854 3.818-4.562 2.938-5.27 3.681-11.489 2.44-17.291-1.367 9.333-5.122 17.71-13.424 23.052 1.144.531 3.03 2.303 4.466 2.948 1.216-1.065 1.759-3.15 2.7-4.147"/><path fill="#FFF" d="M291.416 51.962c-.768-.649-1.69-1.186-2.629-1.595-2.663-1.164-5.66.545-5.13 3.663.155.916.56 1.877-.188 2.979-.743-.522-1.345-1.02-2.023-1.401-.89-.502-1.791-1.089-2.774-1.33-2.702-.664-5.018 1.221-4.63 3.82.157 1.035.775 2.058 1.387 2.962.55.813 1.38 1.457 2.268 2.36-.179.138-.257.245-.357.268-1.51.363-3.062.773-3.138 2.584-.08 1.858 1.576 2.325 2.989 2.761 4.008 1.238 8.126 2.024 12.356 1.964 4.122-.06 7.52-3.402 7.452-7.313-.08-4.641-1.896-8.613-5.583-11.722"/><path fill="#CA82B2" d="M268.952 174.43c.847 1.33 1.472 2.8 2.034 4.262.11.285-.436.912-.834 1.198-.236.17-.956.137-1.133-.062-1.971-2.184-4.77-6.773-3.833-7.508 1.405-1.103 2.999.905 3.766 2.11m-13.547-.19c2.525-1.369 4.17 3.464 4.587 6.06.084.527-.494 1.496-.995 1.658-.524.17-1.646-.201-1.949-.656-1.386-2.07-2.75-6.463-1.643-7.063m4.655-.192c1.939-.29 2.583.811 3.23 1.657.753.988 1.275 2.104 1.697 3.212.107.282-.49 1.012-.866 1.062-.61.081-1.613-.064-1.906-.404-1.428-1.649-2.483-3.433-2.155-5.527"/><path fill="#C1E5DB" d="M291.166 161.853c1.363-1.44 2.865-2.854 3.818-4.562 2.938-5.27 3.681-11.489 2.44-17.291-1.367 9.333-5.122 17.71-13.424 23.052 1.144.531 3.03 2.303 4.466 2.948 1.216-1.065 1.759-3.15 2.7-4.147"/><path fill="#FF526D" d="M-72.73 121.743c8.434 2.034 16.987 3.271 25.66 3.257 7.474-.01 14.95-.406 22.423-.643 8.993-.287 17.989-.532 26.98-.889 13.893-.552 27.78-1.228 41.676-1.763 9.34-.36 18.687-.567 28.03-.85.458-.013.913-.102 1.753-.2.085-1.043.248-1.84.199-2.625-.255-4.06-.491-8.122-.876-12.17-.122-1.282-.302-2.666-.302-2.666s-1.403-.076-2.686-.111c-.163-.005-.327-.003-.49-.003h-.212c-10.752-.033-21.504-.18-32.255-.066-8.644.092-17.286.43-25.923.79-7.935.332-15.868.747-23.792 1.297-7.687.535-15.361 1.265-23.036 1.954-6.753.605-13.495 1.313-20.26.12-5.553-.978-10.91-2.489-15.842-5.33-3.591-2.07-6.066-5.046-7.647-8.803-2.28-5.425-.583-11.392 4.214-14.885.941-.686 1.922-1.321 2.892-1.97 4.839-3.24 4.077-9.178 1.602-12.292-4.405-5.543-13.119-6.62-18.49-1.984-5.099 4.402-8.414 9.914-9.41 16.663-1.312 8.896.09 17.386 4.068 25.422 4.532 9.155 11.608 15.307 21.724 17.747"/><path fill="#FFFF17" d="M-107.534 115.769c7.186 10.404 16.881 17.191 28.986 21.299 17.66 5.99 35.776 8.807 54.319 9.49 12.034.442 24.074.705 36.108.035 6.417-.357 12.83-.791 19.238-1.263 10.256-.754 20.505-1.563 30.758-2.363a256.27 256.27 0 0 0 7.679-.687c1.966-.212 2.17-.375 2.45-2.28a461.637 461.637 0 0 0 1.508-11.351c.22-1.802.44-3.64.488-5.825-1.178-.02-2.837-.036-4.088.004-11.681.377-23.364.746-35.044 1.172-18.689.68-37.374 1.402-56.062 2.11-1.517.057-3.033.175-4.55.228-11.56.401-23.135 1.293-34.655-.41-4.958-.733-9.936-1.572-14.762-2.874-7.96-2.145-14.194-6.817-18.798-13.664-2.624-3.9-4.445-8.114-5.872-12.545-.638-1.98-1.345-3.952-2.23-5.831-.35-.745-1.177-1.56-1.946-1.764-1.719-.461-3.52-.357-4.952.94-2.93 2.655-5.043 5.659-5.041 9.88 0 4.075.906 7.78 3.295 11.116 1.082 1.51 2.116 3.053 3.17 4.583"/><path fill="#DFF" d="M171.069 179.583c4.93-9.248 4.944-18.74 1.419-28.41-.24-.657-.597-1.285-.726-1.96-.07-.366.123-1.039.378-1.148.313-.133.953.047 1.205.321a12.393 12.393 0 0 1 1.627 2.248c.633 1.104 1.157 2.27 1.833 3.62 1.093-.163 2.227-.242 3.316-.508 9.384-2.29 18.814-2.559 28.285-.66 1.427.285 2.403-.036 3.336-1.167 1.24-1.5 2.548-2.982 4.81-4.199-2.048 3.22-2.75 5.246-3.593 7.818-.928 2.834-.97 5.718-1.058 8.638-.088 2.854.425 5.576 1.462 8.2 1.018 2.571 2.14 5.1 3.46 8.23-1.07-.42-3.966-2.96-4.938-4.103-4.94 5.52-10.497 8.657-17.643 8.607-6.763-.045-12.93-1.377-17.499-7.153-2.446 1.55-3.609 4.701-7.443 5.297.774-1.612 1.231-2.663 1.769-3.67zM66.73 164.591a12.392 12.392 0 0 0-.462 2.043c-1.162 8.656 1.42 15.888 8.138 21.544 1.814 1.528 3.608 2.812 6.264 2.246 1.829-.389 3.599.175 5.025 2.015-1.238.302-2.25.491-3.226.796-2.186.684-3.938 1.986-5.134 3.962-2.7 4.46-1.31 9.824 3.308 12.299 3.194 1.712 6.674 2.668 10.238 3.308 5.758 1.034 11.57.942 17.374.81 8.468-.193 16.925-.568 25.405-.219 9.046.372 18.094.999 27.166.264 8.676-.704 17.38-1.095 26.055-1.804 8.906-.726 17.8-1.632 26.692-2.527 7.857-.79 15.705-1.647 23.553-2.525 8.886-.997 17.762-2.105 26.655-3.064 9.234-.997 18.478-1.908 27.725-2.778 2.038-.193 3.818-.858 5.504-1.968 6.663-4.39 8.237-8.76 6.09-16.454-2.204-7.894-6.82-13.401-14.818-15.754-.602-.176-1.152-.533-2.074-.971 1.5-1.331 2.781-2.33 3.892-3.49 1.363-1.42 2.865-2.817 3.818-4.502 4.897-8.67 3.737-19.95-2.64-27.568-2.606-3.113-5.89-4.426-9.897-3.906-.92.118-1.852.222-2.75.451-.837.212-1.635.58-2.455.88-.112-.38-.193-.499-.165-.586.164-.554.327-1.111.541-1.646 1.33-3.323 1.757-6.765 1.318-10.31-.33-2.663-.644-5.33-1.066-7.98-2.71-17.001-12.482-28.495-27.69-35.692-3.523-1.667-7.255-2.353-11.179-2.147-10.031.526-19.153 9.568-17.278 21.857.423 2.766 1.228 5.455 2.833 7.843 2.538 3.776 7.99 4.098 10.431 1.752.483-.465 1.037-.855 1.85-1.517 0 .828.135 1.317-.02 1.68-2.635 6.18-10.065 6.814-13.626 3.432-2.065-1.961-3.754-4.177-4.698-6.862-2.23-6.35-2.177-12.81-.69-19.309 1.805-2.99.81-5.847-.486-8.642a28.855 28.855 0 0 0-2.237-3.95c-5.369-7.973-13.159-12.313-22.2-14.622-4.774-1.219-9.67-1.099-14.558-.715-8.434.662-16.47 2.777-24.024 6.633-7.842 4.001-13.516 10.204-17.592 17.914-2.035 3.85-3.091 8.027-3.323 12.421-.106 1.982.398 3.167 2.374 4.036 6.262 2.757 10.5 7.477 12.901 13.966 1.136 3.066 1.508 6.14.93 9.282-.974 5.283-3.844 9.195-8.818 11.386-5.774 2.543-12.779-1.962-14.356-6.075-1.336-3.477-.465-6.853 2.93-9.196-.208 1.316-.41 2.096-.443 2.883-.181 4.209 3.146 7.946 7.193 7.881 4.048-.065 6.705-2.197 7.993-5.218 1.407-3.297 1.304-6.562-.124-9.846-1.863-4.286-4.99-7.311-9.182-9.15-10.356-4.546-20.217-3.592-29.211 3.36-6.655 5.146-11.473 11.87-15.076 19.455-1.67 3.52-2.423 7.268-2.361 11.208.087 5.505 1.418 10.61 4.293 15.31.972 1.587 1.906 3.206 2.74 4.87.253.503.112 1.206.183 2.314-1.107-.677-1.743-1.17-2.456-1.484-5.768-2.546-11.56-3.031-16.862.91-3.883 2.886-6.754 6.73-8.235 11.466z"/><path fill="#FF526D" d="M188.27 179.083c8.007 2.364 14.938.024 21.73-5.488-1.11-.764-1.715-1.31-2.414-1.645-7.603-3.637-15.351-3.865-23.2-.938-.85.315-1.665.768-2.43 1.268-1.194.78-1.255 1.428-.265 2.552 1.806 2.05 4.011 3.493 6.578 4.25M79.027 120.98c1.521 0 2.767-.05 4.01.015 1.206.064 1.782-.495 2.305-1.579 1.896-3.937 3.897-7.826 5.926-11.697.738-1.41 1.667-2.718 2.732-4.432-5.758-.6-14.012-.107-17 .117.343 2.798.75 5.987 1.079 8.831.327 2.834.617 5.67.948 8.746"/><path fill="#5F91FF" d="M74.048 193.848c-1.36 0-2.396-.015-3.431.002-19.398.334-38.794.603-58.19 1.03-17.892.395-35.78.57-53.61-1.3-7.734-.81-15.452-1.839-23.143-2.993-9.354-1.403-18.254-4.482-27.017-7.986-1.08-.431-2.149-.893-3.25-1.264-2.628-.889-3.917-.037-4.326 2.776-.246 1.687.085 3.241.8 4.779 2.56 5.513 6.317 9.837 11.925 12.288 2.445 1.069 4.912 2.172 7.471 2.87 9.446 2.568 19.043 4.174 28.866 4.182 3.135.002 6.282.05 9.399.338 10.995 1.02 22.007 1.603 33.048 1.384 9.285-.184 18.57-.481 27.853-.736 17.428-.478 34.845-.13 52.261.516.729.027 1.46-.058 2.296-.096-3.269-7.174-3.274-7.252-.952-15.79"/><path fill="#FFF" d="M184.557 160.127c.97.818 2.11 1.58 3.287 1.91 5.173 1.452 10.354 1.241 15.445-.494 1.192-.407 2.326-1.11 3.372-1.863.481-.349.682-1.147 1.339-2.34-6.492-.508-12.274-.409-18.056.046a52.88 52.88 0 0 0-4.84.609c-1.172.202-1.5 1.325-.547 2.132"/><path fill="#70FFD9" d="M-51.288 191.4a351.028 351.028 0 0 0 52.467 2.463c9.279-.258 18.56-.573 27.843-.711 12.65-.188 25.3-.23 37.952-.333 1.139-.009 2.28-.002 3.42-.002 2.912.228 1.114-.47.395-.851-.395-.25-.827-.455-1.178-.758-4.747-4.109-7.252-9.444-8.132-15.655-.085-.588-.14-1.178-.22-1.766-.156-1.143-.822-1.621-1.924-1.545-.695.049-1.393.07-2.088.098-8.118.323-16.237.58-24.35.978a602.62 602.62 0 0 1-42.815.604c-15.095-.333-30.111-1.807-45.073-3.807-8.521-1.141-16.913-2.927-25.005-6.029-5.674-2.175-10.972-5.095-16.267-8.06-1.498-.84-3.158-1.531-4.828-1.87-2.78-.564-4.412.39-5.672 2.962-1.614 3.29-1.692 6.67.02 9.905.87 1.644 1.979 3.257 3.3 4.534 5.797 5.595 12.423 9.884 19.92 12.74 10.413 3.965 21.28 5.761 32.235 7.102"/><path fill="#FFFF17" d="M84.81 125.424c-2.762-.588-5.214-.393-5.214-.393s-.22 1.88-.338 3.652c-.278 4.187-.665 8.368-.968 12.554A8.457 8.457 0 0 1 78 143c1.913-.118 4.17-.179 5.838-.357 2.142-.229 2.485-.613 1.921-2.458-1.361-4.448-1.859-8.92-.961-13.483.083-.42.011-.863.011-1.278"/><path fill="#AAFF17" d="M88 146.754c-.212-.082-1.167-1.754-1.167-1.754s-7.46.73-9.763 1.916c-.096.049-.065.782-.065 1.084 3.473-.394 6.955-.787 10.995-1.246m-130.16 21.755c15.8 1.654 31.632 2.662 47.526 2.467a806.87 806.87 0 0 0 19.605-.492c11.665-.429 23.327-.936 34.988-1.428.659-.027 1.308-.225 1.944-.34.174-.647.356-1.08.398-1.527.44-4.66 2.397-8.735 5.53-12.089 2.063-2.209 2.704-4.677 3.169-7.795-1.078 0-1.764-.05-2.441.007-4.768.4-9.531.84-14.299 1.23-6.513.53-13.025 1.082-19.546 1.522-9.547.645-19.093 1.41-28.653 1.737-14.124.483-28.233-.082-42.337-1.09-15.138-1.086-29.733-4.394-43.994-9.371-8.471-2.958-16.29-6.954-22.35-13.721-1.328-1.483-3.016-2.12-4.878-2.458-2.83-.511-4.145.148-5.357 2.67-1.253 2.603-1.446 5.322-.733 8.098.77 2.992 2.397 5.458 4.717 7.53 12.035 10.759 26.027 17.793 41.8 21.4 8.2 1.874 16.553 2.773 24.91 3.65"/><path fill="#DFF" d="M65.689 56.704c-1.587-1.764-3.663-2.455-5.909-2.684-1.731-.177-2.96.835-3.152 2.552-.1.885.12 1.819.287 2.714.156.844.43 1.67.711 2.721-1.766-.603-3.17-1.139-4.61-1.559-1.552-.453-3.077-.303-4.191.96-.765.865-.264 2.576 1.221 3.96 1.258 1.173 2.702 2.15 4.064 3.215.005.226.008.452.011.678-1.379 0-2.76-.06-4.134.02-1.006.059-1.923.6-1.984 1.62-.041.703.418 1.482.801 2.143.212.364.707.595 1.114.816 4.69 2.55 9.678 4.045 15.074 4.14 1.501.024 2.692-.512 3.838-1.419 3.31-2.612 3.724-6.012 2.626-9.682-1.135-3.796-3.08-7.207-5.767-10.195"/><path fill="#CA82B2" d="M121.594 175.053c1.087-.653 3.632 4.898 4.382 7.412.134.442-.332 1.525-.55 1.533-.646.023-1.682-.147-1.897-.585-1.156-2.333-3.673-7.317-1.935-8.36m5.428.779c1.056-3.094 4.89 3.24 5.899 5.927.21.56.01 1.822-.696 2.153-.69.324-1.85-.318-2.088-.8-1.17-2.365-3.38-6.504-3.115-7.28m6.916-.809c.449-.102.834.157 1.046.364 1.766 1.709 2.725 3.85 3.012 6.272.046.387-.354 1.006-.717 1.211-.345.193-1.138.174-1.345-.079-1.623-1.98-2.843-4.187-2.934-6.83-.012-.314.533-.846.938-.938"/><path fill="#C1E5DB" d="M299.325 174.964c.368.735.639 1.511.783 2.336 1.214 6.886-6.92 16.251-12.043 18.824-13.325 6.693-76.15 12.635-147.983 13.104-17.8.116-33.264 2.579-35.971-18.165-8.624-3.027-16.658-8.306-16.16-18.735.484-10.125 8.426-13.526 17.193-14.145-4.143-6.658-8.302-13.453-10.755-20.976-2.67-8.188-2.994-17.17-.522-25.207a64.023 64.023 0 0 0-4.438 7.964c-1.67 3.559-2.423 7.348-2.361 11.33.087 5.567 1.418 10.727 4.293 15.478.972 1.606 1.906 3.243 2.74 4.926.253.508.112 1.218.183 2.338-1.107-.684-1.743-1.183-2.456-1.5-5.768-2.574-11.56-3.064-16.862.92-3.883 2.917-6.754 6.804-8.235 11.592a12.646 12.646 0 0 0-.462 2.066c-1.162 8.75 1.42 16.062 8.138 21.78 1.814 1.545 3.608 2.843 6.264 2.271 1.829-.393 3.599.177 5.025 2.037-1.238.305-2.25.497-3.226.805-2.186.69-3.938 2.007-5.134 4.006-2.7 4.508-1.31 9.93 3.308 12.433 3.194 1.731 6.674 2.698 10.238 3.345 5.758 1.046 11.57.953 17.374.82 8.468-.197 16.925-.575 25.405-.223 9.046.377 18.094 1.01 27.166.267 8.676-.712 17.38-1.107 26.055-1.823 8.906-.734 17.8-1.65 26.692-2.555 7.857-.8 15.705-1.666 23.553-2.553 8.886-1.008 17.762-2.128 26.655-3.098a2014.875 2014.875 0 0 1 27.725-2.809c2.038-.195 3.818-.866 5.504-1.989 6.663-4.438 8.237-8.855 6.09-16.635-.865-3.133-2.11-5.887-3.776-8.23M135.312 91.585c.945.423 1.837.899 2.688 1.415-1.341-4.782-2.104-10.955-2.067-17-1.769 3.62-2.707 7.518-2.92 11.612-.103 1.95.385 3.117 2.3 3.973"/><path fill="#FFF" d="M292 129.713c-2.483-2.546-5.525-3.611-9.17-3.137-.92.12-1.851.223-2.749.453-.837.213-1.634.581-2.454.883-.112-.381-.193-.5-.165-.588.164-.556.326-1.115.541-1.65 1.33-3.334 1.757-6.786 1.317-10.341-.33-2.672-.644-5.347-1.065-8.004-2.708-17.053-12.478-28.58-27.681-35.8-3.522-1.672-7.252-2.36-11.174-2.153-10.028.527-19.147 9.596-17.272 21.922.423 2.774 1.228 5.471 2.832 7.866 2.537 3.788 7.987 4.111 10.427 1.758.483-.466 1.037-.858 1.85-1.522 0 .83.134 1.32-.02 1.685-2.634 6.198-10.062 6.835-13.622 3.442-2.063-1.966-3.752-4.189-4.696-6.882-2.228-6.369-2.176-12.848-.69-19.366 1.805-3 .81-5.865-.485-8.669a28.968 28.968 0 0 0-2.237-3.961c-5.367-7.998-13.154-12.35-22.19-14.666-4.774-1.222-9.668-1.102-14.554-.717-8.432.663-16.464 2.785-24.016 6.652-5.622 2.879-10.124 6.897-13.727 11.79 1.592 5.42 3.38 9.965 4.206 11.505 6.52 12.143 17.605 17.985 30.978 17.698-5.515 7.971-3.643 16.918 3.169 23.602 9.248 9.075 22.386 11.13 34.497 8.11 1.087 14.285 22.548 28.399 32.166 20.594 10.02 9.049 18.624 11.43 31.072 5.621 9.991-4.663 12.859-15.503 14.912-26.125"/><path fill="#000" d="M205.408 78.962c-.704.381-1.169-2.215-1.49-3.013-3.042-7.555-8.83-11.475-16.448-12.976-3.78-.744-7.443-.284-11.008 1.143-.421.17-.847.432-1.276.448-.383.016-.979-.145-1.112-.417-.154-.313-.056-1.038.195-1.23 1.342-1.03 2.672-2.163 4.182-2.864 2.886-1.34 6.047-1.194 9.05-.697 7.209 1.191 12.882 4.994 16.667 11.416.907 1.538 1.299 3.428 1.732 5.207.165.67.2 2.608-.492 2.983m-17.44-5.957c2.973.328 5.909 1.518 7.832 4.424.611.924.946 2.077 1.19 3.173.089.405-.4.993-.75 1.387-.07.076-.9-.257-1.06-.566-1.967-3.783-4.904-6.02-9.297-6.177-.328-.01-.776-.746-.88-1.209-.05-.23.53-.64.873-.902.162-.124.44-.113.668-.125.346-.019.692-.005 1.424-.005"/><path fill="#000" d="M-109.045 91.167c1.432-1.314 3.233-1.42 4.953-.953.768.208 1.594 1.032 1.946 1.786.884 1.903 1.591 3.9 2.229 5.904 1.427 4.485 3.249 8.751 5.872 12.7 4.602 6.931 10.837 11.66 18.796 13.832 4.826 1.318 9.803 2.166 14.761 2.908 11.52 1.725 23.094.823 34.653.416 1.518-.054 3.032-.172 4.55-.23 18.686-.717 37.37-1.448 56.056-2.137 11.68-.431 23.363-.805 35.044-1.186 1.25-.04 2.909-.024 4.087-.004-.049 2.211-.267 4.073-.488 5.896a472.232 472.232 0 0 1-1.508 11.49c-.28 1.93-.484 2.095-2.45 2.31-2.554.279-5.117.494-7.678.696-10.252.808-20.501 1.628-30.756 2.392-6.407.476-12.82.917-19.236 1.278-12.034.679-24.073.412-36.107-.036-18.54-.691-36.655-3.543-54.315-9.607-12.104-4.158-21.798-11.029-28.984-21.562-1.055-1.548-2.089-3.11-3.17-4.638-2.39-3.377-3.294-7.128-3.295-11.254-.002-4.273 2.11-7.314 5.04-10.001zM-98.587 78.9c.997-6.804 4.314-12.36 9.416-16.798 5.374-4.673 14.092-3.588 18.5 2 2.476 3.139 3.238 9.124-1.603 12.391-.97.654-1.952 1.295-2.894 1.987-4.799 3.52-6.498 9.536-4.216 15.004 1.582 3.788 4.058 6.788 7.652 8.875 4.934 2.864 10.294 4.386 15.85 5.372 6.77 1.203 13.514.49 20.271-.12 7.679-.695 15.358-1.43 23.048-1.97a863.212 863.212 0 0 1 23.806-1.308c8.641-.364 17.288-.703 25.936-.796 10.757-.115 21.515.033 32.273.067.234 0 .468-.004.702.003 1.284.035 2.688.111 2.688.111s.18 1.396.302 2.689c.385 4.08.623 8.175.877 12.267.048.791-.114 1.595-.2 2.646-.84.1-1.295.189-1.754.203-9.347.285-18.7.494-28.045.856-13.903.54-27.797 1.221-41.699 1.777-8.995.36-17.996.608-26.994.897-7.478.239-14.957.637-22.435.648-8.678.014-17.236-1.233-25.675-3.284-10.12-2.46-17.201-8.66-21.735-17.89-3.98-8.1-5.383-16.66-4.07-25.627zm191.464 73.35c.718.315 1.357.81 2.471 1.489-.07-1.111.07-1.816-.183-2.32-.84-1.67-1.779-3.295-2.757-4.888-2.893-4.716-4.232-9.837-4.32-15.36-.062-3.954.695-7.714 2.376-11.246 3.625-7.61 8.472-14.357 15.168-19.52 9.048-6.975 18.97-7.932 29.39-3.371 4.217 1.845 7.362 4.88 9.237 9.18 1.437 3.295 1.54 6.571.125 9.88-1.296 3.03-3.97 5.17-8.042 5.235-4.072.065-7.42-3.685-7.237-7.908.033-.79.237-1.571.446-2.892-3.416 2.351-4.293 5.738-2.949 9.226 1.588 4.127 8.635 8.647 14.444 6.096 5.005-2.198 7.893-6.124 8.871-11.424.583-3.152.209-6.237-.934-9.313-2.415-6.51-6.68-11.246-12.98-14.013-1.989-.872-2.496-2.06-2.39-4.049.235-4.408 1.297-8.6 3.345-12.462 4.1-7.736 9.81-13.96 17.699-17.974 7.6-3.869 15.685-5.991 24.17-6.655 4.918-.385 9.844-.505 14.648.718 9.095 2.316 16.933 6.67 22.334 14.67a28.93 28.93 0 0 1 2.251 3.963c1.303 2.805 2.305 5.67.489 8.671-1.496 6.52-1.549 13.002.694 19.373.95 2.694 2.65 4.917 4.727 6.885 3.582 3.393 11.058 2.756 13.709-3.444.156-.364.02-.855.02-1.685-.818.664-1.376 1.056-1.86 1.522-2.457 2.354-7.942 2.031-10.496-1.758-1.615-2.396-2.424-5.094-2.85-7.87-1.887-12.33 7.29-21.401 17.384-21.929 3.947-.206 7.701.482 11.246 2.155 15.301 7.22 25.134 18.753 27.86 35.811.424 2.658.74 5.334 1.072 8.007.442 3.556.012 7.009-1.326 10.344-.216.536-.38 1.095-.544 1.65-.028.088.052.208.165.59.825-.303 1.628-.671 2.47-.884.904-.23 1.841-.334 2.767-.453 4.032-.521 7.336.796 9.958 3.92 6.415 7.643 7.583 18.961 2.655 27.659-.958 1.691-2.47 3.091-3.84 4.517-1.118 1.164-2.408 2.166-3.917 3.501.928.44 1.481.798 2.087.975 8.048 2.36 12.692 7.886 14.91 15.806 2.159 7.72.575 12.104-6.129 16.51-1.695 1.113-3.487 1.78-5.537 1.973a2054.25 2054.25 0 0 0-27.895 2.788c-8.946.962-17.876 2.074-26.816 3.074-7.896.88-15.793 1.74-23.697 2.533-8.947.898-17.894 1.808-26.855 2.536-8.728.71-17.484 1.104-26.214 1.81-9.127.737-18.23.109-27.332-.265-8.532-.35-17.04.026-25.56.22-5.84.133-11.686.225-17.48-.812-3.585-.643-7.086-1.602-10.3-3.32-4.645-2.484-6.044-7.865-3.328-12.34 1.204-1.983 2.966-3.29 5.165-3.975.982-.306 2-.496 3.246-.799-1.435-1.846-3.215-2.411-5.056-2.021-2.672.568-4.476-.721-6.302-2.254-6.758-5.675-9.357-12.93-8.187-21.615.094-.693.255-1.384.464-2.05 1.49-4.752 4.38-8.61 8.285-11.504 5.336-3.955 11.163-3.468 16.965-.914zm-15.457-6.315c2.1-1.168 8.909-1.887 8.909-1.887s.871 1.647 1.064 1.728l-10.032 1.227c0-.297-.028-1.02.059-1.068zm7.671-5.948c.5 1.892.197 2.285-1.706 2.52-1.481.183-3.485.245-5.183.366.17-.71.225-1.284.257-1.807.269-4.29.612-8.576.86-12.868.104-1.817.3-3.744.3-3.744s2.177-.2 4.629.402c0 .426.064.88-.01 1.31-.797 4.677-.355 9.263.853 13.821zm9.76-36.325c-1.09 1.739-2.042 3.067-2.799 4.497-2.078 3.928-4.128 7.874-6.07 11.87-.537 1.1-1.126 1.667-2.362 1.602-1.273-.066-2.55-.015-4.107-.015-.34-3.12-.637-5.999-.972-8.874-.336-2.886-.754-6.122-1.105-8.96 3.061-.229 11.517-.729 17.415-.12zM72.757 210.205c-17.523-.645-35.047-.992-52.58-.515-9.341.253-18.682.55-28.024.734-11.109.219-22.188-.364-33.25-1.38-3.136-.288-6.303-.336-9.456-.338-9.884-.008-19.54-1.609-29.044-4.172-2.574-.696-5.057-1.796-7.516-2.862-5.643-2.445-9.422-6.758-11.997-12.258-.72-1.534-1.054-3.084-.806-4.766.411-2.807 1.708-3.656 4.353-2.77 1.108.37 2.183.831 3.27 1.262 8.816 3.494 17.771 6.566 27.181 7.965 7.74 1.152 15.504 2.178 23.285 2.986 17.94 1.864 35.936 1.69 53.939 1.297 19.513-.426 39.029-.694 58.545-1.028 1.04-.017 2.083-.002 3.452-.002-2.336 8.517-2.331 8.594.958 15.75-.84.037-1.577.123-2.31.097zm-176.914-39.409c-1.332-1.262-2.449-2.855-3.325-4.48-1.725-3.196-1.647-6.534-.02-9.785 1.269-2.54 2.913-3.482 5.714-2.925 1.682.334 3.354 1.017 4.864 1.846 5.335 2.93 10.672 5.813 16.39 7.963 8.151 3.064 16.606 4.828 25.192 5.956 15.074 1.976 30.202 3.433 45.41 3.761a619.19 619.19 0 0 0 43.136-.597c8.174-.393 16.355-.648 24.533-.966.701-.028 1.403-.05 2.103-.097 1.111-.075 1.782.397 1.939 1.527.08.58.136 1.163.222 1.744.888 6.135 3.41 11.406 8.193 15.465.354.3.79.501 1.187.749.724.376 2.537 1.066-.398.84-1.149 0-2.298-.006-3.446.002-12.746.102-25.492.144-38.237.33-9.352.136-18.703.448-28.052.702a360.623 360.623 0 0 1-52.86-2.434c-11.037-1.325-21.986-3.1-32.476-7.017-7.554-2.82-14.23-7.058-20.07-12.584zm-5.365-28.087c-2.323-2.106-3.95-4.611-4.722-7.651-.714-2.82-.521-5.583.733-8.228 1.214-2.563 2.53-3.232 5.363-2.713 1.865.343 3.553.991 4.884 2.497 6.067 6.876 13.894 10.936 22.375 13.94 14.276 5.057 28.887 8.419 44.042 9.521 14.12 1.026 28.244 1.6 42.384 1.108 9.571-.331 19.128-1.11 28.685-1.765 6.529-.446 13.048-1.007 19.568-1.546 4.773-.396 9.542-.844 14.315-1.249.677-.058 1.364-.008 2.443-.008-.465 3.17-1.106 5.676-3.172 7.922-3.137 3.406-5.095 7.547-5.536 12.28-.042.454-.225.895-.398 1.552-.637.117-1.288.318-1.947.346-11.674.5-23.35 1.015-35.026 1.45-6.54.243-13.084.418-19.627.5-15.912.2-31.762-.825-47.58-2.507-8.366-.89-16.728-1.804-24.937-3.708-15.792-3.664-29.797-10.811-41.847-21.741zM68.38 76.524c-1.141.92-2.327 1.465-3.821 1.44-5.374-.096-10.34-1.614-15.012-4.204-.404-.224-.898-.459-1.108-.828-.382-.672-.84-1.462-.799-2.176.061-1.036.974-1.585 1.976-1.646 1.368-.08 2.744-.02 4.117-.02-.003-.23-.006-.458-.011-.688-1.356-1.08-2.794-2.074-4.047-3.264-1.479-1.406-1.978-3.143-1.216-4.022 1.109-1.282 2.628-1.434 4.174-.974 1.433.426 2.832.97 4.59 1.583-.279-1.068-.552-1.906-.707-2.764-.166-.908-.386-1.857-.286-2.755.19-1.744 1.414-2.771 3.139-2.592 2.236.233 4.303.934 5.883 2.726 2.676 3.034 4.613 6.497 5.743 10.352 1.093 3.726.681 7.18-2.615 9.832zm221.83-4.295c-4.238.064-8.364-.768-12.38-2.079-1.416-.461-3.074-.956-2.994-2.924.076-1.918 1.63-2.352 3.143-2.736.1-.025.179-.138.358-.284-.889-.956-1.72-1.638-2.272-2.5-.614-.956-1.233-2.04-1.389-3.135-.39-2.752 1.931-4.749 4.638-4.045.985.255 1.888.876 2.78 1.407.678.404 1.282.932 2.026 1.484.75-1.166.344-2.185.188-3.155-.53-3.3 2.472-5.11 5.14-3.878.941.434 1.865 1.002 2.634 1.69 3.694 3.292 5.513 7.497 5.594 12.412.068 4.141-3.336 7.679-7.467 7.743zm-403.436 47.536c-.11.339-.122.468-.187.558a3.272 3.272 0 0 1-.46.526c-4.937 4.361-6.018 9.81-4.42 15.97 1.137 4.385 3.74 7.756 7.39 10.359 1.114.794 2.218 1.604 3.282 2.374-.2.428-.25.675-.397.824-5.644 5.766-6.435 13.991-1.727 20.467 1.493 2.055 3.51 3.732 5.337 5.532.647.64 1.44 1.134 2.247 1.755-.51.947-.998 1.73-1.37 2.563-1.354 3.013-1.715 6.17-.432 9.227 2.695 6.419 6.616 11.748 13.102 14.978 4.873 2.427 10.05 3.925 15.236 5.149 5.772 1.36 11.746 1.949 17.665 2.546 4.642.468 9.337.39 14.004.64 9.099.487 18.193 1.047 27.29 1.549 3.028.166 6.062.374 9.088.33 4.673-.072 9.348-.278 14.014-.542 13.547-.766 27.1-1.024 40.666-.85 4.79.062 9.586-.159 14.379-.144 5.139.016 10.277.159 15.413.242 2.13.035 4.145.515 6.135 1.293 3.5 1.368 7.15 2.026 10.896 2.472 6.67.793 13.298.245 19.956.058 7.46-.21 14.873-.989 22.397-.487 17.173 1.147 34.342.335 51.471-1.307 9.766-.937 19.542-1.77 29.307-2.7 7.677-.732 15.343-1.55 23.015-2.32 11.28-1.134 22.557-2.273 33.84-3.384 5-.494 10.018-.815 15.005-1.422 3.929-.479 7.917-.934 11.709-2.008 7.525-2.133 11.972-9.21 10.931-17.032-.982-7.387-3.949-13.928-8.943-19.498-.774-.866-1.591-1.693-2.466-2.62.453-.643.828-1.225 1.25-1.772 4.535-5.875 7.228-12.546 8.539-19.81 1.522-8.447 1.978-16.981 2.057-25.548.064-6.815-.417-13.57-1.736-20.27-1.506-7.65-4.163-14.882-7.732-21.776-1.341-2.587-2.076-5.132-1.389-8.065.483-2.074.395-4.236-.416-6.234-1.052-2.6-2.054-5.262-3.48-7.656-1.874-3.149-4.29-5.83-8.083-6.872-2.812-.774-5.066-.036-6.912 2.11-.584.678-1.015 1.485-1.486 2.19-1.013-.196-1.807-.44-2.61-.49-4.42-.272-7.438 2.643-7.21 7.039.06 1.145.372 2.31.762 3.396.355.99.273 1.664-.4 2.537-2.158 2.8-1.931 5.219.507 7.775 1.592 1.67 3.596 2.628 5.759 3.198 5.226 1.378 10.533 2.117 15.95 1.49 2.923-.339 2.64.03 3.752 2.061 5.574 10.168 8.038 21.194 8.836 32.64.618 8.905.306 17.809-.635 26.684-.192 1.802-.423 3.613-1.183 6.141-.367-1.175-.522-1.557-.604-1.955-.516-2.523-.762-5.134-1.57-7.559-2.227-6.701-6.55-11.247-13.775-12.494l-2.083-.363c-.112-.608-.237-1.047-.267-1.492-.201-3.037-.297-6.082-.581-9.11-1.292-13.693-7.142-25.112-17.33-34.27-5.624-5.057-11.883-9.148-19.24-11.207-8.282-2.317-15.97-1.145-22.772 4.42-.448.366-.917.707-1.368 1.054-1.468-2.613-2.663-5.31-4.351-7.648-8.876-12.282-20.988-18.38-36.086-17.99-9.393.244-18.55 2.164-27.354 5.586-8.837 3.436-16.187 8.784-21.666 16.63-3.991 5.716-6.237 12.012-6.624 18.979-.039.673-.15 1.344-.262 2.317-2.583 0-5.012-.022-7.442.005-3.79.04-7.382.847-10.82 2.53-3.714 1.815-7.143 3.997-10.077 6.914-.882.877-1.806 1.272-3.096 1.253-5.846-.086-11.69-.047-17.535-.075-.913-.004-1.827-.118-2.781-.185-.205-.56-.405-.977-.507-1.416-1.305-5.58-2.58-11.164-3.903-16.74-.245-1.033.129-1.792.678-2.597 1.797-2.635 2.327-5.587 2.024-8.717-.45-4.65-2.134-8.865-4.658-12.741-1.62-2.49-3.76-4.462-6.418-5.85-2.157-1.123-4.436-1.421-6.808-1.153-2.173.246-3.727 1.266-4.243 3.545-.172.761-.44 1.5-.645 2.187-7.529-.103-10.505 4.467-5.714 11.252-3.64 3.642-3.552 6.397.25 10.066 2.264 2.186 4.943 3.62 8.02 4.025 3.463.454 6.972.58 10.461.845.796.06 1.594.105 2.396.158 2.205 5.48 3.53 11.036 4.337 17.223-1.318.103-2.344.249-3.372.25-3.858.007-7.716-.057-11.575-.05-8.886.015-17.774-.074-26.655.126-7.476.17-14.942.705-22.415 1.044-6.888.312-13.817.22-20.66.955-8.604.924-17.235 1.282-25.846 1.975-5.254.423-10.487.744-15.735-.042-5.243-.784-10.287-2.137-14.917-4.824-2.182-1.268-3.874-2.961-5.058-5.213-2.512-4.773-1.575-8.826 2.826-11.942 1.05-.743 2.127-1.454 3.125-2.26 5.228-4.224 5.429-11.487 2.265-16.187-5.093-7.568-16.7-11.385-25.558-4.11-7.482 6.143-11.694 14.2-11.797 24.125-.009.784-.105 1.566-.171 2.51-1.14.058-2.053.105-2.966.15-1.809.09-3.46.681-4.853 1.81-4.576 3.71-7.484 8.313-7.512 14.426-.025 5.431 1.844 10.324 4.19 15.083.507 1.032 1.107 2.018 1.585 2.88z"/><path fill="#000" d="M181.397 172.85c.77-.488 1.59-.93 2.445-1.239 7.903-2.857 15.704-2.635 23.36.917.703.326 1.313.86 2.43 1.606-6.838 5.383-13.817 7.668-21.88 5.359-2.584-.74-4.804-2.15-6.622-4.151-.997-1.097-.936-1.73.267-2.492zm2.923-15.611a55.887 55.887 0 0 1 4.79-.566c5.721-.422 11.443-.514 17.866-.043-.65 1.109-.848 1.85-1.325 2.175-1.034.7-2.157 1.353-3.336 1.73-5.038 1.613-10.165 1.81-15.283.46-1.165-.307-2.294-1.014-3.253-1.775-.944-.75-.619-1.793.541-1.981zm-6.96 20.682c4.519 5.715 10.619 7.034 17.307 7.078 7.067.05 12.563-3.055 17.45-8.517.96 1.13 3.825 3.645 4.883 4.06-1.307-3.096-2.416-5.6-3.423-8.143-1.025-2.597-1.532-5.291-1.446-8.116.088-2.889.13-5.743 1.047-8.547.834-2.546 1.528-4.55 3.553-7.736-2.237 1.204-3.53 2.671-4.757 4.155-.922 1.12-1.888 1.437-3.298 1.154-9.367-1.878-18.694-1.611-27.975.654-1.077.263-2.199.341-3.279.503-.669-1.336-1.187-2.49-1.813-3.582a12.263 12.263 0 0 0-1.61-2.225c-.248-.272-.881-.45-1.19-.318-.253.108-.444.774-.375 1.136.128.668.48 1.29.718 1.94 3.487 9.57 3.473 18.961-1.403 28.113-.532.997-.984 2.037-1.749 3.632 3.792-.59 4.941-3.707 7.36-5.241zm-17.418-14.812c-.962-5.788-5.21-9.88-10.203-11.858l.02-.058c.27-.823.544-1.641.71-2.489.114-.246.175-.513.156-.819-.004-.08-.03-.153-.043-.229a1.785 1.785 0 0 0-.53-1.104 1.91 1.91 0 0 0-1.333-.552l-.184.012-.117.013c-.25.03-.501.093-.75.232a1.802 1.802 0 0 0-.826 1.002c-.08.194-.133.403-.147.626-.008.143.002.276.025.403-.109.622-.326 1.28-.496 1.941-2.095-.397-4.217-.435-6.198-.082-.306-.795-.64-1.576-.91-2.383-.68-2.05-3.842-1.675-3.9.507l-.005.193c-.015.545.182.964.487 1.267.236.531.475 1.06.713 1.593-1.778.866-3.403 2.115-4.755 3.608-.072-.053-.134-.097-.214-.16-.698-.555-1.404-1.102-2.098-1.66-.82-.66-1.971-.773-2.777 0-.976.936-.593 2.238.397 2.959.845.615 1.703 1.214 2.552 1.825-1.147 2.046-1.812 4.301-1.778 6.533.017 1.107.432 2.234.821 3.298.153.42.737.696 1.395 1.273.311-1.035.577-1.66.681-2.307.456-2.856 2-5.177 3.972-7.228 2.082-2.165 4.58-3.66 7.766-3.937 6.098-.53 11.912 2.955 14.152 8.586.456 1.147.824 2.326 1.351 3.83.74-.639 1.511-.987 1.669-1.507.32-1.062.574-2.258.397-3.328m97.893-11.023c.134-.157.266-.319.39-.483l.066-.12c.689-.474.923-1.409.49-2.136-.42-.705-1.518-1.094-2.246-.58-.72.51-1.078 1.218-1.551 1.93a13.24 13.24 0 0 0-4.324-2.92c-.362-.153-.72-.278-1.077-.402.237-.68.342-1.428.459-2.156.15-.941-.23-1.878-1.244-2.152-1.192-.323-2.15.57-2.253 1.687-.06.66-.192 1.262-.293 1.889a12.022 12.022 0 0 0-5.986.972c-.278-.743-.562-1.484-.781-2.247-.32-1.12-1.667-1.67-2.696-1.078-.82.472-1.195 1.697-.669 2.502.254.699.543 1.384.84 2.067.081.188.156.386.233.585-.396.3-.788.613-1.174.955-4.396 3.907-5.81 8.78-4.61 14.43.068.318.282.658.532.87.227.193.592.29.9.3.159.006.425-.244.473-.424.212-.775.333-1.574.536-2.352.928-3.559 2.718-6.632 5.553-9.043 3.004-2.555 7.066-2.835 10.476-.831 2.09 1.227 3.574 2.99 4.512 5.165.725 1.684 1.301 3.43 2.024 5.365 1.447-.608 1.674-1.606 1.842-2.65.455-2.864-.048-5.613-1.342-7.947.16-.213.314-.429.472-.642.14-.19.297-.372.448-.554M93.007 206.999c-2.924.062-6.458-2.435-6.918-4.653-.268-1.287.064-2.461 1.07-3.454.575-.564 1.29-.958 2.18-.883.365.031.78.226 1.022.463.116.114-.067.522-.202.758-.184.32-.505.583-.675.906-.716 1.361-.518 2.575.774 3.554.799.605 1.798 1.012 2.732 1.472.523.258 1.183.52.968 1.09-.142.373-.766.61-.95.747M86 185.464c-1.593.887-2.643.499-3.689.075-5.068-2.06-8.182-7.96-7.095-13.408.53-2.652 2.001-4.557 4.3-5.822.762-.42 1.516-.506 2.057.344.451.707.188 1.426-.424 1.782-1.907 1.108-2.96 2.68-3.088 4.962-.154 2.761.476 5.277 2.24 7.36.94 1.108 2.14 1.99 3.257 2.93.663.556 1.398 1.022 2.442 1.777"/><path fill="#FF526D" d="M-72.73 121.743c8.434 2.034 16.987 3.271 25.66 3.257 7.474-.01 14.95-.406 22.423-.643 8.993-.287 17.989-.532 26.98-.889 13.893-.552 27.78-1.228 41.676-1.763 9.34-.36 18.687-.567 28.03-.85.458-.013.913-.102 1.753-.2.085-1.043.248-1.84.199-2.625-.255-4.06-.491-8.122-.876-12.17-.122-1.282-.302-2.666-.302-2.666s-1.403-.076-2.686-.111c-.163-.005-.327-.003-.49-.003h-.212c-10.752-.033-21.504-.18-32.255-.066-8.644.092-17.286.43-25.923.79-7.935.332-15.868.747-23.792 1.297-7.687.535-15.361 1.265-23.036 1.954-6.753.605-13.495 1.313-20.26.12-5.553-.978-10.91-2.489-15.842-5.33-3.591-2.07-6.066-5.046-7.647-8.803-2.28-5.425-.583-11.392 4.214-14.885.941-.686 1.922-1.321 2.892-1.97 4.839-3.24 4.077-9.178 1.602-12.292-4.405-5.543-13.119-6.62-18.49-1.984-5.099 4.402-8.414 9.914-9.41 16.663-1.312 8.896.09 17.386 4.068 25.422 4.532 9.155 11.608 15.307 21.724 17.747"/><path fill="#FFFF17" d="M-107.534 115.769c7.186 10.404 16.881 17.191 28.986 21.299 17.66 5.99 35.776 8.807 54.319 9.49 12.034.442 24.074.705 36.108.035 6.417-.357 12.83-.791 19.238-1.263 10.256-.754 20.505-1.563 30.758-2.363a256.27 256.27 0 0 0 7.679-.687c1.966-.212 2.17-.375 2.45-2.28a461.637 461.637 0 0 0 1.508-11.351c.22-1.802.44-3.64.488-5.825-1.178-.02-2.837-.036-4.088.004-11.681.377-23.364.746-35.044 1.172-18.689.68-37.374 1.402-56.062 2.11-1.517.057-3.033.175-4.55.228-11.56.401-23.135 1.293-34.655-.41-4.958-.733-9.936-1.572-14.762-2.874-7.96-2.145-14.194-6.817-18.798-13.664-2.624-3.9-4.445-8.114-5.872-12.545-.638-1.98-1.345-3.952-2.23-5.831-.35-.745-1.177-1.56-1.946-1.764-1.719-.461-3.52-.357-4.952.94-2.93 2.655-5.043 5.659-5.041 9.88 0 4.075.906 7.78 3.295 11.116 1.082 1.51 2.116 3.053 3.17 4.583"/><path fill="#DFF" d="M171.069 179.583c4.93-9.248 4.944-18.74 1.419-28.41-.24-.657-.597-1.285-.726-1.96-.07-.366.123-1.039.378-1.148.313-.133.953.047 1.205.321a12.393 12.393 0 0 1 1.627 2.248c.633 1.104 1.157 2.27 1.833 3.62 1.093-.163 2.227-.242 3.316-.508 9.384-2.29 18.814-2.559 28.285-.66 1.427.285 2.403-.036 3.336-1.167 1.24-1.5 2.548-2.982 4.81-4.199-2.048 3.22-2.75 5.246-3.593 7.818-.928 2.834-.97 5.718-1.058 8.638-.088 2.854.425 5.576 1.462 8.2 1.018 2.571 2.14 5.1 3.46 8.23-1.07-.42-3.966-2.96-4.938-4.103-4.94 5.52-10.497 8.657-17.643 8.607-6.763-.045-12.93-1.377-17.499-7.153-2.446 1.55-3.609 4.701-7.443 5.297.774-1.612 1.231-2.663 1.769-3.67zM66.73 164.591a12.392 12.392 0 0 0-.462 2.043c-1.162 8.656 1.42 15.888 8.138 21.544 1.814 1.528 3.608 2.812 6.264 2.246 1.829-.389 3.599.175 5.025 2.015-1.238.302-2.25.491-3.226.796-2.186.684-3.938 1.986-5.134 3.962-2.7 4.46-1.31 9.824 3.308 12.299 3.194 1.712 6.674 2.668 10.238 3.308 5.758 1.034 11.57.942 17.374.81 8.468-.193 16.925-.568 25.405-.219 9.046.372 18.094.999 27.166.264 8.676-.704 17.38-1.095 26.055-1.804 8.906-.726 17.8-1.632 26.692-2.527 7.857-.79 15.705-1.647 23.553-2.525 8.886-.997 17.762-2.105 26.655-3.064 9.234-.997 18.478-1.908 27.725-2.778 2.038-.193 3.818-.858 5.504-1.968 6.663-4.39 8.237-8.76 6.09-16.454-2.204-7.894-6.82-13.401-14.818-15.754-.602-.176-1.152-.533-2.074-.971 1.5-1.331 2.781-2.33 3.892-3.49 1.363-1.42 2.865-2.817 3.818-4.502 4.897-8.67 3.737-19.95-2.64-27.568-2.606-3.113-5.89-4.426-9.897-3.906-.92.118-1.852.222-2.75.451-.837.212-1.635.58-2.455.88-.112-.38-.193-.499-.165-.586.164-.554.327-1.111.541-1.646 1.33-3.323 1.757-6.765 1.318-10.31-.33-2.663-.644-5.33-1.066-7.98-2.71-17.001-12.482-28.495-27.69-35.692-3.523-1.667-7.255-2.353-11.179-2.147-10.031.526-19.153 9.568-17.278 21.857.423 2.766 1.228 5.455 2.833 7.843 2.538 3.776 7.99 4.098 10.431 1.752.483-.465 1.037-.855 1.85-1.517 0 .828.135 1.317-.02 1.68-2.635 6.18-10.065 6.814-13.626 3.432-2.065-1.961-3.754-4.177-4.698-6.862-2.23-6.35-2.177-12.81-.69-19.309 1.805-2.99.81-5.847-.486-8.642a28.855 28.855 0 0 0-2.237-3.95c-5.369-7.973-13.159-12.313-22.2-14.622-4.774-1.219-9.67-1.099-14.558-.715-8.434.662-16.47 2.777-24.024 6.633-7.842 4.001-13.516 10.204-17.592 17.914-2.035 3.85-3.091 8.027-3.323 12.421-.106 1.982.398 3.167 2.374 4.036 6.262 2.757 10.5 7.477 12.901 13.966 1.136 3.066 1.508 6.14.93 9.282-.974 5.283-3.844 9.195-8.818 11.386-5.774 2.543-12.779-1.962-14.356-6.075-1.336-3.477-.465-6.853 2.93-9.196-.208 1.316-.41 2.096-.443 2.883-.181 4.209 3.146 7.946 7.193 7.881 4.048-.065 6.705-2.197 7.993-5.218 1.407-3.297 1.304-6.562-.124-9.846-1.863-4.286-4.99-7.311-9.182-9.15-10.356-4.546-20.217-3.592-29.211 3.36-6.655 5.146-11.473 11.87-15.076 19.455-1.67 3.52-2.423 7.268-2.361 11.208.087 5.505 1.418 10.61 4.293 15.31.972 1.587 1.906 3.206 2.74 4.87.253.503.112 1.206.183 2.314-1.107-.677-1.743-1.17-2.456-1.484-5.768-2.546-11.56-3.031-16.862.91-3.883 2.886-6.754 6.73-8.235 11.466z"/><path fill="#FF526D" d="M188.27 179.083c8.007 2.364 14.938.024 21.73-5.488-1.11-.764-1.715-1.31-2.414-1.645-7.603-3.637-15.351-3.865-23.2-.938-.85.315-1.665.768-2.43 1.268-1.194.78-1.255 1.428-.265 2.552 1.806 2.05 4.011 3.493 6.578 4.25M79.027 120.98c1.521 0 2.767-.05 4.01.015 1.206.064 1.782-.495 2.305-1.579 1.896-3.937 3.897-7.826 5.926-11.697.738-1.41 1.667-2.718 2.732-4.432-5.758-.6-14.012-.107-17 .117.343 2.798.75 5.987 1.079 8.831.327 2.834.617 5.67.948 8.746"/><path fill="#5565B2" d="M69.423 193.066c-15.83.392-31.66.707-47.488 1.208-14.602.462-29.2.666-43.751-1.524-6.312-.95-12.61-2.157-18.887-3.51-7.633-1.645-14.897-5.255-22.048-9.362-.881-.506-1.754-1.048-2.652-1.483-2.146-1.042-3.197-.044-3.531 3.255-.201 1.977.07 3.8.653 5.602 2.089 6.464 5.155 11.534 9.732 14.407 1.995 1.253 4.008 2.547 6.097 3.365 7.709 3.011 15.54 4.894 23.557 4.903 2.558.002 5.127.058 7.67.397 8.974 1.195 17.96 1.879 26.97 1.622 7.579-.216 15.155-.564 22.732-.862 14.222-.56 28.436-.153 42.65.605.594.03 1.191-.07 1.873-.114-2.668-8.41-2.671-8.501-.777-18.512-1.11 0-1.956-.018-2.8.003z"/><path fill="#FFF" d="M184.557 160.127c.97.818 2.11 1.58 3.287 1.91 5.173 1.452 10.354 1.241 15.445-.494 1.192-.407 2.326-1.11 3.372-1.863.481-.349.682-1.147 1.339-2.34-6.492-.508-12.274-.409-18.056.046a52.88 52.88 0 0 0-4.84.609c-1.172.202-1.5 1.325-.547 2.132"/><path fill="#70FFD9" d="M-51.288 191.4a351.028 351.028 0 0 0 52.467 2.463c9.279-.258 18.56-.573 27.843-.711 12.65-.188 25.3-.23 37.952-.333 1.139-.009 2.28-.002 3.42-.002 2.912.228 1.114-.47.395-.851-.395-.25-.827-.455-1.178-.758-4.747-4.109-7.252-9.444-8.132-15.655-.085-.588-.14-1.178-.22-1.766-.156-1.143-.822-1.621-1.924-1.545-.695.049-1.393.07-2.088.098-8.118.323-16.237.58-24.35.978a602.62 602.62 0 0 1-42.815.604c-15.095-.333-30.111-1.807-45.073-3.807-8.521-1.141-16.913-2.927-25.005-6.029-5.674-2.175-10.972-5.095-16.267-8.06-1.498-.84-3.158-1.531-4.828-1.87-2.78-.564-4.412.39-5.672 2.962-1.614 3.29-1.692 6.67.02 9.905.87 1.644 1.979 3.257 3.3 4.534 5.797 5.595 12.423 9.884 19.92 12.74 10.413 3.965 21.28 5.761 32.235 7.102"/><path fill="#FFFF17" d="M84.81 125.424c-2.762-.588-5.214-.393-5.214-.393s-.22 1.88-.338 3.652c-.278 4.187-.665 8.368-.968 12.554A8.457 8.457 0 0 1 78 143c1.913-.118 4.17-.179 5.838-.357 2.142-.229 2.485-.613 1.921-2.458-1.361-4.448-1.859-8.92-.961-13.483.083-.42.011-.863.011-1.278"/><path fill="#AAFF17" d="M88 146.754c-.212-.082-1.167-1.754-1.167-1.754s-7.46.73-9.763 1.916c-.096.049-.065.782-.065 1.084 3.473-.394 6.955-.787 10.995-1.246m-130.16 21.755c15.8 1.654 31.632 2.662 47.526 2.467a806.87 806.87 0 0 0 19.605-.492c11.665-.429 23.327-.936 34.988-1.428.659-.027 1.308-.225 1.944-.34.174-.647.356-1.08.398-1.527.44-4.66 2.397-8.735 5.53-12.089 2.063-2.209 2.704-4.677 3.169-7.795-1.078 0-1.764-.05-2.441.007-4.768.4-9.531.84-14.299 1.23-6.513.53-13.025 1.082-19.546 1.522-9.547.645-19.093 1.41-28.653 1.737-14.124.483-28.233-.082-42.337-1.09-15.138-1.086-29.733-4.394-43.994-9.371-8.471-2.958-16.29-6.954-22.35-13.721-1.328-1.483-3.016-2.12-4.878-2.458-2.83-.511-4.145.148-5.357 2.67-1.253 2.603-1.446 5.322-.733 8.098.77 2.992 2.397 5.458 4.717 7.53 12.035 10.759 26.027 17.793 41.8 21.4 8.2 1.874 16.553 2.773 24.91 3.65"/><path fill="#DFF" d="M65.689 56.704c-1.587-1.764-3.663-2.455-5.909-2.684-1.731-.177-2.96.835-3.152 2.552-.1.885.12 1.819.287 2.714.156.844.43 1.67.711 2.721-1.766-.603-3.17-1.139-4.61-1.559-1.552-.453-3.077-.303-4.191.96-.765.865-.264 2.576 1.221 3.96 1.258 1.173 2.702 2.15 4.064 3.215.005.226.008.452.011.678-1.379 0-2.76-.06-4.134.02-1.006.059-1.923.6-1.984 1.62-.041.703.418 1.482.801 2.143.212.364.707.595 1.114.816 4.69 2.55 9.678 4.045 15.074 4.14 1.501.024 2.692-.512 3.838-1.419 3.31-2.612 3.724-6.012 2.626-9.682-1.135-3.796-3.08-7.207-5.767-10.195"/><path fill="#CA82B2" d="M121.594 175.053c1.087-.653 3.632 4.898 4.382 7.412.134.442-.332 1.525-.55 1.533-.646.023-1.682-.147-1.897-.585-1.156-2.333-3.673-7.317-1.935-8.36m5.428.779c1.056-3.094 4.89 3.24 5.899 5.927.21.56.01 1.822-.696 2.153-.69.324-1.85-.318-2.088-.8-1.17-2.365-3.38-6.504-3.115-7.28m6.916-.809c.449-.102.834.157 1.046.364 1.766 1.709 2.725 3.85 3.012 6.272.046.387-.354 1.006-.717 1.211-.345.193-1.138.174-1.345-.079-1.623-1.98-2.843-4.187-2.934-6.83-.012-.314.533-.846.938-.938"/><path fill="#C1E5DB" d="M299.325 174.964c.368.735.639 1.511.783 2.336 1.214 6.886-6.92 16.251-12.043 18.824-13.325 6.693-76.15 12.635-147.983 13.104-17.8.116-33.264 2.579-35.971-18.165-8.624-3.027-16.658-8.306-16.16-18.735.484-10.125 8.426-13.526 17.193-14.145-4.143-6.658-8.302-13.453-10.755-20.976-2.67-8.188-2.994-17.17-.522-25.207a64.023 64.023 0 0 0-4.438 7.964c-1.67 3.559-2.423 7.348-2.361 11.33.087 5.567 1.418 10.727 4.293 15.478.972 1.606 1.906 3.243 2.74 4.926.253.508.112 1.218.183 2.338-1.107-.684-1.743-1.183-2.456-1.5-5.768-2.574-11.56-3.064-16.862.92-3.883 2.917-6.754 6.804-8.235 11.592a12.646 12.646 0 0 0-.462 2.066c-1.162 8.75 1.42 16.062 8.138 21.78 1.814 1.545 3.608 2.843 6.264 2.271 1.829-.393 3.599.177 5.025 2.037-1.238.305-2.25.497-3.226.805-2.186.69-3.938 2.007-5.134 4.006-2.7 4.508-1.31 9.93 3.308 12.433 3.194 1.731 6.674 2.698 10.238 3.345 5.758 1.046 11.57.953 17.374.82 8.468-.197 16.925-.575 25.405-.223 9.046.377 18.094 1.01 27.166.267 8.676-.712 17.38-1.107 26.055-1.823 8.906-.734 17.8-1.65 26.692-2.555 7.857-.8 15.705-1.666 23.553-2.553 8.886-1.008 17.762-2.128 26.655-3.098a2014.875 2014.875 0 0 1 27.725-2.809c2.038-.195 3.818-.866 5.504-1.989 6.663-4.438 8.237-8.855 6.09-16.635-.865-3.133-2.11-5.887-3.776-8.23M135.312 91.585c.945.423 1.837.899 2.688 1.415-1.341-4.782-2.104-10.955-2.067-17-1.769 3.62-2.707 7.518-2.92 11.612-.103 1.95.385 3.117 2.3 3.973"/><path fill="#000" d="M205.408 78.962c-.704.381-1.169-2.215-1.49-3.013-3.042-7.555-8.83-11.475-16.448-12.976-3.78-.744-7.443-.284-11.008 1.143-.421.17-.847.432-1.276.448-.383.016-.979-.145-1.112-.417-.154-.313-.056-1.038.195-1.23 1.342-1.03 2.672-2.163 4.182-2.864 2.886-1.34 6.047-1.194 9.05-.697 7.209 1.191 12.882 4.994 16.667 11.416.907 1.538 1.299 3.428 1.732 5.207.165.67.2 2.608-.492 2.983m-17.44-5.957c2.973.328 5.909 1.518 7.832 4.424.611.924.946 2.077 1.19 3.173.089.405-.4.993-.75 1.387-.07.076-.9-.257-1.06-.566-1.967-3.783-4.904-6.02-9.297-6.177-.328-.01-.776-.746-.88-1.209-.05-.23.53-.64.873-.902.162-.124.44-.113.668-.125.346-.019.692-.005 1.424-.005"/><path fill="#000" d="M-109.045 91.167c1.432-1.314 3.233-1.42 4.953-.953.768.208 1.594 1.032 1.946 1.786.884 1.903 1.591 3.9 2.229 5.904 1.427 4.485 3.249 8.751 5.872 12.7 4.602 6.931 10.837 11.66 18.796 13.832 4.826 1.318 9.803 2.166 14.761 2.908 11.52 1.725 23.094.823 34.653.416 1.518-.054 3.032-.172 4.55-.23 18.686-.717 37.37-1.448 56.056-2.137 11.68-.431 23.363-.805 35.044-1.186 1.25-.04 2.909-.024 4.087-.004-.049 2.211-.267 4.073-.488 5.896a472.232 472.232 0 0 1-1.508 11.49c-.28 1.93-.484 2.095-2.45 2.31-2.554.279-5.117.494-7.678.696-10.252.808-20.501 1.628-30.756 2.392-6.407.476-12.82.917-19.236 1.278-12.034.679-24.073.412-36.107-.036-18.54-.691-36.655-3.543-54.315-9.607-12.104-4.158-21.798-11.029-28.984-21.562-1.055-1.548-2.089-3.11-3.17-4.638-2.39-3.377-3.294-7.128-3.295-11.254-.002-4.273 2.11-7.314 5.04-10.001zM-98.587 78.9c.997-6.804 4.314-12.36 9.416-16.798 5.374-4.673 14.092-3.588 18.5 2 2.476 3.139 3.238 9.124-1.603 12.391-.97.654-1.952 1.295-2.894 1.987-4.799 3.52-6.498 9.536-4.216 15.004 1.582 3.788 4.058 6.788 7.652 8.875 4.934 2.864 10.294 4.386 15.85 5.372 6.77 1.203 13.514.49 20.271-.12 7.679-.695 15.358-1.43 23.048-1.97a863.212 863.212 0 0 1 23.806-1.308c8.641-.364 17.288-.703 25.936-.796 10.757-.115 21.515.033 32.273.067.234 0 .468-.004.702.003 1.284.035 2.688.111 2.688.111s.18 1.396.302 2.689c.385 4.08.623 8.175.877 12.267.048.791-.114 1.595-.2 2.646-.84.1-1.295.189-1.754.203-9.347.285-18.7.494-28.045.856-13.903.54-27.797 1.221-41.699 1.777-8.995.36-17.996.608-26.994.897-7.478.239-14.957.637-22.435.648-8.678.014-17.236-1.233-25.675-3.284-10.12-2.46-17.201-8.66-21.735-17.89-3.98-8.1-5.383-16.66-4.07-25.627zm191.464 73.35c.718.315 1.357.81 2.471 1.489-.07-1.111.07-1.816-.183-2.32-.84-1.67-1.779-3.295-2.757-4.888-2.893-4.716-4.232-9.837-4.32-15.36-.062-3.954.695-7.714 2.376-11.246 3.625-7.61 8.472-14.357 15.168-19.52 9.048-6.975 18.97-7.932 29.39-3.371 4.217 1.845 7.362 4.88 9.237 9.18 1.437 3.295 1.54 6.571.125 9.88-1.296 3.03-3.97 5.17-8.042 5.235-4.072.065-7.42-3.685-7.237-7.908.033-.79.237-1.571.446-2.892-3.416 2.351-4.293 5.738-2.949 9.226 1.588 4.127 8.635 8.647 14.444 6.096 5.005-2.198 7.893-6.124 8.871-11.424.583-3.152.209-6.237-.934-9.313-2.415-6.51-6.68-11.246-12.98-14.013-1.989-.872-2.496-2.06-2.39-4.049.235-4.408 1.297-8.6 3.345-12.462 4.1-7.736 9.81-13.96 17.699-17.974 7.6-3.869 15.685-5.991 24.17-6.655 4.918-.385 9.844-.505 14.648.718 9.095 2.316 16.933 6.67 22.334 14.67a28.93 28.93 0 0 1 2.251 3.963c1.303 2.805 2.305 5.67.489 8.671-1.496 6.52-1.549 13.002.694 19.373.95 2.694 2.65 4.917 4.727 6.885 3.582 3.393 11.058 2.756 13.709-3.444.156-.364.02-.855.02-1.685-.818.664-1.376 1.056-1.86 1.522-2.457 2.354-7.942 2.031-10.496-1.758-1.615-2.396-2.424-5.094-2.85-7.87-1.887-12.33 7.29-21.401 17.384-21.929 3.947-.206 7.701.482 11.246 2.155 15.301 7.22 25.134 18.753 27.86 35.811.424 2.658.74 5.334 1.072 8.007.442 3.556.012 7.009-1.326 10.344-.216.536-.38 1.095-.544 1.65-.028.088.052.208.165.59.825-.303 1.628-.671 2.47-.884.904-.23 1.841-.334 2.767-.453 4.032-.521 7.336.796 9.958 3.92 6.415 7.643 7.583 18.961 2.655 27.659-.958 1.691-2.47 3.091-3.84 4.517-1.118 1.164-2.408 2.166-3.917 3.501.928.44 1.481.798 2.087.975 8.048 2.36 12.692 7.886 14.91 15.806 2.159 7.72.575 12.104-6.129 16.51-1.695 1.113-3.487 1.78-5.537 1.973a2054.25 2054.25 0 0 0-27.895 2.788c-8.946.962-17.876 2.074-26.816 3.074-7.896.88-15.793 1.74-23.697 2.533-8.947.898-17.894 1.808-26.855 2.536-8.728.71-17.484 1.104-26.214 1.81-9.127.737-18.23.109-27.332-.265-8.532-.35-17.04.026-25.56.22-5.84.133-11.686.225-17.48-.812-3.585-.643-7.086-1.602-10.3-3.32-4.645-2.484-6.044-7.865-3.328-12.34 1.204-1.983 2.966-3.29 5.165-3.975.982-.306 2-.496 3.246-.799-1.435-1.846-3.215-2.411-5.056-2.021-2.672.568-4.476-.721-6.302-2.254-6.758-5.675-9.357-12.93-8.187-21.615.094-.693.255-1.384.464-2.05 1.49-4.752 4.38-8.61 8.285-11.504 5.336-3.955 11.163-3.468 16.965-.914zm-15.457-6.315c2.1-1.168 8.909-1.887 8.909-1.887s.871 1.647 1.064 1.728l-10.032 1.227c0-.297-.028-1.02.059-1.068zm7.671-5.948c.5 1.892.197 2.285-1.706 2.52-1.481.183-3.485.245-5.183.366.17-.71.225-1.284.257-1.807.269-4.29.612-8.576.86-12.868.104-1.817.3-3.744.3-3.744s2.177-.2 4.629.402c0 .426.064.88-.01 1.31-.797 4.677-.355 9.263.853 13.821zm9.76-36.325c-1.09 1.739-2.042 3.067-2.799 4.497-2.078 3.928-4.128 7.874-6.07 11.87-.537 1.1-1.126 1.667-2.362 1.602-1.273-.066-2.55-.015-4.107-.015-.34-3.12-.637-5.999-.972-8.874-.336-2.886-.754-6.122-1.105-8.96 3.061-.229 11.517-.729 17.415-.12zM72.757 210.205c-17.523-.645-35.047-.992-52.58-.515-9.341.253-18.682.55-28.024.734-11.109.219-22.188-.364-33.25-1.38-3.136-.288-6.303-.336-9.456-.338-9.884-.008-19.54-1.609-29.044-4.172-2.574-.696-5.057-1.796-7.516-2.862-5.643-2.445-9.422-6.758-11.997-12.258-.72-1.534-1.054-3.084-.806-4.766.411-2.807 1.708-3.656 4.353-2.77 1.108.37 2.183.831 3.27 1.262 8.816 3.494 17.771 6.566 27.181 7.965 7.74 1.152 15.504 2.178 23.285 2.986 17.94 1.864 35.936 1.69 53.939 1.297 19.513-.426 39.029-.694 58.545-1.028 1.04-.017 2.083-.002 3.452-.002-2.336 8.517-2.331 8.594.958 15.75-.84.037-1.577.123-2.31.097zm-176.914-39.409c-1.332-1.262-2.449-2.855-3.325-4.48-1.725-3.196-1.647-6.534-.02-9.785 1.269-2.54 2.913-3.482 5.714-2.925 1.682.334 3.354 1.017 4.864 1.846 5.335 2.93 10.672 5.813 16.39 7.963 8.151 3.064 16.606 4.828 25.192 5.956 15.074 1.976 30.202 3.433 45.41 3.761a619.19 619.19 0 0 0 43.136-.597c8.174-.393 16.355-.648 24.533-.966.701-.028 1.403-.05 2.103-.097 1.111-.075 1.782.397 1.939 1.527.08.58.136 1.163.222 1.744.888 6.135 3.41 11.406 8.193 15.465.354.3.79.501 1.187.749.724.376 2.537 1.066-.398.84-1.149 0-2.298-.006-3.446.002-12.746.102-25.492.144-38.237.33-9.352.136-18.703.448-28.052.702a360.623 360.623 0 0 1-52.86-2.434c-11.037-1.325-21.986-3.1-32.476-7.017-7.554-2.82-14.23-7.058-20.07-12.584zm-5.365-28.087c-2.323-2.106-3.95-4.611-4.722-7.651-.714-2.82-.521-5.583.733-8.228 1.214-2.563 2.53-3.232 5.363-2.713 1.865.343 3.553.991 4.884 2.497 6.067 6.876 13.894 10.936 22.375 13.94 14.276 5.057 28.887 8.419 44.042 9.521 14.12 1.026 28.244 1.6 42.384 1.108 9.571-.331 19.128-1.11 28.685-1.765 6.529-.446 13.048-1.007 19.568-1.546 4.773-.396 9.542-.844 14.315-1.249.677-.058 1.364-.008 2.443-.008-.465 3.17-1.106 5.676-3.172 7.922-3.137 3.406-5.095 7.547-5.536 12.28-.042.454-.225.895-.398 1.552-.637.117-1.288.318-1.947.346-11.674.5-23.35 1.015-35.026 1.45-6.54.243-13.084.418-19.627.5-15.912.2-31.762-.825-47.58-2.507-8.366-.89-16.728-1.804-24.937-3.708-15.792-3.664-29.797-10.811-41.847-21.741zM68.38 76.524c-1.141.92-2.327 1.465-3.821 1.44-5.374-.096-10.34-1.614-15.012-4.204-.404-.224-.898-.459-1.108-.828-.382-.672-.84-1.462-.799-2.176.061-1.036.974-1.585 1.976-1.646 1.368-.08 2.744-.02 4.117-.02-.003-.23-.006-.458-.011-.688-1.356-1.08-2.794-2.074-4.047-3.264-1.479-1.406-1.978-3.143-1.216-4.022 1.109-1.282 2.628-1.434 4.174-.974 1.433.426 2.832.97 4.59 1.583-.279-1.068-.552-1.906-.707-2.764-.166-.908-.386-1.857-.286-2.755.19-1.744 1.414-2.771 3.139-2.592 2.236.233 4.303.934 5.883 2.726 2.676 3.034 4.613 6.497 5.743 10.352 1.093 3.726.681 7.18-2.615 9.832zm221.83-4.295c-4.238.064-8.364-.768-12.38-2.079-1.416-.461-3.074-.956-2.994-2.924.076-1.918 1.63-2.352 3.143-2.736.1-.025.179-.138.358-.284-.889-.956-1.72-1.638-2.272-2.5-.614-.956-1.233-2.04-1.389-3.135-.39-2.752 1.931-4.749 4.638-4.045.985.255 1.888.876 2.78 1.407.678.404 1.282.932 2.026 1.484.75-1.166.344-2.185.188-3.155-.53-3.3 2.472-5.11 5.14-3.878.941.434 1.865 1.002 2.634 1.69 3.694 3.292 5.513 7.497 5.594 12.412.068 4.141-3.336 7.679-7.467 7.743zm-403.436 47.536c-.11.339-.122.468-.187.558a3.272 3.272 0 0 1-.46.526c-4.937 4.361-6.018 9.81-4.42 15.97 1.137 4.385 3.74 7.756 7.39 10.359 1.114.794 2.218 1.604 3.282 2.374-.2.428-.25.675-.397.824-5.644 5.766-6.435 13.991-1.727 20.467 1.493 2.055 3.51 3.732 5.337 5.532.647.64 1.44 1.134 2.247 1.755-.51.947-.998 1.73-1.37 2.563-1.354 3.013-1.715 6.17-.432 9.227 2.695 6.419 6.616 11.748 13.102 14.978 4.873 2.427 10.05 3.925 15.236 5.149 5.772 1.36 11.746 1.949 17.665 2.546 4.642.468 9.337.39 14.004.64 9.099.487 18.193 1.047 27.29 1.549 3.028.166 6.062.374 9.088.33 4.673-.072 9.348-.278 14.014-.542 13.547-.766 27.1-1.024 40.666-.85 4.79.062 9.586-.159 14.379-.144 5.139.016 10.277.159 15.413.242 2.13.035 4.145.515 6.135 1.293 3.5 1.368 7.15 2.026 10.896 2.472 6.67.793 13.298.245 19.956.058 7.46-.21 14.873-.989 22.397-.487 17.173 1.147 34.342.335 51.471-1.307 9.766-.937 19.542-1.77 29.307-2.7 7.677-.732 15.343-1.55 23.015-2.32 11.28-1.134 22.557-2.273 33.84-3.384 5-.494 10.018-.815 15.005-1.422 3.929-.479 7.917-.934 11.709-2.008 7.525-2.133 11.972-9.21 10.931-17.032-.982-7.387-3.949-13.928-8.943-19.498-.774-.866-1.591-1.693-2.466-2.62.453-.643.828-1.225 1.25-1.772 4.535-5.875 7.228-12.546 8.539-19.81 1.522-8.447 1.978-16.981 2.057-25.548.064-6.815-.417-13.57-1.736-20.27-1.506-7.65-4.163-14.882-7.732-21.776-1.341-2.587-2.076-5.132-1.389-8.065.483-2.074.395-4.236-.416-6.234-1.052-2.6-2.054-5.262-3.48-7.656-1.874-3.149-4.29-5.83-8.083-6.872-2.812-.774-5.066-.036-6.912 2.11-.584.678-1.015 1.485-1.486 2.19-1.013-.196-1.807-.44-2.61-.49-4.42-.272-7.438 2.643-7.21 7.039.06 1.145.372 2.31.762 3.396.355.99.273 1.664-.4 2.537-2.158 2.8-1.931 5.219.507 7.775 1.592 1.67 3.596 2.628 5.759 3.198 5.226 1.378 10.533 2.117 15.95 1.49 2.923-.339 2.64.03 3.752 2.061 5.574 10.168 8.038 21.194 8.836 32.64.618 8.905.306 17.809-.635 26.684-.192 1.802-.423 3.613-1.183 6.141-.367-1.175-.522-1.557-.604-1.955-.516-2.523-.762-5.134-1.57-7.559-2.227-6.701-6.55-11.247-13.775-12.494l-2.083-.363c-.112-.608-.237-1.047-.267-1.492-.201-3.037-.297-6.082-.581-9.11-1.292-13.693-7.142-25.112-17.33-34.27-5.624-5.057-11.883-9.148-19.24-11.207-8.282-2.317-15.97-1.145-22.772 4.42-.448.366-.917.707-1.368 1.054-1.468-2.613-2.663-5.31-4.351-7.648-8.876-12.282-20.988-18.38-36.086-17.99-9.393.244-18.55 2.164-27.354 5.586-8.837 3.436-16.187 8.784-21.666 16.63-3.991 5.716-6.237 12.012-6.624 18.979-.039.673-.15 1.344-.262 2.317-2.583 0-5.012-.022-7.442.005-3.79.04-7.382.847-10.82 2.53-3.714 1.815-7.143 3.997-10.077 6.914-.882.877-1.806 1.272-3.096 1.253-5.846-.086-11.69-.047-17.535-.075-.913-.004-1.827-.118-2.781-.185-.205-.56-.405-.977-.507-1.416-1.305-5.58-2.58-11.164-3.903-16.74-.245-1.033.129-1.792.678-2.597 1.797-2.635 2.327-5.587 2.024-8.717-.45-4.65-2.134-8.865-4.658-12.741-1.62-2.49-3.76-4.462-6.418-5.85-2.157-1.123-4.436-1.421-6.808-1.153-2.173.246-3.727 1.266-4.243 3.545-.172.761-.44 1.5-.645 2.187-7.529-.103-10.505 4.467-5.714 11.252-3.64 3.642-3.552 6.397.25 10.066 2.264 2.186 4.943 3.62 8.02 4.025 3.463.454 6.972.58 10.461.845.796.06 1.594.105 2.396.158 2.205 5.48 3.53 11.036 4.337 17.223-1.318.103-2.344.249-3.372.25-3.858.007-7.716-.057-11.575-.05-8.886.015-17.774-.074-26.655.126-7.476.17-14.942.705-22.415 1.044-6.888.312-13.817.22-20.66.955-8.604.924-17.235 1.282-25.846 1.975-5.254.423-10.487.744-15.735-.042-5.243-.784-10.287-2.137-14.917-4.824-2.182-1.268-3.874-2.961-5.058-5.213-2.512-4.773-1.575-8.826 2.826-11.942 1.05-.743 2.127-1.454 3.125-2.26 5.228-4.224 5.429-11.487 2.265-16.187-5.093-7.568-16.7-11.385-25.558-4.11-7.482 6.143-11.694 14.2-11.797 24.125-.009.784-.105 1.566-.171 2.51-1.14.058-2.053.105-2.966.15-1.809.09-3.46.681-4.853 1.81-4.576 3.71-7.484 8.313-7.512 14.426-.025 5.431 1.844 10.324 4.19 15.083.507 1.032 1.107 2.018 1.585 2.88z"/><path fill="#000" d="M181.397 172.85c.77-.488 1.59-.93 2.445-1.239 7.903-2.857 15.704-2.635 23.36.917.703.326 1.313.86 2.43 1.606-6.838 5.383-13.817 7.668-21.88 5.359-2.584-.74-4.804-2.15-6.622-4.151-.997-1.097-.936-1.73.267-2.492zm2.923-15.611a55.887 55.887 0 0 1 4.79-.566c5.721-.422 11.443-.514 17.866-.043-.65 1.109-.848 1.85-1.325 2.175-1.034.7-2.157 1.353-3.336 1.73-5.038 1.613-10.165 1.81-15.283.46-1.165-.307-2.294-1.014-3.253-1.775-.944-.75-.619-1.793.541-1.981zm-6.96 20.682c4.519 5.715 10.619 7.034 17.307 7.078 7.067.05 12.563-3.055 17.45-8.517.96 1.13 3.825 3.645 4.883 4.06-1.307-3.096-2.416-5.6-3.423-8.143-1.025-2.597-1.532-5.291-1.446-8.116.088-2.889.13-5.743 1.047-8.547.834-2.546 1.528-4.55 3.553-7.736-2.237 1.204-3.53 2.671-4.757 4.155-.922 1.12-1.888 1.437-3.298 1.154-9.367-1.878-18.694-1.611-27.975.654-1.077.263-2.199.341-3.279.503-.669-1.336-1.187-2.49-1.813-3.582a12.263 12.263 0 0 0-1.61-2.225c-.248-.272-.881-.45-1.19-.318-.253.108-.444.774-.375 1.136.128.668.48 1.29.718 1.94 3.487 9.57 3.473 18.961-1.403 28.113-.532.997-.984 2.037-1.749 3.632 3.792-.59 4.941-3.707 7.36-5.241zm-17.418-14.812c-.962-5.788-5.21-9.88-10.203-11.858l.02-.058c.27-.823.544-1.641.71-2.489.114-.246.175-.513.156-.819-.004-.08-.03-.153-.043-.229a1.785 1.785 0 0 0-.53-1.104 1.91 1.91 0 0 0-1.333-.552l-.184.012-.117.013c-.25.03-.501.093-.75.232a1.802 1.802 0 0 0-.826 1.002c-.08.194-.133.403-.147.626-.008.143.002.276.025.403-.109.622-.326 1.28-.496 1.941-2.095-.397-4.217-.435-6.198-.082-.306-.795-.64-1.576-.91-2.383-.68-2.05-3.842-1.675-3.9.507l-.005.193c-.015.545.182.964.487 1.267.236.531.475 1.06.713 1.593-1.778.866-3.403 2.115-4.755 3.608-.072-.053-.134-.097-.214-.16-.698-.555-1.404-1.102-2.098-1.66-.82-.66-1.971-.773-2.777 0-.976.936-.593 2.238.397 2.959.845.615 1.703 1.214 2.552 1.825-1.147 2.046-1.812 4.301-1.778 6.533.017 1.107.432 2.234.821 3.298.153.42.737.696 1.395 1.273.311-1.035.577-1.66.681-2.307.456-2.856 2-5.177 3.972-7.228 2.082-2.165 4.58-3.66 7.766-3.937 6.098-.53 11.912 2.955 14.152 8.586.456 1.147.824 2.326 1.351 3.83.74-.639 1.511-.987 1.669-1.507.32-1.062.574-2.258.397-3.328m97.893-11.023c.134-.157.266-.319.39-.483l.066-.12c.689-.474.923-1.409.49-2.136-.42-.705-1.518-1.094-2.246-.58-.72.51-1.078 1.218-1.551 1.93a13.24 13.24 0 0 0-4.324-2.92c-.362-.153-.72-.278-1.077-.402.237-.68.342-1.428.459-2.156.15-.941-.23-1.878-1.244-2.152-1.192-.323-2.15.57-2.253 1.687-.06.66-.192 1.262-.293 1.889a12.022 12.022 0 0 0-5.986.972c-.278-.743-.562-1.484-.781-2.247-.32-1.12-1.667-1.67-2.696-1.078-.82.472-1.195 1.697-.669 2.502.254.699.543 1.384.84 2.067.081.188.156.386.233.585-.396.3-.788.613-1.174.955-4.396 3.907-5.81 8.78-4.61 14.43.068.318.282.658.532.87.227.193.592.29.9.3.159.006.425-.244.473-.424.212-.775.333-1.574.536-2.352.928-3.559 2.718-6.632 5.553-9.043 3.004-2.555 7.066-2.835 10.476-.831 2.09 1.227 3.574 2.99 4.512 5.165.725 1.684 1.301 3.43 2.024 5.365 1.447-.608 1.674-1.606 1.842-2.65.455-2.864-.048-5.613-1.342-7.947.16-.213.314-.429.472-.642.14-.19.297-.372.448-.554M93.007 206.999c-2.924.062-6.458-2.435-6.918-4.653-.268-1.287.064-2.461 1.07-3.454.575-.564 1.29-.958 2.18-.883.365.031.78.226 1.022.463.116.114-.067.522-.202.758-.184.32-.505.583-.675.906-.716 1.361-.518 2.575.774 3.554.799.605 1.798 1.012 2.732 1.472.523.258 1.183.52.968 1.09-.142.373-.766.61-.95.747M86 185.464c-1.593.887-2.643.499-3.689.075-5.068-2.06-8.182-7.96-7.095-13.408.53-2.652 2.001-4.557 4.3-5.822.762-.42 1.516-.506 2.057.344.451.707.188 1.426-.424 1.782-1.907 1.108-2.96 2.68-3.088 4.962-.154 2.761.476 5.277 2.24 7.36.94 1.108 2.14 1.99 3.257 2.93.663.556 1.398 1.022 2.442 1.777"/></g></svg>