<svg xmlns="http://www.w3.org/2000/svg" width="335" height="354" viewBox="0 0 335 354"><g fill="none" fill-rule="evenodd" opacity=".518" transform="translate(-63 -2)"><path fill="#F8AF0A" d="M368 8h7.667l3.833-8 3.833 8H391l-5.75 6 1.917 8-7.667-4-7.667 4 1.917-8zM101 9h7.667l3.833-8 3.833 8H124l-5.75 6 1.917 8-7.667-4-7.667 4 1.917-8zm210 333h7.667l3.833-8 3.833 8H334l-5.75 6 1.917 8-7.667-4-7.667 4 1.917-8z"/><path stroke="#F8AF0A" stroke-width="2" d="M74 326l9 19H65zM231 85l9 19h-18z"/><ellipse cx="215" cy="21.5" stroke="#F8AF0A" stroke-width="2" rx="9" ry="9.5"/><path fill="#F8AF0A" fill-rule="nonzero" d="M344.011 103.143c0 3.787 3.044 6.857 6.798 6.857s6.798-3.07 6.798-6.857V84.857h15.861v11.429a6.75 6.75 0 0 0-6.356.975 6.88 6.88 0 0 0-2.707 5.882c0 3.787 3.043 6.857 6.797 6.857 3.755 0 6.798-3.07 6.798-6.857V78h-24.925v18.286a6.75 6.75 0 0 0-6.356.975 6.88 6.88 0 0 0-2.708 5.882m53.941 196.208c-.331-2.512-2.391-4.937-5.067-5.303-1.384-.19-2.545.225-3.174.512v20.88c-1.01-.502-2.25-.802-3.594-.802-3.378 0-6.117 1.872-6.117 4.18 0 2.31 2.738 4.182 6.117 4.182 3.378 0 6.117-1.872 6.117-4.181v-18.236c.351-.345.658-.443.886-.462 1.126-.094 2.448 1.555 3.222 4.159.35-.403 1.953-2.332 1.61-4.929zm-261-220c-.331-2.512-2.391-4.937-5.067-5.303-1.384-.19-2.545.225-3.174.512v20.88c-1.01-.502-2.25-.802-3.594-.802-3.378 0-6.117 1.872-6.117 4.18 0 2.31 2.738 4.182 6.117 4.182 3.378 0 6.117-1.872 6.117-4.181V80.583c.351-.345.658-.443.886-.462 1.126-.094 2.448 1.555 3.222 4.159.35-.403 1.953-2.332 1.61-4.929z"/><path fill="#F8AF0A" d="M185.939 321.643c-.424-3.119-3.056-6.13-6.475-6.584-1.769-.235-3.251.28-4.056.637v25.92c-1.29-.624-2.874-.997-4.592-.997-4.316 0-7.816 2.324-7.816 5.19 0 2.867 3.5 5.191 7.816 5.191 4.317 0 7.816-2.324 7.816-5.19v-22.638c.449-.428.842-.55 1.132-.573 1.439-.118 3.128 1.93 4.117 5.162.447-.5 2.496-2.895 2.058-6.118zm112-46c-.424-3.119-3.056-6.13-6.475-6.584-1.769-.235-3.251.28-4.056.637v25.92c-1.29-.624-2.874-.997-4.592-.997-4.316 0-7.816 2.324-7.816 5.19 0 2.867 3.5 5.191 7.816 5.191 4.317 0 7.816-2.324 7.816-5.19v-22.638c.449-.428.842-.55 1.132-.573 1.439-.118 3.128 1.93 4.117 5.162.447-.5 2.496-2.895 2.058-6.118z"/><circle cx="283.5" cy="41.5" r="4.5" fill="#F8AF0A"/><circle cx="118.5" cy="283.5" r="4.5" fill="#F8AF0A"/><circle cx="238.5" cy="319.5" r="4.5" fill="#F8AF0A"/></g></svg>